<svg width="34" height="38" viewBox="0 0 34 38" fill="none" xmlns="http://www.w3.org/2000/svg">
<path d="M9.08023 17.7606C9.08023 17.6606 9.18024 17.4606 9.18024 17.3606L10.2802 17.4606C10.1802 17.5606 10.1802 17.7606 10.1802 17.8606L9.08023 17.7606ZM19.1802 28.9606L19.5802 27.1606L13.0802 23.4606C13.1802 23.3606 13.2802 22.7606 13.4802 21.7606C13.5802 21.0606 13.8802 20.5606 13.9802 20.1606H14.3802C14.2802 20.4606 14.1802 20.8606 13.9802 21.2606C13.7802 22.2606 13.5802 22.7606 13.5802 22.9606L20.0802 26.6606L19.4802 29.0606C19.4802 29.1606 19.3802 29.0606 19.1802 28.9606ZM15.9802 20.0606L16.2802 18.9606L14.5802 18.6606C14.6802 18.0606 14.9802 17.1606 15.1802 16.0606C15.3802 15.1606 15.5802 14.5606 15.6802 14.0606C15.7802 13.8606 15.7802 13.6606 15.7802 13.4606C14.2802 12.5606 13.0802 11.8606 12.2802 11.3606C12.3802 11.1606 12.3802 10.9606 12.3802 10.7606C13.2802 11.2606 14.5802 12.0606 16.2802 13.0606C16.1802 13.1606 16.1802 13.4606 16.1802 13.6606C16.0802 14.1606 15.8802 14.7606 15.6802 15.6606C15.3802 16.7606 15.1802 17.5606 15.0802 18.2606L16.7802 18.5606L16.3802 20.2606C16.1802 20.0606 16.0802 20.0606 15.9802 20.0606Z" fill="#2F67B2"/>
<path d="M5.58024 3.76058C8.58024 2.26058 11.8802 2.36058 15.6802 4.16058C19.5802 6.06058 22.8802 9.16058 25.3802 13.5606C27.8802 17.9606 28.9802 22.3606 28.6802 26.7606C28.3802 30.8606 26.7802 33.8606 24.0802 35.6606C23.8802 35.7606 23.7802 35.7606 23.5802 35.8606C20.5802 37.5606 17.0802 37.5606 13.0802 35.6606C9.08024 33.7606 5.88022 30.6606 3.28022 26.2606C0.780221 21.8606 -0.31976 17.4606 0.0802395 13.0606C0.38024 8.66058 2.08025 5.66058 5.18025 3.96058C5.28025 3.96058 5.38024 3.86058 5.58024 3.76058Z" fill="url(#paint0_linear_5_384)"/>
<path d="M23.9802 35.6606C26.7802 33.8606 28.2802 30.8606 28.5802 26.7606C28.9802 22.3606 27.8802 17.9606 25.2802 13.5606C22.7802 9.16057 19.4802 6.06056 15.5802 4.16056C11.7802 2.36056 8.48022 2.26056 5.48022 3.76056L9.68024 1.46057C9.78024 1.36057 9.98023 1.26056 10.0802 1.26056C10.1802 1.16056 10.2802 1.06057 10.4802 1.06057L10.5802 0.960568C13.4802 -0.439432 16.7802 -0.339432 20.4802 1.46057C24.4802 3.36057 27.6802 6.46057 30.1802 10.8606C32.7802 15.2606 33.8802 19.6606 33.5802 24.0606C33.2802 28.1606 31.6802 31.0606 28.9802 32.8606C28.7802 32.9606 28.6802 33.0606 28.4802 33.1606C28.3802 33.2606 28.1802 33.2606 28.0802 33.3606L23.9802 35.6606Z" fill="url(#paint1_linear_5_384)"/>
<path d="M12.2802 11.2606C13.1802 11.7606 14.2802 12.4606 15.7802 13.3606C15.6802 13.4606 15.6802 13.7606 15.6802 13.9606C15.5802 14.4606 15.3802 15.0606 15.1802 15.9606C14.8802 17.0606 14.6802 17.8606 14.5802 18.5606L16.2802 18.8606L15.9802 19.9606L15.8802 20.3606C15.4802 20.2606 15.2802 20.2606 14.9802 20.2606C14.8802 20.2606 14.5802 20.1606 14.4802 20.1606H14.0802C13.8802 20.5606 13.6802 21.0606 13.5802 21.7606C13.3802 22.7606 13.1802 23.2606 13.1802 23.4606L19.6802 27.1606L19.2802 28.9606L19.1802 29.5606C14.6802 26.8606 11.1802 24.9606 8.88022 23.6606C8.78022 23.6606 8.78021 23.5606 8.78021 23.5606C8.88021 23.0606 9.08021 22.3606 9.28021 21.4606C9.38021 20.8606 9.58024 20.3606 9.68024 20.0606C9.78024 19.7606 9.78021 19.5606 9.78021 19.4606C9.68021 19.4606 9.18022 19.3606 8.38022 19.2606H8.28021C8.28021 19.1606 8.38024 18.6606 8.68024 17.5606L9.08023 17.6606L10.1802 17.7606C10.2802 17.6606 10.2802 17.4606 10.2802 17.3606C10.9802 14.4606 11.5802 12.3606 11.9802 10.9606C12.0802 11.1606 12.1802 11.1606 12.2802 11.2606Z" fill="#C3E7EF"/>
<defs>
<linearGradient id="paint0_linear_5_384" x1="20.5879" y1="6.7688" x2="8.08921" y2="33.1523" gradientUnits="userSpaceOnUse">
<stop stop-color="#3F00FC"/>
<stop offset="1" stop-color="#7F00FF"/>
</linearGradient>
<linearGradient id="paint1_linear_5_384" x1="12.8018" y1="-1.47145" x2="30.9961" y2="30.2941" gradientUnits="userSpaceOnUse">
<stop stop-color="#1500FC"/>
<stop offset="1" stop-color="#A400FF"/>
</linearGradient>
</defs>
</svg>
