<svg width="31" height="34" viewBox="0 0 31 34" fill="none" xmlns="http://www.w3.org/2000/svg">
<path d="M5.05586 3.46201C7.75586 2.06201 10.7559 2.26201 14.1559 3.86201C17.6559 5.56201 20.5559 8.36201 22.8559 12.362C25.1559 16.362 26.1559 20.262 25.7559 24.162C25.4559 27.862 24.0559 30.562 21.5559 32.162C21.4559 32.162 21.2559 32.262 21.1559 32.362C18.4559 33.962 15.3559 33.862 11.7559 32.162C8.25588 30.462 5.25587 27.662 2.95587 23.762C0.655874 19.762 -0.244135 15.862 0.055865 11.962C0.355865 8.06201 1.85586 5.36201 4.55586 3.76201C4.75586 3.66201 4.85586 3.56201 5.05586 3.46201Z" fill="url(#paint0_linear_5_378)"/>
<path d="M21.5559 32.162C24.0559 30.462 25.4559 27.862 25.7559 24.162C26.0559 20.262 25.0559 16.262 22.8559 12.362C20.5559 8.46203 17.6559 5.56203 14.1559 3.86203C10.7559 2.26203 7.75591 2.16202 5.05591 3.46202L8.75592 1.36203C8.85592 1.26203 8.95591 1.16202 9.15591 1.16202C9.25591 1.06202 9.35592 0.962024 9.45592 0.962024L9.55591 0.862026C12.1559 -0.437974 15.1559 -0.237981 18.4559 1.26202C22.0559 2.96202 24.9559 5.76202 27.1559 9.76202C29.4559 13.762 30.4559 17.662 30.1559 21.562C29.8559 25.262 28.4559 27.862 26.0559 29.462C25.9559 29.562 25.7559 29.662 25.6559 29.762C25.5559 29.762 25.4559 29.862 25.2559 29.962L21.5559 32.162Z" fill="url(#paint1_linear_5_378)"/>
<path d="M8.8559 15.262C9.8559 15.162 11.3559 15.062 13.1559 15.062L17.3559 20.162L17.8559 20.762C17.3559 20.862 16.4559 20.762 15.5559 20.662C14.2559 20.462 13.4559 20.462 13.1559 20.462C10.0559 17.062 8.3559 15.362 8.3559 15.362C8.4559 15.262 8.6559 15.262 8.8559 15.262ZM8.9559 13.462L10.7559 11.662C11.2559 11.162 12.0559 10.262 13.1559 9.16202C15.0559 13.262 16.4559 16.262 17.2559 18.162C17.4559 18.662 17.7559 19.162 17.8559 19.562C16.7559 18.262 15.1559 16.362 13.0559 13.662C10.9559 13.862 9.3559 14.062 8.3559 14.062C8.5559 13.862 8.6559 13.662 8.9559 13.462ZM17.4559 21.962C17.6559 21.962 17.7559 22.062 17.9559 22.062C17.3559 22.862 16.5559 23.762 15.5559 24.862C14.0559 26.562 13.2559 27.462 13.1559 27.662C12.9559 27.362 12.2559 25.562 10.7559 22.162C9.75591 19.962 8.9559 18.062 8.3559 16.662L8.8559 17.162C9.3559 17.662 9.95591 18.262 10.7559 19.262C11.7559 20.362 12.5559 21.162 13.1559 21.762C13.6559 21.862 14.5559 21.962 15.5559 21.962C16.2559 21.862 16.9559 21.862 17.4559 21.962Z" fill="#C3E7EF"/>
<path d="M17.4559 21.962C16.9559 21.862 16.3559 21.862 15.5559 21.762C14.5559 21.662 13.7559 21.562 13.1559 21.562C12.5559 20.962 11.7559 20.062 10.7559 19.062C9.95591 18.162 9.2559 17.462 8.8559 16.962C8.6559 16.562 8.5559 16.162 8.3559 15.862C8.7559 16.262 9.55591 17.162 10.7559 18.362C11.7559 19.462 12.5559 20.262 13.1559 20.862C13.6559 20.962 14.5559 21.062 15.5559 21.062C16.6559 21.162 17.4559 21.262 17.9559 21.262C17.7559 21.562 17.5559 21.762 17.4559 21.962ZM8.8559 15.262C8.5559 14.862 8.3559 14.762 8.3559 14.762C9.4559 14.662 11.0559 14.562 13.1559 14.462L17.8559 20.162H17.3559L13.1559 15.062C11.2559 15.062 9.8559 15.162 8.8559 15.262ZM8.9559 13.462H8.3559C8.9559 12.762 9.85591 11.962 10.7559 10.962C11.2559 10.462 12.0559 9.56201 13.1559 8.46201C15.6559 13.662 17.1559 17.162 17.9559 18.762C17.7559 18.562 17.5559 18.262 17.3559 17.962C16.5559 16.062 15.0559 13.062 13.2559 8.96201C12.1559 10.062 11.4559 10.862 10.8559 11.462C10.0559 12.262 9.4559 12.862 8.9559 13.462Z" fill="#2F67B2"/>
<defs>
<linearGradient id="paint0_linear_5_378" x1="18.5154" y1="6.20139" x2="7.29864" y2="29.879" gradientUnits="userSpaceOnUse">
<stop stop-color="#3F00FC"/>
<stop offset="1" stop-color="#7F00FF"/>
</linearGradient>
<linearGradient id="paint1_linear_5_378" x1="11.6173" y1="-1.22882" x2="27.9447" y2="27.2779" gradientUnits="userSpaceOnUse">
<stop stop-color="#1500FC"/>
<stop offset="1" stop-color="#A400FF"/>
</linearGradient>
</defs>
</svg>
