<?xml version="1.0" encoding="UTF-8"?>
<svg id="Calque_1" data-name="Calque 1" xmlns="http://www.w3.org/2000/svg" viewBox="0 0 798 454">
  <defs>
    <style>
      .cls-1 {
        fill: #724d29;
      }

      .cls-2 {
        fill: #dfa940;
      }

      .cls-3 {
        fill: #444;
      }

      .cls-4 {
        fill: #956c22;
      }

      .cls-5 {
        fill: #e0aa3e;
      }
    </style>
  </defs>
  <rect class="cls-3" x="22" y="167.77" width="153.8" height="118.47" rx="12.94" ry="12.94"/>
  <g>
    <path class="cls-4" d="M75.25,263.08c-4.96-7.26-2.77-17.59,4.81-23.03,1.15-.83,2.42-1.53,3.72-2.11,9.09-4.11,14.14-13.84,12.13-23.48-1.99-9.58-10.41-16.54-20.25-16.75-10.01-.21-18.32,6.58-20.94,17.12-1.61,6.44-1.17,12.61,1.18,19.56-.6-.84-1.25-1.65-1.8-2.52-7.43-12.02-3.43-27.8,8.83-34.86,12.22-7.03,27.91-2.49,34.56,9.98,1.62,3.04,2.58,6.24,3.35,9.61,.63,2.73,2.58,5.15,3.99,7.69,.36,.65,.9,1.19,1.33,1.8,.68,.96,.62,1.85-.3,2.64-.61,.53-1.3,.99-1.83,1.59-.34,.38-.77,1.2-.61,1.4,1.44,1.86,.07,2.8-1.26,3.83,1.02,1.21,1.52,2.27,.34,3.78-.5,.64-.19,2.16,.12,3.17,.94,3.04,.07,4.38-3.11,4.51-3.35,.13-6.76-.08-10.04,.47-7.72,1.29-12.38,6.19-13.84,13.94-.1,.53-.24,1.05-.38,1.66Z"/>
    <g>
      <path class="cls-5" d="M94.64,267.67c-.33-.45-.66-.9-1.29-1.74,2.82,1.9,5.01,1.23,7.14-.45,1.76-1.39,3.59-2.71,5.45-3.96,2.17-1.47,3.2-3.35,2.42-6.1,.33,.14,.53,.23,.74,.31,.98,2.57,.47,4.76-1.66,6.4-2.32,1.78-4.66,3.54-7.09,5.16-1.76,1.17-3.73,1.33-5.71,.38Z"/>
      <path class="cls-5" d="M109.35,197.59l-.6,.96c.63-3.35-1.42-5.08-3.79-6.67-1.66-1.11-3.27-2.32-4.87-3.53-2.03-1.54-4.11-1.92-6.45-.55,.3-.37,.61-.75,.91-1.12,2.19-1.18,4.27-1.1,6.3,.44,2.1,1.59,4.26,3.11,6.39,4.67,1.98,1.46,2.68,3.4,2.11,5.79Z"/>
      <path class="cls-5" d="M43.82,256.53c.16-.32,.31-.63,.47-.95-.51,3.12,1.17,4.92,3.49,6.44,1.59,1.04,3.14,2.17,4.63,3.36,2.15,1.71,4.37,2.52,7.26,.58-.62,.83-.95,1.28-1.28,1.72-2.4,1.04-4.52,.66-6.56-1-1.9-1.54-3.94-2.91-5.92-4.36-1.99-1.46-2.74-3.37-2.08-5.79Z"/>
      <path class="cls-5" d="M121.61,221.15c-.77,.63-1.54,1.27-2.31,1.9-.11-.06-.23-.12-.34-.18,2.84-2.16,2.23-4.77,1.25-7.47-.6-1.65-1.16-3.33-1.62-5.03-.72-2.64-1.97-4.68-5.11-4.87,.07-.16,.13-.32,.2-.48,1.33,.31,2.66,.62,3.99,.93,2.47,2.11,2.64,5.24,3.6,8.03,.05,.38,.01,.81,.16,1.14,.91,2.02,.96,4.04,.12,6.09l.05-.06Z"/>
      <path class="cls-5" d="M58.54,186.68c.29,.37,.58,.74,.87,1.1-2.73-1.66-4.99-.64-7.2,1.11-1.69,1.34-3.45,2.58-5.23,3.8-2.12,1.47-3.07,3.35-2.28,6.01-.25-.11-.42-.19-.59-.27-1.03-3.65-.53-4.95,2.58-7.18,1.9-1.36,3.73-2.82,5.59-4.23,2.06-1.08,4.16-1.21,6.31-.29l-.05-.05Z"/>
      <path class="cls-5" d="M117.65,247.99c-1.3,.4-2.61,.81-3.91,1.21-.09-.19-.19-.38-.28-.57,3.44-.21,4.52-2.59,5.28-5.34,.53-1.93,1.21-3.81,1.85-5.71,.82-2.42,.67-4.6-1.35-6.51,.79,.63,1.58,1.26,2.37,1.9l-.05-.06c.85,2.02,.75,4.01-.09,6.01-.16,.38-.13,.84-.19,1.26-.62,1.85-1.15,3.74-1.9,5.54-.35,.85-1.14,1.52-1.72,2.27Z"/>
      <path class="cls-5" d="M35.39,206.14c1.3-.41,2.61-.81,3.91-1.22,.1,.19,.2,.38,.29,.57-3.47,.19-4.52,2.59-5.29,5.34-.53,1.93-1.24,3.81-1.85,5.71-.91,2.83-.57,4.22,1.35,6.51-.79-.64-1.58-1.27-2.37-1.91l.05,.06c-.92-2.02-.72-4.01,.09-6.01,.15-.39,.13-.84,.19-1.26,.65-1.83,1.21-3.7,1.97-5.49,.36-.85,1.09-1.54,1.65-2.31Z"/>
      <path class="cls-5" d="M31.43,232.98c.79-.64,1.58-1.27,2.38-1.91-2.02,1.93-2.18,4.1-1.35,6.54,.69,2.04,1.4,4.08,1.99,6.15,.75,2.61,1.92,4.75,5.16,4.83-.08,.17-.16,.34-.24,.51-1.34-.31-2.67-.62-4.01-.92-.73-1.3-1.59-2.56-2.17-3.93-.57-1.34-.86-2.8-1.28-4.21-.78-2.33-1.65-4.66-.43-7.12l-.05,.06Z"/>
      <path class="cls-5" d="M43.83,200.18c1.39-1.59,2.78-3.17,4.22-4.81,.12,2.41-7.98,13.61-10.54,14.47,1.21-1.97,2.33-3.8,3.45-5.63,.96-1.34,1.91-2.69,2.87-4.03Z"/>
      <path class="cls-5" d="M112.12,204.3c.87,1.39,1.73,2.78,2.61,4.16,.25,.39,.53,.76,.9,1.28-2.29-.37-10.37-11.26-10.81-14.66,1.54,1.86,2.83,3.41,4.12,4.97,1.06,1.42,2.12,2.83,3.18,4.25Z"/>
      <path class="cls-5" d="M109.17,253.73c-1.36,1.68-2.72,3.36-4.23,5.22,.03-2.67,7.73-13.39,10.66-14.85-1.29,2.13-2.41,3.97-3.53,5.82-.97,1.27-1.94,2.54-2.91,3.81Z"/>
      <path class="cls-5" d="M41.03,249.82c-1.15-1.78-2.31-3.55-3.5-5.4,2.23,.3,10.63,11.76,10.54,14.48-1.48-1.82-2.84-3.5-4.2-5.18-.95-1.3-1.89-2.6-2.84-3.9Z"/>
      <path class="cls-5" d="M103.16,256.17c-2.52,1.84-5.03,3.67-7.55,5.51-.46,.31-.92,.63-1.42,.96-.51-2.2,.77-2.29,7.93-7.61,1.04-.77,1.58-.74,2.64-.16-.53,.44-1.07,.87-1.61,1.31Z"/>
      <path class="cls-5" d="M95.44,192.44c2.61,1.91,5.22,3.82,7.83,5.74,.5,.34,.99,.68,1.68,1.15-.98,.57-1.84,.46-2.61-.09-2.47-1.75-4.95-3.5-7.33-5.37-.58-.46-.79-1.39-1.17-2.11,.14-.09,.28-.18,.42-.27,.39,.32,.79,.63,1.18,.95Z"/>
      <path class="cls-5" d="M57.35,261.57c-2.48-1.85-4.97-3.71-7.45-5.56-.56-.36-1.11-.72-1.67-1.08,.03-.15,.05-.3,.08-.45,.74,.1,1.64-.04,2.2,.33,2.6,1.75,5.14,3.59,7.61,5.52,.55,.43,.72,1.34,1.07,2.03-.12,.08-.25,.15-.37,.23-.49-.34-.98-.68-1.47-1.02Z"/>
      <path class="cls-5" d="M49.77,198.18c2.61-1.92,5.23-3.84,7.84-5.76,.37-.29,.73-.58,1.1-.87,.35,1.05,.27,1.64-.66,2.33-2.41,1.82-4.84,3.62-7.35,5.31-.62,.42-1.55,.38-2.34,.54-.05-.17-.1-.33-.15-.5,.52-.35,1.03-.7,1.55-1.05Z"/>
      <path class="cls-5" d="M115.22,234.54c-1.05,3.18-2.1,6.36-3.13,9.54-.14,.42-.17,.88-.28,1.48-1.76-2.05,1.55-12.18,3.98-12.66-.21,.59-.41,1.14-.6,1.68,0,0,.03-.05,.03-.05Z"/>
      <path class="cls-5" d="M115.19,219.54c.19,.51,.38,1.03,.67,1.81-1.13-.16-1.79-.73-2.09-1.61-.98-2.87-1.96-5.74-2.78-8.65-.2-.72,.17-1.59,.28-2.4,.14,.02,.27,.04,.41,.05,.56,1.93,1.06,3.88,1.68,5.79,.55,1.7,1.23,3.36,1.86,5.05,0,0-.03-.04-.03-.04Z"/>
      <path class="cls-5" d="M37.85,219.54c.66-1.82,1.36-3.62,1.97-5.46,.58-1.74,1.07-3.51,1.61-5.31,.89,.6,.9,1.57,.62,2.49-.85,2.8-1.73,5.6-2.75,8.35-.27,.72-1.05,1.25-1.59,1.87-.13-.09-.27-.19-.4-.28,.2-.57,.39-1.15,.58-1.72,0,0-.04,.05-.04,.05Z"/>
      <path class="cls-5" d="M37.88,234.62c-.2-.55-.41-1.09-.67-1.79,1.28,.14,1.86,.87,2.17,1.82,.9,2.68,1.84,5.36,2.6,8.09,.23,.81-.08,1.77-.48,2.59-.99-3.11-1.97-6.22-2.98-9.32-.16-.49-.45-.95-.68-1.42,0,0,.04,.04,.04,.04Z"/>
      <path class="cls-2" d="M92.29,187.67c.37-.07,.77-.06,1.1-.21,.42-.19,.78-.5,1.16-.76-.3,.37-.61,.75-.91,1.12,2.34-1.37,4.42-.99,6.45,.55,1.6,1.21,3.2,2.41,4.87,3.53,2.37,1.59,4.42,3.31,3.79,6.67l.6-.96c-.13,.82-.27,1.64-.4,2.46-1.29-1.55-2.58-3.11-4.12-4.97,.44,3.4,8.53,14.28,10.81,14.66-.37-.52-.66-.89-.9-1.28-.88-1.38-1.74-2.77-2.61-4.16,.63,.19,1.27,.38,1.9,.57,1.22,.36,2.43,.72,3.65,1.07-1.33-.31-2.66-.62-3.99-.93-.07,.16-.13,.32-.2,.48,3.14,.18,4.39,2.23,5.11,4.87,.46,1.7,1.02,3.37,1.62,5.03,.98,2.7,1.59,5.31-1.25,7.47,.11,.06,.23,.12,.34,.18,.77-.63,1.54-1.27,2.31-1.9-.58,.62-1.06,1.42-1.77,1.8-.84,.46-1.07,.98-1.01,1.85,.06,.82,0,1.66,.01,2.49,.01,1.79-.47,3.76,1.96,4.56,.35,.11,.54,.75,.8,1.14-.79-.63-1.58-1.26-2.37-1.9,2.02,1.91,2.17,4.09,1.35,6.51-.64,1.89-1.33,3.78-1.85,5.71-.76,2.75-1.83,5.13-5.28,5.34,.09,.19,.19,.38,.28,.57,1.3-.4,2.61-.81,3.91-1.21-.89,1.28-2.26,1.42-3.59,1.22-.89-.13-1.47,.04-1.98,.7,1.12-1.85,2.24-3.69,3.53-5.82-2.93,1.46-10.63,12.19-10.66,14.85,1.51-1.87,2.87-3.54,4.23-5.22-.02,.67-.05,1.33-.07,2-.2-.09-.4-.17-.74-.31,.78,2.75-.25,4.64-2.42,6.1-1.86,1.26-3.69,2.57-5.45,3.96-2.13,1.68-4.32,2.35-7.14,.45,.62,.84,.96,1.29,1.29,1.74-.9-.18-1.09-1.75-2.36-1.2,1.4-.63,2.79-1.27,4.19-1.89,.43-.19,.88-.36,1.61-.65-2.96-.78-16.1,3.62-17.18,5.7,3.42-1.04,6.66-2.03,9.91-3.02-.93,.39-1.82,.9-2.79,1.15-1.2,.31-2.04,.79-2.09,2.17-.01,.32-.25,.63-.38,.94,.07-.65,.13-1.29,.2-1.94-1.08,2.51-3.02,3.34-5.56,3.28-2.06-.05-4.12-.06-6.18,0-2.84,.09-5.48-.11-6.59-3.5-.1,.1-.21,.19-.31,.29,.41,1.01,.83,2.02,1.24,3.04-.41-.64-1.13-1.26-1.17-1.92-.1-1.69-1.18-2.09-2.49-2.44-.83-.22-1.62-.58-2.43-.88,1.5,.41,3.01,.81,4.51,1.24,1.75,.49,3.5,1,5.48,1.57-1.63-2.3-14.99-6.61-17.04-5.63,1.97,.82,3.87,1.62,5.78,2.42-1.36-.57-1.68,1-2.62,1.28,.33-.45,.66-.89,1.28-1.72-2.89,1.94-5.11,1.13-7.26-.58-1.49-1.19-3.04-2.31-4.63-3.36-2.32-1.52-4-3.31-3.49-6.44-.16,.32-.31,.63-.47,.95,.02-.93,.03-1.87,.05-2.8,1.36,1.68,2.72,3.36,4.2,5.18,.09-2.72-8.31-14.18-10.54-14.48,1.2,1.84,2.35,3.62,3.5,5.4-.68-.19-1.37-.36-2.05-.56-1.21-.35-2.41-.72-3.61-1.09,1.34,.31,2.67,.62,4.01,.92,.08-.17,.16-.34,.24-.51-3.24-.09-4.4-2.22-5.16-4.83-.6-2.07-1.3-4.11-1.99-6.15-.83-2.43-.67-4.61,1.35-6.54-.79,.64-1.58,1.27-2.38,1.91,.58-.62,1.06-1.42,1.76-1.81,.84-.46,1.08-.98,1.02-1.85-.06-.82,0-1.66-.02-2.49-.02-1.78,.47-3.77-1.97-4.56-.35-.11-.54-.75-.8-1.14,.79,.64,1.58,1.27,2.37,1.91-1.92-2.28-2.26-3.68-1.35-6.51,.62-1.9,1.32-3.78,1.85-5.71,.76-2.75,1.81-5.15,5.29-5.34-.1-.19-.2-.38-.29-.57-1.3,.41-2.61,.81-3.91,1.22,.89-1.29,2.26-1.42,3.59-1.23,.89,.13,1.47-.02,1.99-.69-1.12,1.83-2.24,3.66-3.45,5.63,2.56-.86,10.67-12.06,10.54-14.47-1.44,1.64-2.83,3.23-4.22,4.81,.09-.58,.19-1.16,.28-1.75,.17,.08,.34,.15,.59,.27-.8-2.66,.15-4.54,2.28-6.01,1.77-1.22,3.54-2.47,5.23-3.8,2.21-1.75,4.47-2.76,7.2-1.11-.29-.37-.58-.74-.87-1.1,.71,.4,1.41,.8,2.12,1.2-1.79,.75-3.59,1.49-5.51,2.3,2.4,.88,15.62-3.45,17.11-5.68-.72,.21-1.2,.35-1.68,.49-2.76,.79-5.53,1.57-8.29,2.36,.59-.23,1.16-.5,1.77-.67,1.62-.45,3.11-.87,3.29-3.03,.06-.7,1.05-1.32,1.6-1.97-.65,1.13-1.29,2.25-1.94,3.37,.16,.12,.31,.24,.47,.35,.89-2.93,3.09-3.55,5.72-3.49,2.3,.05,4.59,.05,6.89,0,2.56-.06,4.58,.7,5.68,3.28-.07-.65-.14-1.3-.21-1.94,.26,2.43,2,3.17,4.06,3.6,.44,.09,.82,.43,1.23,.66-3.26-.98-6.53-1.97-10.17-3.07,1.93,2.44,15.17,6.67,17.31,5.61-.67-.22-1.17-.34-1.63-.55-1.36-.6-2.7-1.23-4.05-1.85Zm-54.41,46.96c-.19-.1-.38-.2-.19-.1-.69,.82-1.15,1.92-1.83,2.06-1.55,.34-1.57-1.16-1.82-2.3-1.14,1.88,1.95,11.23,3.39,11.66,.13-.86,.26-1.75,.4-2.65,.92,.15,1.84,.29,2.82,.44-.87-2.85-1.84-6.01-2.8-9.16,.23,.47,.51,.92,.67,1.42,1.01,3.1,1.99,6.21,2.98,9.32,.4-.81,.71-1.77,.48-2.59-.76-2.73-1.69-5.4-2.6-8.09-.32-.95-.9-1.67-2.17-1.82,.26,.7,.47,1.25,.67,1.79Zm77.31-15.08c.96,.57,.5-.37,.71-.63,.41-.52,.98-1.43,1.35-1.37,.58,.1,1.08,.83,1.55,1.36,.15,.17,.09,.53,.15,.92,1.26-1.78-1.93-11.39-3.38-11.65-.09,.85,.13,2-.34,2.53-1.02,1.16-1.88-.13-3.04-1,1.1,3.57,2.07,6.73,3.04,9.87-.62-1.68-1.3-3.34-1.86-5.04-.62-1.91-1.13-3.86-1.68-5.79-.14-.02-.27-.04-.41-.05-.11,.8-.48,1.68-.28,2.4,.83,2.91,1.8,5.78,2.78,8.65,.3,.88,.96,1.44,2.09,1.61-.29-.78-.48-1.29-.67-1.81Zm-77.3-.05c-.2,.57-.39,1.15-.59,1.72,.13,.09,.27,.19,.4,.28,.54-.62,1.32-1.15,1.59-1.87,1.01-2.75,1.89-5.55,2.75-8.35,.28-.92,.27-1.9-.62-2.49-.54,1.8-1.03,3.57-1.61,5.31-.61,1.83-1.31,3.64-1.97,5.46,.96-3.15,1.92-6.31,2.8-9.18-.99,.2-2,.76-2.64,.47-1.44-.64-.39-1.87-.11-2.94-2.04,1.01-5,10.38-4.12,11.42,.63-.62,1.2-1.64,1.95-1.79,1.13-.23,1.48,.83,1.49,1.88,0,.03,.44,.06,.69,.08Zm77.29,15.11c.2-.55,.39-1.09,.61-1.69-2.43,.48-5.74,10.61-3.98,12.66,.11-.6,.14-1.06,.28-1.48,1.03-3.18,2.08-6.36,3.13-9.54-.97,3.17-1.94,6.34-2.83,9.25,.96-.21,1.98-.79,2.62-.51,1.46,.63,.49,1.86,.1,2.93,2.04-.91,5.03-10.24,4.15-11.45-.6,.61-1.15,1.68-1.88,1.83-1.26,.26-1.51-.91-1.56-1.96,0-.03-.41-.03-.63-.03Zm-19.57,27.08c.19,.12,.43,.38,.57,.34,.93-.26,1.71-.09,2.04,.86,.36,1.03-.2,1.67-1.18,1.99-.15,.05-.27,.21-.47,.36,2.15,.45,10.02-5.37,9.99-6.86-.83,.17-1.87,.73-2.54,.44-1.43-.63-.43-1.85-.02-3.03-.44,.21-.64,.3-.85,.4,.54-.44,1.07-.88,1.61-1.31-1.06-.57-1.61-.61-2.64,.16-7.16,5.32-8.44,5.41-7.93,7.61,.49-.33,.96-.65,1.42-.96Zm-.18-69.23c-.39-.32-.79-.63-1.18-.95-.14,.09-.28,.18-.42,.27,.38,.72,.58,1.65,1.17,2.11,2.38,1.87,4.86,3.62,7.33,5.37,.77,.55,1.63,.65,2.61,.09-.69-.47-1.18-.81-1.68-1.15,.22-.02,.44-.04,.24-.02,.11-1.04-.11-2.2,.36-2.72,1.06-1.17,1.91,.07,2.76,.88-.13-2.17-7.98-7.91-10.07-7.36,.24,.15,.38,.28,.54,.33,1,.32,1.51,.98,1.14,2-.35,.95-1.13,1.09-2.06,.82-.19-.06-.48,.22-.72,.34Zm-45.54,63.57c-.23-.02-.47-.03-.29-.02-.15,1,.03,2.19-.48,2.75-1.03,1.11-1.87-.2-2.76-.88,.31,2.28,8.27,7.96,10.14,7.23-1.1-.39-2.13-.86-1.69-2.17,.38-1.15,1.32-1.13,2.3-.83,.03,0,.16-.33,.24-.51,.49,.34,.98,.68,1.47,1.02,.12-.08,.25-.15,.37-.23-.35-.69-.52-1.6-1.07-2.03-2.47-1.93-5.01-3.77-7.61-5.52-.56-.37-1.46-.23-2.2-.33-.03,.15-.05,.3-.08,.45,.56,.36,1.11,.72,1.67,1.08Zm7.72-63.59c-.25-.11-.54-.38-.74-.32-.93,.27-1.71,.12-2.05-.83-.37-1.03,.16-1.67,1.15-2,.16-.05,.29-.18,.53-.34-2.21-.55-10.27,5.46-10.01,6.85,.83-.19,1.84-.77,2.47-.5,1.44,.63,.58,1.83,.09,2.89h.71c-.52,.35-1.03,.7-1.55,1.05,.05,.17,.1,.33,.15,.5,.79-.17,1.72-.13,2.34-.54,2.5-1.69,4.93-3.49,7.35-5.31,.92-.7,1.01-1.28,.66-2.33-.37,.29-.73,.58-1.1,.87Zm-8.87,60.17c.99,.43,2.1,.74,3.01,1.35,2.36,1.59,4.73,3.19,6.88,5.04,1,.86,1.48,2.31,2.23,3.47,.28,.44,.58,1.02,1,1.18,1.59,.62,3.23,1.17,4.89,1.6,.48,.13,1.11-.19,1.64-.38,1.3-.48,2.55-1.34,3.88-1.45,2.83-.22,5.69-.13,8.53-.03,.94,.03,2.18,.17,2.75,.77,1.55,1.63,3.06,1.16,4.73,.48,.9-.37,1.9-.52,2.78-.95,.47-.23,.8-.79,1.11-1.26,.73-1.12,1.18-2.54,2.15-3.37,2.24-1.9,4.64-3.64,7.14-5.18,1.08-.66,2.57-.63,3.86-.96,.51-.13,1.15-.24,1.44-.6,1.11-1.37,2.15-2.81,3.12-4.28,.23-.35,.31-1.02,.13-1.39-.72-1.51-.76-3.01-.24-4.57,.84-2.56,1.59-5.16,2.52-7.68,.36-.98,.91-2.23,1.73-2.62,1.94-.92,1.95-2.39,1.86-4.09-.06-1.08,.06-2.17-.05-3.23-.04-.44-.36-1.04-.72-1.23-1.55-.81-2.43-2.06-2.93-3.69-.77-2.48-1.67-4.92-2.36-7.43-.29-1.05-.65-2.48-.18-3.27,1.18-2-.02-3.15-1.01-4.5-.62-.83-1.15-1.73-1.84-2.48-.32-.35-.93-.49-1.43-.62-1.34-.35-2.87-.34-3.99-1.02-2.46-1.5-4.76-3.29-7.04-5.07-.74-.58-1.69-1.47-1.73-2.26-.12-2.36-1.83-2.57-3.43-3.07-.89-.28-1.79-.53-2.65-.87-.76-.3-1.25-.13-1.96,.34-1.1,.72-2.43,1.37-3.7,1.46-2.88,.21-5.79,.13-8.68,.03-.94-.03-2.19-.2-2.73-.81-1.51-1.67-2.98-1.09-4.6-.46-.96,.37-1.99,.57-2.92,1-.43,.2-.9,.72-1,1.16-.33,1.52-1.05,2.72-2.31,3.63-2.23,1.61-4.41,3.28-6.69,4.81-.87,.58-2.09,1.34-2.92,1.12-2.38-.61-3.07,1.05-4.08,2.43-.58,.79-1.23,1.55-1.7,2.4-.23,.42-.19,1.02-.17,1.53,.07,1.43,.53,2.93,.23,4.27-.62,2.71-1.65,5.33-2.51,7.99-.47,1.47-1.37,2.55-2.73,3.33-.4,.23-.79,.85-.81,1.31-.1,1.71-.09,3.44,0,5.15,.03,.47,.39,1.11,.78,1.33,1.42,.79,2.31,1.93,2.8,3.45,.84,2.61,1.76,5.21,2.49,7.85,.28,1,.54,2.33,.11,3.14-.98,1.83-.18,2.99,.89,4.24,.38,.45,.69,.95,1.04,1.43,.82,1.12,1.42,2.67,3.43,1.53Zm33.79,17.41c-.81-.3-1.95-.35-2.35-.93-.95-1.37,.57-1.92,1.75-2.64h-10.24c.49,.74,1.37,1.45,1.34,2.13-.07,1.64-1.58,1.19-2.84,1.14,1.6,1.55,11.04,1.56,12.35,.3Zm.26-85.57c-1.57-1.63-11.22-1.57-12.16-.39,.76,.38,1.92,.59,2.3,1.25,.74,1.3-.73,1.67-1.84,2.42,3.74,0,7.12,0,10.51,0-.93-.64-1.98-1.05-1.59-2.39,.41-1.42,1.61-.91,2.79-.88Zm35.56,33.61c-1.74,1.98-1.74,16.07,0,18.04,0-6.09,0-11.94,0-18.04Zm-83.64-.13c0,6.24,0,12.09,0,18.3,1.67-2.37,1.67-15.92,0-18.3Zm48.34-29.9c-4.43,0-8.77,0-13.11,0,1.34,2.1,11.9,2.07,13.11,0Zm-13.07,78.09h13.07c-1.2-2.06-11.8-2.07-13.07,0Z"/>
    </g>
    <g>
      <path class="cls-2" d="M64.61,211.62c-.81-.5-1.63-1-2.44-1.5-2.79,3.9-4.03,12.08,1.96,18.53-.94,.58-1.88,1.15-2.81,1.73-5.9-6.14-6.66-17.38-.03-24.64,1,.61,2.01,1.22,3.01,1.84,2.95,1.81,5.89,3.62,8.85,5.41,.28,.17,.39,.35,.38,.68-.01,2.93-.01,5.86,0,8.79,0,.32-.08,.52-.38,.68-.82,.47-1.61,.98-2.42,1.47-.13,.08-.27,.15-.47,.25,0-.24,0-.41,0-.58,0-2.91,0-5.83,0-8.74,0-.35-.11-.55-.41-.72-.8-.46-1.58-.96-2.41-1.47-1.75,3.16-1.73,6.26,0,9.42-.92,.56-1.83,1.12-2.81,1.72-2.38-4.31-2.36-8.56-.01-12.87Z"/>
      <path class="cls-2" d="M88.33,226c.41-.9,.9-1.8,1.22-2.76,.34-1.01,.55-2.07,.78-3.11,.06-.3,.13-.44,.46-.43,.94,.02,1.88,0,2.83,0-.06,3.31-1.92,7.93-4.58,10.67-1.99-1.22-3.98-2.43-5.97-3.65-1.97-1.2-3.93-2.41-5.9-3.61-.26-.16-.37-.32-.37-.64,.01-2.96,0-5.92,.02-8.89,0-.18,.12-.44,.26-.53,3.95-2.44,7.91-4.86,11.87-7.28,.03-.02,.06-.03,.13-.06,2.66,3.05,4.2,6.59,4.6,10.67-1.1,0-2.16,0-3.28,0-.29-2.24-.96-4.35-2.18-6.31-.7,.43-1.37,.84-2.03,1.24-1.92,1.18-3.85,2.36-5.78,3.53-.25,.15-.35,.32-.35,.61,.01,1.75,0,3.49,.02,5.24,0,.17,.12,.41,.26,.49,2.58,1.6,5.18,3.18,7.77,4.77,.02,.01,.06,.01,.21,.04Z"/>
      <path class="cls-2" d="M63.78,203.38c6.8-5.41,16.67-4.97,22.77,.02-.95,.58-1.89,1.16-2.83,1.73-2.73,1.67-5.46,3.34-8.18,5.02-.24,.15-.42,.21-.69,.04-3.62-2.23-7.25-4.45-10.88-6.68-.05-.03-.1-.07-.19-.14Zm6.55,.14c.11,.09,.15,.14,.2,.17,1.46,.89,2.91,1.79,4.38,2.67,.13,.08,.4,.06,.54-.02,1.43-.85,2.84-1.72,4.25-2.6,.08-.05,.15-.13,.27-.23-3.23-1.03-6.4-1.03-9.65,0Z"/>
      <path class="cls-2" d="M86.56,232.72c-6.8,5.4-16.66,4.98-22.77-.02,.96-.59,1.92-1.17,2.87-1.76,2.71-1.66,5.43-3.32,8.14-4.99,.24-.15,.42-.21,.69-.04,3.61,2.22,7.23,4.44,10.84,6.65,.07,.04,.13,.09,.23,.16Zm-6.47-.16c-.15-.08-.22-.1-.27-.13-1.47-.9-2.94-1.81-4.43-2.7-.13-.08-.4-.03-.54,.06-1.4,.84-2.79,1.7-4.18,2.55-.1,.06-.18,.14-.32,.26,3.25,1.03,6.42,1.03,9.74-.03Z"/>
    </g>
  </g>
  <path class="cls-1" d="M148.9,238.6l26.9,17.65v1.74l-28.82-18.9c-7.53-4.94-7.53-16.94,0-21.88l28.82-18.9v1.74l-26.9,17.65c-7.53,4.94-7.53,15.98,0,20.93Z"/>
  <path class="cls-4" d="M165.74,167.77h-2.88c7.12,0,12.94,5.82,12.94,12.94v19.32l-26.9,17.65c-7.53,4.94-7.53,15.98,0,20.93l26.9,17.65v17.04c0,7.12-5.82,12.94-12.94,12.94h2.88c7.12,0,12.94-5.82,12.94-12.94v-92.59c0-7.12-5.82-12.94-12.94-12.94Z"/>
  <circle class="cls-3" cx="153.73" cy="227" r="5.14"/>
  <g>
    <path class="cls-2" d="M260.52,205.86v46.71h-7.66v-31.99l-14.25,31.99h-5.31l-14.32-31.99v31.99h-7.66v-46.71h8.27l16.4,36.63,16.33-36.63h8.2Z"/>
    <path class="cls-2" d="M279.34,205.73c0,1.39-.47,2.55-1.41,3.49-.94,.94-2.09,1.41-3.46,1.41s-2.52-.47-3.46-1.41c-.94-.94-1.41-2.1-1.41-3.49s.47-2.55,1.41-3.49,2.09-1.41,3.46-1.41,2.52,.47,3.46,1.41,1.41,2.11,1.41,3.49Zm-8.74,46.84v-37.03h7.66v37.03h-7.66Z"/>
    <path class="cls-2" d="M296,215.54v5.85c2.46-4.3,6.41-6.45,11.83-6.45,4.17,0,7.61,1.39,10.32,4.17,2.71,2.78,4.07,6.65,4.07,11.63v21.84h-7.6v-20.7c0-3.32-.83-5.86-2.49-7.63-1.66-1.77-3.92-2.66-6.79-2.66s-5.14,.89-6.82,2.66c-1.68,1.77-2.52,4.31-2.52,7.63v20.7h-7.66v-37.03h7.66Z"/>
    <path class="cls-2" d="M334.45,247.77c-3.36-3.61-5.04-8.22-5.04-13.85s1.67-10.19,5.01-13.71,7.49-5.28,12.47-5.28c2.91,0,5.48,.66,7.7,1.98,2.22,1.32,3.93,3.06,5.14,5.21v-19.29h7.73v49.73h-7.73v-6.92c-1.26,2.28-2.98,4.11-5.17,5.48-2.2,1.37-4.75,2.05-7.66,2.05-4.93,0-9.07-1.8-12.43-5.41Zm21.94-4.64c2.22-2.26,3.33-5.3,3.33-9.11s-1.11-6.83-3.33-9.07c-2.22-2.24-4.85-3.36-7.9-3.36s-5.68,1.1-7.9,3.3-3.33,5.2-3.33,9.01,1.11,6.87,3.33,9.17c2.22,2.31,4.85,3.46,7.9,3.46s5.68-1.13,7.9-3.39Z"/>
    <path class="cls-2" d="M380.01,247.94c-3.36-3.49-5.04-8.12-5.04-13.88s1.69-10.38,5.08-13.88c3.38-3.49,7.74-5.24,13.07-5.24,4.48,0,8.19,1.07,11.12,3.19,2.93,2.13,4.92,5.16,5.95,9.11h-8.27c-1.39-3.9-4.32-5.85-8.8-5.85-3.14,0-5.64,1.11-7.49,3.33-1.86,2.22-2.79,5.32-2.79,9.31s.93,7.1,2.79,9.34c1.86,2.24,4.36,3.36,7.49,3.36,4.44,0,7.37-1.95,8.8-5.85h8.27c-1.07,3.76-3.09,6.75-6.05,8.97-2.96,2.22-6.63,3.33-11.02,3.33-5.38,0-9.75-1.75-13.1-5.24Z"/>
    <path class="cls-2" d="M425.51,202.84v18.55c2.46-4.3,6.41-6.45,11.83-6.45,4.17,0,7.61,1.39,10.32,4.17,2.71,2.78,4.07,6.65,4.07,11.63v21.84h-7.6v-20.7c0-3.32-.83-5.86-2.49-7.63-1.66-1.77-3.92-2.66-6.79-2.66s-5.14,.89-6.82,2.66c-1.68,1.77-2.52,4.31-2.52,7.63v20.7h-7.66v-49.73h7.66Z"/>
    <path class="cls-2" d="M463.96,247.77c-3.36-3.61-5.04-8.22-5.04-13.85s1.67-10.19,5.01-13.71c3.34-3.52,7.49-5.28,12.47-5.28,2.91,0,5.48,.66,7.7,1.98,2.22,1.32,3.93,3.06,5.14,5.21v-6.59h7.73v37.03h-7.73v-6.92c-1.26,2.28-2.98,4.11-5.17,5.48-2.2,1.37-4.75,2.05-7.66,2.05-4.93,0-9.07-1.8-12.43-5.41Zm21.94-4.64c2.22-2.26,3.33-5.3,3.33-9.11s-1.11-6.83-3.33-9.07c-2.22-2.24-4.85-3.36-7.9-3.36s-5.68,1.1-7.9,3.3c-2.22,2.2-3.33,5.2-3.33,9.01s1.11,6.87,3.33,9.17c2.22,2.31,4.85,3.46,7.9,3.46s5.68-1.13,7.9-3.39Z"/>
    <path class="cls-2" d="M515.77,205.73c0,1.39-.47,2.55-1.41,3.49-.94,.94-2.09,1.41-3.46,1.41s-2.52-.47-3.46-1.41c-.94-.94-1.41-2.1-1.41-3.49s.47-2.55,1.41-3.49,2.09-1.41,3.46-1.41,2.52,.47,3.46,1.41,1.41,2.11,1.41,3.49Zm-8.74,46.84v-37.03h7.66v37.03h-7.66Z"/>
    <path class="cls-2" d="M532.44,215.54v5.85c2.46-4.3,6.41-6.45,11.83-6.45,4.17,0,7.61,1.39,10.32,4.17,2.71,2.78,4.07,6.65,4.07,11.63v21.84h-7.6v-20.7c0-3.32-.83-5.86-2.49-7.63-1.66-1.77-3.92-2.66-6.79-2.66s-5.14,.89-6.82,2.66c-1.68,1.77-2.52,4.31-2.52,7.63v20.7h-7.66v-37.03h7.66Z"/>
    <path class="cls-2" d="M621.02,205.86h8.2l-13.84,46.71h-8.67l-9.81-35.35-10.42,35.35-8.6,.07-13.24-46.78h8.13l9.68,38.04,10.48-38.04h8.6l9.75,37.84,9.74-37.84Z"/>
    <path class="cls-2" d="M638.02,247.77c-3.36-3.61-5.04-8.22-5.04-13.85s1.67-10.19,5.01-13.71c3.34-3.52,7.49-5.28,12.47-5.28,2.91,0,5.48,.66,7.7,1.98,2.22,1.32,3.93,3.06,5.14,5.21v-6.59h7.73v37.03h-7.73v-6.92c-1.26,2.28-2.98,4.11-5.17,5.48-2.2,1.37-4.75,2.05-7.66,2.05-4.93,0-9.07-1.8-12.43-5.41Zm21.94-4.64c2.22-2.26,3.33-5.3,3.33-9.11s-1.11-6.83-3.33-9.07c-2.22-2.24-4.85-3.36-7.9-3.36s-5.68,1.1-7.9,3.3c-2.22,2.2-3.33,5.2-3.33,9.01s1.11,6.87,3.33,9.17c2.22,2.31,4.85,3.46,7.9,3.46s5.68-1.13,7.9-3.39Z"/>
    <path class="cls-2" d="M681.1,252.57v-49.73h7.66v49.73h-7.66Z"/>
    <path class="cls-2" d="M698.84,252.57v-49.73h7.66v49.73h-7.66Z"/>
    <path class="cls-2" d="M732.18,253.18c-5.38,0-9.75-1.75-13.1-5.24-3.36-3.49-5.04-8.13-5.04-13.91s1.7-10.41,5.11-13.88c3.4-3.47,7.81-5.21,13.21-5.21s9.78,1.67,13.14,5.01c3.36,3.34,5.04,7.7,5.04,13.07,0,1.3-.09,2.51-.27,3.63h-28.36c.18,3.09,1.22,5.55,3.12,7.36,1.91,1.81,4.29,2.72,7.16,2.72,4.17,0,7.1-1.73,8.8-5.17h8.27c-1.12,3.4-3.16,6.19-6.11,8.37-2.96,2.17-6.61,3.26-10.96,3.26Zm7.33-29.07c-1.97-1.81-4.37-2.72-7.19-2.72s-5.19,.91-7.09,2.72c-1.9,1.82-2.99,4.25-3.26,7.29h20.57c-.05-3.05-1.06-5.48-3.02-7.29Z"/>
    <path class="cls-2" d="M776,221.79h-9.01v20.5c0,1.39,.32,2.38,.97,2.99,.65,.6,1.76,.91,3.33,.91h4.7v6.39h-6.05c-7.12,0-10.68-3.43-10.68-10.28v-20.5h-4.37v-6.25h4.37v-9.21h7.73v9.21h9.01v6.25Z"/>
  </g>
</svg>