<svg width="36" height="44" viewBox="0 0 36 44" fill="none" xmlns="http://www.w3.org/2000/svg">
<path d="M17.0198 43.8158C20.9198 43.1158 23.9198 40.8158 26.2198 36.6158C28.6198 32.1158 29.4198 26.8158 28.8198 20.8158C28.2198 14.8158 26.1198 9.91577 22.7198 6.11577C19.5198 2.41577 15.9198 0.715776 12.0198 0.915776L17.6198 0.315778C17.8198 0.315778 18.0198 0.215779 18.2198 0.215779C18.3198 0.115779 18.6198 0.115773 18.8198 0.115773L18.9198 0.0157749C22.7198 -0.184225 26.2198 1.51578 29.4198 5.21578C32.8198 9.11578 34.9198 14.0158 35.5198 19.9158C36.3198 25.9158 35.4198 31.2158 32.9198 35.7158C30.6198 39.9158 27.6198 42.5158 23.8198 43.1158C23.6198 43.1158 23.4198 43.1158 23.1198 43.2158C22.9198 43.2158 22.7198 43.3158 22.5198 43.3158L17.0198 43.8158Z" fill="url(#paint0_linear_5_390)"/>
<path d="M12.6198 0.915781C16.5198 0.615781 20.6198 2.11578 23.9198 5.81578C27.3198 9.61578 29.3198 14.5158 30.0198 20.5158C30.7198 26.5158 29.8198 31.8158 27.4198 36.3158C25.1198 40.5158 22.1198 43.1158 18.2198 43.8158C18.0198 43.8158 17.8198 43.8158 17.6198 43.9158C13.6198 44.4158 9.8198 42.7158 6.4198 38.8158C3.0198 35.0158 0.9198 30.0158 0.2198 24.1158C-0.4802 18.1158 0.519806 12.9158 2.81981 8.41578C5.21981 3.81578 8.51979 1.31578 12.6198 0.915781Z" fill="url(#paint1_linear_5_390)"/>
<path d="M13.4197 32.4158C13.2197 32.4158 12.9197 32.3158 12.7197 32.0158C13.0197 31.5158 13.1197 31.1158 13.1197 30.8158C13.1197 30.3158 12.9197 29.9158 12.4197 29.4158C12.0197 29.0158 11.7197 28.7158 11.3197 28.4158C11.1197 28.2158 10.9197 28.0158 10.9197 27.7158C10.9197 27.6158 10.9197 27.5158 11.0197 27.4158C11.1197 27.2158 11.1197 27.0158 11.1197 26.7158C12.0197 27.5158 12.8197 28.3158 13.6197 29.2158C14.0197 29.6158 14.1197 30.2158 14.1197 30.8158C14.1197 31.1158 14.1197 31.4158 14.0197 31.8158C13.9197 32.2158 13.6197 32.4158 13.4197 32.4158Z" fill="#E1FBFF"/>
<path d="M15.5198 33.0158C15.7198 33.0158 15.9198 33.2158 16.1198 33.3158C16.4198 33.5158 16.7198 33.8158 17.0198 34.1158C16.9198 34.1158 16.8198 34.1158 16.7198 34.1158C15.5198 34.1158 14.2198 34.1158 13.0198 34.0158C12.1198 33.9158 11.5198 33.3158 11.2198 32.2158C11.1198 31.9158 11.1198 31.6158 11.1198 31.3158C11.1198 30.6158 11.3198 30.0158 11.8198 29.4158C12.1198 29.6158 12.3198 29.9158 12.5198 30.1158C12.4198 30.5158 12.2198 30.8158 12.1198 31.1158C12.1198 31.2158 12.1198 31.3158 12.1198 31.4158C12.1198 32.1158 12.6198 32.8158 13.3198 32.8158C14.0198 33.0158 14.7198 33.0158 15.5198 33.0158Z" fill="#E1FBFF"/>
<path d="M14.9198 30.0158C14.6198 30.0158 14.4198 29.9158 14.3198 29.5158C14.3198 29.3158 14.1198 29.1158 14.0198 28.9158C14.1198 28.9158 14.2198 28.8158 14.3198 28.8158C15.1198 28.8158 15.8198 28.8158 16.6198 28.9158C17.6198 28.9158 18.4198 29.6158 18.7198 30.7158C18.8198 30.9158 18.8198 31.1158 18.8198 31.2158C18.8198 31.7158 18.5198 31.9158 18.0198 31.9158C17.9198 31.5158 17.9198 31.1158 17.7198 30.8158C17.5198 30.3158 17.2198 30.1158 16.7198 30.0158C16.2198 30.0158 15.7198 30.0158 15.3198 30.0158C15.2198 30.0158 15.0198 30.0158 14.9198 30.0158Z" fill="#E1FBFF"/>
<path d="M20.8198 27.1157C20.5198 27.1157 20.2198 27.3157 19.9198 27.6157C19.4198 28.1157 18.8198 28.5157 18.3198 29.0157C18.0198 28.8157 17.7198 28.6157 17.3198 28.4157C18.2198 27.6157 19.1198 26.8158 20.0198 26.2158C20.2198 26.0158 20.5198 26.0157 20.8198 26.0157C21.2198 26.0157 21.6198 26.2157 22.0198 26.5157C22.3198 26.8157 22.5198 27.0158 22.5198 27.3158C22.5198 27.6158 22.3198 27.9158 22.0198 28.2158C21.6198 27.4158 21.2198 27.1157 20.8198 27.1157Z" fill="#E1FBFF"/>
<path d="M19.9198 13.1158C19.7198 12.9158 19.6198 12.6158 19.5198 12.3158C19.4198 11.9158 19.3198 11.5158 19.1198 10.9158C20.3198 12.0158 21.4198 13.0158 22.4198 14.1158C22.9198 14.6158 23.1198 15.2158 23.1198 15.9158C23.1198 16.2158 23.1198 16.5158 23.0198 16.7158C22.8198 17.8158 22.2198 18.4158 21.2198 18.6158C21.1198 18.2158 21.0198 17.9158 20.9198 17.5158C21.1198 17.4158 21.4198 17.3158 21.6198 17.1158C21.9198 16.8158 22.1198 16.4158 22.1198 15.9158C22.1198 15.5158 21.9198 15.0158 21.6198 14.7158C21.1198 14.3158 20.5198 13.7158 19.9198 13.1158Z" fill="#E1FBFF"/>
<path d="M23.9198 21.1158C23.7198 20.2158 23.4198 19.3158 23.2198 18.4158C23.2198 18.3158 23.2198 18.2158 23.2198 18.1158C23.2198 17.9158 23.2198 17.7158 23.3198 17.5158C23.4198 17.1158 23.5198 16.7158 23.6198 16.2158C23.6198 16.3158 23.7198 16.4158 23.8198 16.6158C24.2198 18.1158 24.5198 19.5158 24.8198 21.0158C24.8198 21.2158 24.9198 21.5158 24.9198 21.7158C24.9198 22.5158 24.6198 23.2158 24.1198 23.7158C23.7198 24.1158 23.3198 24.3158 22.8198 24.3158C22.5198 24.3158 22.1198 24.2158 21.7198 24.0158C21.8198 23.6158 21.9198 23.3158 22.0198 22.9158C22.3198 23.0158 22.5198 23.0158 22.7198 23.1158C23.4198 23.1158 23.9198 22.4158 23.9198 21.6158C24.0198 21.4158 24.0198 21.3158 23.9198 21.1158Z" fill="#E1FBFF"/>
<path d="M23.5198 25.1157C23.6198 24.8157 23.8198 24.6157 23.9198 24.4157C24.2198 24.1157 24.5198 23.8157 24.9198 23.5157C24.8198 23.9157 24.7198 24.3158 24.6198 24.7158C24.3198 25.9158 24.0198 27.1158 23.6198 28.3158C23.3198 29.4158 22.6198 30.0157 21.6198 30.0157C21.6198 30.0157 21.6198 30.0157 21.5198 30.0157C20.7198 30.0157 20.0198 29.5157 19.6198 28.5157C19.8198 28.3157 20.1198 28.1158 20.3198 27.8158C20.4198 27.9158 20.4198 28.0157 20.5198 28.1157C20.8198 28.5157 21.1198 28.8158 21.5198 28.8158C22.0198 28.8158 22.4198 28.5158 22.6198 27.8158C23.0198 26.9158 23.2198 25.9157 23.5198 25.1157Z" fill="#E1FBFF"/>
<path d="M21.2198 30.4158C21.3198 30.4158 21.4198 30.4158 21.5198 30.4158C21.8198 30.4158 22.1198 30.4158 22.4198 30.4158C22.0198 30.7158 21.7198 31.1158 21.3198 31.4158C20.6198 32.0158 19.8198 32.7158 19.1198 33.3158C18.7198 33.6158 18.4198 33.7158 18.0198 33.7158C17.6198 33.7158 17.2198 33.5158 16.8198 33.2158C16.1198 32.6158 15.8198 31.9158 15.8198 30.9158C15.8198 30.8158 15.8198 30.7158 15.8198 30.6158C16.1198 30.6158 16.4198 30.6158 16.7198 30.6158C16.8198 31.1158 16.8198 31.5158 17.0198 31.9158C17.2198 32.3158 17.6198 32.6158 17.9198 32.6158C18.1198 32.6158 18.4198 32.5158 18.7198 32.3158C19.3198 31.8158 19.9198 31.2158 20.5198 30.8158C20.7198 30.5158 21.0198 30.5158 21.2198 30.4158Z" fill="#E1FBFF"/>
<path d="M6.61975 19.3158C6.51975 19.6158 6.31975 19.8157 6.11975 20.0157C5.81975 20.3157 5.51975 20.6157 5.11975 20.9157C5.31975 20.1157 5.51976 19.3157 5.71976 18.6157C5.91976 17.8157 6.21975 16.9157 6.41975 16.1157C6.81975 15.0157 7.51975 14.5157 8.41975 14.5157C9.21975 14.5157 9.91976 15.0157 10.3198 16.0157C10.1198 16.2157 9.81975 16.4158 9.61975 16.7158C9.51975 16.6158 9.51975 16.5157 9.41975 16.4157C9.11975 16.0157 8.81975 15.8158 8.41975 15.8158C7.91975 15.8158 7.51976 16.1158 7.31976 16.8158C7.11976 17.5158 6.91975 18.4158 6.61975 19.3158Z" fill="#E1FBFF"/>
<path d="M10.4197 18.8158C10.0197 20.0158 9.81972 21.2158 9.41972 22.3158C9.11972 23.3158 8.41972 23.7158 7.61972 23.8158C7.51972 23.8158 7.51972 23.8158 7.41972 23.8158C6.91972 23.8158 6.71973 23.5158 6.71973 23.0158C6.71973 22.8158 6.71973 22.6158 6.81973 22.4158C6.91973 22.4158 7.01972 22.5158 7.11972 22.5158C7.21972 22.5158 7.31973 22.6158 7.51973 22.6158C8.01973 22.6158 8.41972 22.2158 8.61972 21.6158C8.81972 20.9158 9.01973 20.3158 9.21973 19.6158C9.31973 19.2158 9.41973 19.0158 9.71973 19.0158H9.81973C10.0197 19.0158 10.1197 18.9158 10.4197 18.8158Z" fill="#E1FBFF"/>
<path d="M8.51971 28.4158C9.31971 28.1158 9.61971 27.7158 9.61971 26.9158C9.61971 26.7158 9.61971 26.4158 9.51971 26.1158C9.41971 25.5158 9.21971 24.9158 9.11971 24.3158C9.11971 24.2158 9.01971 24.1158 9.01971 23.9158C9.01971 23.7158 9.01971 23.6158 9.21971 23.4158C9.41971 23.3158 9.51971 23.0158 9.71971 22.8158C9.91971 23.8158 10.2197 24.8158 10.4197 25.8158C10.5197 26.1158 10.5197 26.5158 10.5197 26.8158C10.5197 27.1158 10.5197 27.3158 10.4197 27.6158C10.3197 28.1158 10.0197 28.5158 9.71971 28.9158C9.51971 29.1158 9.31971 29.2158 9.21971 29.2158C8.91971 29.4158 8.61971 29.0158 8.51971 28.4158Z" fill="#E1FBFF"/>
<path d="M6.21976 23.2158C6.41976 24.1158 6.71976 25.0158 6.81976 25.9158C6.81976 26.0158 6.81976 26.1158 6.81976 26.2158C6.81976 26.4158 6.81976 26.7158 6.71976 26.9158C6.61976 27.3158 6.51975 27.7158 6.41975 28.2158C6.31975 28.0158 6.31976 27.9158 6.21976 27.7158C5.91976 26.3158 5.51976 24.9158 5.21976 23.5158C5.11976 23.2158 5.11975 23.0158 5.11975 22.8158C5.11975 22.1158 5.41976 21.4158 5.81976 20.9158C6.21976 20.4158 6.71976 20.2158 7.21976 20.2158C7.51976 20.2158 7.71976 20.3158 8.01976 20.4158C8.11976 20.4158 8.21976 20.5158 8.31976 20.6158C8.21976 21.0158 8.11976 21.3158 8.01976 21.6158C7.71976 21.6158 7.51976 21.5158 7.21976 21.5158C7.11976 21.5158 7.11976 21.5158 7.01976 21.5158C6.41976 21.6158 6.01976 22.2158 6.01976 22.9158C6.21976 22.9158 6.21976 23.1158 6.21976 23.2158Z" fill="#E1FBFF"/>
<path d="M15.3197 14.4158C15.6197 14.4158 15.9197 14.5158 15.9197 14.9158C15.9197 15.1158 16.1197 15.3158 16.2197 15.5158C15.1197 15.5158 14.1197 15.5158 13.0197 15.4158C12.2197 15.3158 11.5197 14.2158 11.4197 13.2158V13.1158C11.4197 12.7158 11.7197 12.5158 12.2197 12.4158C12.3197 12.9158 12.4197 13.4158 12.6197 13.8158C12.8197 14.1158 13.1197 14.3158 13.5197 14.3158C13.9197 14.4158 14.3197 14.4158 14.7197 14.4158C14.9197 14.4158 15.0197 14.4158 15.3197 14.4158Z" fill="#E1FBFF"/>
<path d="M16.8198 11.9158C17.0198 11.9158 17.2198 12.0158 17.4198 12.2158C17.3198 12.6158 17.1198 13.0158 17.1198 13.4158V13.5158C17.1198 13.9158 17.3198 14.3158 17.6198 14.6158C18.0198 15.1158 18.5198 15.5158 18.9198 15.9158C19.1198 16.1158 19.3198 16.3158 19.3198 16.6158C19.3198 16.7158 19.3198 16.8158 19.2198 16.9158C19.1198 17.1158 19.1198 17.3158 19.1198 17.6158C18.3198 16.8158 17.4198 16.1158 16.7198 15.2158C16.3198 14.7158 16.1198 14.2158 16.1198 13.5158C16.1198 13.2158 16.1198 12.9158 16.2198 12.6158C16.3198 12.2158 16.5198 11.9158 16.8198 11.9158Z" fill="#E1FBFF"/>
<path d="M21.3198 16.1158C20.8198 16.4158 20.5198 16.9158 20.5198 17.5158C20.5198 17.6158 20.5198 17.8158 20.5198 17.9158C20.7198 18.6158 20.8198 19.3158 21.0198 20.0158C21.0198 20.2158 21.1198 20.3158 21.1198 20.4158C21.1198 20.6158 21.0198 20.7158 20.9198 20.9158C20.7198 21.0158 20.6198 21.3158 20.4198 21.5158C20.1198 20.2158 19.8198 19.0158 19.6198 17.7158C19.6198 17.6158 19.6198 17.4158 19.6198 17.3158C19.6198 16.5158 19.9198 15.9158 20.5198 15.4158C20.7198 15.2158 20.9198 15.1158 21.1198 15.1158C21.4198 15.1158 21.6198 15.4158 21.8198 16.0158C21.6198 16.0158 21.5198 16.0158 21.3198 16.1158Z" fill="#E1FBFF"/>
<path d="M12.3198 15.7158C12.4198 15.8158 12.6198 15.9158 12.9198 16.0158C12.0198 16.7158 11.2198 17.5158 10.3198 18.1158C10.0198 18.3158 9.71976 18.4158 9.51976 18.4158C9.11976 18.4158 8.71976 18.2158 8.31976 18.0158C8.01976 17.7158 7.81976 17.5158 7.81976 17.2158C7.81976 16.9158 8.01976 16.6158 8.31976 16.3158C8.71976 17.0158 9.01975 17.3158 9.41975 17.3158C9.71975 17.3158 10.0198 17.1158 10.4198 16.8158C10.8198 16.5158 11.2198 16.2158 11.6198 15.8158C11.8198 15.6158 11.9198 15.6158 12.0198 15.6158C12.1198 15.5158 12.2198 15.6158 12.3198 15.7158Z" fill="#E1FBFF"/>
<path d="M12.8198 20.6158C12.8198 19.8158 13.0198 19.0158 13.5198 18.4158C13.6198 18.5158 13.8198 18.6158 13.9198 18.7158C14.3198 19.0158 14.8198 19.3158 15.2198 19.7158L15.3198 19.8158C15.3198 20.1158 15.3198 20.3158 15.3198 20.6158C15.3198 20.9158 15.3198 21.1158 15.3198 21.4158L15.2198 21.5158C15.1198 21.6158 15.0198 21.7158 14.8198 21.8158L14.7198 21.9158V21.8158C14.7198 21.3158 14.7198 20.8158 14.7198 20.3158L14.6198 20.2158C14.5198 20.1158 14.4198 20.0158 14.2198 19.9158C14.1198 20.2158 14.0198 20.4158 14.0198 20.7158C14.0198 21.0158 14.1198 21.3158 14.2198 21.5158C14.1198 21.6158 13.9198 21.7158 13.8198 21.8158C13.6198 21.4158 13.5198 21.0158 13.5198 20.7158C13.5198 20.3158 13.6198 19.9158 13.8198 19.6158C13.7198 19.5158 13.6198 19.4158 13.4198 19.3158C13.2198 19.6158 13.1198 20.1158 13.1198 20.7158C13.1198 21.3158 13.3198 22.0158 13.7198 22.6158C13.6198 22.7158 13.4198 22.8158 13.3198 22.9158C13.1198 22.2158 12.8198 21.4158 12.8198 20.6158Z" fill="#E1FBFF"/>
<path d="M15.6197 19.2158H15.5197C15.0197 18.8158 14.4197 18.4158 13.9197 18.0158C14.4197 17.5158 15.0197 17.3158 15.6197 17.3158C16.2197 17.3158 16.8197 17.5158 17.3197 18.0158C17.2197 18.1158 17.0197 18.2158 16.9197 18.3158C16.4197 18.6158 16.0197 18.9158 15.6197 19.2158ZM14.8197 18.0158C15.0197 18.2158 15.3197 18.4158 15.5197 18.5158H15.6197C15.8197 18.4158 16.0197 18.2158 16.2197 18.0158C16.0197 17.9158 15.7197 17.9158 15.5197 17.9158C15.3197 17.9158 15.0197 17.9158 14.8197 18.0158Z" fill="#E1FBFF"/>
<path d="M17.2198 23.1158C16.7198 23.6158 16.1198 23.8158 15.5198 23.8158C14.9198 23.8158 14.3198 23.6158 13.8198 23.1158C13.9198 23.0158 14.1198 22.9158 14.2198 22.8158C14.6198 22.5158 15.0198 22.2158 15.4198 21.9158H15.5198C16.1198 22.3158 16.6198 22.7158 17.2198 23.1158ZM14.8198 23.1158C15.0198 23.2158 15.3198 23.2158 15.5198 23.2158C15.7198 23.2158 16.0198 23.2158 16.2198 23.1158C16.0198 22.9158 15.8198 22.8158 15.5198 22.6158H15.4198C15.3198 22.8158 15.1198 22.9158 14.8198 23.1158Z" fill="#E1FBFF"/>
<path d="M16.3198 20.0158L16.2198 20.1158C16.2198 20.4158 16.2198 20.7158 16.2198 21.0158V21.1158C16.6198 21.4158 17.0198 21.7158 17.3198 21.9158C17.4198 21.7158 17.4198 21.6158 17.5198 21.4158C17.6198 21.2158 17.6198 21.0158 17.6198 20.9158L17.7198 20.8158C17.8198 20.8158 18.0198 20.8158 18.1198 20.8158C18.1198 21.4158 17.8198 22.2158 17.4198 22.7158C17.1198 22.5158 16.8198 22.3158 16.5198 22.1158C16.2198 21.9158 15.9198 21.7158 15.6198 21.5158L15.5198 21.4158C15.5198 20.9158 15.5198 20.4158 15.5198 19.8158V19.7158C16.1198 19.3158 16.7198 18.8158 17.2198 18.4158C17.6198 18.9158 17.8198 19.6158 17.9198 20.3158H17.7198C17.7198 19.9158 17.6198 19.5158 17.4198 19.2158C17.3198 19.3158 17.2198 19.3158 17.1198 19.4158C16.8198 19.6158 16.6198 19.8158 16.3198 20.0158Z" fill="#E1FBFF"/>
<path d="M18.6198 22.8158C18.5198 23.0158 18.4198 23.1158 18.3198 23.2158C18.6198 22.0158 18.7198 20.9158 18.5198 19.8158C18.1198 18.0158 17.0198 16.8158 15.5198 16.8158C15.5198 16.8158 15.5198 16.8158 15.4198 16.8158C14.0198 16.8158 12.8198 18.1158 12.5198 19.7158C12.2198 21.4158 12.9198 23.1158 14.3198 23.8158C14.5198 23.9158 14.7198 24.0158 14.8198 24.2158C15.9198 25.2158 16.2198 26.9158 15.5198 28.2158C15.5198 28.1158 15.5198 28.0157 15.4198 27.9157C15.2198 26.6157 14.5198 25.7157 13.4198 25.5157C12.9198 25.4157 12.4198 25.4157 12.0198 25.4157C11.5198 25.4157 11.4198 25.2157 11.5198 24.6157C11.6198 24.4157 11.6198 24.2157 11.5198 24.0157C11.3198 23.7157 11.4198 23.6158 11.6198 23.3158C11.4198 23.1158 11.2198 23.0157 11.4198 22.6157L11.3198 22.4157C11.2198 22.3157 11.1198 22.2157 11.0198 22.1157C10.9198 22.0157 10.9198 21.8157 11.0198 21.6157C11.1198 21.5157 11.1198 21.4158 11.2198 21.3158C11.4198 20.9158 11.7198 20.4157 11.8198 20.0157C11.9198 19.4157 12.0198 18.9158 12.3198 18.3158C12.9198 16.8158 14.2198 16.0157 15.5198 16.0157C16.1198 16.0157 16.7198 16.2157 17.3198 16.6157C19.1198 18.0157 19.7198 20.7158 18.6198 22.8158Z" fill="#E1FBFF"/>
<path d="M10.2198 31.2158C10.4198 31.4158 10.5198 31.7158 10.6198 32.0158C10.7198 32.4158 10.8198 32.8158 11.0198 33.3158C10.9198 33.2158 10.8198 33.2158 10.7198 33.1158C9.81976 32.2158 8.81975 31.3158 7.91975 30.4158C7.31975 29.9158 7.11975 29.2158 7.11975 28.4158C7.11975 28.1158 7.11976 27.9158 7.21976 27.6158C7.41976 26.5158 8.01976 25.8158 9.01976 25.6158C9.11976 26.0158 9.21976 26.3158 9.21976 26.6158L9.11975 26.7158C8.51975 26.8158 8.11976 27.2158 8.01976 27.9158C8.01976 28.0158 8.01976 28.1158 8.01976 28.2158C8.01976 28.8158 8.31975 29.2158 8.61975 29.5158C9.21975 30.2158 9.71976 30.7158 10.2198 31.2158Z" fill="#E1FBFF"/>
<path d="M8.41974 13.9158C8.31974 13.9158 8.21974 13.9158 8.21974 13.9158C8.11974 13.9158 8.01974 13.9158 7.91974 13.9158C8.31974 13.5158 8.71974 13.2158 9.11974 12.8158C9.81974 12.2158 10.5197 11.5158 11.2197 11.0158C11.5197 10.7158 11.9197 10.6158 12.2197 10.6158C12.6197 10.6158 13.0197 10.8158 13.4197 11.1158C14.1197 11.7158 14.3197 12.4158 14.3197 13.4158C14.3197 13.5158 14.3197 13.6158 14.3197 13.7158C14.0197 13.7158 13.7197 13.7158 13.4197 13.7158C13.4197 13.5158 13.3197 13.3158 13.3197 13.2158C13.2197 12.3158 12.7197 11.8158 12.1197 11.8158C11.8197 11.8158 11.5197 11.9158 11.3197 12.2158C10.7197 12.7158 10.2197 13.2158 9.61974 13.7158C9.41974 13.9158 9.21974 14.0158 8.91974 14.0158C8.81974 14.0158 8.81974 14.0158 8.71974 14.0158C8.71974 13.9158 8.61974 13.9158 8.41974 13.9158Z" fill="#E1FBFF"/>
<path d="M15.5197 11.4158C14.6197 11.4158 13.8197 11.3158 13.2197 10.2158C14.5197 10.2158 15.9197 10.2158 17.2197 10.3158C18.1197 10.4158 18.7197 11.1158 19.0197 12.1158C19.1197 12.4158 19.1197 12.7158 19.1197 13.0158C19.1197 13.7158 18.9197 14.3158 18.4197 14.8158C18.1197 14.6158 17.9197 14.3158 17.6197 14.1158C17.9197 13.7158 18.1197 13.3158 18.1197 12.9158C18.1197 12.7158 18.1197 12.5158 18.0197 12.3158C17.8197 11.7158 17.3197 11.4158 16.8197 11.4158H16.7197C16.6197 11.4158 16.4197 11.4158 16.3197 11.4158C16.1197 11.4158 15.9197 11.4158 15.7197 11.4158C15.6197 11.4158 15.6197 11.4158 15.5197 11.4158Z" fill="#E1FBFF"/>
<path d="M19.8198 25.4158C20.2198 24.2158 20.5198 22.9158 20.9198 21.8158C21.2198 21.0158 21.9198 20.6158 22.7198 20.6158H22.8198C23.2198 20.6158 23.5198 20.8158 23.5198 21.3158C23.5198 21.5158 23.5198 21.7158 23.4198 22.0158C23.1198 21.9158 22.9198 21.8158 22.7198 21.8158C22.1198 21.8158 21.8198 22.2158 21.5198 23.2158C21.4198 23.5158 21.3198 23.8158 21.2198 24.1158C21.1198 24.9158 20.8198 25.5158 20.1198 25.5158C20.0198 25.5158 19.9198 25.5158 19.8198 25.4158Z" fill="#E1FBFF"/>
<defs>
<linearGradient id="paint0_linear_5_390" x1="22.3587" y1="-1.23064" x2="27.2178" y2="41.4882" gradientUnits="userSpaceOnUse">
<stop stop-color="#1500FC"/>
<stop offset="1" stop-color="#A400FF"/>
</linearGradient>
<linearGradient id="paint1_linear_5_390" x1="-0.371978" y1="15.6427" x2="30.6196" y2="28.9956" gradientUnits="userSpaceOnUse">
<stop stop-color="#3F00FC"/>
<stop offset="1" stop-color="#7F00FF"/>
</linearGradient>
</defs>
</svg>
