<svg width="31" height="34" viewBox="0 0 31 34" fill="none" xmlns="http://www.w3.org/2000/svg">
<path d="M5.05587 3.46204C7.75587 2.06204 10.7559 2.26204 14.1559 3.86204C17.6559 5.56204 20.5559 8.36204 22.8559 12.362C25.1559 16.362 26.1559 20.262 25.7559 24.162C25.4559 27.862 24.0559 30.562 21.5559 32.162C21.4559 32.162 21.2559 32.262 21.1559 32.362C18.4559 33.962 15.3559 33.862 11.7559 32.162C8.25588 30.462 5.25586 27.662 2.95586 23.762C0.655859 19.762 -0.244134 15.862 0.0558656 11.962C0.355866 8.06204 1.85587 5.36204 4.55587 3.76204C4.75587 3.66204 4.85587 3.56204 5.05587 3.46204Z" fill="url(#paint0_linear_5_389)"/>
<path d="M21.5559 32.162C24.0559 30.462 25.4559 27.862 25.7559 24.162C26.0559 20.262 25.0559 16.262 22.8559 12.362C20.5559 8.46203 17.6559 5.56203 14.1559 3.86203C10.7559 2.26202 7.75588 2.16202 5.05588 3.46202L8.75589 1.36202C8.85589 1.26202 8.95588 1.16202 9.15588 1.16202C9.25588 1.06202 9.35587 0.962023 9.45587 0.962023L9.55588 0.862023C12.1559 -0.437977 15.1559 -0.237977 18.4559 1.26202C22.0559 2.96202 24.9559 5.76202 27.1559 9.76202C29.4559 13.762 30.4559 17.662 30.1559 21.562C29.8559 25.262 28.4559 27.862 26.0559 29.462C25.9559 29.562 25.7559 29.662 25.6559 29.762C25.5559 29.762 25.4559 29.862 25.2559 29.962L21.5559 32.162Z" fill="url(#paint1_linear_5_389)"/>
<path d="M6.6559 11.162C7.0559 11.162 7.4559 11.362 7.7559 11.562C8.3559 11.862 8.85589 12.362 9.45589 12.962C9.95589 13.662 10.4559 14.362 10.6559 15.062C10.8559 15.562 10.9559 15.862 11.2559 16.162C11.4559 16.362 11.7559 16.562 12.0559 16.562C12.2559 16.562 12.3559 16.562 12.5559 16.462C12.6559 16.462 12.7559 16.362 12.7559 16.262C12.9559 16.062 12.9559 15.762 12.7559 15.262C12.2559 14.162 12.0559 13.262 12.0559 12.362C12.1559 11.362 12.4559 10.862 13.0559 10.562C13.3559 10.362 13.5559 10.362 13.8559 10.362C14.3559 10.462 14.9559 10.762 15.7559 11.262C16.8559 12.162 17.5559 13.362 17.8559 14.562C18.2559 15.862 18.1559 16.962 17.5559 17.562C17.3559 17.862 17.0559 18.062 16.7559 18.062C16.2559 18.262 15.6559 18.062 15.0559 17.662C14.8559 17.562 14.7559 17.462 14.5559 17.462C14.3559 17.362 14.0559 17.462 13.8559 17.662C13.5559 17.962 13.5559 18.362 13.7559 18.962C13.9559 19.462 14.3559 19.962 14.9559 20.362C15.7559 20.862 16.1559 21.262 16.3559 21.562C16.9559 22.262 17.3559 22.962 17.6559 23.762C17.8559 24.562 17.9559 25.262 17.8559 25.962C17.7559 26.662 17.5559 27.162 17.1559 27.462C16.9559 27.662 16.8559 27.662 16.6559 27.762C16.3559 27.862 15.9559 27.862 15.5559 27.662C14.9559 27.462 14.4559 27.162 13.8559 26.562C13.3559 26.062 12.8559 25.362 12.4559 24.562C12.0559 23.762 11.8559 23.062 11.7559 22.362C11.6559 21.562 11.8559 20.962 12.1559 20.662C12.5559 20.362 12.5559 19.862 12.2559 19.062C11.9559 18.362 11.6559 17.962 11.1559 17.862C11.0559 17.862 10.9559 17.762 10.9559 17.762C10.7559 17.762 10.4559 17.962 10.0559 18.462C9.85589 18.662 9.5559 18.762 9.2559 18.862C9.0559 18.962 8.75589 18.962 8.55589 18.962C8.05589 18.862 7.45591 18.462 6.85591 17.962C6.35591 17.462 5.85589 16.862 5.45589 16.162C5.05589 15.362 4.7559 14.762 4.6559 14.062C4.4559 13.262 4.55591 12.662 4.85591 12.162C5.05591 11.662 5.35589 11.262 5.95589 11.162H6.6559Z" fill="#C3E7EF"/>
<path d="M6.65588 11.162C7.15588 11.062 7.7559 11.162 8.3559 11.462C8.9559 11.762 9.45588 12.262 10.0559 12.862C10.5559 13.562 10.9559 14.262 11.2559 14.962C11.4559 15.462 11.5559 15.762 11.8559 16.062C12.0559 16.262 12.3559 16.462 12.6559 16.462C12.4559 16.562 12.4559 16.562 12.1559 16.562C11.8559 16.562 11.6559 16.362 11.3559 16.162C11.0559 15.962 10.8559 15.562 10.7559 15.062C10.5559 14.262 10.0559 13.562 9.55588 12.962C9.05588 12.362 8.4559 11.862 7.8559 11.562C7.3559 11.362 6.95588 11.162 6.65588 11.162ZM13.9559 10.362C14.6559 10.162 15.3559 10.562 16.3559 11.262C17.4559 12.162 18.1559 13.362 18.4559 14.562C18.8559 15.862 18.7559 16.962 18.1559 17.562C17.7559 18.062 17.3559 18.162 16.8559 18.162C17.1559 18.062 17.3559 17.962 17.6559 17.662C18.2559 16.962 18.3559 15.962 17.9559 14.662C17.5559 13.362 16.8559 12.262 15.8559 11.362C15.1559 10.662 14.5559 10.362 13.9559 10.362ZM9.65588 18.962C9.95588 18.862 10.1559 18.762 10.4559 18.562C10.8559 18.162 11.1559 17.962 11.3559 17.862C11.4559 17.862 11.5559 17.862 11.5559 17.962C11.3559 18.062 11.0559 18.262 10.8559 18.462C10.5559 18.862 10.1559 18.962 9.65588 18.962ZM14.8559 17.662C14.7559 17.662 14.7559 17.762 14.6559 17.762C14.3559 18.062 14.3559 18.462 14.5559 19.062C14.7559 19.562 15.1559 20.062 15.7559 20.462C16.5559 20.962 16.9559 21.362 17.1559 21.662C17.7559 22.362 18.1559 23.062 18.4559 23.862C18.6559 24.662 18.7559 25.362 18.6559 26.062C18.5559 26.762 18.3559 27.262 17.9559 27.562C17.6559 27.762 17.3559 27.862 16.9559 27.862C17.1559 27.762 17.2559 27.662 17.4559 27.562C17.8559 27.262 18.0559 26.762 18.1559 26.062C18.2559 25.362 18.1559 24.662 17.9559 23.862C17.6559 23.062 17.2559 22.262 16.6559 21.662C16.4559 21.362 15.9559 20.962 15.2559 20.462C14.6559 19.962 14.2559 19.562 14.0559 19.062C13.8559 18.462 13.8559 17.962 14.1559 17.762C14.2559 17.562 14.5559 17.562 14.8559 17.662Z" fill="#086CAF"/>
<defs>
<linearGradient id="paint0_linear_5_389" x1="18.5153" y1="6.20142" x2="7.2985" y2="29.8796" gradientUnits="userSpaceOnUse">
<stop stop-color="#3F00FC"/>
<stop offset="1" stop-color="#7F00FF"/>
</linearGradient>
<linearGradient id="paint1_linear_5_389" x1="11.6169" y1="-1.2291" x2="27.9451" y2="27.2777" gradientUnits="userSpaceOnUse">
<stop stop-color="#1500FC"/>
<stop offset="1" stop-color="#A400FF"/>
</linearGradient>
</defs>
</svg>
