<?xml version="1.0" encoding="UTF-8"?>
<svg id="Calque_1" data-name="Calque 1" xmlns="http://www.w3.org/2000/svg" viewBox="0 0 798 454">
  <defs>
    <style>
      .cls-1 {
        fill: #09d;
      }

      .cls-2 {
        fill: #fff;
      }

      .cls-3 {
        fill: #fdfffc;
      }
    </style>
  </defs>
  <g>
    <g>
      <path class="cls-3" d="M358.64,189.54c-1.6-3.51-3.69-6.63-6.3-9.33s-5.65-4.83-9.11-6.37c-3.48-1.55-7.2-2.32-11.15-2.32s-7.26,.71-10.49,2.11c-3.24,1.4-6.25,3.2-9.05,5.42-2.9-2.31-5.96-4.15-9.19-5.5-2.78-1.15-5.7-1.82-8.78-1.98-.52-.04-1.04-.05-1.57-.05-4.05,0-7.87,.82-11.44,2.47s-6.68,3.82-9.33,6.52-4.73,5.84-6.22,9.41c-1.5,3.57-2.25,7.23-2.25,10.99v53.27c0,2.8,.94,5.14,2.82,7.02s4.17,2.82,6.88,2.82,5.14-.94,7.02-2.82c1.89-1.88,2.82-4.22,2.82-7.02v-52.11c0-2.8,.94-5.14,2.82-7.02,1.88-1.89,4.17-2.82,6.88-2.82s5.14,.94,7.02,2.82c1.88,1.88,2.82,4.22,2.82,7.02v52.11c0,2.8,.94,5.14,2.82,7.02,1.88,1.88,4.17,2.82,6.88,2.82s5-.94,6.88-2.82,2.82-4.22,2.82-7.02v-52.11c0-2.8,.96-5.14,2.89-7.02,1.93-1.89,4.24-2.82,6.95-2.82s4.99,.94,6.88,2.82,2.81,4.22,2.81,7.02v52.11c0,2.8,.94,5.14,2.82,7.02s4.22,2.82,7.02,2.82c2.61,0,4.87-.94,6.81-2.82,1.93-1.88,2.89-4.22,2.89-7.02v-53.27c-.19-4.05-1.09-7.84-2.67-11.36Z"/>
      <path class="cls-3" d="M464.37,213.93c-1.93-4.15-4.49-7.74-7.67-10.78s-6.89-5.4-11.15-7.09c-4.24-1.69-8.68-2.53-13.32-2.53-5.02,0-9.64,.92-13.89,2.75-4.25,1.83-7.93,4.34-11.07,7.53s-5.6,6.89-7.39,11.15c-.07,.15-.13,.31-.19,.46-1.66,4.11-2.54,8.5-2.64,13.14v26.06c0,2.22,.75,4.13,2.26,5.73,.2,.22,.42,.43,.64,.63,1.93,1.74,4.15,2.61,6.66,2.61s4.72-.94,6.66-2.82c1.93-1.88,2.89-4.07,2.89-6.58v-26.34c0-2.13,.43-4.16,1.3-6.08s2.03-3.57,3.48-4.92,3.14-2.44,5.06-3.26c1.94-.81,3.96-1.23,6.08-1.23,2.31,0,4.46,.43,6.44,1.3,1.97,.87,3.71,2.02,5.21,3.48,1.49,1.45,2.65,3.15,3.47,5.14,.82,1.97,1.24,4.07,1.24,6.29v26.06c0,2.61,.94,4.75,2.81,6.44,1.89,1.68,4.13,2.53,6.73,2.53,2.61-.09,4.8-1.06,6.58-2.9,1.79-1.83,2.68-4,2.68-6.51v-26.78c0-4.83-.96-9.31-2.9-13.47Z"/>
      <path class="cls-3" d="M543.2,179.2c-.38-1.83-1.25-3.4-2.62-4.7-1.89-1.79-4.08-2.68-6.59-2.68-1.26,0-2.46,.25-3.62,.73-1.15,.48-2.17,1.15-3.04,2.02s-1.57,1.88-2.1,3.04-.79,2.36-.79,3.62v16.64c-4.92-2.6-10.28-3.9-16.07-3.9-4.73,0-9.22,.94-13.46,2.82-1.6,.71-3.13,1.5-4.57,2.4-2.42,1.47-4.64,3.21-6.65,5.19-3.23,3.18-5.79,6.9-7.67,11.15-1.88,4.25-2.82,8.74-2.82,13.46s.96,9.36,2.89,13.61c1.94,4.24,4.51,7.96,7.74,11.15,1.61,1.59,3.34,3,5.2,4.25,1.88,1.27,3.88,2.36,6.02,3.28,4.25,1.83,8.69,2.75,13.32,2.75s9.07-.94,13.32-2.82c3.72-1.65,7.06-3.81,10-6.47,.42-.36,.81-.75,1.21-1.13,3.24-3.18,5.79-6.89,7.68-11.15,1.88-4.24,2.82-8.73,2.82-13.46v-47.62c0-.76-.07-1.47-.21-2.16Zm-20.06,56.01c-.87,1.94-2.05,3.65-3.54,5.14s-3.21,2.68-5.15,3.55c-1.93,.87-3.96,1.3-6.07,1.3-2.22,0-4.32-.43-6.3-1.3-1.97-.87-3.71-2.03-5.2-3.48-1.5-1.45-2.68-3.16-3.55-5.14s-1.3-4.08-1.3-6.3,.43-4.17,1.3-6.15c.87-1.97,2.05-3.71,3.55-5.21s3.23-2.67,5.2-3.54c1.98-.87,4.08-1.3,6.3-1.3s4.15,.42,6.07,1.23c1.94,.82,3.65,1.96,5.15,3.4,1.49,1.45,2.67,3.16,3.54,5.14,.87,1.98,1.3,4.13,1.3,6.44s-.43,4.3-1.3,6.22Z"/>
      <path class="cls-1" d="M621.25,219.49c-.41-1.4-.91-2.77-1.5-4.11-1.88-4.25-4.41-7.96-7.59-11.15-3.19-3.18-6.9-5.7-11.15-7.53-4.25-1.83-8.74-2.75-13.47-2.75s-9.36,.94-13.6,2.82c-4.25,1.88-7.96,4.41-11.15,7.59-3.18,3.18-5.72,6.9-7.6,11.15-1.88,4.25-2.82,8.74-2.82,13.46v48.49c.1,2.51,1.09,4.61,2.98,6.3,1.88,1.68,4.02,2.53,6.44,2.53,2.7,0,4.97-.92,6.8-2.75,1.83-1.84,2.75-4,2.75-6.52v-16.64c4.83,2.41,10.23,3.62,16.21,3.62,4.92,0,9.53-.92,13.83-2.75,4.29-1.83,8.01-4.34,11.15-7.53,2.8-2.84,5.06-6.11,6.78-9.8,.21-.44,.41-.89,.6-1.34,1.79-4.25,2.68-8.78,2.68-13.61,0-3.3-.44-6.46-1.32-9.49Zm-18.87,15.79c-.82,1.97-1.96,3.71-3.4,5.21-1.45,1.49-3.14,2.67-5.06,3.54-1.94,.87-4.05,1.3-6.38,1.3-2.12,0-4.17-.41-6.15-1.23s-3.71-1.96-5.21-3.4c-1.49-1.45-2.67-3.16-3.54-5.14-.87-1.98-1.3-4.17-1.3-6.59,0-2.22,.41-4.29,1.23-6.22,.82-1.93,1.96-3.62,3.4-5.06,1.45-1.45,3.16-2.61,5.14-3.48,1.98-.87,4.13-1.3,6.44-1.3s4.3,.42,6.22,1.23c1.94,.82,3.62,1.96,5.07,3.41s2.6,3.15,3.47,5.14c.87,1.97,1.3,4.07,1.3,6.29s-.41,4.33-1.23,6.3Z"/>
      <path class="cls-1" d="M695.45,216.32c-1.6-4-3.77-7.57-6.52-10.71s-6.03-5.71-9.84-7.74c-3.82-2.02-7.89-3.28-12.23-3.76-.67-.09-1.32-.14-1.96-.14h-2.1c-7.23,0-13.7,1.93-19.39,5.79-5.7,3.85-9.95,8.93-12.74,15.2-.96,2.22-1.72,4.49-2.25,6.8s-.79,4.73-.79,7.23,.26,4.92,.79,7.24c.53,2.31,1.28,4.58,2.25,6.8,2.8,6.18,7.05,11.21,12.74,15.12,5.69,3.91,12.16,5.87,19.39,5.87,2.8,0,5.45-.29,7.96-.87,2.41-.58,4.78-1.4,7.09-2.47,.39-.19,.77-.41,1.15-.65,.39-.24,.82-.45,1.3-.65,2.03,3.09,4.73,4.64,8.1,4.64,2.42,0,4.59-.92,6.52-2.75s2.9-4.05,2.9-6.66v-25.62c0-4.44-.8-8.66-2.39-12.67Zm-17.88,19.11c-.87,1.98-2.02,3.69-3.48,5.14-1.45,1.45-3.15,2.59-5.14,3.4-1.97,.82-4.07,1.24-6.29,1.24-2.03,0-4-.43-5.94-1.3-1.93-.87-3.64-2.03-5.14-3.48-1.49-1.45-2.7-3.16-3.62-5.14s-1.37-4.08-1.37-6.3,.43-4.17,1.3-6.15c.87-1.97,2.05-3.71,3.54-5.21,1.49-1.49,3.21-2.67,5.14-3.54s3.96-1.3,6.08-1.3,4.17,.43,6.15,1.3,3.71,2.05,5.21,3.54c1.49,1.5,2.67,3.24,3.54,5.21,.87,1.98,1.3,4.03,1.3,6.15,0,2.31-.43,4.47-1.3,6.44Z"/>
      <path class="cls-1" d="M773.1,196.35c-1.93-1.69-4.15-2.54-6.66-2.54-2.7,0-4.94,.93-6.72,2.76-1.06,1.08-1.79,2.28-2.23,3.59-.3,.92-.45,1.88-.45,2.92v26.49c0,2.22-.45,4.27-1.37,6.15-.93,1.88-2.13,3.49-3.63,4.85-1.49,1.35-3.23,2.42-5.2,3.18-1.98,.77-3.99,1.16-6.01,1.16-2.31,0-4.47-.43-6.44-1.3-1.98-.87-3.69-2.02-5.14-3.48-1.45-1.45-2.59-3.14-3.4-5.06-.82-1.93-1.24-4-1.24-6.22v-26.2c0-2.61-.98-4.72-2.97-6.37-1.97-1.64-4.17-2.47-6.58-2.47-2.7,0-4.95,.93-6.73,2.76s-2.67,4-2.67,6.51v24.76c0,5.2,.94,10.01,2.82,14.39,1.88,4.39,4.43,8.18,7.67,11.36,3.23,3.19,6.97,5.7,11.22,7.53,4.24,1.84,8.73,2.76,13.46,2.76,2.89,0,5.76-.32,8.61-.94,2.84-.62,5.37-1.62,7.59-2.97v16.64c0,.12,0,.25,0,.37,.08,2.63,1.04,4.77,2.89,6.43,1.93,1.74,4.1,2.61,6.51,2.61s4.73-.87,6.66-2.61c1.93-1.74,2.9-3.85,2.9-6.37v-74.4c0-2.5-.97-4.61-2.9-6.29Z"/>
      <g>
        <rect class="cls-3" x="369.28" y="193.5" width="18.67" height="71.29" rx="6.47" ry="6.47"/>
        <rect class="cls-2" x="368.69" y="167.7" width="19.85" height="19.85" rx="6.88" ry="6.88"/>
      </g>
    </g>
    <g>
      <path class="cls-2" d="M267.23,272.41v13.05h-.75v-14.19h.75l10.37,13.03v-13.03h.75v14.19h-.75l-10.37-13.05Z"/>
      <path class="cls-2" d="M292.05,285.46c-.74,.16-1.48,.24-2.22,.24-1.19,0-2.13-.25-2.83-.74-.7-.49-1.05-1.23-1.05-2.22v-4.16c0-1.09,.41-1.95,1.22-2.55,.81-.61,1.89-.91,3.22-.91s2.38,.3,3.12,.9c.75,.6,1.12,1.44,1.12,2.5v2.17l-7.91,.34v1.72c0,.77,.29,1.36,.88,1.76,.59,.41,1.35,.61,2.3,.61,.58,0,1.19-.08,1.85-.23,.65-.15,1.3-.38,1.94-.68l.34,.53c-.58,.31-1.24,.55-1.98,.71Zm.75-9.11c-.71-.43-1.52-.64-2.44-.64-1.01,0-1.87,.23-2.58,.7-.71,.47-1.06,1.19-1.06,2.18v1.82l7.14-.32v-1.62c0-.99-.35-1.69-1.06-2.12Z"/>
      <path class="cls-2" d="M300.06,275.3h.8l3.83,9.26,3.86-9.26h.8l-4.22,10.15h-.87l-4.2-10.15Z"/>
      <path class="cls-2" d="M320.78,285.46c-.74,.16-1.48,.24-2.22,.24-1.19,0-2.13-.25-2.83-.74-.7-.49-1.05-1.23-1.05-2.22v-4.16c0-1.09,.41-1.95,1.22-2.55,.81-.61,1.89-.91,3.22-.91s2.38,.3,3.12,.9c.75,.6,1.12,1.44,1.12,2.5v2.17l-7.91,.34v1.72c0,.77,.29,1.36,.88,1.76,.59,.41,1.35,.61,2.3,.61,.58,0,1.19-.08,1.85-.23,.65-.15,1.3-.38,1.94-.68l.34,.53c-.58,.31-1.24,.55-1.98,.71Zm.75-9.11c-.71-.43-1.52-.64-2.44-.64-1.01,0-1.87,.23-2.58,.7-.71,.47-1.06,1.19-1.06,2.18v1.82l7.14-.32v-1.62c0-.99-.35-1.69-1.06-2.12Z"/>
      <path class="cls-2" d="M330.59,275.3h.77l-.02,.95c.88-.74,2.05-1.11,3.5-1.11,.55,0,1.14,.05,1.78,.16l-.22,.65c-.5-.14-1.05-.2-1.64-.2-.93,0-1.73,.16-2.4,.48-.67,.32-1,.71-1,1.19v8.05h-.77v-10.15Z"/>
      <path class="cls-2" d="M367.54,273.14l-5.33,12.32h-.8l-5.31-12.32v12.32h-.75v-14.19h.75l5.72,13.17,5.72-13.17h.75v14.19h-.75v-12.32Z"/>
      <path class="cls-2" d="M377.07,271.78c-.1-.08-.14-.18-.14-.3,0-.11,.05-.2,.14-.28,.1-.08,.22-.12,.36-.12,.13,0,.24,.04,.34,.12,.1,.08,.14,.18,.14,.28,0,.12-.05,.22-.14,.3-.1,.08-.21,.12-.34,.12-.14,0-.27-.04-.36-.12Zm-.02,3.53h.77v10.15h-.77v-10.15Z"/>
      <path class="cls-2" d="M394.34,278.45c0-.93-.36-1.62-1.07-2.06-.72-.44-1.62-.66-2.71-.66-.63,0-1.26,.06-1.89,.19-.64,.13-1.19,.31-1.68,.54v9h-.77v-10.15h.77v.53c.5-.23,1.05-.41,1.66-.53,.61-.12,1.24-.18,1.88-.18,1,0,1.84,.13,2.53,.4,1.37,.53,2.05,1.5,2.05,2.92v7.01h-.77v-7.01Z"/>
      <path class="cls-2" d="M411.94,271.27v14.19l-1.33,.1c-1.05,.09-1.87,.14-2.46,.14s-1.15-.05-1.68-.14c-.52-.1-1.04-.25-1.56-.47-.58-.24-1.04-.6-1.37-1.07-.34-.47-.51-1.05-.51-1.74v-3.83c0-1.42,.68-2.39,2.05-2.92,.63-.26,1.46-.38,2.48-.38,.66,0,1.31,.06,1.95,.17,.64,.12,1.19,.28,1.64,.5v-4.54h.77Zm-2.42,4.65c-.65-.13-1.3-.19-1.94-.19-1.09,0-1.99,.22-2.7,.66-.71,.44-1.06,1.14-1.06,2.12v3.79c0,.99,.42,1.7,1.27,2.14,.84,.44,1.94,.66,3.29,.66,.82,0,1.75-.08,2.8-.24v-8.43c-.45-.2-1-.37-1.65-.5Z"/>
      <path class="cls-2" d="M431.07,271.27h8.06v.65h-7.26v5.17h4.68l-.31,.65h-4.37v7.72h-.8v-14.19Z"/>
      <path class="cls-2" d="M450.89,284.55c-.74,.74-1.86,1.12-3.35,1.12s-2.63-.38-3.39-1.13-1.15-1.69-1.15-2.81v-2.68c0-1.28,.39-2.27,1.17-2.95,.78-.68,1.9-1.02,3.36-1.02s2.49,.35,3.28,1.06,1.18,1.68,1.18,2.91v2.68c0,1.13-.37,2.07-1.11,2.82Zm-.7-8.04c-.69-.55-1.58-.82-2.65-.82s-2.03,.27-2.73,.82-1.04,1.38-1.04,2.48v2.82c0,.92,.31,1.69,.94,2.32,.63,.63,1.57,.94,2.82,.94s2.14-.31,2.76-.92c.62-.62,.93-1.4,.93-2.34v-2.82c0-1.11-.35-1.94-1.04-2.48Z"/>
      <path class="cls-2" d="M459.19,275.3h.77l-.02,.95c.88-.74,2.05-1.11,3.5-1.11,.55,0,1.14,.05,1.78,.16l-.22,.65c-.5-.14-1.05-.2-1.64-.2-.93,0-1.73,.16-2.4,.48-.67,.32-1,.71-1,1.19v8.05h-.77v-10.15Z"/>
      <path class="cls-2" d="M488.37,285.66c-1.4,0-2.53-.31-3.4-.93-.87-.62-1.3-1.61-1.3-2.98v-6.51c0-1.03,.17-1.8,.52-2.33,.35-.53,.87-.97,1.58-1.34,.69-.34,1.56-.51,2.6-.51,.59,0,1.19,.06,1.78,.17,.59,.11,1.13,.28,1.62,.5l-.27,.49c-1.06-.36-2.05-.55-2.97-.55-1.03,0-1.97,.23-2.82,.69-.85,.46-1.28,1.36-1.28,2.7v6.65c0,1.11,.35,1.95,1.05,2.51,.7,.57,1.68,.85,2.93,.85,1.09,0,2.35-.22,3.76-.65l.19,.57c-1.43,.45-2.77,.67-4,.67Z"/>
      <path class="cls-2" d="M503.74,285.68c-1.69,0-3.03-.26-4.03-.79-1-.53-1.5-1.48-1.5-2.86v-1.68c0-1.31,.58-2.2,1.74-2.68,.58-.24,1.31-.36,2.19-.36,.79,0,1.6,.1,2.42,.3,.83,.2,1.55,.48,2.16,.83,0-1.86-1.43-2.78-4.29-2.76l.05-.55c1.54,0,2.68,.21,3.41,.62,.73,.41,1.18,.9,1.35,1.47,.17,.57,.25,1.3,.25,2.19v6.04c-1.74,.15-2.99,.22-3.76,.22Zm.83-7.43c-.86-.22-1.68-.33-2.45-.33-.95,0-1.71,.2-2.28,.59-.57,.39-.86,1.03-.86,1.91v1.76c0,1.07,.42,1.82,1.27,2.26,.84,.44,2,.66,3.46,.66,.85,0,1.86-.07,3.01-.2v-5.84c-.58-.31-1.3-.58-2.16-.8Z"/>
      <path class="cls-2" d="M515.92,284.5c.66,.43,1.53,.64,2.6,.64,.98,0,1.8-.2,2.46-.59,.66-.39,.99-.93,.99-1.6,0-.47-.17-.86-.49-1.16-.33-.3-.73-.54-1.21-.72-.47-.18-1.13-.38-1.97-.61-.85-.23-1.54-.44-2.05-.63-.52-.19-.95-.45-1.3-.79-.35-.34-.53-.76-.53-1.28,0-.45,.14-.87,.42-1.28,.28-.41,.73-.74,1.34-1.01,.61-.27,1.37-.41,2.29-.41,.5,0,.95,.04,1.35,.13,.4,.09,.71,.18,.94,.28,.22,.1,.36,.17,.41,.19l-.31,.55s-.18-.08-.4-.17c-.22-.09-.51-.17-.87-.25-.36-.08-.76-.12-1.19-.12-.9,0-1.68,.19-2.34,.58-.66,.39-.95,.95-.87,1.69,.05,.49,.34,.86,.88,1.11,.54,.26,1.35,.52,2.42,.79,.9,.23,1.64,.45,2.21,.67,.57,.22,1.05,.52,1.45,.91,.39,.39,.59,.89,.59,1.5,0,.81-.36,1.49-1.07,2.03-.72,.54-1.76,.81-3.15,.81-.92,0-1.71-.13-2.38-.4s-1.17-.61-1.52-1.04c-.35-.43-.53-.91-.57-1.44h.75c.08,.65,.45,1.19,1.11,1.61Z"/>
      <path class="cls-2" d="M538.08,278.45c0-.93-.35-1.62-1.06-2.07s-1.61-.67-2.7-.67c-.63,0-1.25,.07-1.88,.2-.63,.13-1.2,.32-1.71,.55v9h-.77v-14.19h.77v4.56c.5-.23,1.05-.41,1.66-.53,.61-.12,1.24-.18,1.88-.18,1,0,1.84,.13,2.53,.4,1.37,.53,2.05,1.5,2.05,2.92v7.01h-.77v-7.01Z"/>
    </g>
  </g>
  <g>
    <path class="cls-3" d="M218.4,212.5l-.02-15.78-.02-11.1c-.02-.22-.07-.43-.13-.65-1.13-4.76-4.63-8.9-8.87-11.33-19.77-11.1-39.58-22.13-59.38-33.2-9.89-5.76-22.76-5.85-32.67-.1-17.81,9.96-35.65,19.87-53.44,29.86-9.61,5.3-16.05,15.92-15.93,26.94-.03,19.62,0,39.25-.01,58.87-.16,7.75,2.62,15.48,7.84,21.22,4.97,5.72,12.18,8.52,18.49,12.4,.24-25.83,0-51.68,.13-77.51,.24-8.81,3.68-17.6,9.99-23.82,3.63-3.93,8.38-6.53,13.08-8.96,11.45-6.18,22.84-12.44,34.3-18.58,2.16-1.33,6.01-.32,5.94,2.62,.65,1.78-1.11,3.2-2.45,3.99-11.04,5.99-22.08,12.03-33.14,17.98-3.67,2.07-7.57,3.83-10.74,6.65-5.69,5.03-9.19,12.55-9.17,20.17,.03,27.3-.03,54.6,.03,81.91,8.89,4.85,17.72,9.83,26.52,14.84,.15-27.24-.03-54.48,.09-81.72,.36-12.19,7.89-23.65,18.68-29.22,12.42-6.42,24.75-13,37.21-19.33,1.57-1.1,3.48-.52,5.18-.14,1.12,2.12,1.57,5.1-1.02,6.33-12.69,6.76-25.54,13.23-38.24,19.98-8.46,4.59-14.18,13.88-14.15,23.56-.06,28.32-.01,56.64-.02,84.97,7.25,3.99,15.84,5.74,23.99,3.86,4.97-.95,9.32-3.5,13.67-5.99v-33.81l4.61-2.75c.44-.45,.96-.82,1.57-1.1,2.01-1.14,4.01-2.29,6.02-3.42,14.69-8.36,29.36-16.73,44.01-25.14,4.68-2.66,8.04-7.77,8.08-13.22l-.03-19.24Zm-54.96,32c-1.82,1.32-4.78,.82-5.69-1.33-1.5-1.76,.28-4.06,1.79-5.08,14.41-8.31,28.92-16.47,43.32-24.77l.08,8.6c-13.17,7.52-26.35,15.02-39.5,22.57Z"/>
    <path class="cls-3" d="M227.52,153.09l-77.5-44.75c-10.38-6-23.29-6-33.68,0l-77.5,44.75c-10.38,6-16.84,17.17-16.84,29.17v89.5c0,11.99,6.46,23.17,16.84,29.17l77.5,44.75c5.09,2.94,10.91,4.49,16.84,4.49s11.74-1.56,16.84-4.49l77.5-44.75c10.4-6,16.84-17.17,16.84-29.17v-89.5c0-11.99-6.44-23.17-16.84-29.17Zm-104.99,181.86l-77.5-44.75c-6.56-3.8-10.65-10.86-10.65-18.45v-89.5c0-7.59,4.09-14.66,10.65-18.45l77.5-44.75c3.22-1.86,6.92-2.85,10.65-2.85s7.43,.99,10.65,2.85l77.5,44.75c6.58,3.78,10.65,10.86,10.65,18.45v89.5c0,7.59-4.07,14.64-10.65,18.45l-77.5,44.75c-6.56,3.79-14.72,3.79-21.29,0Z"/>
  </g>
</svg>