<?xml version="1.0" encoding="UTF-8"?>
<svg xmlns="http://www.w3.org/2000/svg" xmlns:xlink="http://www.w3.org/1999/xlink" viewBox="0 0 798 454">
  <defs>
    <style>
      .cls-1 {
        fill: #90a3af;
      }

      .cls-2 {
        fill: url(#linear-gradient-2);
      }

      .cls-3 {
        fill: #d11f11;
      }

      .cls-4 {
        fill: #18aec8;
      }

      .cls-5 {
        clip-path: url(#clippath-11);
      }

      .cls-6 {
        fill: #fff;
      }

      .cls-7 {
        fill: #0b2025;
      }

      .cls-8 {
        fill: #fcc90d;
      }

      .cls-9 {
        fill: #ffd140;
      }

      .cls-10 {
        fill: #ff3912;
      }

      .cls-11 {
        fill: #ffd22c;
      }

      .cls-12, .cls-13 {
        opacity: .5;
      }

      .cls-14 {
        fill: #aa160b;
      }

      .cls-15 {
        clip-path: url(#clippath-2);
      }

      .cls-16 {
        clip-path: url(#clippath-13);
      }

      .cls-17 {
        isolation: isolate;
      }

      .cls-18 {
        mix-blend-mode: darken;
      }

      .cls-18, .cls-19, .cls-20 {
        opacity: .4;
      }

      .cls-21 {
        clip-path: url(#clippath-6);
      }

      .cls-22 {
        opacity: .7;
      }

      .cls-23 {
        fill: #4e6566;
      }

      .cls-24 {
        clip-path: url(#clippath-7);
      }

      .cls-25 {
        clip-path: url(#clippath-1);
      }

      .cls-26 {
        clip-path: url(#clippath-4);
      }

      .cls-27 {
        fill: #d8810e;
      }

      .cls-28 {
        fill: #bf2105;
      }

      .cls-29 {
        opacity: 0;
      }

      .cls-29, .cls-13, .cls-19 {
        mix-blend-mode: multiply;
      }

      .cls-30 {
        clip-path: url(#clippath-12);
      }

      .cls-31 {
        fill: #324446;
      }

      .cls-32 {
        fill: #e08b0e;
      }

      .cls-33 {
        clip-path: url(#clippath-9);
      }

      .cls-34 {
        clip-path: url(#clippath);
      }

      .cls-35 {
        fill: #e58e0e;
      }

      .cls-36 {
        fill: #f8ffff;
      }

      .cls-37 {
        fill: #cccacb;
      }

      .cls-38 {
        fill: none;
      }

      .cls-39 {
        fill: #db8616;
      }

      .cls-40 {
        fill: #b71d0d;
      }

      .cls-41 {
        clip-path: url(#clippath-3);
      }

      .cls-42 {
        fill: #b3c0c6;
      }

      .cls-43 {
        fill: #ffcd2e;
      }

      .cls-44 {
        clip-path: url(#clippath-8);
      }

      .cls-45 {
        fill: #d31c04;
      }

      .cls-46 {
        fill: #5ac7d3;
      }

      .cls-47 {
        mask: url(#mask);
      }

      .cls-48 {
        fill: url(#linear-gradient-3);
      }

      .cls-49 {
        clip-path: url(#clippath-5);
      }

      .cls-50 {
        fill: url(#linear-gradient);
      }

      .cls-51 {
        fill: #ffa134;
      }

      .cls-52 {
        fill: #7f3705;
      }

      .cls-53 {
        fill: #fc0;
      }

      .cls-54 {
        fill: #b5c0c9;
      }

      .cls-55 {
        clip-path: url(#clippath-10);
      }

      .cls-56 {
        fill: #d69522;
      }
    </style>
    <clipPath id="clippath">
      <rect class="cls-38" x="99.45" y="224.38" width="1.74" height="5.59"/>
    </clipPath>
    <linearGradient id="linear-gradient" x1="164.64" y1="145.16" x2="167.75" y2="145.16" gradientTransform="translate(7.59 308.17) scale(.56 -.56)" gradientUnits="userSpaceOnUse">
      <stop offset="0" stop-color="#fff200"/>
      <stop offset="1" stop-color="#f7941e"/>
    </linearGradient>
    <clipPath id="clippath-1">
      <rect class="cls-38" x="95.37" y="207.44" width="62.88" height="27.35"/>
    </clipPath>
    <clipPath id="clippath-2">
      <rect class="cls-38" x="148.18" y="211.04" width="10.09" height="22.42"/>
    </clipPath>
    <linearGradient id="linear-gradient-2" x1="-145.52" y1="519.55" x2="-142.4" y2="519.55" gradientTransform="translate(-702.43 -2881.54) rotate(-180) scale(5.98 -5.98)" gradientUnits="userSpaceOnUse">
      <stop offset="0" stop-color="#fff"/>
      <stop offset=".11" stop-color="#d9d9d9"/>
      <stop offset=".36" stop-color="#8d8d8d"/>
      <stop offset=".58" stop-color="#505050"/>
      <stop offset=".77" stop-color="#242424"/>
      <stop offset=".91" stop-color="#090909"/>
      <stop offset="1" stop-color="#000"/>
    </linearGradient>
    <mask id="mask" x="126.23" y="196.64" width="57.01" height="52.93" maskUnits="userSpaceOnUse">
      <g>
        <rect x="148.18" y="211.04" width="10.09" height="22.43"/>
        <g class="cls-17">
          <g class="cls-15">
            <rect class="cls-2" x="126.23" y="196.64" width="57.01" height="52.93"/>
          </g>
        </g>
      </g>
    </mask>
    <clipPath id="clippath-3">
      <rect class="cls-38" x="148.18" y="211.04" width="10.09" height="22.42"/>
    </clipPath>
    <clipPath id="clippath-4">
      <rect class="cls-38" x="148.18" y="211.04" width="10.09" height="22.42"/>
    </clipPath>
    <clipPath id="clippath-5">
      <rect class="cls-38" x="95.35" y="196.11" width="62.94" height="35"/>
    </clipPath>
    <clipPath id="clippath-6">
      <rect class="cls-38" x="100.47" y="197.02" width="29.03" height="17.07"/>
    </clipPath>
    <clipPath id="clippath-7">
      <rect class="cls-38" x="122.51" y="195.21" width="8.92" height="4.27"/>
    </clipPath>
    <clipPath id="clippath-8">
      <path class="cls-38" d="M94.1,243.99c.07,.89,.52,1.81,1.81,2.53,.4,.22,1.04,.4,1.29,.46,.79,.19,1.77,.31,3,.31,.57,0,1.1,0,1.57-.08,.62-.11,.92-.14,1.26-.21,2.53-.55,3.26-2,3.26-3.01,0-.74-.66-6.58-1.79-11.72-.88-4-1.87-7.66-4.3-7.66-5.56,0-6.21,17.85-6.1,19.37"/>
    </clipPath>
    <linearGradient id="linear-gradient-3" x1="-92.19" y1="466.62" x2="-89.08" y2="466.62" gradientTransform="translate(-3803.39 992.42) rotate(90) scale(8.37 -8.37)" gradientUnits="userSpaceOnUse">
      <stop offset="0" stop-color="#fff200"/>
      <stop offset="0" stop-color="#fef100"/>
      <stop offset=".46" stop-color="#fabf10"/>
      <stop offset=".81" stop-color="#f89f1a"/>
      <stop offset="1" stop-color="#f7941e"/>
    </linearGradient>
    <clipPath id="clippath-9">
      <rect class="cls-38" x="118.87" y="230.18" width="43.8" height="42.62"/>
    </clipPath>
    <clipPath id="clippath-10">
      <rect class="cls-38" x="118.84" y="262.12" width="9.06" height="10.93"/>
    </clipPath>
    <clipPath id="clippath-11">
      <rect class="cls-38" x="126.45" y="215.5" width="55.82" height="56.47"/>
    </clipPath>
    <clipPath id="clippath-12">
      <rect class="cls-38" x="129.61" y="224.79" width="52.66" height="50.46"/>
    </clipPath>
    <clipPath id="clippath-13">
      <rect class="cls-38" x="150.74" y="235.36" width="10.95" height="13.8"/>
    </clipPath>
  </defs>
  <g class="cls-17">
    <g id="Calque_1" data-name="Calque 1">
      <g>
        <g class="cls-34">
          <rect class="cls-50" x="99.45" y="224.38" width="1.74" height="5.59"/>
        </g>
        <path class="cls-43" d="M100.77,224.69c-.16-.04-.34-.07-.52-.07-.28,.16-.64,.4-1.1,.71-3.67,2.45-4.67,15.1-4.69,19.84,.28,.49,.74,.95,1.46,1.36,.4,.23,1.04,.4,1.29,.46,.35,.09,.73,.16,1.16,.21,.08-8.04,1.08-20.5,1.67-21.77,0,0,.44-.4,.74-.73"/>
        <g>
          <path class="cls-31" d="M160.02,225.18c.07,2.16-16.26,13.78-32.74,13.92-16.75,.14-33.66-11.23-33.66-13.91v10.1c0,2.68,11.19,12.33,33.66,12.33s32.82-10.17,32.74-12.33v-10.12Z"/>
          <path class="cls-23" d="M160,224.86c-.55-6.59-15.19-11.88-33.19-11.88s-32.65,5.29-33.19,11.89c0,.12-.02,.25-.02,.37,0,6.72,14.63,13.77,32.76,13.86h.5c.13,0,.26,0,.4,0,.08,0,.16,0,.24,0,18-.14,32.49-7.16,32.5-13.84v-.02c0-.12,0-.25-.02-.37"/>
          <path class="cls-31" d="M158.29,197.1l-31.47,17.19-31.47-17.19,.06,27.62c0,2.54,9.8,11.95,31.84,11.95,23.7,0,31.04-9.91,30.98-11.95l.06-27.62Z"/>
          <g class="cls-13">
            <g class="cls-25">
              <path class="cls-7" d="M95.39,218.77c0-3.48,5.33-3.71,12.61-.44,12.15,5.45,26.08,18.32,36.1,16.24,9.44-2.72,13.35-7.32,14.02-9.28,.05-.43,.08-.79,.11-1.05l.03-12.64c-.46-.02-12.82-.39-25.06-.79l-6.37,3.48-7.23-3.95c-6.35-.23-10.88-.43-10.79-.51,.26-.27-12.66-2.39-12.66-2.39l-.76,.45,.02,10.88Z"/>
            </g>
          </g>
          <g class="cls-47">
            <g class="cls-41">
              <g class="cls-22">
                <g class="cls-26">
                  <polygon class="cls-4" points="158.27 221.19 158.27 211.04 148.18 215.41 148.71 233.47 157.68 225.79 158.27 221.19"/>
                </g>
              </g>
            </g>
          </g>
          <g class="cls-29">
            <g class="cls-49">
              <path class="cls-7" d="M110.23,228.36c4.8,1.69,10.47,2.74,16.58,2.74,19.3,0,31.42-7.2,31.42-12.65l.06-19.21-31.47-3.15-31.47,2.23,.06,16.6c0,4.52,4.98,9.41,12.72,12.62l2.1,.81Z"/>
            </g>
          </g>
          <polygon class="cls-31" points="161.03 196.73 126.8 181.33 92.84 196.73 76.57 199.92 76.57 203.27 76.57 203.27 126.8 225.58 177.47 203.27 177.47 203.27 177.47 199.92 161.03 196.73"/>
          <polygon class="cls-23" points="126.8 177.12 76.57 199.92 126.8 222.22 177.47 199.92 126.8 177.12"/>
          <g class="cls-20">
            <g class="cls-21">
              <path class="cls-7" d="M127.53,197.02s-22.83,6.79-26.3,12.9c-.36,.64-.6,1.74-.76,3.02l1.99,1.15s.02-2.7,.36-3.29c3.46-6.06,26.68-13.04,26.68-13.04l-1.98-.73Z"/>
            </g>
          </g>
          <g class="cls-13">
            <g class="cls-24">
              <path class="cls-7" d="M131.43,197.34c0,1.18-2,2.13-4.46,2.13s-4.46-.96-4.46-2.13,1.99-2.13,4.46-2.13,4.46,.96,4.46,2.13"/>
            </g>
          </g>
          <path class="cls-8" d="M126.76,196.19s-22.83,6.79-26.3,12.9c-1.48,2.62-.9,12.73-.9,12.73l1.81-.27s-.67-9.22,.68-11.59c3.46-6.06,26.19-12.65,26.19-12.65l-1.48-1.12Z"/>
          <path class="cls-39" d="M123.78,198.34l1.33-.38s-.61-.64-.71-.69c-.1-.05-.57,.19-.57,.19l-.26,.11c.23-.04,.5,.66,.21,.78"/>
          <path class="cls-31" d="M131.12,196.26c0,1.1-1.86,1.99-4.15,1.99s-4.15-.89-4.15-1.99,1.86-1.99,4.15-1.99,4.15,.89,4.15,1.99"/>
          <g class="cls-44">
            <rect class="cls-48" x="88.18" y="228.58" width="23.9" height="14.74" transform="translate(-145.46 309.31) rotate(-83.64)"/>
          </g>
          <path class="cls-27" d="M105.15,246.05c.84-.65,1.14-1.44,1.14-2.07,0-1.31-.53-19.37-6.09-19.37-.77,0-1.44,.34-2.03,.93-.32,.46,2.44,.64,3.28,1.9,2.01,3.01,3.72,8.68,3.72,18.47,0,.05,0,.09-.02,.14"/>
          <path class="cls-14" d="M151.75,241.47c3.89,5.24,4.63,11.29,1.65,13.5-2.98,2.22-8.56-.24-12.45-5.49-3.9-5.24-4.63-11.29-1.65-13.5,2.98-2.21,8.56,.24,12.45,5.49"/>
          <path class="cls-37" d="M167.45,212.64l.02,.02c2.65-2.19,7.73-.52,11.39,3.76,3.44,4.03,4.41,8.95,2.36,11.4l-51.79,47.12-13.85-15.27,51.86-47.03Z"/>
          <path class="cls-54" d="M117.87,271.33c-1.62-1.89-3.14-3.78-3.6-5.72-.18-.75,1.55-1.65,1.21-2.28-.59-1.12-.53-3,.49-3.88,2.64-2.25,7.76-.58,11.44,3.73,3.68,4.31,4.53,9.63,1.89,11.88-2.64,2.25-7.76,.58-11.44-3.72"/>
          <g class="cls-19">
            <g class="cls-33">
              <path class="cls-1" d="M152.67,230.81h.01c1.79-1.47,5.21-.34,7.68,2.55,2.32,2.72,2.97,6.03,1.59,7.69l.05,.06-34.96,31.7s1.82-3.25-1.65-7.4c-3.15-3.77-6.53-2.64-6.53-2.64l33.8-31.95Z"/>
            </g>
          </g>
          <g class="cls-19">
            <g class="cls-55">
              <path class="cls-1" d="M124.63,264.86c-.51-.6-3.64,2.93-4.08,2.34-1.69-2.25-2.34-3.23-.93-4.43,1.78-1.52,3.3-.28,5.78,2.63,2.48,2.9,3.35,5.96,1.57,7.48-.77,.65,.72-.62,.68-2.03-.05-1.88-1.61-4.33-3.02-5.98"/>
            </g>
          </g>
          <path class="cls-36" d="M127.42,263.17c-3.68-4.31-8.8-5.98-11.44-3.73-.12,.1-.22,.21-.32,.31l-.07-.08,51.86-47.03,.02,.02c2.65-2.19,7.73-.52,11.39,3.76,3.44,4.03,4.41,8.94,2.36,11.4l-51.39,47.42-.4-.3c2.49-2.31,1.61-7.53-2.01-11.77"/>
          <g class="cls-12">
            <g class="cls-5">
              <path class="cls-42" d="M158.01,243.5s2.93,1.6,2.92,1.56l21.33-20.27c.18-3.72-2.01-6.75-3.41-8.38-.27-.32-.55-.62-.84-.91l-21.12,18.88c.12-.46,.18-.71,.3-1.18-.72,.07-1.08,.11-1.79,.18-.02-.46-.03-.69-.05-1.15-.68,.17-1.03,.26-1.71,.43-.16-.41-.23-.62-.39-1.03-.62,.26-.94,.38-1.56,.64-.27-.35-.4-.52-.68-.87-.54,.32-.82,.48-1.36,.8-.36-.27-.55-.41-.91-.68-.45,.37-.68,.55-1.12,.92-.44-.2-.66-.29-1.1-.49-.35,.4-.52,.6-.87,1.01-.49-.11-.73-.17-1.22-.28-.24,.42-.36,.63-.6,1.05-.52-.03-.78-.04-1.3-.07-.13,.42-.2,.63-.32,1.05-.53,.05-.8,.08-1.33,.13-.02,.41-.03,.61-.05,1.02-.53,.13-.79,.2-1.32,.33,.09,.38,.13,.57,.21,.96-.5,.21-.76,.31-1.26,.51,.19,.35,.28,.52,.48,.85-.46,.28-.7,.42-1.16,.69,.28,.3,.43,.44,.73,.72-.42,.35-.63,.52-1.04,.86,.37,.24,.57,.35,.96,.55-.36,.41-.54,.62-.88,1.01,.45,.16,.68,.24,1.18,.35-.26,.45-.4,.68-.66,1.12,.54,.06,.82,.07,1.38,.1-.17,.49-.26,.74-.43,1.22,.59-.04,.9-.07,1.51-.12-.07,.52-.11,.78-.17,1.29,.61-.13,.93-.2,1.56-.34,.04,.54,.06,.8,.11,1.32,.31-.11,.54-.19,.77-.28l-16.35,14.62,2.27,2,2.29,8.38,25.67-23.37c.21,0-.75-2.98-.49-2.99,0-.23,.02-.43,.02-.62l1.62-1.49h.17"/>
            </g>
          </g>
          <g class="cls-18">
            <g class="cls-30">
              <path class="cls-46" d="M181.22,227.83c.66-.8,1.01-1.85,1.06-3.05h-.02s-20.61,19.56-20.61,19.56l-7.72,6.75-22.13,20.17-2.19,3.82,.21,.16,51.39-47.42Z"/>
            </g>
          </g>
          <path class="cls-6" d="M128.12,276.56c1.54-.54,2.69-1.65,3.28-3.2,1.05-2.72,.17-6.36-2.33-9.72-4.62-6.21-9.28-6.88-12.1-5.44-1.03,.53-1.7,1.3-1.99,2.29-.72,2.45,1.1,5.61,2.08,7.3l.14,.25c1.25,2.18,6.27,6.48,9.08,5.34,.92-.37,1.53-.96,1.82-1.76,.64-1.74-.49-3.9-1.1-5.06l-.09-.17c-.83-1.59-4.88-5.6-7.18-4.47-.71,.35-1.16,.92-1.29,1.66-.26,1.46,.83,3.23,1.63,4.05,.24,.26,.64,.26,.9,.02,.26-.24,.26-.64,.02-.9-.62-.64-1.46-2.03-1.29-2.96,.06-.33,.25-.57,.6-.74,1.22-.6,4.74,2.46,5.5,3.91l.09,.17c.48,.91,1.48,2.82,1.03,4.03-.16,.45-.53,.78-1.1,1.02-1.77,.72-6.27-2.64-7.51-4.8l-.14-.25c-.88-1.53-2.53-4.38-1.96-6.31,.2-.66,.63-1.15,1.35-1.52,2.25-1.15,6.35-.52,10.5,5.06,2.24,3.01,3.05,6.19,2.16,8.51-.54,1.4-1.66,2.33-3.16,2.64-3.3,.67-9.69-2.96-12.19-10.14-.12-.33-.48-.5-.81-.39-.33,.12-.5,.48-.39,.81,2.76,7.94,9.81,11.74,13.64,10.97,.28-.06,.55-.13,.81-.22"/>
          <path class="cls-1" d="M151.6,241.04c-2.87-3.36-6.5-5.32-9.48-5.42l-2.99,2.71c.11-.03,.24-.1,.4-.21,2.32-1.74,7.69,.59,10.77,4.19,3.48,4.07,4.7,8.83,2.44,11.8l2.67-2.47c.54-3-.82-7.09-3.81-10.6"/>
          <path class="cls-14" d="M152.13,240.5c-4.2-4.92-10.04-6.84-13.08-4.32l-.47,.49-.41,.85,.14,.4c.81-.67,.84,.34,1.74-.34,2.32-1.74,7.69,.59,10.77,4.19,3.58,4.19,4.77,9.1,2.24,12.05-.23,.27,.44,.79,.21,1.06,0,0,.19,.03,.24,0,.5-.39,1.32-1.28,1.32-1.28,2.35-2.83,1.24-8.47-2.71-13.09"/>
          <path class="cls-3" d="M157.78,235.46c-4.2-4.92-10.04-6.84-13.08-4.32l-.02-.02-5.53,4.99c3.08-2.31,8.82-.38,12.94,4.44,3.95,4.63,5.06,10.27,2.71,13.09l5.68-5.09c2.35-2.82,1.24-8.46-2.71-13.09"/>
          <g class="cls-13">
            <g class="cls-16">
              <path class="cls-40" d="M157.78,235.46s-.05-.06-.08-.09c-1.22,.04-2.59,.11-2.66,.23-.1,.16-2.83,2.31-4.3,3.52,.47,.44,.92,.92,1.36,1.43,2.38,2.78,3.72,5.93,3.91,8.62l5.67-5.24c-.22-2.65-1.57-5.73-3.9-8.46"/>
            </g>
          </g>
          <polygon class="cls-32" points="164.82 236.69 164.62 237.89 151.21 238.49 150.8 237.32 164.82 236.69"/>
          <polygon class="cls-9" points="161.87 232.69 164.82 236.69 150.8 237.32 154.6 232.89 161.87 232.69"/>
          <polygon class="cls-32" points="151.48 244.65 151.89 245.83 144.66 241.73 144.26 240.55 151.48 244.65"/>
          <polygon class="cls-32" points="159.89 242.43 160.3 243.61 151.88 245.83 151.48 244.65 159.89 242.43"/>
          <polygon class="cls-9" points="150.69 237.45 159.89 242.43 151.48 244.65 144.26 240.55 150.69 237.45"/>
          <polygon class="cls-35" points="152.96 243.19 153.37 242.19 154.86 242.01 154.95 241.05 156.47 240.67 156.44 240.57 150.69 237.45 144.26 240.55 150.45 244.07 150.86 244.15 151.55 243.15 152.96 243.19"/>
          <polygon class="cls-28" points="153.32 227.64 154.13 230 154.36 230.88 153.55 228.53 153.32 227.64"/>
          <polygon class="cls-40" points="138.35 234.34 139.17 236.69 138.63 235.92 137.82 233.57 138.35 234.34"/>
          <polygon class="cls-40" points="155.06 228.15 155.88 230.5 155.78 231.47 154.97 229.11 155.06 228.15"/>
          <polygon class="cls-40" points="137.81 235.68 138.63 238.03 137.8 237.42 136.99 235.06 137.81 235.68"/>
          <polygon class="cls-40" points="156.47 228.94 157.28 231.29 156.87 232.29 156.06 229.94 156.47 228.94"/>
          <polygon class="cls-40" points="137.69 236.96 138.5 239.32 137.43 238.88 136.63 236.53 137.69 236.96"/>
          <polygon class="cls-40" points="157.48 229.97 158.29 232.33 157.59 233.32 156.77 230.96 157.48 229.97"/>
          <polygon class="cls-40" points="137.99 238.15 138.81 240.5 137.54 240.26 136.72 237.91 137.99 238.15"/>
          <polygon class="cls-40" points="158.04 231.21 158.86 233.56 157.89 234.5 157.07 232.15 158.04 231.21"/>
          <polygon class="cls-40" points="138.71 239.17 139.52 241.53 138.1 241.5 137.29 239.14 138.71 239.17"/>
          <polygon class="cls-40" points="158.14 232.59 158.96 234.94 157.77 235.79 156.95 233.44 158.14 232.59"/>
          <polygon class="cls-40" points="139.8 240 140.61 242.35 139.11 242.53 138.3 240.18 139.8 240"/>
          <polygon class="cls-40" points="157.77 234.05 158.59 236.41 157.23 237.13 156.42 234.77 157.77 234.05"/>
          <polygon class="cls-40" points="141.22 240.59 142.04 242.94 140.52 243.32 139.71 240.96 141.22 240.59"/>
          <polygon class="cls-45" points="156.95 235.54 157.77 237.9 156.29 238.46 155.48 236.1 156.95 235.54"/>
          <polygon class="cls-45" points="142.92 240.91 143.73 243.26 142.26 243.83 141.44 241.47 142.92 240.91"/>
          <polygon class="cls-40" points="155.48 236.1 156.29 238.46 156.52 239.34 155.71 236.99 155.48 236.1"/>
          <polygon class="cls-45" points="155.71 236.99 156.52 239.34 155.01 239.72 154.19 237.36 155.71 236.99"/>
          <polygon class="cls-45" points="144.8 240.95 145.62 243.31 144.26 244.03 143.45 241.68 144.8 240.95"/>
          <polygon class="cls-40" points="143.45 241.68 144.26 244.03 143.73 243.26 142.92 240.91 143.45 241.68"/>
          <polygon class="cls-40" points="154.11 238.33 154.92 240.68 153.42 240.85 152.61 238.5 154.11 238.33"/>
          <polygon class="cls-45" points="154.19 237.36 155.01 239.72 154.92 240.68 154.11 238.33 154.19 237.36"/>
          <polygon class="cls-45" points="146.81 240.72 147.62 243.07 146.43 243.93 145.62 241.58 146.81 240.72"/>
          <polygon class="cls-40" points="145.62 241.57 146.43 243.93 145.62 243.31 144.8 240.95 145.62 241.57"/>
          <polygon class="cls-40" points="152.21 239.5 153.02 241.86 151.61 241.82 150.79 239.46 152.21 239.5"/>
          <polygon class="cls-45" points="152.61 238.5 153.42 240.86 153.02 241.86 152.21 239.5 152.61 238.5"/>
          <polygon class="cls-45" points="148.83 240.22 149.64 242.57 148.68 243.52 147.87 241.16 148.83 240.22"/>
          <polygon class="cls-40" points="147.87 241.16 148.68 243.52 147.62 243.07 146.81 240.72 147.87 241.16"/>
          <polygon class="cls-40" points="150.1 240.46 150.91 242.81 149.64 242.57 148.83 240.22 150.1 240.46"/>
          <polygon class="cls-10" points="155.48 236.1 155.71 236.99 154.19 237.36 154.1 238.32 152.61 238.5 152.21 239.5 150.79 239.46 150.1 240.46 148.83 240.22 147.87 241.16 146.8 240.72 145.62 241.57 144.8 240.95 143.45 241.68 142.92 240.91 141.45 241.47 141.22 240.58 139.71 240.96 139.8 240 138.3 240.17 138.71 239.17 137.29 239.14 137.99 238.15 136.73 237.91 137.69 236.96 136.62 236.53 137.81 235.67 136.99 235.06 138.35 234.34 137.82 233.57 139.29 233.01 139.06 232.12 140.58 231.75 140.66 230.79 142.16 230.61 142.56 229.61 143.97 229.65 144.67 228.65 145.94 228.89 146.9 227.95 147.96 228.39 149.15 227.54 149.96 228.16 151.32 227.43 151.85 228.2 153.32 227.64 153.54 228.53 155.06 228.15 154.97 229.11 156.47 228.94 156.06 229.94 157.47 229.97 156.77 230.96 158.04 231.21 157.07 232.15 158.14 232.58 156.95 233.44 157.77 234.05 156.41 234.77 156.95 235.54 155.48 236.1"/>
          <polygon class="cls-45" points="150.79 239.47 151.61 241.82 150.91 242.81 150.1 240.46 150.79 239.47"/>
          <path class="cls-11" d="M155.98,231.28c1.06,2.82-1.99,6.58-6.8,8.39-4.82,1.81-9.58,.99-10.64-1.83-1.06-2.83,1.98-6.58,6.8-8.39,4.82-1.81,9.58-.99,10.64,1.83"/>
          <path class="cls-56" d="M155.07,231.62c.95,2.53-1.78,5.89-6.09,7.51-4.31,1.62-8.58,.89-9.53-1.64-.95-2.53,1.78-5.89,6.09-7.51,4.31-1.62,8.58-.88,9.52,1.64"/>
          <path class="cls-51" d="M154.51,231.83c.88,2.35-1.65,5.47-5.65,6.97-4,1.5-7.96,.82-8.85-1.52-.88-2.35,1.65-5.47,5.65-6.97,4-1.5,7.97-.82,8.85,1.52"/>
          <path class="cls-52" d="M147.18,231.85c-.16,.02-.3,.03-.46,.04,0-.06,0-.1,.01-.14,.03-.41-.44-.59-.89-.33-.34,.19-.67,.41-1.01,.6-.1,.05-.23,.07-.35,.09-.18,.03-.37,.04-.6,.06,.3-.19,.57-.35,.84-.52,.31-.19,.62-.39,.94-.56,.42-.23,.84-.24,1.18-.05,.31,.17,.44,.44,.33,.81"/>
          <path class="cls-52" d="M147.18,231.85c-.16,.02-.3,.03-.46,.04,0-.06,0-.1,.01-.14,.03-.41-.44-.59-.89-.33-.34,.19-.67,.41-1.01,.6-.1,.05-.23,.07-.35,.09-.18,.03-.37,.04-.6,.06,.3-.19,.57-.35,.84-.52,.31-.19,.62-.39,.94-.56,.42-.23,.84-.24,1.18-.05,.31,.17,.44,.44,.33,.81"/>
          <path class="cls-52" d="M147.34,237.26c.16-.02,.3-.03,.46-.04,0,.05,0,.1,0,.14-.03,.41,.44,.59,.89,.34,.34-.19,.67-.4,1.01-.6,.1-.06,.23-.08,.34-.1,.19-.03,.37-.04,.6-.06-.16,.1-.28,.19-.41,.27-.44,.27-.88,.54-1.33,.8-.42,.24-.83,.26-1.19,.07-.33-.17-.45-.44-.35-.82"/>
          <path class="cls-52" d="M147.34,237.26c.16-.02,.3-.03,.46-.04,0,.05,0,.1,0,.14-.03,.41,.44,.59,.89,.34,.34-.19,.67-.4,1.01-.6,.1-.06,.23-.08,.34-.1,.19-.03,.37-.04,.6-.06-.16,.1-.28,.19-.41,.27-.44,.27-.88,.54-1.33,.8-.42,.24-.83,.26-1.19,.07-.33-.17-.45-.44-.35-.82"/>
          <path class="cls-52" d="M145.31,237.08c.13,.07,.24,.13,.32,.18-.08,.16-.19,.29-.21,.42-.05,.28,.18,.47,.54,.45,.37-.02,.73-.06,1.1-.07,.12,0,.24,.03,.34,.08,.15,.07,.28,.15,.43,.24-.22,.02-.45,.03-.68,.05-.44,.03-.89,.07-1.33,.08-.44,0-.72-.17-.83-.49-.12-.33,0-.64,.34-.95"/>
          <path class="cls-52" d="M145.31,237.08c.13,.07,.24,.13,.32,.18-.08,.16-.19,.29-.21,.42-.05,.28,.18,.47,.54,.45,.37-.02,.73-.06,1.1-.07,.12,0,.24,.03,.34,.08,.15,.07,.28,.15,.43,.24-.22,.02-.45,.03-.68,.05-.44,.03-.89,.07-1.33,.08-.44,0-.72-.17-.83-.49-.12-.33,0-.64,.34-.95"/>
          <path class="cls-52" d="M149.21,232.03c-.12-.07-.21-.12-.32-.18,.04-.06,.07-.11,.11-.16,.27-.41,.05-.73-.49-.7-.34,.02-.67,.04-1.01,.07-.16,.02-.3,0-.4-.09-.11-.09-.25-.15-.4-.23,.25-.02,.5-.04,.74-.06,.43-.03,.86-.07,1.29-.07,.43,0,.71,.18,.82,.5,.11,.32-.02,.63-.35,.94"/>
          <path class="cls-52" d="M149.21,232.03c-.12-.07-.21-.12-.32-.18,.04-.06,.07-.11,.11-.16,.27-.41,.05-.73-.49-.7-.34,.02-.67,.04-1.01,.07-.16,.02-.3,0-.4-.09-.11-.09-.25-.15-.4-.23,.25-.02,.5-.04,.74-.06,.43-.03,.86-.07,1.29-.07,.43,0,.71,.18,.82,.5,.11,.32-.02,.63-.35,.94"/>
          <path class="cls-52" d="M151.77,232.2c.15,.56,.3,1.07,.41,1.59,.07,.33-.13,.63-.49,.87-.37,.25-.77,.31-1.17,.18,.07-.12,.12-.24,.18-.35,.13,0,.25,.03,.37,.02,.4-.04,.7-.36,.63-.67-.07-.28-.16-.56-.22-.85-.02-.09,.02-.2,.06-.3,.05-.14,.13-.28,.23-.48"/>
          <path class="cls-52" d="M151.77,232.2c.15,.56,.3,1.07,.41,1.59,.07,.33-.13,.63-.49,.87-.37,.25-.77,.31-1.17,.18,.07-.12,.12-.24,.18-.35,.13,0,.25,.03,.37,.02,.4-.04,.7-.36,.63-.67-.07-.28-.16-.56-.22-.85-.02-.09,.02-.2,.06-.3,.05-.14,.13-.28,.23-.48"/>
          <path class="cls-52" d="M149.32,236.39c.15-.09,.26-.16,.39-.24,.08,.07,.14,.14,.23,.19,.29,.17,.77,.03,.94-.28,.17-.3,.31-.61,.48-.91,.05-.09,.16-.18,.26-.25,.14-.11,.3-.2,.47-.3-.01,.04-.02,.09-.04,.14-.25,.48-.49,.97-.76,1.44-.2,.35-.55,.56-1,.61-.44,.05-.76-.09-.96-.4"/>
          <path class="cls-52" d="M149.32,236.39c.15-.09,.26-.16,.39-.24,.08,.07,.14,.14,.23,.19,.29,.17,.77,.03,.94-.28,.17-.3,.31-.61,.48-.91,.05-.09,.16-.18,.26-.25,.14-.11,.3-.2,.47-.3-.01,.04-.02,.09-.04,.14-.25,.48-.49,.97-.76,1.44-.2,.35-.55,.56-1,.61-.44,.05-.76-.09-.96-.4"/>
          <path class="cls-52" d="M145.2,232.72c-.13,.08-.26,.16-.37,.22-.12-.08-.21-.17-.32-.22-.27-.11-.7,.04-.85,.31-.17,.3-.31,.61-.48,.91-.06,.1-.17,.19-.28,.27-.14,.1-.29,.19-.46,.3,.02-.06,.03-.12,.06-.17,.24-.46,.47-.93,.73-1.39,.19-.34,.52-.54,.94-.62,.43-.07,.75,.04,.97,.29,.02,.03,.04,.06,.06,.1"/>
          <path class="cls-52" d="M145.2,232.72c-.13,.08-.26,.16-.37,.22-.12-.08-.21-.17-.32-.22-.27-.11-.7,.04-.85,.31-.17,.3-.31,.61-.48,.91-.06,.1-.17,.19-.28,.27-.14,.1-.29,.19-.46,.3,.02-.06,.03-.12,.06-.17,.24-.46,.47-.93,.73-1.39,.19-.34,.52-.54,.94-.62,.43-.07,.75,.04,.97,.29,.02,.03,.04,.06,.06,.1"/>
          <path class="cls-52" d="M144.01,234.27c-.07,.12-.12,.24-.18,.34-.02,0-.04,.02-.05,.02-.25-.07-.5-.04-.73,.13-.23,.18-.26,.38-.2,.59,.08,.25,.15,.5,.2,.76,.02,.1-.02,.22-.07,.32-.05,.14-.12,.27-.2,.43-.02-.05-.06-.09-.07-.14-.12-.44-.25-.88-.36-1.32-.09-.35,.08-.67,.45-.93,.37-.26,.77-.33,1.2-.2"/>
          <path class="cls-52" d="M144.01,234.27c-.07,.12-.12,.24-.18,.34-.02,0-.04,.02-.05,.02-.25-.07-.5-.04-.73,.13-.23,.18-.26,.38-.2,.59,.08,.25,.15,.5,.2,.76,.02,.1-.02,.22-.07,.32-.05,.14-.12,.27-.2,.43-.02-.05-.06-.09-.07-.14-.12-.44-.25-.88-.36-1.32-.09-.35,.08-.67,.45-.93,.37-.26,.77-.33,1.2-.2"/>
          <path class="cls-52" d="M144.06,235.93c.03,.12,.06,.23,.09,.33-.15,.07-.3,.13-.42,.21-.29,.21-.3,.56-.02,.73,.28,.17,.57,.32,.85,.49,.07,.05,.12,.13,.15,.21,.05,.13,.09,.27,.14,.43-.05-.02-.09-.03-.13-.05-.46-.26-.93-.51-1.38-.79-.34-.21-.39-.52-.22-.88,.16-.35,.48-.57,.94-.68"/>
          <path class="cls-52" d="M144.06,235.93c.03,.12,.06,.23,.09,.33-.15,.07-.3,.13-.42,.21-.29,.21-.3,.56-.02,.73,.28,.17,.57,.32,.85,.49,.07,.05,.12,.13,.15,.21,.05,.13,.09,.27,.14,.43-.05-.02-.09-.03-.13-.05-.46-.26-.93-.51-1.38-.79-.34-.21-.39-.52-.22-.88,.16-.35,.48-.57,.94-.68"/>
          <path class="cls-52" d="M149.73,230.78c.48,.27,1,.55,1.49,.86,.32,.2,.35,.52,.19,.86-.16,.35-.49,.57-.94,.68-.03-.12-.07-.24-.1-.36,.3-.07,.53-.19,.61-.44,.09-.25-.02-.41-.25-.52-.06-.03-.11-.06-.16-.09-.42-.25-.96-.41-.85-.98"/>
          <path class="cls-52" d="M149.73,230.78c.48,.27,1,.55,1.49,.86,.32,.2,.35,.52,.19,.86-.16,.35-.49,.57-.94,.68-.03-.12-.07-.24-.1-.36,.3-.07,.53-.19,.61-.44,.09-.25-.02-.41-.25-.52-.06-.03-.11-.06-.16-.09-.42-.25-.96-.41-.85-.98"/>
          <path class="cls-52" d="M145.76,237.88c.07-.12,.15-.24,.2-.37,.07-.18-.01-.32-.17-.42-.21-.13-.42-.26-.64-.37-.13-.07-.21-.14-.12-.3,.04-.06,.04-.14,.06-.23,.05,.02,.09,.03,.13,.05,.29,.16,.58,.32,.86,.49,.37,.22,.49,.57,.3,.94-.14,.28-.33,.34-.61,.2"/>
          <path class="cls-52" d="M145.76,237.88c.07-.12,.15-.24,.2-.37,.07-.18-.01-.32-.17-.42-.21-.13-.42-.26-.64-.37-.13-.07-.21-.14-.12-.3,.04-.06,.04-.14,.06-.23,.05,.02,.09,.03,.13,.05,.29,.16,.58,.32,.86,.49,.37,.22,.49,.57,.3,.94-.14,.28-.33,.34-.61,.2"/>
          <path class="cls-52" d="M149.44,232.9c-.4-.23-.81-.43-1.16-.68-.29-.2-.27-.65-.03-.96,.1-.13,.3-.15,.51-.05-.07,.16-.19,.32-.2,.48,0,.11,.08,.24,.19,.31,.19,.14,.41,.26,.64,.37,.14,.07,.21,.14,.12,.3-.04,.07-.04,.14-.06,.22"/>
          <path class="cls-52" d="M149.44,232.9c-.4-.23-.81-.43-1.16-.68-.29-.2-.27-.65-.03-.96,.1-.13,.3-.15,.51-.05-.07,.16-.19,.32-.2,.48,0,.11,.08,.24,.19,.31,.19,.14,.41,.26,.64,.37,.14,.07,.21,.14,.12,.3-.04,.07-.04,.14-.06,.22"/>
          <path class="cls-52" d="M148.28,237.62c.07-.43-.12-.6-.64-.57-.32,.02-.64,.04-.96,.06-.07-.12-.13-.23-.21-.38,.55-.02,1.09-.07,1.61-.06,.34,0,.56,.2,.66,.46,.12,.3-.01,.44-.46,.49"/>
          <path class="cls-52" d="M148.28,237.62c.07-.43-.12-.6-.64-.57-.32,.02-.64,.04-.96,.06-.07-.12-.13-.23-.21-.38,.55-.02,1.09-.07,1.61-.06,.34,0,.56,.2,.66,.46,.12,.3-.01,.44-.46,.49"/>
          <path class="cls-52" d="M149.96,234.1c-.1-.4-.23-.77-.28-1.15-.04-.31,.15-.6,.5-.83,.31-.2,.51-.16,.59,.11-.16,.1-.36,.18-.47,.3-.1,.12-.14,.29-.13,.42,.02,.22,.09,.43,.16,.64,.05,.14,.03,.24-.15,.35-.07,.04-.13,.1-.22,.18"/>
          <path class="cls-52" d="M149.96,234.1c-.1-.4-.23-.77-.28-1.15-.04-.31,.15-.6,.5-.83,.31-.2,.51-.16,.59,.11-.16,.1-.36,.18-.47,.3-.1,.12-.14,.29-.13,.42,.02,.22,.09,.43,.16,.64,.05,.14,.03,.24-.15,.35-.07,.04-.13,.1-.22,.18"/>
          <path class="cls-52" d="M143.76,236.85c.52-.16,.68-.39,.57-.8-.05-.18-.08-.36-.15-.53-.05-.13-.03-.23,.14-.33,.07-.04,.13-.1,.24-.19,.1,.42,.23,.81,.27,1.21,.03,.3-.18,.57-.51,.8-.33,.23-.55,.07-.57-.16"/>
          <path class="cls-52" d="M143.76,236.85c.52-.16,.68-.39,.57-.8-.05-.18-.08-.36-.15-.53-.05-.13-.03-.23,.14-.33,.07-.04,.13-.1,.24-.19,.1,.42,.23,.81,.27,1.21,.03,.3-.18,.57-.51,.8-.33,.23-.55,.07-.57-.16"/>
          <path class="cls-52" d="M148.06,232.37c-.54,.02-1.05,.07-1.56,.07-.37,0-.6-.19-.72-.46-.13-.29,.03-.46,.45-.49-.05,.45,.13,.6,.68,.57,.23-.01,.47-.02,.7-.05,.18-.02,.29,0,.32,.15,.01,.07,.07,.12,.13,.21"/>
          <path class="cls-52" d="M148.06,232.37c-.54,.02-1.05,.07-1.56,.07-.37,0-.6-.19-.72-.46-.13-.29,.03-.46,.45-.49-.05,.45,.13,.6,.68,.57,.23-.01,.47-.02,.7-.05,.18-.02,.29,0,.32,.15,.01,.07,.07,.12,.13,.21"/>
          <path class="cls-52" d="M149.47,235.46c.23-.43,.43-.85,.69-1.24,.19-.29,.54-.45,.93-.49,.38-.04,.48,.08,.33,.41-.06,0-.12-.02-.19-.03-.3-.04-.61,.11-.75,.36-.13,.23-.25,.47-.37,.7-.06,.12-.12,.21-.3,.21-.1,0-.2,.04-.34,.08"/>
          <path class="cls-52" d="M149.47,235.46c.23-.43,.43-.85,.69-1.24,.19-.29,.54-.45,.93-.49,.38-.04,.48,.08,.33,.41-.06,0-.12-.02-.19-.03-.3-.04-.61,.11-.75,.36-.13,.23-.25,.47-.37,.7-.06,.12-.12,.21-.3,.21-.1,0-.2,.04-.34,.08"/>
          <path class="cls-52" d="M143.11,234.97c.5,.09,.77-.03,.99-.45,.1-.2,.21-.4,.3-.59,.06-.11,.12-.2,.29-.2,.1,0,.2-.04,.35-.07-.18,.34-.33,.67-.53,.99-.12,.19-.28,.38-.47,.52-.17,.12-.41,.18-.62,.22-.37,.08-.47-.12-.31-.41"/>
          <path class="cls-52" d="M143.11,234.97c.5,.09,.77-.03,.99-.45,.1-.2,.21-.4,.3-.59,.06-.11,.12-.2,.29-.2,.1,0,.2-.04,.35-.07-.18,.34-.33,.67-.53,.99-.12,.19-.28,.38-.47,.52-.17,.12-.41,.18-.62,.22-.37,.08-.47-.12-.31-.41"/>
          <path class="cls-52" d="M146.39,232.64c-.46,.27-.87,.54-1.31,.78-.37,.2-.75,.2-1.09,.05-.3-.13-.29-.32,.06-.54,.03,.03,.07,.07,.1,.11,.2,.19,.5,.21,.81,.03,.26-.15,.51-.3,.76-.46,.14-.09,.25-.14,.38-.05,.06,.04,.16,.05,.29,.08"/>
          <path class="cls-52" d="M146.39,232.64c-.46,.27-.87,.54-1.31,.78-.37,.2-.75,.2-1.09,.05-.3-.13-.29-.32,.06-.54,.03,.03,.07,.07,.1,.11,.2,.19,.5,.21,.81,.03,.26-.15,.51-.3,.76-.46,.14-.09,.25-.14,.38-.05,.06,.04,.16,.05,.29,.08"/>
          <path class="cls-52" d="M150.47,236.18c-.31-.33-.58-.34-1.05-.05-.12,.07-.24,.13-.35,.21-.3,.24-.59,.34-.9,.1,.45-.26,.91-.56,1.39-.8,.34-.17,.69-.14,.99,0,.26,.13,.31,.25-.08,.54"/>
          <path class="cls-52" d="M150.47,236.18c-.31-.33-.58-.34-1.05-.05-.12,.07-.24,.13-.35,.21-.3,.24-.59,.34-.9,.1,.45-.26,.91-.56,1.39-.8,.34-.17,.69-.14,.99,0,.26,.13,.31,.25-.08,.54"/>
          <path class="cls-52" d="M145.84,236.35c.6-.21,.96-.78,.8-1.27-.02-.07-.06-.15-.1-.21-.3-.47-.13-1.1,.42-1.51,.55-.41,1.33-.51,1.87-.23,.55,.29,.69,.86,.35,1.46-.21,.36-.52,.65-.96,.92,.07-.02,.14-.04,.21-.07,.96-.37,1.46-1.26,1.12-1.97-.34-.71-1.4-.95-2.34-.53-.23,.1-.43,.23-.63,.37-.16,.12-.38,.18-.57,.26-.05,.02-.11,.03-.16,.05-.08,.03-.12,.07-.11,.14,0,.04,.02,.09,.03,.13,0,.03-.02,.08-.03,.09-.16,.05-.13,.14-.11,.23-.11,.03-.19,.07-.19,.17,0,.05-.09,.11-.15,.15-.19,.12-.21,.21-.04,.31,.17,.1,.37,.19,.52,.32,.36,.29,.39,.67,.11,1.09-.02,.03-.03,.06-.06,.09"/>
          <path class="cls-52" d="M147.57,233.54s-.04-.1-.07-.15c-.34,.11-.78,.48-.76,.98-.08,0-.16,0-.24,0-.04-.48,.44-1.07,1.15-1.23,.03,.06,.06,.12,.08,.18,.08,.18,.16,.36,.24,.54,0,.02,0,.03,0,.04-.14,.15-.28,.29-.41,.44-.02,.02-.03,.02-.05,.02-.07,0-.14,0-.2,0-.01,0-.02,0-.04,0,0,0,.02-.02,.02-.03,.14-.15,.27-.29,.41-.44,.02-.02,.02-.03,0-.05-.02-.05-.04-.1-.07-.15-.24,.11-.39,.26-.44,.47h-.24c.07-.29,.27-.5,.6-.64"/>
          <path class="cls-52" d="M147.57,233.54s-.04-.1-.07-.15c-.34,.11-.78,.48-.76,.98-.08,0-.16,0-.24,0-.04-.48,.44-1.07,1.15-1.23,.03,.06,.06,.12,.08,.18,.08,.18,.16,.36,.24,.54,0,.02,0,.03,0,.04-.14,.15-.28,.29-.41,.44-.02,.02-.03,.02-.05,.02-.07,0-.14,0-.2,0-.01,0-.02,0-.04,0,0,0,.02-.02,.02-.03,.14-.15,.27-.29,.41-.44,.02-.02,.02-.03,0-.05-.02-.05-.04-.1-.07-.15-.24,.11-.39,.26-.44,.47h-.24c.07-.29,.27-.5,.6-.64"/>
          <path class="cls-52" d="M148.21,234.97c.07-.03,.13-.06,.2-.1,.07-.04,.13-.09,.19-.13,.02-.01,.02-.02,.04,0,.05,.03,.11,.06,.16,.08-.16,.16-.48,.34-.75,.4-.05-.12-.11-.24-.16-.36-.05-.12-.1-.24-.16-.35,0-.02,0-.03,0-.04,.14-.15,.27-.3,.41-.44,0,0,.03-.02,.04-.02,.33,0,.66,0,.99,0h.01c0,.23-.08,.45-.25,.67-.06-.03-.12-.06-.18-.1,.09-.12,.15-.25,.17-.38h-.17c-.16,0-.32,0-.48,0-.02,0-.03,0-.05,.02-.08,.09-.16,.17-.25,.26,0,0-.01,.02,0,.03,.07,.16,.14,.31,.21,.47,0,0,0,0,0,0"/>
          <path class="cls-52" d="M148.21,234.97c.07-.03,.13-.06,.2-.1,.07-.04,.13-.09,.19-.13,.02-.01,.02-.02,.04,0,.05,.03,.11,.06,.16,.08-.16,.16-.48,.34-.75,.4-.05-.12-.11-.24-.16-.36-.05-.12-.1-.24-.16-.35,0-.02,0-.03,0-.04,.14-.15,.27-.3,.41-.44,0,0,.03-.02,.04-.02,.33,0,.66,0,.99,0h.01c0,.23-.08,.45-.25,.67-.06-.03-.12-.06-.18-.1,.09-.12,.15-.25,.17-.38h-.17c-.16,0-.32,0-.48,0-.02,0-.03,0-.05,.02-.08,.09-.16,.17-.25,.26,0,0-.01,.02,0,.03,.07,.16,.14,.31,.21,.47,0,0,0,0,0,0"/>
          <path class="cls-52" d="M147.91,233.11c.63-.07,1.15,.25,1.25,.68-.08,0-.16,0-.24,0-.23,0-.46,0-.68,0-.02,0-.03,0-.04-.02-.1-.22-.19-.44-.29-.66,0,0,0,0,0-.01m.35,.2s0,.01,0,.02c.04,.09,.08,.17,.12,.26,0,0,.02,.01,.03,.01h.36s.01,0,.02,0c-.13-.15-.3-.24-.53-.29"/>
          <path class="cls-52" d="M147.91,233.11c.63-.07,1.15,.25,1.25,.68-.08,0-.16,0-.24,0-.23,0-.46,0-.68,0-.02,0-.03,0-.04-.02-.1-.22-.19-.44-.29-.66,0,0,0,0,0-.01m.35,.2s0,.01,0,.02c.04,.09,.08,.17,.12,.26,0,0,.02,.01,.03,.01h.36s.01,0,.02,0c-.13-.15-.3-.24-.53-.29"/>
          <path class="cls-52" d="M147.8,235.25c-.63,.07-1.15-.25-1.25-.68,.08,0,.16,0,.24,0,.23,0,.45,0,.68,0,.02,0,.03,0,.04,.02,.1,.22,.19,.44,.29,.66,0,0,0,0,0,.02m-.35-.2s0-.01,0-.02c-.04-.09-.08-.18-.12-.26,0,0-.02-.02-.03-.02-.12,0-.23,0-.35,0,0,0-.02,0-.03,0,.13,.15,.3,.24,.54,.29"/>
          <path class="cls-52" d="M147.8,235.25c-.63,.07-1.15-.25-1.25-.68,.08,0,.16,0,.24,0,.23,0,.45,0,.68,0,.02,0,.03,0,.04,.02,.1,.22,.19,.44,.29,.66,0,0,0,0,0,.02m-.35-.2s0-.01,0-.02c-.04-.09-.08-.18-.12-.26,0,0-.02-.02-.03-.02-.12,0-.23,0-.35,0,0,0-.02,0-.03,0,.13,.15,.3,.24,.54,.29"/>
        </g>
        <g>
          <g>
            <path class="cls-53" d="M75.82,166.43c-2.94,2.26-5.69,4.36-8.63,6.62-.94-1.28-1.68-2.31-2.44-3.32-7.28-9.57-20.35-7.84-24.75,3.51-3.32,8.56-5.84,17.45-9.16,26.01-.96,2.47-3.22,4.58-5.27,6.39-3.29,2.9-6.9,5.42-11.27,8.79,2.61-7.93,4.89-15.03,7.28-22.1,2.76-8.18,5.26-16.47,8.49-24.44,4.23-10.47,12.58-15.82,23.32-15.8,9.73,.02,17.47,4.75,22.43,14.34"/>
            <path class="cls-53" d="M75.82,166.43c-2.94,2.26-5.69,4.36-8.63,6.62-.94-1.28-1.68-2.31-2.44-3.32-7.28-9.57-20.35-7.84-24.75,3.51-3.32,8.56-5.84,17.45-9.16,26.01-.96,2.47-3.22,4.58-5.27,6.39-3.29,2.9-6.9,5.42-11.27,8.79,2.61-7.93,4.89-15.03,7.28-22.1,2.76-8.18,5.26-16.47,8.49-24.44,4.23-10.47,12.58-15.82,23.32-15.8,9.73,.02,17.47,4.75,22.43,14.34"/>
            <path class="cls-53" d="M183.09,287.54c2.9-2.23,5.64-4.35,8.61-6.64,.95,1.25,1.7,2.24,2.46,3.23,7.27,9.61,20.36,7.98,24.76-3.33,3.33-8.56,5.85-17.44,9.16-26.01,.96-2.47,3.19-4.61,5.23-6.43,3.29-2.91,6.9-5.43,11.15-8.7-1.25,4.19-2.21,7.75-3.38,11.23-3.9,11.55-7.59,23.2-11.91,34.59-4,10.53-12.17,16.07-23,16.3-10.07,.21-17.88-4.56-23.08-14.24"/>
            <path class="cls-53" d="M183.09,287.54c2.9-2.23,5.64-4.35,8.61-6.64,.95,1.25,1.7,2.24,2.46,3.23,7.27,9.61,20.36,7.98,24.76-3.33,3.33-8.56,5.85-17.44,9.16-26.01,.96-2.47,3.19-4.61,5.23-6.43,3.29-2.91,6.9-5.43,11.15-8.7-1.25,4.19-2.21,7.75-3.38,11.23-3.9,11.55-7.59,23.2-11.91,34.59-4,10.53-12.17,16.07-23,16.3-10.07,.21-17.88-4.56-23.08-14.24"/>
            <path class="cls-53" d="M138.02,308.49c4.03,.08,7.42,.15,10.05,.21,1.25,4.51,1.55,8.9,3.57,12.15,4.38,7.09,12.75,8.36,19.82,3.54,7.19-4.89,14.06-10.3,21.34-15.04,2.39-1.55,5.62-2.14,8.52-2.36,4.3-.33,8.65,.07,13.44,.17-4.3,3.16-8.68,6.44-13.13,9.62-8.58,6.14-16.99,12.58-25.87,18.24-8.74,5.58-17.96,5-26.48-.74-8.75-5.9-12.16-14.63-11.27-25.79"/>
            <path class="cls-53" d="M138.02,308.49c4.03,.08,7.42,.15,10.05,.21,1.25,4.51,1.55,8.9,3.57,12.15,4.38,7.09,12.75,8.36,19.82,3.54,7.19-4.89,14.06-10.3,21.34-15.04,2.39-1.55,5.62-2.14,8.52-2.36,4.3-.33,8.65,.07,13.44,.17-4.3,3.16-8.68,6.44-13.13,9.62-8.58,6.14-16.99,12.58-25.87,18.24-8.74,5.58-17.96,5-26.48-.74-8.75-5.9-12.16-14.63-11.27-25.79"/>
            <path class="cls-53" d="M121,145.57c-3.76-.08-6.82-.14-10.19-.21-.32-1.87-.6-3.47-.88-5.07-2.19-12.7-13.03-17.34-23.51-10.01-6.53,4.57-13.07,9.14-19.43,13.95-3.12,2.36-6.11,3.55-10.13,2.87-3.88-.66-7.93-.29-12.51-.38,4.81-3.56,9.46-7.09,14.2-10.47,8.3-5.92,16.42-12.15,25.05-17.52,8.83-5.49,18.04-4.66,26.47,1.25,8.48,5.94,11.69,14.57,10.93,25.59"/>
            <path class="cls-53" d="M121,145.57c-3.76-.08-6.82-.14-10.19-.21-.32-1.87-.6-3.47-.88-5.07-2.19-12.7-13.03-17.34-23.51-10.01-6.53,4.57-13.07,9.14-19.43,13.95-3.12,2.36-6.11,3.55-10.13,2.87-3.88-.66-7.93-.29-12.51-.38,4.81-3.56,9.46-7.09,14.2-10.47,8.3-5.92,16.42-12.15,25.05-17.52,8.83-5.49,18.04-4.66,26.47,1.25,8.48,5.94,11.69,14.57,10.93,25.59"/>
            <path class="cls-53" d="M176.81,117.87c13.8,10.9,26.74,20.53,38.97,31.01,7.73,6.62,9.47,16.03,6.72,25.84-2.88,10.31-9.85,16.38-20.59,18.51-1.05-3.58-2.05-6.96-3.03-10.3,2.81-1.39,5.67-2.29,7.93-4.01,7.54-5.73,7.6-16.77,.12-22.94-6.88-5.67-14.17-10.8-20.94-16.6-2.14-1.84-3.5-4.91-4.64-7.67-1.61-3.91-2.69-8.05-4.56-13.84"/>
            <path class="cls-53" d="M176.81,117.87c13.8,10.9,26.74,20.53,38.97,31.01,7.73,6.62,9.47,16.03,6.72,25.84-2.88,10.31-9.85,16.38-20.59,18.51-1.05-3.58-2.05-6.96-3.03-10.3,2.81-1.39,5.67-2.29,7.93-4.01,7.54-5.73,7.6-16.77,.12-22.94-6.88-5.67-14.17-10.8-20.94-16.6-2.14-1.84-3.5-4.91-4.64-7.67-1.61-3.91-2.69-8.05-4.56-13.84"/>
            <path class="cls-53" d="M207.26,243.49c1.28-3.8,2.34-6.95,3.43-10.2,3.01,.55,5.65,1.39,8.31,1.46,9.29,.26,16.28-8.72,13.84-17.91-2.36-8.9-5.35-17.62-7.56-26.55-.69-2.79-.12-6.09,.53-9,.93-4.18,2.47-8.21,3.82-12.53,.57,1.12,1.42,2.3,1.81,3.62,4.17,14.04,8.67,28,12.24,42.2,2.61,10.36-.72,19.53-8.96,26.19-8.22,6.63-17.35,7.24-27.49,2.73"/>
            <path class="cls-53" d="M207.26,243.49c1.28-3.8,2.34-6.95,3.43-10.2,3.01,.55,5.65,1.39,8.31,1.46,9.29,.26,16.28-8.72,13.84-17.91-2.36-8.9-5.35-17.62-7.56-26.55-.69-2.79-.12-6.09,.53-9,.93-4.18,2.47-8.21,3.82-12.53,.57,1.12,1.42,2.3,1.81,3.62,4.17,14.04,8.67,28,12.24,42.2,2.61,10.36-.72,19.53-8.96,26.19-8.22,6.63-17.35,7.24-27.49,2.73"/>
            <path class="cls-53" d="M51.63,210.65c-1.2,3.53-2.31,6.82-3.29,9.7-4.08-.4-7.53-1.29-10.87-.96-7.83,.78-13.52,9.54-11.43,17.47,2.35,8.9,5.35,17.62,7.51,26.56,.71,2.95,.07,6.42-.59,9.52-.85,4-2.34,7.87-3.75,12.43-.74-1.63-1.62-3.09-2.08-4.67-3.98-13.51-8.11-26.98-11.74-40.59-2.66-9.94,.08-18.78,7.42-25.72,7.38-6.99,16.17-8.33,25.64-5.34,.99,.31,1.89,.95,3.16,1.61"/>
            <path class="cls-53" d="M51.63,210.65c-1.2,3.53-2.31,6.82-3.29,9.7-4.08-.4-7.53-1.29-10.87-.96-7.83,.78-13.52,9.54-11.43,17.47,2.35,8.9,5.35,17.62,7.51,26.56,.71,2.95,.07,6.42-.59,9.52-.85,4-2.34,7.87-3.75,12.43-.74-1.63-1.62-3.09-2.08-4.67-3.98-13.51-8.11-26.98-11.74-40.59-2.66-9.94,.08-18.78,7.42-25.72,7.38-6.99,16.17-8.33,25.64-5.34,.99,.31,1.89,.95,3.16,1.61"/>
            <path class="cls-53" d="M57.12,260.73c1.06,3.69,1.98,6.91,2.86,9.98-.35,.51-.51,1.01-.76,1.07-6.53,1.41-11.12,5.17-12.44,12.02-1.33,6.9,1.86,11.91,7.23,15.89,6.4,4.74,12.8,9.52,18.78,14.78,2.25,1.98,3.63,5.22,4.87,8.13,1.59,3.74,2.64,7.72,4.09,12.12-1.45-.8-2.88-1.37-4.05-2.28-10.97-8.51-21.99-16.96-32.81-25.66-8.57-6.89-11.21-16.33-8.64-26.84,2.59-10.58,9.67-16.97,20.88-19.21"/>
            <path class="cls-53" d="M57.12,260.73c1.06,3.69,1.98,6.91,2.86,9.98-.35,.51-.51,1.01-.76,1.07-6.53,1.41-11.12,5.17-12.44,12.02-1.33,6.9,1.86,11.91,7.23,15.89,6.4,4.74,12.8,9.52,18.78,14.78,2.25,1.98,3.63,5.22,4.87,8.13,1.59,3.74,2.64,7.72,4.09,12.12-1.45-.8-2.88-1.37-4.05-2.28-10.97-8.51-21.99-16.96-32.81-25.66-8.57-6.89-11.21-16.33-8.64-26.84,2.59-10.58,9.67-16.97,20.88-19.21"/>
            <path class="cls-53" d="M90.16,297.96c3.1,2.4,5.71,4.42,8.22,6.35-1.6,3.52-3.65,6.65-4.47,10.09-1.97,8.29,4.6,16.35,13.51,16.76,8.98,.4,17.99,.23,26.97,.76,2.44,.15,4.97,1.63,7.13,3.02,3.67,2.36,7.08,5.14,11.03,8.07-1.32,.14-2.48,.38-3.63,.36-14.49-.26-29-.21-43.47-.96-10.82-.56-18.04-7.07-21.58-17.37-3.42-9.94-1.02-18.86,6.29-27.09"/>
            <path class="cls-53" d="M90.16,297.96c3.1,2.4,5.71,4.42,8.22,6.35-1.6,3.52-3.65,6.65-4.47,10.09-1.97,8.29,4.6,16.35,13.51,16.76,8.98,.4,17.99,.23,26.97,.76,2.44,.15,4.97,1.63,7.13,3.02,3.67,2.36,7.08,5.14,11.03,8.07-1.32,.14-2.48,.38-3.63,.36-14.49-.26-29-.21-43.47-.96-10.82-.56-18.04-7.07-21.58-17.37-3.42-9.94-1.02-18.86,6.29-27.09"/>
            <path class="cls-53" d="M107.6,110.63c15.17,.31,31.15,.17,47.07,1.14,10.32,.63,17.15,7.37,20.45,17.25,3.33,9.95,.97,18.88-6.28,26.92-3.04-2.36-5.92-4.61-8.89-6.91,4.74-5.19,7.16-10.8,4.14-17.56-2.97-6.66-8.37-9.12-15.25-8.79-1.65,.07-3.3-.04-4.96-.1-13.29-.53-27.58,2.49-36.3-11.95"/>
            <path class="cls-53" d="M107.6,110.63c15.17,.31,31.15,.17,47.07,1.14,10.32,.63,17.15,7.37,20.45,17.25,3.33,9.95,.97,18.88-6.28,26.92-3.04-2.36-5.92-4.61-8.89-6.91,4.74-5.19,7.16-10.8,4.14-17.56-2.97-6.66-8.37-9.12-15.25-8.79-1.65,.07-3.3-.04-4.96-.1-13.29-.53-27.58,2.49-36.3-11.95"/>
            <path class="cls-53" d="M162.7,321.18c-.99-3.65-1.57-7.41-3.03-10.76-2.13-4.91-6.42-7.15-11.51-7.39-6.78-.32-13.59-.58-20.37-.43-4.11,.09-7.01-.67-8.09-5.34-.45-1.93-1.89-3.62-3.15-5.9,1.3-.19,2.42-.51,3.55-.49,9,.13,17.99,.22,26.98,.53,11.91,.42,20.96,7.08,24.4,17.71,2.63,8.11-.21,11.9-8.78,12.08"/>
            <path class="cls-53" d="M162.7,321.18c-.99-3.65-1.57-7.41-3.03-10.76-2.13-4.91-6.42-7.15-11.51-7.39-6.78-.32-13.59-.58-20.37-.43-4.11,.09-7.01-.67-8.09-5.34-.45-1.93-1.89-3.62-3.15-5.9,1.3-.19,2.42-.51,3.55-.49,9,.13,17.99,.22,26.98,.53,11.91,.42,20.96,7.08,24.4,17.71,2.63,8.11-.21,11.9-8.78,12.08"/>
            <path class="cls-53" d="M142.34,162.49c-12.58-.26-24.85,.26-36.94-1-9.87-1.03-18.05-11.38-19.12-21.45-.44-4.17,3.46-7.03,9.63-7.42,1.65,4.59,2.41,9.66,5.09,13.23,2.03,2.7,6.36,4.44,9.88,4.9,6.69,.88,13.53,.76,20.3,.6,4.12-.1,6.99,.68,8.07,5.33,.45,1.93,1.88,3.62,3.08,5.81"/>
            <path class="cls-53" d="M142.34,162.49c-12.58-.26-24.85,.26-36.94-1-9.87-1.03-18.05-11.38-19.12-21.45-.44-4.17,3.46-7.03,9.63-7.42,1.65,4.59,2.41,9.66,5.09,13.23,2.03,2.7,6.36,4.44,9.88,4.9,6.69,.88,13.53,.76,20.3,.6,4.12-.1,6.99,.68,8.07,5.33,.45,1.93,1.88,3.62,3.08,5.81"/>
            <path class="cls-53" d="M209.46,284.14c-6.9-10.73-14.21-12.21-24.16-5.14-6.18,4.39-12.35,8.79-18.67,13.29-3.53-1.83-7.05-3.66-11.62-6.02,10.83-7.31,20.93-15.12,31.93-21.17,7.18-3.95,15.44-2.46,22.52,2.27,8.1,5.4,8.12,10.11,0,16.77"/>
            <path class="cls-53" d="M209.46,284.14c-6.9-10.73-14.21-12.21-24.16-5.14-6.18,4.39-12.35,8.79-18.67,13.29-3.53-1.83-7.05-3.66-11.62-6.02,10.83-7.31,20.93-15.12,31.93-21.17,7.18-3.95,15.44-2.46,22.52,2.27,8.1,5.4,8.12,10.11,0,16.77"/>
            <path class="cls-53" d="M176.29,183.26c-9.76-7.83-19.49-14.64-28.02-22.79-6.86-6.55-8.6-15.57-5.82-25.11,2.46-8.46,7.4-9.96,14.24-4.84-1.44,4.33-4.05,8.54-3.85,12.6,.2,3.83,2.61,8.26,5.36,11.07,4.65,4.75,10.16,8.69,15.63,12.47,3.7,2.55,5.28,5.2,3.58,9.7-.69,1.82-.67,3.92-1.12,6.9"/>
            <path class="cls-53" d="M176.29,183.26c-9.76-7.83-19.49-14.64-28.02-22.79-6.86-6.55-8.6-15.57-5.82-25.11,2.46-8.46,7.4-9.96,14.24-4.84-1.44,4.33-4.05,8.54-3.85,12.6,.2,3.83,2.61,8.26,5.36,11.07,4.65,4.75,10.16,8.69,15.63,12.47,3.7,2.55,5.28,5.2,3.58,9.7-.69,1.82-.67,3.92-1.12,6.9"/>
            <path class="cls-53" d="M101.7,322.57c7.51-10.14,6.49-17.31-3.62-25.25-4.37-3.43-8.59-7.12-13.2-10.19-3.6-2.41-5.06-4.98-3.43-9.29,.7-1.86,.72-4,1.25-7.3,10.11,8.31,20.23,15.52,28.97,24.2,6.38,6.34,7.18,15.21,4.81,24.35-2.43,9.35-9.75,8.5-14.79,3.48"/>
            <path class="cls-53" d="M101.7,322.57c7.51-10.14,6.49-17.31-3.62-25.25-4.37-3.43-8.59-7.12-13.2-10.19-3.6-2.41-5.06-4.98-3.43-9.29,.7-1.86,.72-4,1.25-7.3,10.11,8.31,20.23,15.52,28.97,24.2,6.38,6.34,7.18,15.21,4.81,24.35-2.43,9.35-9.75,8.5-14.79,3.48"/>
            <path class="cls-53" d="M104.03,167.52c-10.59,7.25-20.28,14.67-30.69,20.77-7.65,4.48-16.04,3.06-23.6-1.5-8.18-4.93-8.22-10.78-.31-16.81,7.61,10.9,14.18,12.1,24.88,4.53,4.53-3.21,9.21-6.22,13.51-9.74,3.27-2.68,6.01-3.47,9.5-.49,1.58,1.35,3.81,1.88,6.72,3.24"/>
            <path class="cls-53" d="M104.03,167.52c-10.59,7.25-20.28,14.67-30.69,20.77-7.65,4.48-16.04,3.06-23.6-1.5-8.18-4.93-8.22-10.78-.31-16.81,7.61,10.9,14.18,12.1,24.88,4.53,4.53-3.21,9.21-6.22,13.51-9.74,3.27-2.68,6.01-3.47,9.5-.49,1.58,1.35,3.81,1.88,6.72,3.24"/>
            <path class="cls-53" d="M192.38,220.33c-3.45-12.62-7.5-24.54-9.79-36.81-1.68-9.03,2.48-16.96,9.6-22.78,6.92-5.66,11.53-4.04,14.74,5.38-1.45,.54-2.94,1.05-4.37,1.66-6.96,2.95-10.46,9.95-8.46,17.45,1.83,6.89,3.86,13.73,5.99,20.54,1.08,3.44,1.64,6.28-2.12,8.59-1.95,1.2-3.3,3.46-5.58,5.97"/>
            <path class="cls-53" d="M192.38,220.33c-3.45-12.62-7.5-24.54-9.79-36.81-1.68-9.03,2.48-16.96,9.6-22.78,6.92-5.66,11.53-4.04,14.74,5.38-1.45,.54-2.94,1.05-4.37,1.66-6.96,2.95-10.46,9.95-8.46,17.45,1.83,6.89,3.86,13.73,5.99,20.54,1.08,3.44,1.64,6.28-2.12,8.59-1.95,1.2-3.3,3.46-5.58,5.97"/>
            <path class="cls-53" d="M52.14,287.66c12.12-4.02,15.29-10.2,11.77-22.43-1.66-5.78-3.31-11.56-5.13-17.29-1.03-3.24-1.5-5.92,2.01-8.14,1.95-1.23,3.3-3.48,5.58-5.98,2.92,9.97,6.25,19.41,8.33,29.12,1.21,5.66,1.61,12.07,.22,17.57-1.18,4.71-4.96,9.05-8.41,12.76-5.92,6.38-11.92,2.92-14.37-5.62"/>
            <path class="cls-53" d="M52.14,287.66c12.12-4.02,15.29-10.2,11.77-22.43-1.66-5.78-3.31-11.56-5.13-17.29-1.03-3.24-1.5-5.92,2.01-8.14,1.95-1.23,3.3-3.48,5.58-5.98,2.92,9.97,6.25,19.41,8.33,29.12,1.21,5.66,1.61,12.07,.22,17.57-1.18,4.71-4.96,9.05-8.41,12.76-5.92,6.38-11.92,2.92-14.37-5.62"/>
            <path class="cls-53" d="M74.7,194.3c-4.13,11.9-7.43,23.1-11.89,33.79-3.84,9.21-11.58,13.83-21.33,14.57-8.89,.68-12.07-3.67-9.31-13.14,1.34,.39,2.68,.83,4.04,1.16,7.77,1.88,14.38-1.5,17.3-9.2,2.47-6.48,4.77-13.06,6.75-19.71,1.13-3.8,2.46-6.3,6.97-5.86,2.06,.21,4.23-.86,7.47-1.61"/>
            <path class="cls-53" d="M74.7,194.3c-4.13,11.9-7.43,23.1-11.89,33.79-3.84,9.21-11.58,13.83-21.33,14.57-8.89,.68-12.07-3.67-9.31-13.14,1.34,.39,2.68,.83,4.04,1.16,7.77,1.88,14.38-1.5,17.3-9.2,2.47-6.48,4.77-13.06,6.75-19.71,1.13-3.8,2.46-6.3,6.97-5.86,2.06,.21,4.23-.86,7.47-1.61"/>
            <path class="cls-53" d="M226.75,224.4c-12.82-3.7-18.46-.65-22.67,11.86-1.02,3.02-2.55,5.94-3.08,9.05-1.6,9.16-5.58,15.11-16.57,13.28,4.25-11.6,7.86-23.84,13.2-35.24,3.77-8.02,11.48-11.67,20.49-12.07,7.72-.35,11.24,1.74,8.63,13.13"/>
            <path class="cls-53" d="M226.75,224.4c-12.82-3.7-18.46-.65-22.67,11.86-1.02,3.02-2.55,5.94-3.08,9.05-1.6,9.16-5.58,15.11-16.57,13.28,4.25-11.6,7.86-23.84,13.2-35.24,3.77-8.02,11.48-11.67,20.49-12.07,7.72-.35,11.24,1.74,8.63,13.13"/>
          </g>
          <g>
            <polygon class="cls-53" points="326.89 224.24 326.72 197.51 313.98 218.96 305.27 218.96 292.54 198.43 292.54 224.24 274.53 224.24 274.53 165.59 290.78 165.59 309.88 196.84 328.48 165.59 344.73 165.59 344.9 224.24 326.89 224.24"/>
            <rect class="cls-53" x="354.45" y="165.59" width="19.77" height="58.64"/>
            <polygon class="cls-53" points="441.57 165.59 441.57 224.23 425.32 224.23 403.03 197.6 403.03 224.23 383.77 224.23 383.77 165.59 400.02 165.59 422.3 192.23 422.3 165.59 441.57 165.59"/>
            <path class="cls-53" d="M451.12,165.59h28.91c6.53,0,12.3,1.19,17.29,3.56,5,2.38,8.88,5.77,11.65,10.18,2.76,4.41,4.14,9.61,4.14,15.58s-1.38,11.17-4.14,15.59c-2.77,4.41-6.65,7.8-11.65,10.18-5,2.37-10.76,3.56-17.29,3.56h-28.91v-58.64Zm28.07,43.23c4.24,0,7.64-1.21,10.18-3.64,2.54-2.43,3.81-5.85,3.81-10.27s-1.27-7.83-3.81-10.26c-2.54-2.43-5.93-3.64-10.18-3.64h-8.29v27.81h8.29Z"/>
            <path class="cls-53" d="M512.95,221.68c-4.97-2.6-8.87-6.22-11.68-10.89-2.83-4.66-4.23-9.96-4.23-15.88s1.41-11.21,4.23-15.88c2.82-4.66,6.71-8.29,11.68-10.89,4.97-2.6,10.56-3.89,16.76-3.89,5.7,0,10.78,1,15.25,3.01,4.47,2.01,8.15,4.92,11.06,8.71l-12.48,11.15c-3.63-4.58-7.9-6.87-12.82-6.87-4.13,0-7.46,1.33-9.97,3.98-2.51,2.65-3.77,6.21-3.77,10.68s1.25,8.03,3.77,10.68c2.51,2.65,5.84,3.98,9.97,3.98,4.92,0,9.19-2.29,12.82-6.87l12.48,11.15c-2.91,3.8-6.59,6.7-11.06,8.71-4.47,2.01-9.55,3.02-15.25,3.02-6.2,0-11.79-1.3-16.76-3.9"/>
            <polygon class="cls-53" points="619.51 165.59 619.51 224.23 599.74 224.23 599.74 202.62 581.48 202.62 581.48 224.23 561.71 224.23 561.71 165.59 581.48 165.59 581.48 186.37 599.74 186.37 599.74 165.59 619.51 165.59"/>
            <path class="cls-53" d="M669.03,214.02h-22.29l-3.94,10.22h-20.11l25.64-58.65h19.44l25.64,58.65h-20.44l-3.94-10.22Zm-5.45-14.24l-5.7-14.75-5.69,14.75h11.39Z"/>
            <rect class="cls-53" x="696.59" y="165.59" width="19.77" height="58.64"/>
            <polygon class="cls-53" points="783.71 165.59 783.71 224.23 767.47 224.23 745.18 197.6 745.18 224.23 725.91 224.23 725.91 165.59 742.16 165.59 764.45 192.23 764.45 165.59 783.71 165.59"/>
            <path class="cls-53" d="M491.16,296.26h-24.51l-5.28,11.75h-4.84l20.11-43.98h4.59l20.11,43.98h-4.9l-5.27-11.75Zm-1.7-3.77l-10.55-23.62-10.56,23.62h21.11Z"/>
            <path class="cls-53" d="M515.32,305.5c-3.5-1.93-6.25-4.6-8.23-8.01-1.99-3.42-2.98-7.24-2.98-11.47s.99-8.05,2.98-11.47c1.99-3.41,4.75-6.09,8.26-8.01,3.52-1.93,7.46-2.89,11.81-2.89,3.26,0,6.28,.55,9.05,1.63,2.77,1.09,5.11,2.68,7.04,4.78l-2.96,2.95c-3.43-3.48-7.77-5.22-13.01-5.22-3.48,0-6.64,.8-9.48,2.39-2.85,1.59-5.08,3.77-6.69,6.53-1.61,2.77-2.42,5.87-2.42,9.3s.81,6.53,2.42,9.3c1.61,2.76,3.84,4.94,6.69,6.53,2.84,1.59,6.01,2.39,9.48,2.39,5.28,0,9.61-1.76,13.01-5.28l2.96,2.95c-1.93,2.09-4.28,3.7-7.07,4.8-2.78,1.11-5.81,1.67-9.08,1.67-4.36,0-8.29-.96-11.78-2.89"/>
            <path class="cls-53" d="M579.63,296.26h-24.51l-5.28,11.75h-4.84l20.11-43.98h4.59l20.11,43.98h-4.9l-5.27-11.75Zm-1.7-3.77l-10.55-23.62-10.56,23.62h21.11Z"/>
            <path class="cls-53" d="M597.1,264.03h17.91c4.65,0,8.75,.93,12.32,2.79,3.56,1.87,6.32,4.46,8.3,7.79,1.97,3.33,2.95,7.13,2.95,11.4s-.98,8.07-2.95,11.4c-1.97,3.33-4.74,5.93-8.3,7.79-3.56,1.87-7.67,2.8-12.32,2.8h-17.91v-43.98Zm17.66,39.96c3.85,0,7.22-.76,10.11-2.29,2.89-1.53,5.13-3.64,6.72-6.35,1.59-2.7,2.39-5.81,2.39-9.33s-.8-6.63-2.39-9.33c-1.59-2.7-3.83-4.82-6.72-6.35-2.89-1.53-6.26-2.29-10.11-2.29h-13.01v35.94h13.01Z"/>
            <polygon class="cls-53" points="680.1 303.99 680.1 308.01 649 308.01 649 264.03 679.16 264.03 679.16 268.05 653.65 268.05 653.65 283.7 676.4 283.7 676.4 287.65 653.65 287.65 653.65 303.99 680.1 303.99"/>
            <polygon class="cls-53" points="736.72 264.03 736.72 308.01 732.26 308.01 732.26 272.82 714.98 302.42 712.78 302.42 695.5 273.01 695.5 308.01 691.04 308.01 691.04 264.03 694.87 264.03 713.97 296.64 732.89 264.03 736.72 264.03"/>
            <polygon class="cls-53" points="766.12 292.81 766.12 308.01 761.53 308.01 761.53 292.81 743.94 264.03 748.91 264.03 763.98 288.72 779.07 264.03 783.71 264.03 766.12 292.81"/>
            <rect class="cls-53" x="274.52" y="285.68" width="167.05" height="3.11"/>
          </g>
        </g>
      </g>
    </g>
  </g>
</svg>