<?xml version="1.0" encoding="UTF-8"?>
<svg id="Calque_1" data-name="Calque 1" xmlns="http://www.w3.org/2000/svg" xmlns:xlink="http://www.w3.org/1999/xlink" viewBox="0 0 798 454">
  <defs>
    <style>
      .cls-1 {
        fill: #fff;
      }

      .cls-2 {
        fill: url(#radial-gradient-5);
      }

      .cls-3 {
        fill: url(#radial-gradient-4);
      }

      .cls-4 {
        fill: url(#radial-gradient-6);
      }

      .cls-5 {
        fill: url(#radial-gradient);
      }

      .cls-6 {
        fill: url(#radial-gradient-2);
      }

      .cls-7 {
        fill: url(#radial-gradient-3);
      }
    </style>
    <radialGradient id="radial-gradient" cx="505.48" cy="253.26" fx="505.48" fy="253.26" r="33.01" gradientUnits="userSpaceOnUse">
      <stop offset="0" stop-color="#dea300"/>
      <stop offset=".97" stop-color="#dea300"/>
    </radialGradient>
    <radialGradient id="radial-gradient-2" cx="576.04" cy="253.26" fx="576.04" fy="253.26" r="31.43" xlink:href="#radial-gradient"/>
    <radialGradient id="radial-gradient-3" cx="646.24" cy="253.26" fx="646.24" fy="253.26" r="33.29" xlink:href="#radial-gradient"/>
    <radialGradient id="radial-gradient-4" cx="700.67" cy="253.26" fx="700.67" fy="253.26" r="24.44" xlink:href="#radial-gradient"/>
    <radialGradient id="radial-gradient-5" cx="755.06" cy="253.26" fx="755.06" fy="253.26" r="31.26" xlink:href="#radial-gradient"/>
    <radialGradient id="radial-gradient-6" cx="105.78" cy="227" fx="105.78" fy="227" r="104.17" xlink:href="#radial-gradient"/>
  </defs>
  <path class="cls-5" d="M514.64,259.74c-.52,5.44-3.66,7.84-7.9,7.84-6.02,0-9.13-4.96-9.13-14.15v-.71c0-9.46,3.21-13.99,8.68-13.99,4.02,0,6.45,2.92,6.74,7.81h24c-.52-6.38-2.2-11.56-4.89-15.58-5.15-7.81-14.15-11.37-25.91-11.37-2.72,0-5.31,.29-7.81,.78h-.03c-9.04,1.88-16.45,7.06-20.86,14.77-2.79,4.96-4.37,10.88-4.37,17.68v.71c0,6.8,1.23,12.89,3.85,17.91,1.98,3.98,4.86,7.35,8.68,9.81,0,0,.03,0,.03,.03,5.31,3.6,12.31,5.57,21.18,5.67h.45c17.23,0,29.77-9.46,30.45-27.21h-23.16Z"/>
  <path class="cls-6" d="M583.18,220.74v22.48h-14.22v-22.48h-23.22v65.04h23.22v-23.9h14.22v23.9h23.16v-65.04h-23.16Z"/>
  <path class="cls-7" d="M677.56,276.58l-11.11-37.93-5.25-17.91h-29.86l-11.14,37.83-8,27.21h21.6l2.07-8.62h17.59l2.07,8.62h24.75l-2.72-9.2Zm-37.86-15.61l5.05-20.79,4.34,18.4,.55,2.4h-9.94Z"/>
  <path class="cls-3" d="M688.96,220.74v65.04h23.42v-65.04h-23.42Z"/>
  <path class="cls-2" d="M764.43,220.74v30.19l-13.47-30.19h-25.85v65.04h20.63v-35.5l17.23,35.5h22.02v-65.04h-20.57Z"/>
  <g>
    <path class="cls-1" d="M285.91,222.2l-5.31,4.34-26.59,21.7-31.74-26.04h-8.36l.55,62.12,21.15-.26,.13-27.79,15.61,12.24,5.09-.13,15.87-12.41v28.21h21.54v-61.99h-7.94Z"/>
    <path class="cls-1" d="M309,222.49v61.54h23.39v-61.54h-23.39Z"/>
    <path class="cls-1" d="M386.87,222.14v28.92l-13.47-28.92h-25.88v62.25h20.66v-33.98l17.23,33.98h21.99v-62.25h-20.53Z"/>
    <path class="cls-1" d="M477.53,235.13c-5.05-9.65-15.35-14.38-30.61-14.38h-25.78v65.04h25.88c10.88,0,19.34-2.72,25.13-8.1,1.94-1.81,3.6-3.92,4.86-6.25,2.79-4.89,4.21-11.08,4.21-18.4v-.62c0-6.9-1.23-12.66-3.69-17.3Zm-20.54,18.46c0,10.07-2.95,13.73-10.79,13.73h-1.81v-28.11h1.65c7.48,0,10.95,2.62,10.95,13.64v.75Z"/>
  </g>
  <g>
    <path class="cls-4" d="M95.09,341.44c-16.34-23.96-9.15-58.02,15.88-75.97,3.8-2.73,7.99-5.03,12.26-6.96,29.99-13.56,46.62-45.63,40.02-77.45-6.56-31.59-34.32-54.55-66.8-55.24-33.01-.71-60.41,21.7-69.07,56.47-5.3,21.26-3.85,41.58,3.89,64.51-1.98-2.77-4.14-5.44-5.92-8.33C.82,198.81,14.02,146.79,54.47,123.5c40.29-23.2,92.04-8.21,113.97,32.93,5.35,10.03,8.49,20.57,11.05,31.71,2.06,8.99,8.51,16.99,13.15,25.35,1.18,2.13,2.97,3.92,4.4,5.93,2.26,3.16,2.05,6.11-.98,8.7-2.03,1.73-4.28,3.26-6.04,5.23-1.11,1.25-2.53,3.96-2.01,4.63,4.74,6.13,.24,9.24-4.17,12.64,3.36,3.99,5.02,7.5,1.12,12.47-1.66,2.12-.62,7.12,.4,10.44,3.08,10.03,.24,14.45-10.27,14.87-11.05,.44-22.29-.25-33.11,1.56-25.46,4.26-40.84,20.42-45.64,45.99-.33,1.74-.79,3.46-1.26,5.48Z"/>
    <path class="cls-1" d="M118.37,243.94c-.43-.57-.85-1.15-1.65-2.23,3.62,2.44,6.43,1.58,9.17-.58,2.26-1.78,4.61-3.47,7-5.09,2.79-1.88,4.11-4.3,3.11-7.84,.43,.18,.68,.29,.94,.4,1.26,3.3,.6,6.12-2.13,8.21-2.98,2.29-5.98,4.55-9.1,6.63-2.26,1.5-4.79,1.71-7.33,.49Z"/>
    <path class="cls-1" d="M137.02,226.05c-1.74,2.15-3.49,4.31-5.43,6.7,.04-3.42,9.92-17.19,13.69-19.07-1.65,2.73-3.09,5.1-4.53,7.47-1.24,1.63-2.49,3.26-3.73,4.9Z"/>
    <path class="cls-1" d="M129.31,229.18c-3.23,2.36-6.46,4.71-9.69,7.07-.59,.4-1.19,.8-1.82,1.23-.65-2.82,.99-2.94,10.19-9.77,1.33-.99,2.03-.94,3.39-.21-.69,.56-1.38,1.12-2.07,1.68Z"/>
    <path class="cls-1" d="M41.43,180.06v.39c.06-.03,.13-.06,.16-.16-.03-.06-.13-.16-.16-.23Zm5.44-16.71c-.87-.13-1.78-.13-2.59,.13h-.03c-.74,.23-1.39,.65-1.94,1.46,1.17-.36,2.27-.71,3.43-1.07,.52-.16,1.07-.32,1.59-.49-.16,0-.29,0-.45-.03Zm53.57-26.27c4.66,1.43,8.84,2.72,13.05,3.95-.55-.29-1.04-.71-1.59-.84-2.69-.55-4.89-1.52-5.21-4.63,.06,.84,.16,1.68,.26,2.53-1.43-3.34-4.02-4.31-7.32-4.21-2.95,.03-5.86,.06-8.81,0-3.4-.1-6.22,.71-7.32,4.44-.23-.13-.42-.26-.62-.42,.81-1.46,1.65-2.91,2.46-4.34-.71,.84-1.98,1.62-2.07,2.53-.19,2.75-2.14,3.3-4.21,3.89-.74,.23-1.49,.58-2.27,.87,3.56-1,7.13-2.04,10.66-3.04,.52-.13,1.1-.32,1.81-.52-.55-.26-1.2-.42-1.72-.71,1.2-1.52,13.6-1.59,15.58,.52-.97-.03-1.98-.32-2.69,0Zm16.29,104.65l.03,.03h.03v-.03h-.06Zm.94,1.3c-.13-.16-.26-.36-.39-.55-.16-.23-.32-.45-.52-.71-.42,.16-.78,.32-1.13,.52,1.36-.29,1.65,1.46,2.72,1.65-.19-.29-.42-.55-.68-.91Zm25.23-22.8v.03h.06s-.03-.03-.06-.03Zm.06,.03c.13-.03,.19,0,.32,0,1.72,.23,3.47,.06,4.63-1.55-1.65,.52-3.3,1.04-4.96,1.55Zm5.67-39.77c.06,.1,.16,.13,.19,.23v-.49c-.1,.06-.13,.16-.19,.26Zm.06,22.74c.03,.06,.1,.13,.13,.16v-.29l-.13,.13Zm-107.27-23.16v.39c.06-.03,.13-.06,.16-.16-.03-.06-.13-.16-.16-.23Zm0,0v.39c.06-.03,.13-.06,.16-.16-.03-.06-.13-.16-.16-.23Zm107.27,23.16c.03,.06,.1,.13,.13,.16v-.29l-.13,.13Zm-107.27-23.16v.39c.06-.03,.13-.06,.16-.16-.03-.06-.13-.16-.16-.23Zm0,0v.39c.06-.03,.13-.06,.16-.16-.03-.06-.13-.16-.16-.23Zm107.27,23.16c.03,.06,.1,.13,.13,.16v-.29l-.13,.13Zm-107.27-23.16v.39c.06-.03,.13-.06,.16-.16-.03-.06-.13-.16-.16-.23Zm0,0v.39c.06-.03,.13-.06,.16-.16-.03-.06-.13-.16-.16-.23Zm107.27,23.16c.03,.06,.1,.13,.13,.16v-.29l-.13,.13Zm-107.27-23.16v.39c.06-.03,.13-.06,.16-.16-.03-.06-.13-.16-.16-.23Zm0,0v.39c.06-.03,.13-.06,.16-.16-.03-.06-.13-.16-.16-.23Zm107.27,23.16c.03,.06,.1,.13,.13,.16v-.29l-.13,.13Zm-107.27-23.16v.39c.06-.03,.13-.06,.16-.16-.03-.06-.13-.16-.16-.23Zm110.55,17.88c-3.14-1-2.49-3.56-2.56-5.86v-.52c.06-.87,.1-1.75,0-2.66-.06-1.13,.19-1.81,1.33-2.36,.87-.52,1.52-1.55,2.27-2.33-1,.84-2.01,1.62-2.98,2.46-.16-.1-.29-.16-.45-.23,3.66-2.79,2.88-6.15,1.59-9.62-.74-2.14-1.46-4.28-2.04-6.48-.94-3.37-2.53-5.99-6.57-6.25,.06-.19,.16-.39,.26-.58,1.72,.39,3.4,.78,5.12,1.2-1.55-.49-3.11-.94-4.66-1.39-.84-.26-1.62-.49-2.46-.71,1.1,1.78,2.23,3.53,3.37,5.31,.29,.45,.55,.84,.97,1.36,.03-.55,.03-1.2,.06-1.72,1.88,.32,5.96,12.66,4.34,14.96-.03-.52,0-.94-.16-1.2-.19-.19-.36-.39-.55-.62v22.38c.39-.45,.74-.97,1.17-1.39,1.1,1.55-2.75,13.54-5.34,14.7,.49-1.39,1.75-2.95-.13-3.79-.84-.36-2.14,.39-3.37,.68,1.13-3.76,2.4-7.77,3.63-11.82-1.33,4.05-2.69,8.13-4.02,12.18-.16,.55-.23,1.13-.39,1.91-2.2-2.62,2.01-15.64,5.15-16.23-.29,.74-.55,1.43-.74,2.11v.03c.26,0,.74,.03,.74,.03,.06,1.36,.39,2.88,2.04,2.56,.42-.1,.78-.42,1.13-.84-1.1-1.55-1.62-7.03-1.55-12.31,.1-4.53,.58-8.87,1.49-10.43-.42-.42-.81-.81-1.23-.91-.49-.06-1.2,1.13-1.75,1.75-.29,.36,.29,1.52-.87,.87,.23,.65,.45,1.33,.81,2.27-1.43-.19-2.3-.94-2.66-2.07-1.26-3.66-2.56-7.35-3.56-11.08-.29-.94,.19-2.04,.36-3.08,.13,0,.29,.03,.52,.03,.71,2.53,1.33,4.99,2.14,7.45,.71,2.2,1.59,4.31,2.33,6.45l.06,.03v-.03c-1.23-4.05-2.49-8.03-3.92-12.66,1.49,1.13,2.59,2.79,3.92,1.33,.26-.32,.36-.81,.36-1.36-3.14-.94-13.15-14.45-13.7-18.75,1.98,2.4,3.63,4.44,5.28,6.41,.16-1.07,.36-2.11,.52-3.17-.26,.42-.52,.84-.75,1.23,.81-4.31-1.81-6.48-4.89-8.55-2.11-1.43-4.18-2.95-6.25-4.5-2.59-1.98-5.25-2.49-8.29-.71,.42-.49,.81-.97,1.2-1.43-.52,.32-.94,.71-1.49,.94-.45,.19-.94,.19-1.39,.29,1.68,.78,3.47,1.59,5.15,2.4,.62,.23,1.3,.39,2.11,.65-2.72,1.39-19.73-4.05-22.19-7.19-.36,.16-.68,.49-.87,1.1-.49,1.78,.87,2.27,2.07,3.11h-13.51c1.46-.94,3.3-1.42,2.36-3.11-.19-.36-.62-.62-1.04-.81-2.46,2.88-18.79,8.19-21.8,7.06,2.46-1.04,4.76-1.98,7.06-2.95-.91-.52-1.81-1.04-2.72-1.49,.39,.42,.74,.91,1.1,1.39-3.5-2.11-6.41-.84-9.23,1.43-2.14,1.72-4.4,3.3-6.74,4.86-2.69,1.91-3.92,4.34-2.88,7.71-.32-.1-.58-.23-.78-.32-.1,.71-.23,1.49-.36,2.23,1.78-2.01,3.6-4.05,5.41-6.15,.13,2.01-4.44,9.07-8.45,13.9-2.04,2.4-3.95,4.31-5.05,4.66,1.1-1.78,2.14-3.5,3.17-5.15,.39-.71,.78-1.39,1.23-2.07-.55,.74-1.2,1-2.11,.91,.1,.26,.23,.49,.36,.71-.26,0-.45,.03-.65,.13h-.03c-3.95,.49-5.18,3.43-6.09,6.77-.68,2.46-1.59,4.86-2.4,7.32-1.13,3.63-.71,5.41,1.72,8.36-1-.84-2.04-1.62-3.01-2.46,.32,.52,.55,1.33,1.04,1.46,3.08,1.04,2.49,3.6,2.49,5.86,0,1.07-.03,2.14,.03,3.17,.1,1.1-.23,1.78-1.3,2.4-.94,.49-1.52,1.49-2.27,2.3,1.04-.81,2.01-1.62,3.04-2.43-2.62,2.46-2.82,5.25-1.75,8.39,.87,2.59,1.81,5.21,2.56,7.9,1,3.34,2.46,6.09,6.64,6.19-.13,.19-.19,.45-.32,.65-1.72-.39-3.4-.74-5.12-1.17,1.55,.45,3.11,.94,4.6,1.39,.87,.26,1.81,.49,2.69,.71-1.49-2.2-2.92-4.44-4.4-6.74-.06,.58-.13,1.17-.23,1.78-1.88-.55-5.86-12.57-4.37-15,.32,1.46,.36,3.37,2.33,2.98,.87-.19,1.49-1.65,2.36-2.69,.03,.06,.13,.1,.19,.1-.19-.68-.49-1.36-.81-2.27,1.65,.19,2.36,1.1,2.79,2.33,1.17,3.47,2.36,6.9,3.3,10.4,.32,1.04-.06,2.27-.58,3.3l-3.82-11.95c-.19-.62-.58-1.17-.84-1.78h-.03c1.23,4.05,2.46,8.03,3.6,11.69-1.23-.19-2.43-.36-3.63-.55-.1,.49-.13,1-.19,1.49,3.04,.87,13.34,15,13.34,18.53-1.94-2.33-3.66-4.44-5.41-6.61,0,1.2-.03,2.4-.03,3.6,.19-.42,.39-.81,.62-1.23-.68,4.02,1.46,6.32,4.44,8.26,2.07,1.36,4.08,2.79,5.96,4.31,2.75,2.23,5.64,3.27,9.33,.74-.81,1.07-1.23,1.65-1.62,2.23,1.07-.32,1.52-2.11,2.98-1.81-2.3-.94-4.66-1.94-7.06-2.95,2.62-1.23,19.79,4.28,21.86,7.22-2.56-.74-4.79-1.39-7.06-2.01-1.91-.58-3.85-1.1-5.77-1.62,1.04,.42,2.07,.84,3.11,1.13,1.72,.49,3.08,1,3.24,3.14,.03,.87,.94,1.65,1.46,2.46-.52-1.26-1.04-2.59-1.59-3.89,.16-.13,.26-.26,.39-.36,1.43,4.34,4.83,4.6,8.49,4.47,2.62-.06,5.28-.06,7.9,0,3.27,.1,5.77-.97,7.16-4.21-.1,.84-.19,1.68-.26,2.46,.16-.39,.49-.78,.49-1.2,.06-1.75,1.13-2.36,2.69-2.79,1.23-.29,2.4-.94,3.6-1.46-4.15,1.26-8.29,2.49-12.63,3.82,.65,.19,1.39,.32,2.01,.55-1.68,1.59-13.83,1.59-15.9-.39,1.65,.06,3.6,.65,3.66-1.49,.06-.87-1.07-1.78-1.68-2.72h13.12c-1.46,.94-3.47,1.62-2.23,3.4,.19,.29,.55,.49,.97,.62,1.65-2.72,18.27-8.26,21.99-7.26-.91,.39-1.46,.62-2.01,.84-1.33,.58-2.66,1.2-3.95,1.78,.1,.06,.19,.13,.29,.19,.26,.16,.52,.32,.75,.45,.39,.16,.74,.32,1.1,.45,.26,.1,.52,.16,.78,.19,.13,.03,.29,.06,.42,.1,.26,.03,.52,.06,.75,.06h.06c.36,0,.71-.03,1.04-.1,.29-.06,.58-.13,.87-.23,.23-.06,.42-.13,.62-.23,.39-.16,.81-.39,1.2-.65h.03c.39-.26,.78-.55,1.17-.84,2.27-1.78,4.63-3.47,7-5.09,.13-.1,.26-.19,.39-.29,.13-.1,.26-.19,.39-.29,.26-.19,.49-.39,.68-.62,1.75-1.68,2.46-3.82,1.65-6.64,.23,.1,.39,.16,.55,.23,.13,.03,.26,.1,.39,.16h.03c.03-.84,.03-1.72,.06-2.56-.42,.52-.87,1.07-1.33,1.65-.87,1.07-1.75,2.17-2.66,3.3-.42,.49-.84,1-1.26,1.52h.03c.65-.1,1.26-.39,1.88-.55,.03,1.94-10.07,9.39-12.83,8.84,.26-.19,.42-.39,.62-.49,1.26-.42,1.98-1.23,1.49-2.53-.39-1.23-1.43-1.49-2.62-1.13-.16,.03-.49-.26-.71-.42-.58,.39-1.2,.78-1.81,1.23-.13-.58-.16-1.04-.06-1.49,.03-.16,.1-.32,.19-.52,.19-.32,.45-.65,.87-1.04s.94-.81,1.62-1.3c.26-.19,.49-.36,.74-.55,.42-.29,.87-.62,1.39-1,.36-.26,.71-.52,1.13-.78,.58-.42,1.23-.91,1.94-1.43,.36-.26,.74-.52,1.13-.81,.39-.26,.78-.55,1.2-.87,1.33-1,2.04-.94,3.4-.23-.68,.58-1.36,1.13-2.07,1.68,.26-.13,.55-.23,1.1-.52-.55,1.55-1.81,3.11,0,3.89,.36,.16,.81,.16,1.23,.06v-.06c0-.1,0-.23,.03-.29,.03-.06,.06-.16,.06-.23,.03-.06,.03-.16,.06-.23,.06-.23,.13-.42,.23-.65,.03-.06,.06-.13,.1-.23,0-.03,.03-.06,.03-.1,.06-.13,.13-.29,.19-.45,.06-.16,.13-.32,.19-.49,.16-.29,.32-.62,.49-.94,.06-.1,.13-.23,.19-.36,.23-.42,.52-.91,.81-1.39,.03-.06,.1-.16,.13-.23,.55-.91,1.13-1.81,1.81-2.79,.32-.52,.68-1.04,1.07-1.52,.23-.32,.45-.65,.71-.97,.32-.45,.65-.87,.97-1.3,.19-.26,.39-.52,.58-.75,0-.03,.06-.06,.1-.1,.52-.68,1.04-1.36,1.59-1.94,.19-.23,.39-.42,.58-.62,.16-.19,.36-.39,.52-.58l.52-.52c.16-.19,.36-.36,.52-.52,.16-.16,.32-.32,.49-.45,.26-.23,.45-.42,.68-.58,.23-.16,.42-.32,.62-.45,.13-.06,.23-.13,.32-.16h.03v-.03h.03s0,.03-.03,.03c-.29,.52-.62,1-.91,1.49-.87,1.46-1.72,2.82-2.53,4.18-.36,.58-.71,1.2-1.07,1.78,.55-.74,1.17-1.04,2.14-.94-.16-.26-.29-.45-.39-.75,4.44-.23,5.8-3.3,6.8-6.83,.68-2.46,1.55-4.89,2.36-7.32,1.04-3.11,.84-5.89-1.75-8.36,1,.81,2.04,1.62,3.08,2.43-.36-.49-.62-1.33-1.04-1.46Zm-34.11-51.79c.52,.39,1,.81,1.52,1.2,.32-.16,.68-.52,.91-.42,1.2,.36,2.23,.19,2.66-1.04,.49-1.33-.19-2.17-1.46-2.59-.19-.06-.36-.19-.68-.42,2.66-.71,12.76,6.67,12.92,9.46-1.1-1.04-2.17-2.62-3.53-1.13-.65,.68-.32,2.17-.49,3.5h-.26c.62,.45,1.26,.87,2.14,1.49-1.26,.71-2.4,.58-3.34-.13-3.21-2.23-6.38-4.47-9.43-6.87-.78-.62-1-1.81-1.52-2.72,.19-.13,.36-.23,.55-.32Zm-14.35-4.5c-1.55,2.69-15.13,2.72-16.84,0h16.84Zm-46.96,10.01c-.32-1.81,10.01-9.52,12.86-8.81-.32,.19-.49,.36-.68,.45-1.3,.42-1.94,1.23-1.49,2.53,.45,1.23,1.46,1.46,2.62,1.1,.26-.1,.65,.26,.97,.42,.49-.39,.91-.75,1.39-1.17,.49,1.36,.36,2.14-.84,3.04-3.11,2.33-6.22,4.66-9.43,6.8-.81,.55-2.01,.49-3.01,.71-.06-.23-.13-.45-.16-.65,.62-.45,1.3-.91,1.98-1.33h-.91c.58-1.39,1.72-2.95-.13-3.76-.84-.36-2.11,.39-3.17,.65Zm-13.86,27.92c-.39,.1-.74,.36-1.1,.71,1.98,3.63,1.94,20.31-.16,23.26v-23.09c-.39,.49-.81,1.04-1.2,1.43-1.17-1.33,2.62-13.41,5.25-14.67-.36,1.36-1.65,2.95,.16,3.79,.84,.36,2.11-.36,3.4-.62-1.13,3.63-2.36,7.71-3.56,11.73,.84-2.33,1.72-4.63,2.46-6.93,.78-2.27,1.39-4.53,2.07-6.87,1.17,.81,1.17,2.04,.81,3.24-1.07,3.6-2.23,7.19-3.5,10.72-.36,.94-1.36,1.62-2.04,2.4-.19-.1-.36-.23-.52-.36,.26-.74,.49-1.49,.71-2.2-.26-.06-.87-.1-.87-.13,0-1.33-.42-2.66-1.91-2.4Zm29.7,57.82c-.65-.42-1.3-.87-1.91-1.26-.1,.19-.29,.65-.32,.65-1.23-.42-2.46-.45-2.95,1.07-.55,1.65,.74,2.27,2.2,2.79-2.43,.94-12.63-6.38-13.02-9.26,1.17,.87,2.23,2.53,3.53,1.1,.65-.71,.42-2.23,.62-3.5h.39c-.71-.45-1.43-.91-2.14-1.39,.03-.19,.06-.36,.06-.55,.97,.1,2.11-.1,2.82,.39,3.37,2.27,6.61,4.6,9.81,7.13,.71,.52,.91,1.72,1.39,2.59-.16,.06-.32,.19-.49,.26Zm14.32,4.53c1.62-2.66,15.26-2.62,16.81,0h-16.81Zm51.11-30.87c-.68,1.98-.65,3.95,.26,5.86,.26,.45,.16,1.33-.16,1.78-1.23,1.91-2.59,3.72-3.98,5.47-.39,.49-1.23,.65-1.85,.81-1.68,.39-3.6,.36-4.99,1.23-3.17,1.94-6.28,4.21-9.13,6.64-1.26,1.04-1.85,2.88-2.75,4.31-.42,.65-.84,1.36-1.43,1.62-1.13,.58-2.4,.78-3.6,1.23-2.14,.87-4.05,1.49-6.06-.62-.74-.78-2.3-.97-3.53-1-3.66-.13-7.32-.23-10.95,.03-1.72,.16-3.3,1.3-4.99,1.88-.65,.23-1.49,.68-2.11,.49-2.14-.52-4.21-1.23-6.28-2.04-.55-.19-.91-.94-1.26-1.52-.97-1.49-1.59-3.37-2.88-4.44-2.79-2.4-5.8-4.47-8.81-6.48-1.17-.81-2.59-1.17-3.85-1.72-2.59,1.43-3.4-.55-4.44-2.01-.42-.58-.84-1.23-1.36-1.81-1.33-1.59-2.36-3.11-1.1-5.47,.55-1,.19-2.72-.16-4.02-.91-3.37-2.11-6.7-3.17-10.04-.65-1.98-1.81-3.43-3.6-4.44-.52-.26-1-1.1-1.04-1.72-.1-2.2-.1-4.41,0-6.61,.03-.58,.55-1.39,1.07-1.68,1.75-1,2.88-2.4,3.53-4.28,1.07-3.43,2.4-6.77,3.21-10.27,.39-1.72-.19-3.63-.32-5.44,0-.39-.03-.84,.03-1.23,0-.29,.1-.52,.23-.78,.58-1.07,1.43-2.07,2.17-3.04,1.26-1.81,2.14-3.92,5.21-3.14,1.07,.26,2.66-.68,3.76-1.46,2.95-1.94,5.73-4.08,8.58-6.15,1.62-1.17,2.56-2.69,2.98-4.66,.13-.58,.71-1.23,1.26-1.49,1.2-.52,2.53-.81,3.76-1.3,2.07-.78,3.98-1.55,5.93,.62,.68,.78,2.3,.97,3.5,1.04,3.69,.1,7.45,.23,11.14-.06,1.62-.1,3.34-.94,4.79-1.85,.91-.62,1.49-.84,2.49-.45,1.1,.45,2.27,.78,3.37,1.13,2.07,.62,4.28,.91,4.44,3.92,.03,1.04,1.26,2.2,2.23,2.91,2.92,2.3,5.86,4.57,9,6.51,1.46,.87,3.43,.84,5.15,1.33,.65,.16,1.43,.32,1.81,.81,.94,.94,1.62,2.11,2.4,3.17,1.26,1.72,2.79,3.17,1.26,5.77-.58,1-.1,2.82,.26,4.18,.91,3.21,2.07,6.38,3.01,9.55,.68,2.07,1.78,3.69,3.79,4.73,.49,.23,.87,1,.91,1.55,.1,.71,.1,1.39,.1,2.11-.06,.68-.06,1.39,0,2.07,.1,2.14,.06,4.05-2.4,5.25-1.04,.49-1.75,2.11-2.23,3.34-1.2,3.27-2.14,6.57-3.21,9.88Zm11.01-7.97l-.13,.13c.03,.06,.1,.13,.13,.16v-.29Zm-107.4-22.64c.06-.03,.13-.06,.16-.16-.03-.06-.13-.16-.16-.23v.39Zm0-.39v.39c.06-.03,.13-.06,.16-.16-.03-.06-.13-.16-.16-.23Zm107.27,23.16c.03,.06,.1,.13,.13,.16v-.29l-.13,.13Zm-107.27-23.16v.39c.06-.03,.13-.06,.16-.16-.03-.06-.13-.16-.16-.23Zm0,0v.39c.06-.03,.13-.06,.16-.16-.03-.06-.13-.16-.16-.23Zm107.27,23.16c.03,.06,.1,.13,.13,.16v-.29l-.13,.13Zm-107.27-23.16v.39c.06-.03,.13-.06,.16-.16-.03-.06-.13-.16-.16-.23Zm0,0v.39c.06-.03,.13-.06,.16-.16-.03-.06-.13-.16-.16-.23Zm107.27,23.16c.03,.06,.1,.13,.13,.16v-.29l-.13,.13Zm-107.27-23.16v.39c.06-.03,.13-.06,.16-.16-.03-.06-.13-.16-.16-.23Zm0,0v.39c.06-.03,.13-.06,.16-.16-.03-.06-.13-.16-.16-.23Zm107.27,23.16c.03,.06,.1,.13,.13,.16v-.29l-.13,.13Zm-.06-22.74c.06,.1,.16,.13,.19,.23v-.49c-.1,.06-.13,.16-.19,.26Zm-107.21-.42v.39c.06-.03,.13-.06,.16-.16-.03-.06-.13-.16-.16-.23Zm3.63,34.01c.03,.1,.06,.13,.1,.23,0-.06,.06-.1,.06-.16-.06-.06-.13-.06-.16-.06Zm99.66-31.9l.06,.03v-.03h-.06Zm.45-12.83c0,.06,0,.1-.03,.13,.06,.03,.16,.1,.19,.1-.03-.1-.13-.16-.16-.23Zm3.47,11.14c.06,.1,.16,.13,.19,.23v-.49c-.1,.06-.13,.16-.19,.26Zm-107.21-.42v.39c.06-.03,.13-.06,.16-.16-.03-.06-.13-.16-.16-.23Zm107.27,23.16c.03,.06,.1,.13,.13,.16v-.29l-.13,.13Zm-17.07,29.38c-.03,.06-.03,.1-.03,.16,.03-.1,.13-.13,.16-.23-.03,.06-.1,.06-.13,.06Zm-30.87,13.77s-.03,.03-.03,.06c.03,0,.06-.03,.1-.03-.03,0-.03-.03-.06-.03Zm-11.5-109.09c.06,0,.1,.03,.19,.1,.06-.1,.13-.13,.16-.19-.13,.03-.26,.06-.36,.1Zm59.37,43.21c.06,.1,.16,.13,.19,.23v-.49c-.1,.06-.13,.16-.19,.26Zm.06,22.74c.03,.06,.1,.13,.13,.16v-.29l-.13,.13Zm-107.27-23.16v.39c.06-.03,.13-.06,.16-.16-.03-.06-.13-.16-.16-.23Z"/>
    <g>
      <path class="cls-1" d="M72.19,177.67c-1.77-1.09-3.54-2.18-5.31-3.27-6.08,8.47-8.76,26.28,4.26,40.31-2.05,1.26-4.09,2.51-6.12,3.75-12.84-13.36-14.48-37.81-.07-53.61,2.17,1.33,4.37,2.66,6.55,4,6.41,3.93,12.82,7.87,19.24,11.77,.61,.37,.84,.76,.84,1.48-.03,6.37-.03,12.75,0,19.13,0,.7-.18,1.12-.82,1.49-1.78,1.02-3.51,2.13-5.26,3.2-.29,.17-.59,.32-1.02,.55,0-.52,0-.89,0-1.26,0-6.34-.01-12.68,.02-19.02,0-.76-.24-1.19-.89-1.57-1.74-1-3.44-2.08-5.25-3.19-3.81,6.86-3.77,13.61-.02,20.5-1.99,1.22-3.99,2.44-6.11,3.74-5.19-9.37-5.14-18.63-.03-28.01Z"/>
      <path class="cls-1" d="M123.8,208.96c.88-1.95,1.95-3.91,2.66-6,.75-2.19,1.2-4.5,1.69-6.77,.14-.66,.28-.96,1.01-.94,2.05,.04,4.1,.02,6.15,.02-.14,7.19-4.17,17.25-9.96,23.22-4.32-2.64-8.65-5.29-12.98-7.94-4.27-2.62-8.54-5.25-12.83-7.85-.57-.35-.81-.7-.81-1.39,.03-6.44,0-12.89,.04-19.33,0-.4,.25-.96,.57-1.16,8.59-5.3,17.2-10.57,25.81-15.84,.06-.04,.13-.06,.29-.13,5.8,6.63,9.13,14.33,10,23.21-2.4,0-4.71,0-7.13,0-.63-4.87-2.08-9.46-4.74-13.73-1.52,.93-2.97,1.82-4.42,2.7-4.19,2.56-8.37,5.13-12.57,7.67-.54,.33-.77,.69-.76,1.33,.03,3.8,0,7.59,.04,11.39,0,.37,.26,.89,.56,1.08,5.62,3.48,11.27,6.93,16.91,10.38,.05,.03,.13,.03,.46,.09Z"/>
      <path class="cls-1" d="M70.39,159.76c.23,.13,.29,.26,.42,.29,7.87,4.86,15.77,9.65,23.68,14.51,.58,.36,.97,.26,1.49-.06,5.93-3.66,11.85-7.29,17.81-10.92,2.01-1.26,4.08-2.49,6.12-3.76-13.25-10.88-34.72-11.82-49.52-.06Zm34.66,.81c-3.08,1.88-6.15,3.79-9.26,5.6-.32,.19-.87,.26-1.2,.1-3.17-1.91-6.32-3.92-9.49-5.83-.13-.06-.19-.19-.45-.39,7.09-2.27,13.96-2.23,21.02,0-.29,.19-.45,.39-.62,.52Z"/>
      <path class="cls-1" d="M119.43,223.24c-7.87-4.83-15.71-9.62-23.61-14.48-.58-.36-.94-.19-1.46,.1-5.93,3.63-11.82,7.26-17.72,10.88-2.11,1.26-4.18,2.49-6.25,3.82,13.31,10.85,34.75,11.76,49.56,.03-.23-.16-.36-.29-.52-.36Zm-34.75,.06c.29-.23,.49-.42,.68-.55,3.04-1.88,6.06-3.72,9.13-5.57,.29-.16,.87-.26,1.13-.1,3.24,1.94,6.45,3.89,9.65,5.86,.1,.1,.26,.13,.58,.29-7.26,2.3-14.12,2.3-21.18,.06Z"/>
    </g>
  </g>
</svg>