<?xml version="1.0" encoding="utf-8"?>
<!-- Generator: Adobe Illustrator 25.2.0, SVG Export Plug-In . SVG Version: 6.00 Build 0)  -->
<svg version="1.1" id="Layer_1" xmlns="http://www.w3.org/2000/svg" xmlns:xlink="http://www.w3.org/1999/xlink" x="0px" y="0px"
	 viewBox="0 0 512 512" style="enable-background:new 0 0 512 512;" xml:space="preserve">
<style type="text/css">
	.st0{fill:none;stroke:url(#SVGID_1_);stroke-width:16;stroke-miterlimit:10;}
	.st1{fill:url(#SVGID_2_);}
	.st2{fill:url(#SVGID_3_);}
	.st3{fill:url(#SVGID_4_);}
</style>
<g>
	
		<linearGradient id="SVGID_1_" gradientUnits="userSpaceOnUse" x1="43.6" y1="258" x2="468.4" y2="258" gradientTransform="matrix(1 0 0 -1 0 514)">
		<stop  offset="0" style="stop-color:#00FF99"/>
		<stop  offset="1" style="stop-color:#33CCFF"/>
	</linearGradient>
	<circle class="st0" cx="256" cy="256" r="204.4"/>
	
		<linearGradient id="SVGID_2_" gradientUnits="userSpaceOnUse" x1="358.5" y1="404" x2="439.1" y2="404" gradientTransform="matrix(1 0 0 -1 0 514)">
		<stop  offset="0" style="stop-color:#00FF99"/>
		<stop  offset="1" style="stop-color:#33CCFF"/>
	</linearGradient>
	<circle class="st1" cx="398.8" cy="110" r="40.3"/>
	
		<linearGradient id="SVGID_3_" gradientUnits="userSpaceOnUse" x1="29.963" y1="218.5" x2="79.673" y2="218.5" gradientTransform="matrix(1 0 0 -1 0 514)">
		<stop  offset="0" style="stop-color:#00FF99"/>
		<stop  offset="1" style="stop-color:#33CCFF"/>
	</linearGradient>
	<circle class="st2" cx="54.8" cy="295.5" r="24.9"/>
</g>
<linearGradient id="SVGID_4_" gradientUnits="userSpaceOnUse" x1="160.422" y1="445.5405" x2="369.0786" y2="31.5475">
	<stop  offset="0" style="stop-color:#00FF99"/>
	<stop  offset="1" style="stop-color:#33CCFF"/>
</linearGradient>
<path class="st3" d="M267.2,263.3c-5.4-3.3-10.9-6.7-16.3-10c-0.5-0.3-0.8-0.4-1.4-0.1c-7.2,4.5-14.5,8.9-21.7,13.3
	c-0.1,0.1-0.2,0.2-0.5,0.3c13.6,10.8,33.4,10,45.6,0C271,265.6,269.1,264.5,267.2,263.3z M240.3,266.5c0.3-0.1,0.4-0.2,0.5-0.2
	c3-1.8,5.9-3.7,8.9-5.4c0.2-0.1,0.8,0,1.1,0.1c2.8,1.7,5.6,3.4,8.4,5.1c0.2,0.1,0.3,0.3,0.6,0.5
	C253.3,268.7,246.9,268.7,240.3,266.5z M267.2,263.3c-5.4-3.3-10.9-6.7-16.3-10c-0.5-0.3-0.8-0.4-1.4-0.1
	c-7.2,4.5-14.5,8.9-21.7,13.3c-0.1,0.1-0.2,0.2-0.5,0.3c13.6,10.8,33.4,10,45.6,0C271,265.6,269.1,264.5,267.2,263.3z M240.3,266.5
	c0.3-0.2,0.4-0.2,0.5-0.2c3-1.8,5.9-3.7,8.9-5.4c0.2-0.1,0.8,0,1.1,0.1c2.8,1.7,5.6,3.4,8.4,5.1c0.2,0.1,0.3,0.3,0.6,0.5
	C253.3,268.7,246.9,268.7,240.3,266.5z M227.3,208.1c1.9,1.2,3.8,2.3,5.7,3.5c5.5,3.4,10.9,6.7,16.4,10.1c0.5,0.3,0.8,0.4,1.4,0.1
	c7.3-4.5,14.5-8.9,21.8-13.4c0.1-0.1,0.2-0.1,0.4-0.3C259.3,197.2,239.5,198.1,227.3,208.1z M259.4,208.7c-2.9,1.8-5.8,3.6-8.8,5.4
	c-0.3,0.1-0.8,0.1-1.1,0c-2.9-1.7-5.7-3.5-8.5-5.2c-0.1-0.1-0.3-0.3-0.5-0.5c6.5-2.1,12.8-2.1,19.3,0
	C259.6,208.5,259.5,208.6,259.4,208.7z M227.3,208.1c1.9,1.2,3.8,2.3,5.7,3.5c5.5,3.4,10.9,6.7,16.4,10.1c0.5,0.3,0.8,0.4,1.4,0.1
	c7.2-4.5,14.5-8.9,21.8-13.4c0.1-0.1,0.2-0.2,0.4-0.3C259.3,197.2,239.5,198.1,227.3,208.1z M259.4,208.7c-2.9,1.8-5.8,3.6-8.8,5.4
	c-0.3,0.2-0.8,0.1-1.1,0c-2.8-1.7-5.7-3.5-8.5-5.2c-0.2-0.1-0.3-0.3-0.6-0.5c6.5-2.1,12.8-2.1,19.3,0
	C259.6,208.5,259.5,208.7,259.4,208.7z M280.6,241.6c-0.4,2.1-0.9,4.2-1.6,6.2c-0.6,1.9-1.6,3.7-2.4,5.5c-0.3,0-0.4,0-0.4-0.1
	c-5.2-3.2-10.4-6.3-15.6-9.6c-0.3-0.2-0.5-0.6-0.5-1c0-3.5,0-7,0-10.5c0-0.6,0.2-0.9,0.7-1.2c3.8-2.3,7.7-4.7,11.6-7.1
	c1.3-0.8,2.7-1.6,4-2.5c2.5,3.9,3.8,8.2,4.4,12.6h6.6c-0.8-8.2-3.8-15.3-9.2-21.4c-0.1,0.1-0.2,0.1-0.3,0.1
	c-7.9,4.8-15.8,9.7-23.8,14.6c-0.3,0.2-0.5,0.7-0.5,1.1c0,5.9,0,11.9,0,17.8c0,0.6,0.2,0.9,0.7,1.3c3.9,2.4,7.9,4.8,11.8,7.2
	c4,2.4,8,4.9,11.9,7.3c5.3-5.5,9-14.8,9.2-21.4c-1.9,0-3.8,0-5.7,0C280.9,240.8,280.7,241,280.6,241.6z M246.2,227.3
	c-5.9-3.6-11.8-7.2-17.7-10.8c-2-1.2-4-2.5-6-3.7c-13.3,14.6-11.8,37.1,0,49.4c1.9-1.1,3.8-2.3,5.6-3.5c-12-12.9-9.5-29.3-3.9-37.1
	c1.6,1,3.3,2,4.9,3c-4.7,8.6-4.7,17.2,0,25.8c2-1.2,3.8-2.3,5.6-3.4c-3.5-6.4-3.5-12.6,0-18.9c1.7,1,3.2,2,4.8,2.9
	c0.6,0.3,0.8,0.7,0.8,1.4c0,5.8,0,11.7,0,17.5v1.2c0.4-0.2,0.7-0.3,0.9-0.5c1.6-1,3.2-2,4.8-2.9c0.6-0.3,0.8-0.7,0.8-1.4
	c0-5.9,0-11.7,0-17.6C247,228,246.8,227.6,246.2,227.3z M225.3,194.1c24.1-13.9,55.1-4.9,68.2,19.7c3.2,6,5.1,12.3,6.6,19
	c1.2,5.4,5.1,10.2,7.9,15.2c0.7,1.3,1.8,2.4,2.6,3.6c1.4,1.9,1.2,3.7-0.6,5.2c-1.2,1-2.6,1.9-3.6,3.1c-0.6,0.7-1.5,2.4-1.2,2.8
	c2.8,3.7,0.1,5.5-2.5,7.6c2,2.4,3,4.5,0.7,7.5c-1,1.3-0.4,4.3,0.2,6.3c1.8,6,0.1,8.6-6.1,8.9c-6.6,0.3-13.3-0.1-19.8,0.9
	c-15.2,2.5-24.4,12.2-27.3,27.5c-0.2,1-0.5,2.1-0.8,3.3c-9.8-14.3-5.5-34.7,9.5-45.5c2.3-1.6,4.8-3,7.3-4.1
	c17.9-8.1,27.9-27.3,23.9-46.3c-3.9-18.9-20.5-32.6-40-33.1c-19.7-0.4-36.2,13-41.3,33.8c-3.2,12.7-2.3,24.9,2.3,38.6
	c-1.2-1.7-2.5-3.3-3.6-5C193.2,239.1,201.1,208,225.3,194.1z M152.1,237.6c10.6,0.5,19.6,4.7,24,14.2c6.3,13.3,10.5,27.7,15.5,41.3
	c-12.9,2.2-17.5-4.8-19.4-15.5c-0.6-3.6-2.4-7.1-3.6-10.6c-4.9-14.6-11.5-18.2-26.6-13.9C138.9,239.6,143.1,237.2,152.1,237.6z
	 M152.1,237.6c10.6,0.5,19.6,4.7,24,14.2c6.3,13.3,10.5,27.7,15.5,41.3c-12.9,2.2-17.5-4.8-19.4-15.5c-0.6-3.6-2.4-7.1-3.6-10.6
	c-4.9-14.6-11.5-18.2-26.6-13.9C138.9,239.6,143.1,237.2,152.1,237.6z M328.9,219.6c5.3-0.5,6.8,2.4,8.2,6.9
	c2.3,7.8,5,15.5,7.9,23.1c3.4,9,11.2,13,20.3,10.8c1.6-0.4,3.2-0.9,4.7-1.3c3.2,11.1-0.5,16.2-10.9,15.4c-11.4-0.9-20.5-6.3-25-17.1
	c-5.2-12.5-9.1-25.6-13.9-39.6C323.9,218.6,326.4,219.8,328.9,219.6z M328.9,219.6c5.3-0.5,6.8,2.4,8.2,6.9c2.3,7.8,5,15.5,7.9,23.1
	c3.4,9,11.2,13,20.3,10.8c1.6-0.4,3.2-0.9,4.7-1.3c3.2,11.1-0.5,16.2-10.9,15.4c-11.4-0.9-20.5-6.3-25-17.1
	c-5.2-12.5-9.1-25.6-13.9-39.6C323.9,218.6,326.4,219.8,328.9,219.6z M320.1,298.1c2.4-11.4,6.3-22.5,9.8-34.1
	c2.7,2.9,4.2,5.6,6.5,7c4.1,2.6,3.6,5.7,2.3,9.5c-2.1,6.7-4,13.5-6,20.2c-4.1,14.3-0.4,21.6,13.8,26.3c-2.9,10-9.9,14.1-16.8,6.6
	c-4-4.3-8.5-9.4-9.9-15C318.2,312.2,318.7,304.7,320.1,298.1z M320.1,298.1c2.4-11.4,6.3-22.5,9.8-34.1c2.7,2.9,4.2,5.6,6.5,7
	c4.1,2.6,3.6,5.7,2.3,9.5c-2.1,6.7-4,13.5-6,20.2c-4.1,14.3-0.4,21.6,13.8,26.3c-2.9,10-9.9,14.1-16.8,6.6c-4-4.3-8.5-9.4-9.9-15
	C318.2,312.2,318.7,304.7,320.1,298.1z M170.4,186.6c-1.7-0.7-3.4-1.3-5.1-1.9c3.8-11,9.2-12.9,17.3-6.3
	c8.3,6.8,13.2,16.1,11.3,26.7c-2.7,14.4-7.4,28.3-11.5,43.1c-2.7-2.9-4.2-5.6-6.5-7c-4.4-2.7-3.8-6-2.5-10.1c2.5-8,4.9-16,7-24.1
	C182.6,198.3,178.5,190.1,170.4,186.6z M170.4,186.6c-1.7-0.7-3.4-1.3-5.1-1.9c3.8-11,9.2-12.9,17.3-6.3
	c8.3,6.8,13.2,16.1,11.3,26.7c-2.7,14.4-7.4,28.3-11.5,43.1c-2.7-2.9-4.2-5.6-6.5-7c-4.4-2.7-3.8-6-2.5-10.1c2.5-8,4.9-16,7-24.1
	C182.6,198.3,178.5,190.1,170.4,186.6z M293.6,182.5c4.1-3.5,7.3-2.6,11.1,0.6c5,4.1,10.5,7.6,15.8,11.4c12.5,8.9,20.2,7.5,29.1-5.3
	c9.3,7.1,9.2,13.9-0.4,19.7c-8.9,5.3-18.7,7-27.6,1.8c-12.2-7.2-23.5-15.8-35.9-24.3C289.2,184.8,291.8,184.1,293.6,182.5z
	 M293.6,182.5c4.1-3.5,7.3-2.6,11.1,0.6c5,4.1,10.5,7.6,15.8,11.4c12.5,8.9,20.2,7.5,29.1-5.3c9.3,7.1,9.2,13.9-0.4,19.7
	c-8.9,5.3-18.7,7-27.6,1.8c-12.2-7.2-23.5-15.8-35.9-24.3C289.2,184.8,291.8,184.1,293.6,182.5z M276.8,335.4
	c10.2-10.2,22.1-18.6,34-28.4c0.6,3.9,0.6,6.4,1.5,8.6c1.9,5,0.2,8-4,10.9c-5.4,3.6-10.3,7.9-15.4,11.9c-11.8,9.3-13,17.7-4.2,29.6
	c-5.9,5.9-14.5,6.9-17.3-4.1C268.4,353.2,269.3,342.8,276.8,335.4z M276.8,335.4c10.2-10.2,22.1-18.6,34-28.4
	c0.6,3.9,0.6,6.4,1.5,8.6c1.9,5,0.2,8-4,10.9c-5.4,3.6-10.3,7.9-15.4,11.9c-11.8,9.3-13,17.7-4.2,29.6c-5.9,5.9-14.5,6.9-17.3-4.1
	C268.4,353.2,269.3,342.8,276.8,335.4z M204,185.3c6.4-4.4,12.9-9,18.3-14.6c3.2-3.3,6.1-8.5,6.3-13c0.2-4.8-2.8-9.7-4.5-14.8
	c8-6,13.8-4.2,16.7,5.7c3.3,11.2,1.2,21.7-6.8,29.4c-10,9.5-21.4,17.5-32.8,26.7c-0.5-3.5-0.5-6-1.3-8.1
	C197.8,191.4,199.6,188.3,204,185.3z M204,185.3c6.4-4.4,12.9-9,18.3-14.6c3.2-3.3,6.1-8.5,6.3-13c0.2-4.8-2.8-9.7-4.5-14.8
	c8-6,13.8-4.2,16.7,5.7c3.3,11.2,1.2,21.7-6.8,29.4c-10,9.5-21.4,17.5-32.8,26.7c-0.5-3.5-0.5-6-1.3-8.1
	C197.8,191.4,199.6,188.3,204,185.3z M162.2,303.3c8.3-5.5,18-7.3,26.4-2.7c12.9,7.1,24.7,16.2,37.4,24.8c-5.3,2.8-9.5,4.9-13.6,7.1
	c-7.4-5.3-14.6-10.4-21.9-15.6c-11.6-8.3-20.2-6.6-28.3,6C152.7,315.1,152.8,309.6,162.2,303.3z M162.2,303.3
	c8.3-5.5,18-7.3,26.4-2.7c12.9,7.1,24.7,16.2,37.4,24.8c-5.3,2.8-9.5,4.9-13.6,7.1c-7.4-5.3-14.6-10.4-21.9-15.6
	c-11.6-8.3-20.2-6.6-28.3,6C152.7,315.1,152.8,309.6,162.2,303.3z M244.5,173.7c1.3-5.4,4.6-6.4,9.5-6.3c7.9,0.2,15.9,0.3,23.8-0.7
	c4.1-0.5,9.2-2.6,11.6-5.7c3.1-4.2,4-10.1,6-15.5c7.2,0.4,11.8,3.8,11.3,8.7c-1.2,11.8-10.8,23.9-22.4,25.1
	c-14.2,1.5-28.5,0.9-43.3,1.2C242.3,177.9,244,175.9,244.5,173.7z M244.5,173.7c1.3-5.4,4.6-6.4,9.5-6.3c7.9,0.2,15.9,0.3,23.8-0.7
	c4.1-0.5,9.2-2.6,11.6-5.7c3.1-4.2,4-10.1,6-15.5c7.2,0.4,11.8,3.8,11.3,8.7c-1.2,11.8-10.8,23.9-22.4,25.1
	c-14.2,1.5-28.5,0.9-43.3,1.2C242.3,177.9,244,175.9,244.5,173.7z M206.7,352.2c4-12.5,14.6-20.2,28.6-20.7
	c10.5-0.4,21.1-0.5,31.6-0.6c1.3,0,2.6,0.3,4.1,0.6c-1.5,2.7-3.2,4.6-3.7,6.9c-1.3,5.5-4.7,6.4-9.5,6.3c-7.9-0.2-15.9,0.1-23.9,0.5
	c-6,0.3-11,2.9-13.5,8.7c-1.7,3.9-2.4,8.3-3.6,12.6C207,366.1,203.6,361.7,206.7,352.2z M206.7,352.2c4-12.5,14.6-20.2,28.6-20.7
	c10.5-0.4,21.1-0.5,31.6-0.6c1.3,0,2.6,0.3,4.1,0.6c-1.5,2.7-3.2,4.6-3.7,6.9c-1.3,5.5-4.7,6.4-9.5,6.3c-7.9-0.2-15.9,0.1-23.9,0.5
	c-6,0.3-11,2.9-13.5,8.7c-1.7,3.9-2.4,8.3-3.6,12.6C207,366.1,203.6,361.7,206.7,352.2z M202.5,141.2c3.9-11.6,11.9-19.5,24-20.2
	c18.7-1.1,37.4-1,55.1-1.3c-10.2,16.9-26.9,13.4-42.5,14c-1.9,0.1-3.9,0.2-5.8,0.1c-8-0.4-14.4,2.5-17.9,10.3
	c-3.5,7.9-0.7,14.5,4.9,20.6c-3.5,2.7-6.9,5.3-10.4,8.1C201.3,163.3,198.6,152.9,202.5,141.2z M202.5,141.2
	c3.9-11.6,11.9-19.5,24-20.2c18.7-1.1,37.4-1,55.1-1.3c-10.2,16.9-26.9,13.4-42.5,14c-1.9,0.1-3.9,0.2-5.8,0.1
	c-8-0.4-14.4,2.5-17.9,10.3c-3.5,7.9-0.7,14.5,4.9,20.6c-3.5,2.7-6.9,5.3-10.4,8.1C201.3,163.3,198.6,152.9,202.5,141.2z
	 M241.8,382.4c2.5-1.6,5.5-3.4,8.3-3.5c10.5-0.6,21.1-0.4,31.6-0.9c10.4-0.5,18.1-9.9,15.8-19.6c-1-4-3.4-7.7-5.2-11.8
	c2.9-2.3,6-4.6,9.6-7.5c8.5,9.6,11.4,20.1,7.4,31.7c-4.1,12.1-12.6,19.7-25.3,20.3c-16.9,0.9-33.9,0.8-50.9,1.1
	c-1.3,0-2.7-0.2-4.2-0.4C233.5,388.5,237.5,385.2,241.8,382.4z M241.8,382.4c2.5-1.6,5.5-3.4,8.3-3.5c10.5-0.6,21.1-0.4,31.6-0.9
	c10.4-0.5,18.1-9.9,15.8-19.6c-1-4-3.4-7.7-5.2-11.8c2.9-2.3,6-4.6,9.6-7.5c8.5,9.6,11.4,20.1,7.4,31.7
	c-4.1,12.1-12.6,19.7-25.3,20.3c-16.9,0.9-33.9,0.8-50.9,1.1c-1.3,0-2.7-0.2-4.2-0.4C233.5,388.5,237.5,385.2,241.8,382.4z
	 M316.7,368c1.4-3.4,3.1-7.2,5.7-9.5c7-6.2,14.5-11.8,22-17.3c6.3-4.7,10-10.5,8.5-18.6c-1.5-8-6.9-12.4-14.6-14.1
	c-0.3-0.1-0.5-0.7-0.9-1.3c1-3.6,2.1-7.4,3.4-11.7c13.1,2.6,21.4,10.1,24.5,22.5c3,12.3-0.1,23.4-10.1,31.4
	c-12.7,10.2-25.6,20.1-38.4,30.1c-1.4,1.1-3.1,1.7-4.7,2.7C313.6,377,314.8,372.4,316.7,368z M316.7,368c1.4-3.4,3.1-7.2,5.7-9.5
	c7-6.2,14.5-11.8,22-17.3c6.3-4.7,10-10.5,8.5-18.6c-1.5-8-6.9-12.4-14.6-14.1c-0.3-0.1-0.5-0.7-0.9-1.3c1-3.6,2.1-7.4,3.4-11.7
	c13.1,2.6,21.4,10.1,24.5,22.5c3,12.3-0.1,23.4-10.1,31.4c-12.7,10.2-25.6,20.1-38.4,30.1c-1.4,1.1-3.1,1.7-4.7,2.7
	C313.6,377,314.8,372.4,316.7,368z M350.8,235c11.1-3.5,21.4-1.9,30,6.2c8.6,8.1,11.8,18.5,8.7,30.2c-4.2,15.9-9.1,31.7-13.7,47.5
	c-0.5,1.9-1.6,3.6-2.5,5.5c-1.6-5.3-3.4-9.9-4.4-14.6c-0.8-3.6-1.5-7.7-0.7-11.1c2.5-10.5,6-20.7,8.8-31.1
	c2.5-9.3-4.2-19.5-13.4-20.5c-3.9-0.4-7.9,0.6-12.7,1.1c-1.1-3.4-2.5-7.2-3.8-11.4C348.6,236.1,349.7,235.3,350.8,235z M350.8,235
	c11.1-3.5,21.4-1.9,30,6.2c8.6,8.1,11.8,18.5,8.7,30.2c-4.2,15.9-9.1,31.7-13.7,47.5c-0.5,1.9-1.6,3.6-2.5,5.5
	c-1.6-5.3-3.4-9.9-4.4-14.6c-0.8-3.6-1.5-7.7-0.7-11.1c2.5-10.5,6-20.7,8.8-31.1c2.5-9.3-4.2-19.5-13.4-20.5
	c-3.9-0.4-7.9,0.6-12.7,1.1c-1.1-3.4-2.5-7.2-3.8-11.4C348.6,236.1,349.7,235.3,350.8,235z M122.2,241.4c4.2-16.6,9.5-33,14.3-49.4
	c0.5-1.5,1.4-2.9,2.1-4.2c1.6,5.1,3.4,9.8,4.5,14.7c0.7,3.4,1.4,7.3,0.6,10.5c-2.6,10.5-6.1,20.7-8.9,31.1
	c-2.9,10.8,5.3,21.3,16.2,21c3.1-0.1,6.2-1,9.7-1.7c1.3,3.8,2.5,7.5,4,11.9c-11.9,5.3-22.6,4.6-32.2-3.2
	C123,264.3,119.1,253.6,122.2,241.4z M122.2,241.4c4.2-16.6,9.5-33,14.3-49.4c0.5-1.5,1.4-2.9,2.1-4.2c1.6,5.1,3.4,9.8,4.5,14.7
	c0.7,3.4,1.4,7.3,0.6,10.5c-2.6,10.5-6.1,20.7-8.9,31.1c-2.9,10.8,5.3,21.3,16.2,21c3.1-0.1,6.2-1,9.7-1.7c1.3,3.8,2.5,7.5,4,11.9
	c-11.9,5.3-22.6,4.6-32.2-3.2C123,264.3,119.1,253.6,122.2,241.4z M154.8,164.5c14.3-12.3,29.5-23.5,45.7-36.3
	c-2.2,6.8-3.5,11.6-5.3,16.2c-1.3,3.3-2.9,6.9-5.4,9c-7.9,6.8-16.5,12.8-24.5,19.4c-8.8,7.2-8.7,20.2,0.1,26.9c2.7,2,6,3.1,9.3,4.7
	c-1.1,3.9-2.3,7.8-3.6,12c-12.6-2.5-20.7-9.6-24.1-21.7C143.8,183.3,145.8,172.2,154.8,164.5z M154.8,164.5
	c14.3-12.3,29.5-23.5,45.7-36.3c-2.2,6.8-3.5,11.6-5.3,16.2c-1.3,3.3-2.9,6.9-5.4,9c-7.9,6.8-16.5,12.8-24.5,19.4
	c-8.8,7.2-8.7,20.2,0.1,26.9c2.7,2,6,3.1,9.3,4.7c-1.1,3.9-2.3,7.8-3.6,12c-12.6-2.5-20.7-9.6-24.1-21.7
	C143.8,183.3,145.8,172.2,154.8,164.5z M278.7,130.6c9.9-6.9,20.7-7.9,31-1.5c10.1,6.3,19.6,13.6,29.3,20.5
	c5.6,3.9,11,8.1,16.6,12.3c-5.4,0.1-10.1-0.3-14.7,0.4c-4.7,0.8-8.2-0.6-11.9-3.4c-7.5-5.6-15.1-11-22.8-16.3
	c-12.3-8.6-25-3.1-27.5,11.7c-0.3,1.9-0.6,3.8-1,5.9c-3.9,0.1-7.6,0.2-11.9,0.2C265,147.7,268.7,137.6,278.7,130.6z M278.7,130.6
	c9.9-6.9,20.7-7.9,31-1.5c10.1,6.3,19.6,13.6,29.3,20.5c5.6,3.9,11,8.1,16.6,12.3c-5.4,0.1-10.1-0.3-14.7,0.4
	c-4.7,0.8-8.2-0.6-11.9-3.4c-7.5-5.6-15.1-11-22.8-16.3c-12.3-8.6-25-3.1-27.5,11.7c-0.3,1.9-0.6,3.8-1,5.9
	c-3.9,0.1-7.6,0.2-11.9,0.2C265,147.7,268.7,137.6,278.7,130.6z M171.8,349.7c3.4,0.2,7.2,0.9,10,2.8c8.5,5.5,16.6,11.9,25,17.6
	c8.3,5.6,18.1,4.1,23.2-4.1c2.4-3.8,2.7-9,4.2-14.2c3.1-0.1,7.1-0.1,11.8-0.2c1,13.1-3,23.3-13.2,30.2c-10,6.7-20.8,7.4-31,0.9
	c-10.4-6.6-20.3-14.2-30.3-21.4c-5.2-3.7-10.4-7.6-15.4-11.3C161.7,349.8,166.8,349.3,171.8,349.7z M171.8,349.7
	c3.4,0.2,7.2,0.9,10,2.8c8.5,5.5,16.6,11.9,25,17.6c8.3,5.6,18.1,4.1,23.2-4.1c2.4-3.8,2.7-9,4.2-14.2c3.1-0.1,7.1-0.1,11.8-0.2
	c1,13.1-3,23.3-13.2,30.2c-10,6.7-20.8,7.4-31,0.9c-10.4-6.6-20.3-14.2-30.3-21.4c-5.2-3.7-10.4-7.6-15.4-11.3
	C161.7,349.8,166.8,349.3,171.8,349.7z M134.3,281c2.4,2.1,5,4.6,6.1,7.5c3.9,10,6.8,20.4,10.7,30.5c5.2,13.3,20.5,15.2,29,3.9
	c0.9-1.1,1.8-2.3,2.9-3.8c3.5,2.7,6.7,5.1,10.1,7.8c-6.1,11.4-15.2,16.9-27,16.7c-12.7-0.3-22.3-6.8-26.9-19.1
	c-5-13.3-9.4-27-13.9-40.5c-1.4-4.1-2.5-8.2-4-13.2C126.2,274.7,130.5,277.6,134.3,281z M134.3,281c2.4,2.1,5,4.6,6.1,7.5
	c3.9,10,6.8,20.4,10.7,30.5c5.2,13.3,20.5,15.2,29,3.9c0.9-1.1,1.8-2.3,2.9-3.8c3.5,2.7,6.7,5.1,10.1,7.8
	c-6.1,11.4-15.2,16.9-27,16.7c-12.7-0.3-22.3-6.8-26.9-19.1c-5-13.3-9.4-27-13.9-40.5c-1.4-4.1-2.5-8.2-4-13.2
	C126.2,274.7,130.5,277.6,134.3,281z M318.8,185.1c3.5,2.7,6.7,5.1,10.1,7.7c1.1-1.5,2-2.7,2.9-3.9c8.5-11.2,23.8-9.2,29,4.1
	c3.9,10,6.8,20.4,10.7,30.5c1.1,2.9,3.8,5.4,6.2,7.5c3.8,3.4,8.1,6.3,13.2,10.3c-3.1-9.3-5.7-17.6-8.5-25.9
	c-3.2-9.6-6.2-19.3-10-28.6c-5-12.3-14.7-18.5-27.3-18.5C333.7,168.3,324.6,173.8,318.8,185.1z"/>
</svg>
