<?xml version="1.0" encoding="utf-8"?>
<!-- Generator: Adobe Illustrator 25.2.0, SVG Export Plug-In . SVG Version: 6.00 Build 0)  -->
<svg version="1.1" id="Capa_1" xmlns="http://www.w3.org/2000/svg" xmlns:xlink="http://www.w3.org/1999/xlink" x="0px" y="0px"
	 viewBox="0 0 2083 2083" style="enable-background:new 0 0 2083 2083;" xml:space="preserve">
<style type="text/css">
	.st0{fill:none;stroke:url(#SVGID_1_);stroke-width:6;stroke-miterlimit:10;}
	.st1{opacity:0.17;enable-background:new    ;}
	.st2{fill:#1D1B30;}
	.st3{fill:none;stroke:url(#XMLID_3_);stroke-width:6;stroke-miterlimit:10;}
	.st4{fill:none;stroke:url(#XMLID_4_);stroke-width:6;stroke-miterlimit:10;}
	.st5{fill:none;stroke:url(#XMLID_5_);stroke-width:6;stroke-miterlimit:10;}
	.st6{opacity:0.3;fill:#1D1B30;enable-background:new    ;}
	.st7{fill:url(#XMLID_7_);}
	.st8{fill:url(#XMLID_8_);}
	.st9{fill:url(#XMLID_9_);}
	.st10{fill:url(#XMLID_10_);}
	.st11{opacity:0.2;fill:none;stroke:url(#XMLID_11_);stroke-width:2;stroke-miterlimit:10;enable-background:new    ;}
	.st12{fill:url(#XMLID_13_);}
	.st13{fill:url(#XMLID_14_);}
	.st14{fill:url(#XMLID_15_);}
	.st15{fill:url(#XMLID_16_);}
	.st16{fill:url(#XMLID_17_);}
	.st17{fill:url(#XMLID_18_);}
	.st18{fill:url(#XMLID_19_);}
	.st19{fill:url(#XMLID_20_);}
	.st20{fill:url(#XMLID_21_);}
	.st21{fill:url(#XMLID_22_);}
	.st22{fill:url(#XMLID_23_);}
	.st23{fill:url(#XMLID_24_);}
	.st24{fill:url(#XMLID_25_);}
	.st25{fill:url(#XMLID_27_);}
	.st26{fill:url(#XMLID_28_);}
	.st27{fill:url(#XMLID_29_);}
	.st28{opacity:0.2;fill:none;stroke:url(#XMLID_30_);stroke-width:2;stroke-miterlimit:10;enable-background:new    ;}
	.st29{fill:url(#XMLID_31_);}
	.st30{fill:url(#XMLID_32_);}
	.st31{fill:url(#XMLID_33_);}
	.st32{opacity:0.4;fill:url(#XMLID_34_);enable-background:new    ;}
	.st33{opacity:0.55;fill:url(#XMLID_35_);enable-background:new    ;}
	.st34{fill:url(#XMLID_36_);}
	.st35{fill:url(#XMLID_37_);}
	.st36{fill:url(#XMLID_38_);}
	.st37{fill:url(#XMLID_41_);}
	.st38{fill:url(#XMLID_42_);}
	.st39{clip-path:url(#SVGID_3_);fill:url(#XMLID_43_);}
	.st40{clip-path:url(#SVGID_5_);fill:url(#XMLID_44_);}
	.st41{clip-path:url(#SVGID_7_);fill:url(#XMLID_45_);}
	.st42{clip-path:url(#SVGID_9_);fill:url(#XMLID_46_);}
	.st43{clip-path:url(#SVGID_11_);fill:url(#XMLID_47_);}
	.st44{clip-path:url(#SVGID_13_);fill:url(#XMLID_51_);}
	.st45{clip-path:url(#SVGID_15_);fill:url(#XMLID_53_);}
	.st46{clip-path:url(#SVGID_17_);fill:url(#XMLID_54_);}
	.st47{opacity:0.55;fill:url(#XMLID_55_);enable-background:new    ;}
	.st48{fill:url(#XMLID_56_);}
	.st49{opacity:5.000000e-02;fill:url(#XMLID_57_);enable-background:new    ;}
	.st50{fill:url(#XMLID_58_);}
	.st51{fill:url(#XMLID_59_);}
	.st52{opacity:0.2;fill:none;stroke:url(#XMLID_60_);stroke-width:2;stroke-miterlimit:10;enable-background:new    ;}
	.st53{fill:url(#XMLID_61_);}
	.st54{fill:url(#SVGID_18_);}
	.st55{fill:url(#SVGID_19_);}
	.st56{fill:url(#SVGID_20_);}
	.st57{fill:url(#SVGID_21_);}
	.st58{fill:url(#SVGID_22_);}
	.st59{fill:url(#SVGID_23_);}
	.st60{fill:url(#SVGID_24_);}
	.st61{fill:url(#SVGID_25_);}
	.st62{fill:url(#SVGID_26_);}
	.st63{fill:url(#SVGID_27_);}
	.st64{fill:url(#SVGID_28_);}
	.st65{fill:url(#SVGID_29_);}
	.st66{fill:url(#SVGID_30_);}
	.st67{fill:url(#SVGID_31_);}
	.st68{fill:url(#SVGID_32_);}
	.st69{fill:url(#SVGID_33_);}
	.st70{display:none;fill:url(#SVGID_34_);}
	.st71{display:none;fill:url(#XMLID_62_);}
	.st72{display:none;fill:url(#XMLID_63_);}
	.st73{fill:url(#SVGID_35_);}
	.st74{fill:none;stroke:url(#SVGID_36_);stroke-width:3;stroke-miterlimit:10;}
	.st75{fill:url(#SVGID_37_);}
	.st76{fill:none;stroke:url(#SVGID_38_);stroke-width:3;stroke-miterlimit:10;}
	.st77{fill:url(#SVGID_39_);}
	.st78{fill:none;stroke:url(#SVGID_40_);stroke-width:3;stroke-miterlimit:10;}
	.st79{fill:url(#SVGID_41_);}
	.st80{fill:none;stroke:url(#SVGID_42_);stroke-width:3;stroke-miterlimit:10;}
	.st81{fill:url(#SVGID_43_);}
	.st82{fill:url(#SVGID_44_);}
	.st83{fill:url(#SVGID_45_);}
	.st84{fill:url(#SVGID_46_);}
	.st85{fill:url(#SVGID_47_);}
	.st86{fill:url(#SVGID_48_);}
	.st87{fill:#21064C;}
	.st88{fill:#FFFFFF;}
</style>
<g>
	
		<linearGradient id="SVGID_1_" gradientUnits="userSpaceOnUse" x1="752.4083" y1="471.1661" x2="1952.1552" y2="471.1661" gradientTransform="matrix(1 0 0 -1 0 2084)">
		<stop  offset="0" style="stop-color:#7F00FF"/>
		<stop  offset="1" style="stop-color:#3F00FC"/>
	</linearGradient>
	<path class="st0" d="M1595.6,1510.2l350.6,204l-280.6,164l-468.7-271.4l-84.7,48l-246.6-144.6l85.3-50.7l-197-112.9"/>
	<g id="XMLID_26_" class="st1">
		<g>
			<g>
				<path class="st2" d="M677.5,1078.8c-127.5-46-333.5-46-460.1,0c-126.6,46-126,120.5,1.5,166.4c127.5,46,333.5,46,460.1,0
					C805.7,1199.3,805,1124.7,677.5,1078.8"/>
			</g>
		</g>
	</g>
	
		<linearGradient id="XMLID_3_" gradientUnits="userSpaceOnUse" x1="958.1677" y1="17518.8008" x2="1063.2323" y2="17518.8008" gradientTransform="matrix(1 0 0 1 0 -16384)">
		<stop  offset="0" style="stop-color:#7F00FF"/>
		<stop  offset="1" style="stop-color:#3F00FC"/>
	</linearGradient>
	<path id="XMLID_154_" class="st3" d="M1061.7,1165.1l-102-60.6"/>
	
		<linearGradient id="XMLID_4_" gradientUnits="userSpaceOnUse" x1="808.576" y1="17610.4355" x2="1054.7275" y2="17610.4355" gradientTransform="matrix(1 0 0 1 0 -16384)">
		<stop  offset="0" style="stop-color:#7F00FF"/>
		<stop  offset="1" style="stop-color:#3F00FC"/>
	</linearGradient>
	<path id="XMLID_74_" class="st4" d="M1053.1,1257.9l-96-62l-108,54l-39-23"/>
	
		<linearGradient id="XMLID_5_" gradientUnits="userSpaceOnUse" x1="338.2978" y1="17943.5195" x2="1428.6713" y2="17943.5195" gradientTransform="matrix(1 0 0 1 0 -16384)">
		<stop  offset="0" style="stop-color:#7F00FF"/>
		<stop  offset="1" style="stop-color:#3F00FC"/>
	</linearGradient>
	<path id="XMLID_12_" class="st5" d="M1427.1,1389.7l-550.9,338.7l-536.4-310.3"/>
	<path id="XMLID_121_" class="st6" d="M1492.9,1102.6l476.2,296.3l-473,296.4L1019.9,1399L1492.9,1102.6z"/>
	<g id="XMLID_172_">
		
			<linearGradient id="XMLID_7_" gradientUnits="userSpaceOnUse" x1="1385.3252" y1="17654.9316" x2="1603.7748" y2="16839.668" gradientTransform="matrix(1 0 0 1 0 -16384)">
			<stop  offset="0" style="stop-color:#4F3E90"/>
			<stop  offset="1" style="stop-color:#171A31"/>
		</linearGradient>
		<path id="XMLID_182_" class="st7" d="M1263.4,560.1l230.4-133.9L1725.7,560v606.5l-230.4,133.9l-231.9-133.8V560.1z"/>
		
			<linearGradient id="XMLID_8_" gradientUnits="userSpaceOnUse" x1="1461.163" y1="17068.6523" x2="1527.962" y2="16819.3535" gradientTransform="matrix(1 0 0 1 0 -16384)">
			<stop  offset="0" style="stop-color:#4F3E90"/>
			<stop  offset="1" style="stop-color:#171A31"/>
		</linearGradient>
		<path id="XMLID_181_" class="st8" d="M1493.8,426.2L1725.7,560l-230.4,133.8l-231.9-133.7L1493.8,426.2z"/>
		<g id="XMLID_173_">
			
				<linearGradient id="XMLID_9_" gradientUnits="userSpaceOnUse" x1="1477.1554" y1="16997.6445" x2="1511.7762" y2="16868.4355" gradientTransform="matrix(1 0 0 1 0 -16384)">
				<stop  offset="0" style="stop-color:#4F3E90"/>
				<stop  offset="1" style="stop-color:#171A31"/>
			</linearGradient>
			<path id="XMLID_178_" class="st9" d="M1494.1,479.7l120.1,69.4l-119.3,69.3l-120.2-69.3L1494.1,479.7z"/>
			
				<linearGradient id="XMLID_10_" gradientUnits="userSpaceOnUse" x1="1475.9142" y1="17008.8867" x2="1504.181" y2="16903.3926" gradientTransform="matrix(1 0 0 1 0 -16384)">
				<stop  offset="0" style="stop-color:#463780"/>
				<stop  offset="0.143" style="stop-color:#382E68"/>
				<stop  offset="0.331" style="stop-color:#292550"/>
				<stop  offset="0.529" style="stop-color:#1F1F3F"/>
				<stop  offset="0.743" style="stop-color:#191B34"/>
				<stop  offset="1" style="stop-color:#171A31"/>
			</linearGradient>
			<path id="XMLID_175_" class="st10" d="M1490.6,616.2L1374.9,549v11l115.7,68.5c2.5,1.5,5.5,1.5,8,0l115.7-67.2v-12.4l-115.7,67.2
				C1496.1,617.6,1493.1,617.6,1490.6,616.2L1490.6,616.2z"/>
			
				<linearGradient id="XMLID_11_" gradientUnits="userSpaceOnUse" x1="1374.2003" y1="16967.2422" x2="1614.7026" y2="16967.2422" gradientTransform="matrix(1 0 0 1 0 -16384)">
				<stop  offset="0" style="stop-color:#00ACE9"/>
				<stop  offset="1" style="stop-color:#007541"/>
			</linearGradient>
			<path id="XMLID_174_" class="st11" d="M1374.7,549.1l116.3,67.1c2.4,1.4,5.4,1.4,7.8,0l115.4-67.1"/>
		</g>
	</g>
	<g id="XMLID_413_">
		
			<linearGradient id="XMLID_13_" gradientUnits="userSpaceOnUse" x1="1159.6321" y1="17812.4512" x2="1300.8997" y2="17285.2324" gradientTransform="matrix(1 0 0 1 0 -16384)">
			<stop  offset="0" style="stop-color:#4F3E90"/>
			<stop  offset="1" style="stop-color:#171A31"/>
		</linearGradient>
		<path id="XMLID_185_" class="st12" d="M999.6,1314.1v-298.4l229.9-133.6l231.4,133.5v298.5l-229.8,133.5L999.6,1314.1z"/>
		<g id="XMLID_315_">
			
				<linearGradient id="XMLID_14_" gradientUnits="userSpaceOnUse" x1="1196.0909" y1="17477.5332" x2="1262.9091" y2="17228.166" gradientTransform="matrix(1 0 0 1 0 -16384)">
				<stop  offset="0" style="stop-color:#4F3E90"/>
				<stop  offset="1" style="stop-color:#171A31"/>
			</linearGradient>
			<path id="XMLID_382_" class="st13" d="M1228.7,835l231.9,133.8l-230.3,133.9L998.4,968.9L1228.7,835z"/>
			
				<linearGradient id="XMLID_15_" gradientUnits="userSpaceOnUse" x1="1099.7546" y1="17496.8203" x2="1128.9453" y2="17387.8789" gradientTransform="matrix(1 0 0 1 0 -16384)">
				<stop  offset="0" style="stop-color:#7F00FF"/>
				<stop  offset="1" style="stop-color:#3F00FC"/>
			</linearGradient>
			<path id="XMLID_381_" class="st14" d="M998.4,968.9l-0.2,45.1l232.1,133.8v-45.1L998.4,968.9z"/>
			
				<linearGradient id="XMLID_16_" gradientUnits="userSpaceOnUse" x1="1345.5" y1="17531.9004" x2="1345.5" y2="17352.9004" gradientTransform="matrix(1 0 0 1 0 -16384)">
				<stop  offset="0" style="stop-color:#463780"/>
				<stop  offset="0.143" style="stop-color:#382E68"/>
				<stop  offset="0.331" style="stop-color:#292550"/>
				<stop  offset="0.529" style="stop-color:#1F1F3F"/>
				<stop  offset="0.743" style="stop-color:#191B34"/>
				<stop  offset="1" style="stop-color:#171A31"/>
			</linearGradient>
			<path id="XMLID_318_" class="st15" d="M1230.3,1147.9v-45.2l230.4-133.8l-0.2,45.2L1230.3,1147.9z"/>
		</g>
		<g id="XMLID_265_">
			
				<linearGradient id="XMLID_17_" gradientUnits="userSpaceOnUse" x1="1196.116" y1="17390.4395" x2="1262.9091" y2="17141.166" gradientTransform="matrix(1 0 0 1 0 -16384)">
				<stop  offset="0" style="stop-color:#4F3E90"/>
				<stop  offset="1" style="stop-color:#171A31"/>
			</linearGradient>
			<path id="XMLID_312_" class="st16" d="M1228.7,748l231.9,133.8l-230.3,133.8L998.4,881.9L1228.7,748z"/>
			
				<linearGradient id="XMLID_18_" gradientUnits="userSpaceOnUse" x1="1099.7546" y1="17409.8203" x2="1128.9453" y2="17300.8789" gradientTransform="matrix(1 0 0 1 0 -16384)">
				<stop  offset="0" style="stop-color:#7F00FF"/>
				<stop  offset="1" style="stop-color:#3F00FC"/>
			</linearGradient>
			<path id="XMLID_307_" class="st17" d="M998.4,881.9l-0.2,45.1l232.1,133.8v-45.1L998.4,881.9z"/>
			
				<linearGradient id="XMLID_19_" gradientUnits="userSpaceOnUse" x1="1345.5" y1="17444.8008" x2="1345.5" y2="17265.9004" gradientTransform="matrix(1 0 0 1 0 -16384)">
				<stop  offset="0" style="stop-color:#463780"/>
				<stop  offset="0.143" style="stop-color:#382E68"/>
				<stop  offset="0.331" style="stop-color:#292550"/>
				<stop  offset="0.529" style="stop-color:#1F1F3F"/>
				<stop  offset="0.743" style="stop-color:#191B34"/>
				<stop  offset="1" style="stop-color:#171A31"/>
			</linearGradient>
			<path id="XMLID_291_" class="st18" d="M1230.3,1060.8v-45.1l230.4-133.8l-0.2,45.1L1230.3,1060.8z"/>
		</g>
		<g id="XMLID_189_">
			
				<linearGradient id="XMLID_20_" gradientUnits="userSpaceOnUse" x1="1196.1158" y1="17303.4395" x2="1262.9092" y2="17054.166" gradientTransform="matrix(1 0 0 1 0 -16384)">
				<stop  offset="0" style="stop-color:#4F3E90"/>
				<stop  offset="1" style="stop-color:#171A31"/>
			</linearGradient>
			<path id="XMLID_246_" class="st19" d="M1228.7,661l231.9,133.8l-230.3,133.8L998.4,794.9L1228.7,661z"/>
			
				<linearGradient id="XMLID_21_" gradientUnits="userSpaceOnUse" x1="1099.7546" y1="17322.8203" x2="1128.9453" y2="17213.8789" gradientTransform="matrix(1 0 0 1 0 -16384)">
				<stop  offset="0" style="stop-color:#7F00FF"/>
				<stop  offset="1" style="stop-color:#3F00FC"/>
			</linearGradient>
			<path id="XMLID_245_" class="st20" d="M998.4,794.9l-0.2,45.1l232.1,133.8v-45.1L998.4,794.9z"/>
			
				<linearGradient id="XMLID_22_" gradientUnits="userSpaceOnUse" x1="1345.5" y1="17357.8008" x2="1345.5" y2="17178.9004" gradientTransform="matrix(1 0 0 1 0 -16384)">
				<stop  offset="0" style="stop-color:#463780"/>
				<stop  offset="0.143" style="stop-color:#382E68"/>
				<stop  offset="0.331" style="stop-color:#292550"/>
				<stop  offset="0.529" style="stop-color:#1F1F3F"/>
				<stop  offset="0.743" style="stop-color:#191B34"/>
				<stop  offset="1" style="stop-color:#171A31"/>
			</linearGradient>
			<path id="XMLID_229_" class="st21" d="M1230.3,973.8v-45.1l230.4-133.8l-0.2,45.1L1230.3,973.8z"/>
		</g>
		<g id="XMLID_160_">
			
				<linearGradient id="XMLID_23_" gradientUnits="userSpaceOnUse" x1="1196.1158" y1="17216.4395" x2="1262.9092" y2="16967.166" gradientTransform="matrix(1 0 0 1 0 -16384)">
				<stop  offset="0" style="stop-color:#4F3E90"/>
				<stop  offset="1" style="stop-color:#171A31"/>
			</linearGradient>
			<path id="XMLID_163_" class="st22" d="M1228.7,574l231.9,133.8l-230.3,133.8L998.4,707.9L1228.7,574z"/>
			
				<linearGradient id="XMLID_24_" gradientUnits="userSpaceOnUse" x1="1099.7546" y1="17235.8203" x2="1128.9453" y2="17126.8789" gradientTransform="matrix(1 0 0 1 0 -16384)">
				<stop  offset="0" style="stop-color:#7F00FF"/>
				<stop  offset="1" style="stop-color:#3F00FC"/>
			</linearGradient>
			<path id="XMLID_162_" class="st23" d="M998.4,707.9l-0.2,45.1l232.1,133.8v-45.1L998.4,707.9z"/>
			
				<linearGradient id="XMLID_25_" gradientUnits="userSpaceOnUse" x1="1345.5" y1="17270.8008" x2="1345.5" y2="17091.9004" gradientTransform="matrix(1 0 0 1 0 -16384)">
				<stop  offset="0" style="stop-color:#463780"/>
				<stop  offset="0.143" style="stop-color:#382E68"/>
				<stop  offset="0.331" style="stop-color:#292550"/>
				<stop  offset="0.529" style="stop-color:#1F1F3F"/>
				<stop  offset="0.743" style="stop-color:#191B34"/>
				<stop  offset="1" style="stop-color:#171A31"/>
			</linearGradient>
			<path id="XMLID_161_" class="st24" d="M1230.3,886.8v-45.1l230.4-133.8l-0.2,45.1L1230.3,886.8z"/>
		</g>
		
			<linearGradient id="XMLID_27_" gradientUnits="userSpaceOnUse" x1="1196.8572" y1="17215.9238" x2="1263.6746" y2="16966.5566" gradientTransform="matrix(1 0 0 1 0 -16384)">
			<stop  offset="0" style="stop-color:#4F3E90"/>
			<stop  offset="1" style="stop-color:#171A31"/>
		</linearGradient>
		<path id="XMLID_212_" class="st25" d="M1229.5,573.4l231.9,133.9l-230.3,133.8l-232-133.8L1229.5,573.4z"/>
		<g id="XMLID_190_">
			
				<linearGradient id="XMLID_28_" gradientUnits="userSpaceOnUse" x1="1212.9554" y1="17144.9453" x2="1247.5696" y2="17015.7617" gradientTransform="matrix(1 0 0 1 0 -16384)">
				<stop  offset="0" style="stop-color:#4F3E90"/>
				<stop  offset="1" style="stop-color:#171A31"/>
			</linearGradient>
			<path id="XMLID_210_" class="st26" d="M1229.8,627l120.2,69.4l-119.3,69.3l-120.2-69.3L1229.8,627z"/>
			
				<linearGradient id="XMLID_29_" gradientUnits="userSpaceOnUse" x1="1211.6146" y1="17156.1855" x2="1239.8805" y2="17050.6934" gradientTransform="matrix(1 0 0 1 0 -16384)">
				<stop  offset="0" style="stop-color:#463780"/>
				<stop  offset="0.143" style="stop-color:#382E68"/>
				<stop  offset="0.331" style="stop-color:#292550"/>
				<stop  offset="0.529" style="stop-color:#1F1F3F"/>
				<stop  offset="0.743" style="stop-color:#191B34"/>
				<stop  offset="1" style="stop-color:#171A31"/>
			</linearGradient>
			<path id="XMLID_208_" class="st27" d="M1226.4,763.4l-115.8-67.1v11l115.7,68.5c2.5,1.5,5.5,1.5,8,0l115.7-67.2v-12.4
				l-115.7,67.2C1231.9,764.9,1228.8,764.9,1226.4,763.4z"/>
			
				<linearGradient id="XMLID_30_" gradientUnits="userSpaceOnUse" x1="1110.0002" y1="17114.541" x2="1350.5027" y2="17114.541" gradientTransform="matrix(1 0 0 1 0 -16384)">
				<stop  offset="0" style="stop-color:#00ACE9"/>
				<stop  offset="1" style="stop-color:#007541"/>
			</linearGradient>
			<path id="XMLID_191_" class="st28" d="M1110.5,696.4l116.3,67.1c2.4,1.4,5.4,1.4,7.8,0l115.4-67.1"/>
		</g>
	</g>
	
		<linearGradient id="XMLID_31_" gradientUnits="userSpaceOnUse" x1="1640.4912" y1="17803.623" x2="1858.9337" y2="16988.3828" gradientTransform="matrix(1 0 0 1 0 -16384)">
		<stop  offset="0" style="stop-color:#4F3E90"/>
		<stop  offset="1" style="stop-color:#171A31"/>
	</linearGradient>
	<path id="XMLID_171_" class="st29" d="M1518.6,708.8l230.3-133.9l231.9,133.8v606.6l-230.3,133.8l-231.9-133.8V708.8z"/>
	
		<linearGradient id="XMLID_32_" gradientUnits="userSpaceOnUse" x1="1716.2909" y1="17217.4336" x2="1783.1091" y2="16968.0664" gradientTransform="matrix(1 0 0 1 0 -16384)">
		<stop  offset="0" style="stop-color:#4F3E90"/>
		<stop  offset="1" style="stop-color:#171A31"/>
	</linearGradient>
	<path id="XMLID_170_" class="st30" d="M1748.9,574.9l231.9,133.8l-230.3,133.9l-231.9-133.8L1748.9,574.9z"/>
	
		<linearGradient id="XMLID_33_" gradientUnits="userSpaceOnUse" x1="1385.3126" y1="17952.4297" x2="1603.7623" y2="17137.1641" gradientTransform="matrix(1 0 0 1 0 -16384)">
		<stop  offset="0" style="stop-color:#4F3E90"/>
		<stop  offset="1" style="stop-color:#171A31"/>
	</linearGradient>
	<path id="XMLID_52_" class="st31" d="M1263.4,857.5l230.4-133.8l231.9,133.8V1464l-230.4,133.9l-231.9-133.8V857.5z"/>
	
		<linearGradient id="XMLID_34_" gradientUnits="userSpaceOnUse" x1="1806.019" y1="16973.3008" x2="1811.129" y2="16973.3008" gradientTransform="matrix(1 0 0 1 0 -16384)">
		<stop  offset="0" style="stop-color:#FFFFFF;stop-opacity:0.6"/>
		<stop  offset="1" style="stop-color:#FFFFFF"/>
	</linearGradient>
	<circle id="XMLID_214_" class="st32" cx="1808.6" cy="589.3" r="2.6"/>
	
		<linearGradient id="XMLID_35_" gradientUnits="userSpaceOnUse" x1="1785.634" y1="16935.8008" x2="1791.109" y2="16935.8008" gradientTransform="matrix(1 0 0 1 0 -16384)">
		<stop  offset="0" style="stop-color:#FFFFFF;stop-opacity:0.6"/>
		<stop  offset="1" style="stop-color:#FFFFFF"/>
	</linearGradient>
	<circle id="XMLID_358_" class="st33" cx="1788.4" cy="551.8" r="2.7"/>
	
		<linearGradient id="XMLID_36_" gradientUnits="userSpaceOnUse" x1="1461.1505" y1="17366.1504" x2="1527.9495" y2="17116.8496" gradientTransform="matrix(1 0 0 1 0 -16384)">
		<stop  offset="0" style="stop-color:#4F3E90"/>
		<stop  offset="1" style="stop-color:#171A31"/>
	</linearGradient>
	<path id="XMLID_92_" class="st34" d="M1493.8,723.7l231.9,133.8l-230.4,133.8l-231.9-133.8L1493.8,723.7z"/>
	<g id="XMLID_111_">
		
			<linearGradient id="XMLID_37_" gradientUnits="userSpaceOnUse" x1="1733.1267" y1="17135.9512" x2="1766.2483" y2="17012.3418" gradientTransform="matrix(1 0 0 1 0 -16384)">
			<stop  offset="0" style="stop-color:#4F3E90"/>
			<stop  offset="1" style="stop-color:#171A31"/>
		</linearGradient>
		<path id="XMLID_115_" class="st35" d="M1749.3,623.8l115,66.3l-114.2,66.4l-115-66.4L1749.3,623.8z"/>
		
			<linearGradient id="XMLID_38_" gradientUnits="userSpaceOnUse" x1="1685.3644" y1="17145.5547" x2="1699.8356" y2="17091.5449" gradientTransform="matrix(1 0 0 1 0 -16384)">
			<stop  offset="0" style="stop-color:#7F00FF"/>
			<stop  offset="1" style="stop-color:#3F00FC"/>
		</linearGradient>
		<path id="XMLID_113_" class="st36" d="M1635.1,690.2l-0.1,22.3l115.1,66.4v-22.4L1635.1,690.2z"/>
		
			<linearGradient id="XMLID_41_" gradientUnits="userSpaceOnUse" x1="1807.25" y1="17162.9004" x2="1807.25" y2="17074.1992" gradientTransform="matrix(1 0 0 1 0 -16384)">
			<stop  offset="0" style="stop-color:#463780"/>
			<stop  offset="0.143" style="stop-color:#382E68"/>
			<stop  offset="0.331" style="stop-color:#292550"/>
			<stop  offset="0.529" style="stop-color:#1F1F3F"/>
			<stop  offset="0.743" style="stop-color:#191B34"/>
			<stop  offset="1" style="stop-color:#171A31"/>
		</linearGradient>
		<path id="XMLID_112_" class="st37" d="M1750.1,778.9v-22.4l114.3-66.3l-0.1,22.3L1750.1,778.9z"/>
	</g>
	
		<linearGradient id="XMLID_42_" gradientUnits="userSpaceOnUse" x1="1740.1949" y1="17109.3652" x2="1760.0117" y2="17035.4102" gradientTransform="matrix(1 0 0 1 0 -16384)">
		<stop  offset="0" style="stop-color:#7F00FF;stop-opacity:0.2"/>
		<stop  offset="1" style="stop-color:#3F00FC"/>
	</linearGradient>
	<path id="XMLID_110_" class="st38" d="M1749.9,648.7l68.7,39.7l-68.2,39.7l-68.8-39.7L1749.9,648.7z"/>
	<g id="XMLID_97_">
		<g>
			<defs>
				<polygon id="SVGID_2_" points="1749.9,648.7 1818.6,688.4 1750.4,728.1 1681.6,688.4 				"/>
			</defs>
			<clipPath id="SVGID_3_">
				<use xlink:href="#SVGID_2_"  style="overflow:visible;"/>
			</clipPath>
			
				<linearGradient id="XMLID_43_" gradientUnits="userSpaceOnUse" x1="1740.1741" y1="17047.8066" x2="1760.0327" y2="17121.918" gradientTransform="matrix(1 0 0 1 0 -16384)">
				<stop  offset="0" style="stop-color:#7F00FF;stop-opacity:0.7"/>
				<stop  offset="1" style="stop-color:#3F00FC;stop-opacity:0.6"/>
			</linearGradient>
			<path id="XMLID_109_" class="st39" d="M1749.9,661.2l68.7,39.6l-68.2,39.7l-68.8-39.6L1749.9,661.2z"/>
		</g>
		<g>
			<defs>
				<polygon id="SVGID_4_" points="1749.9,648.7 1818.6,688.4 1750.4,728.1 1681.6,688.4 				"/>
			</defs>
			<clipPath id="SVGID_5_">
				<use xlink:href="#SVGID_4_"  style="overflow:visible;"/>
			</clipPath>
			
				<linearGradient id="XMLID_44_" gradientUnits="userSpaceOnUse" x1="1740.1614" y1="17060.0098" x2="1760.0453" y2="17134.2148" gradientTransform="matrix(1 0 0 1 0 -16384)">
				<stop  offset="0" style="stop-color:#7F00FF;stop-opacity:0.7"/>
				<stop  offset="1" style="stop-color:#3F00FC;stop-opacity:0.6"/>
			</linearGradient>
			<path id="XMLID_108_" class="st40" d="M1749.9,673.4l68.7,39.7l-68.2,39.7l-68.8-39.7L1749.9,673.4z"/>
		</g>
		<g>
			<defs>
				<polygon id="SVGID_6_" points="1749.9,648.7 1818.6,688.4 1750.4,728.1 1681.6,688.4 				"/>
			</defs>
			<clipPath id="SVGID_7_">
				<use xlink:href="#SVGID_6_"  style="overflow:visible;"/>
			</clipPath>
			
				<linearGradient id="XMLID_45_" gradientUnits="userSpaceOnUse" x1="1740.174" y1="17072.3066" x2="1760.0327" y2="17146.418" gradientTransform="matrix(1 0 0 1 0 -16384)">
				<stop  offset="0" style="stop-color:#7F00FF;stop-opacity:0.7"/>
				<stop  offset="1" style="stop-color:#3F00FC;stop-opacity:0.6"/>
			</linearGradient>
			<path id="XMLID_107_" class="st41" d="M1749.9,685.7l68.7,39.6l-68.2,39.7l-68.8-39.6L1749.9,685.7z"/>
		</g>
		<g>
			<defs>
				<polygon id="SVGID_8_" points="1749.9,648.7 1818.6,688.4 1750.4,728.1 1681.6,688.4 				"/>
			</defs>
			<clipPath id="SVGID_9_">
				<use xlink:href="#SVGID_8_"  style="overflow:visible;"/>
			</clipPath>
			
				<linearGradient id="XMLID_46_" gradientUnits="userSpaceOnUse" x1="1740.1614" y1="17084.5098" x2="1760.0453" y2="17158.7148" gradientTransform="matrix(1 0 0 1 0 -16384)">
				<stop  offset="0" style="stop-color:#7F00FF;stop-opacity:0.7"/>
				<stop  offset="1" style="stop-color:#3F00FC;stop-opacity:0.6"/>
			</linearGradient>
			<path id="XMLID_105_" class="st42" d="M1749.9,697.9l68.7,39.7l-68.2,39.7l-68.8-39.7L1749.9,697.9z"/>
		</g>
		<g>
			<defs>
				<polygon id="SVGID_10_" points="1749.9,648.7 1818.6,688.4 1750.4,728.1 1681.6,688.4 				"/>
			</defs>
			<clipPath id="SVGID_11_">
				<use xlink:href="#SVGID_10_"  style="overflow:visible;"/>
			</clipPath>
			
				<linearGradient id="XMLID_47_" gradientUnits="userSpaceOnUse" x1="1740.1614" y1="17096.709" x2="1760.0453" y2="17170.916" gradientTransform="matrix(1 0 0 1 0 -16384)">
				<stop  offset="0" style="stop-color:#7F00FF;stop-opacity:0.7"/>
				<stop  offset="1" style="stop-color:#3F00FC;stop-opacity:0.6"/>
			</linearGradient>
			<path id="XMLID_104_" class="st43" d="M1749.9,710.1l68.7,39.7l-68.2,39.7l-68.8-39.7L1749.9,710.1z"/>
		</g>
		<g>
			<defs>
				<polygon id="SVGID_12_" points="1749.9,648.7 1818.6,688.4 1750.4,728.1 1681.6,688.4 				"/>
			</defs>
			<clipPath id="SVGID_13_">
				<use xlink:href="#SVGID_12_"  style="overflow:visible;"/>
			</clipPath>
			
				<linearGradient id="XMLID_51_" gradientUnits="userSpaceOnUse" x1="1740.1615" y1="17109.0098" x2="1760.0201" y2="17183.123" gradientTransform="matrix(1 0 0 1 0 -16384)">
				<stop  offset="0" style="stop-color:#7F00FF;stop-opacity:0.7"/>
				<stop  offset="1" style="stop-color:#3F00FC;stop-opacity:0.6"/>
			</linearGradient>
			<path id="XMLID_103_" class="st44" d="M1749.9,722.4l68.7,39.7l-68.2,39.6l-68.8-39.6L1749.9,722.4z"/>
		</g>
		<g>
			<defs>
				<polygon id="SVGID_14_" points="1749.9,648.7 1818.6,688.4 1750.4,728.1 1681.6,688.4 				"/>
			</defs>
			<clipPath id="SVGID_15_">
				<use xlink:href="#SVGID_14_"  style="overflow:visible;"/>
			</clipPath>
			
				<linearGradient id="XMLID_53_" gradientUnits="userSpaceOnUse" x1="1740.1615" y1="17121.209" x2="1760.0452" y2="17195.416" gradientTransform="matrix(1 0 0 1 0 -16384)">
				<stop  offset="0" style="stop-color:#7F00FF;stop-opacity:0.7"/>
				<stop  offset="1" style="stop-color:#3F00FC;stop-opacity:0.6"/>
			</linearGradient>
			<path id="XMLID_101_" class="st45" d="M1749.9,734.6l68.7,39.7l-68.2,39.7l-68.8-39.7L1749.9,734.6z"/>
		</g>
		<g>
			<defs>
				<polygon id="SVGID_16_" points="1749.9,648.7 1818.6,688.4 1750.4,728.1 1681.6,688.4 				"/>
			</defs>
			<clipPath id="SVGID_17_">
				<use xlink:href="#SVGID_16_"  style="overflow:visible;"/>
			</clipPath>
			
				<linearGradient id="XMLID_54_" gradientUnits="userSpaceOnUse" x1="1740.174" y1="17133.5059" x2="1760.0327" y2="17207.6191" gradientTransform="matrix(1 0 0 1 0 -16384)">
				<stop  offset="0" style="stop-color:#7F00FF;stop-opacity:0.7"/>
				<stop  offset="1" style="stop-color:#3F00FC;stop-opacity:0.6"/>
			</linearGradient>
			<path id="XMLID_100_" class="st46" d="M1749.9,746.9l68.7,39.6l-68.2,39.7l-68.8-39.6L1749.9,746.9z"/>
		</g>
	</g>
	
		<linearGradient id="XMLID_55_" gradientUnits="userSpaceOnUse" x1="1753.3" y1="17029.6992" x2="1756.8401" y2="17029.6992" gradientTransform="matrix(1 0 0 1 0 -16384)">
		<stop  offset="0" style="stop-color:#FFFFFF;stop-opacity:0.6"/>
		<stop  offset="1" style="stop-color:#FFFFFF"/>
	</linearGradient>
	<circle id="XMLID_93_" class="st47" cx="1755.1" cy="645.7" r="1.8"/>
	
		<linearGradient id="XMLID_56_" gradientUnits="userSpaceOnUse" x1="1303.7991" y1="17329.7383" x2="1454.9009" y2="17893.6621" gradientTransform="matrix(1 0 0 1 0 -16384)">
		<stop  offset="0" style="stop-color:#7F00FF"/>
		<stop  offset="1" style="stop-color:#3F00FC"/>
	</linearGradient>
	<path id="XMLID_252_" class="st48" d="M1292,948.9l174.7,100.7v456.9L1292,1405.8V948.9z"/>
	
		<linearGradient id="XMLID_57_" gradientUnits="userSpaceOnUse" x1="1443.8" y1="17208.8496" x2="1725.7" y2="17208.8496" gradientTransform="matrix(1 0 0 1 0 -16384)">
		<stop  offset="0" style="stop-color:#463780"/>
		<stop  offset="0.143" style="stop-color:#382E68"/>
		<stop  offset="0.331" style="stop-color:#292550"/>
		<stop  offset="0.529" style="stop-color:#1F1F3F"/>
		<stop  offset="0.743" style="stop-color:#191B34"/>
		<stop  offset="1" style="stop-color:#171A31"/>
	</linearGradient>
	<path id="XMLID_693_" class="st49" d="M1498.6,926l128.6-11.3l98.5-57.2l-231.9-133.8l-50,82.8L1498.6,926z"/>
	<g id="XMLID_40_">
		
			<linearGradient id="XMLID_58_" gradientUnits="userSpaceOnUse" x1="1477.1554" y1="17295.1445" x2="1511.7762" y2="17165.9355" gradientTransform="matrix(1 0 0 1 0 -16384)">
			<stop  offset="0" style="stop-color:#4F3E90"/>
			<stop  offset="1" style="stop-color:#171A31"/>
		</linearGradient>
		<path id="XMLID_50_" class="st50" d="M1494.1,777.2l120.1,69.4l-119.3,69.3l-120.2-69.3L1494.1,777.2z"/>
		
			<linearGradient id="XMLID_59_" gradientUnits="userSpaceOnUse" x1="1475.9143" y1="17306.3867" x2="1504.156" y2="17200.9863" gradientTransform="matrix(1 0 0 1 0 -16384)">
			<stop  offset="0" style="stop-color:#463780"/>
			<stop  offset="0.143" style="stop-color:#382E68"/>
			<stop  offset="0.331" style="stop-color:#292550"/>
			<stop  offset="0.529" style="stop-color:#1F1F3F"/>
			<stop  offset="0.743" style="stop-color:#191B34"/>
			<stop  offset="1" style="stop-color:#171A31"/>
		</linearGradient>
		<path id="XMLID_49_" class="st51" d="M1490.6,913.7l-115.7-67.2v11l115.7,68.5c2.5,1.5,5.5,1.5,8,0l115.7-67.2v-12.3l-115.7,67.2
			C1496.1,915.1,1493.1,915.1,1490.6,913.7L1490.6,913.7z"/>
		
			<linearGradient id="XMLID_60_" gradientUnits="userSpaceOnUse" x1="1374.2003" y1="17264.7422" x2="1614.7026" y2="17264.7422" gradientTransform="matrix(1 0 0 1 0 -16384)">
			<stop  offset="0" style="stop-color:#00ACE9"/>
			<stop  offset="1" style="stop-color:#007541"/>
		</linearGradient>
		<path id="XMLID_48_" class="st52" d="M1374.7,846.6l116.3,67.1c2.4,1.4,5.4,1.4,7.8,0l115.4-67.1"/>
	</g>
	
		<linearGradient id="XMLID_61_" gradientUnits="userSpaceOnUse" x1="1680.7368" y1="17092.168" x2="1785.1718" y2="16702.4121" gradientTransform="matrix(1 0 0 1 0 -16384)">
		<stop  offset="0" style="stop-color:#FFFFFF;stop-opacity:0"/>
		<stop  offset="1" style="stop-color:#FFFFFF;stop-opacity:0.12"/>
	</linearGradient>
	<path id="XMLID_39_" class="st53" d="M1681.2,687.1l-42.5-314l110.6-64.3l111.4,64.2l-42.5,314.1l-68.3,39.6L1681.2,687.1z"/>
	
		<linearGradient id="SVGID_18_" gradientUnits="userSpaceOnUse" x1="1544.2" y1="1081.65" x2="1684.3" y2="1081.65" gradientTransform="matrix(1 0 0 -1 0 2084)">
		<stop  offset="0" style="stop-color:#4F3E90"/>
		<stop  offset="1" style="stop-color:#171A31"/>
	</linearGradient>
	<path class="st54" d="M1544.2,1039.4v6.8l140.1-80.8v-6.9L1544.2,1039.4z"/>
	
		<linearGradient id="SVGID_19_" gradientUnits="userSpaceOnUse" x1="1544.2" y1="1067.4" x2="1684.3" y2="1067.4" gradientTransform="matrix(1 0 0 -1 0 2084)">
		<stop  offset="0" style="stop-color:#4F3E90"/>
		<stop  offset="1" style="stop-color:#171A31"/>
	</linearGradient>
	<path class="st55" d="M1544.2,1053.7v6.7l140.1-80.7v-6.9L1544.2,1053.7z"/>
	
		<linearGradient id="SVGID_20_" gradientUnits="userSpaceOnUse" x1="1544.2" y1="1053.15" x2="1684.3" y2="1053.15" gradientTransform="matrix(1 0 0 -1 0 2084)">
		<stop  offset="0" style="stop-color:#4F3E90"/>
		<stop  offset="1" style="stop-color:#171A31"/>
	</linearGradient>
	<path class="st56" d="M1544.2,1067.9v6.8l140.1-80.8V987L1544.2,1067.9z"/>
	
		<linearGradient id="SVGID_21_" gradientUnits="userSpaceOnUse" x1="1544.2" y1="1038.9" x2="1684.3" y2="1038.9" gradientTransform="matrix(1 0 0 -1 0 2084)">
		<stop  offset="0" style="stop-color:#4F3E90"/>
		<stop  offset="1" style="stop-color:#171A31"/>
	</linearGradient>
	<path class="st57" d="M1544.2,1082.2v6.7l140.1-80.7v-6.9L1544.2,1082.2z"/>
	
		<linearGradient id="SVGID_22_" gradientUnits="userSpaceOnUse" x1="1544.2" y1="1024.6" x2="1684.3" y2="1024.6" gradientTransform="matrix(1 0 0 -1 0 2084)">
		<stop  offset="0" style="stop-color:#4F3E90"/>
		<stop  offset="1" style="stop-color:#171A31"/>
	</linearGradient>
	<path class="st58" d="M1544.2,1096.5v6.7l140.1-80.8v-6.8L1544.2,1096.5z"/>
	
		<linearGradient id="SVGID_23_" gradientUnits="userSpaceOnUse" x1="1544.2" y1="1010.35" x2="1684.3" y2="1010.35" gradientTransform="matrix(1 0 0 -1 0 2084)">
		<stop  offset="0" style="stop-color:#4F3E90"/>
		<stop  offset="1" style="stop-color:#171A31"/>
	</linearGradient>
	<path class="st59" d="M1544.2,1110.7v6.8l140.1-80.8v-6.9L1544.2,1110.7z"/>
	
		<linearGradient id="SVGID_24_" gradientUnits="userSpaceOnUse" x1="1544.2" y1="996.1" x2="1684.3" y2="996.1" gradientTransform="matrix(1 0 0 -1 0 2084)">
		<stop  offset="0" style="stop-color:#4F3E90"/>
		<stop  offset="1" style="stop-color:#171A31"/>
	</linearGradient>
	<path class="st60" d="M1544.2,1125v6.7l140.1-80.7v-6.9L1544.2,1125z"/>
	
		<linearGradient id="SVGID_25_" gradientUnits="userSpaceOnUse" x1="1544.2" y1="981.85" x2="1684.3" y2="981.85" gradientTransform="matrix(1 0 0 -1 0 2084)">
		<stop  offset="0" style="stop-color:#4F3E90"/>
		<stop  offset="1" style="stop-color:#171A31"/>
	</linearGradient>
	<path class="st61" d="M1544.2,1139.2v6.8l140.1-80.8v-6.9L1544.2,1139.2z"/>
	
		<linearGradient id="SVGID_26_" gradientUnits="userSpaceOnUse" x1="1544.2" y1="735" x2="1684.3" y2="735" gradientTransform="matrix(1 0 0 -1 0 2084)">
		<stop  offset="0" style="stop-color:#4F3E90"/>
		<stop  offset="1" style="stop-color:#171A31"/>
	</linearGradient>
	<path class="st62" d="M1544.2,1386.1v6.7l140.1-80.7v-6.9L1544.2,1386.1z"/>
	
		<linearGradient id="SVGID_27_" gradientUnits="userSpaceOnUse" x1="1544.2" y1="720.75" x2="1684.3" y2="720.75" gradientTransform="matrix(1 0 0 -1 0 2084)">
		<stop  offset="0" style="stop-color:#4F3E90"/>
		<stop  offset="1" style="stop-color:#171A31"/>
	</linearGradient>
	<path class="st63" d="M1544.2,1400.3v6.8l140.1-80.8v-6.9L1544.2,1400.3z"/>
	
		<linearGradient id="SVGID_28_" gradientUnits="userSpaceOnUse" x1="1544.2" y1="706.4501" x2="1684.3" y2="706.4501" gradientTransform="matrix(1 0 0 -1 0 2084)">
		<stop  offset="0" style="stop-color:#4F3E90"/>
		<stop  offset="1" style="stop-color:#171A31"/>
	</linearGradient>
	<path class="st64" d="M1544.2,1414.6v6.8l140.1-80.8v-6.9L1544.2,1414.6z"/>
	
		<linearGradient id="SVGID_29_" gradientUnits="userSpaceOnUse" x1="1544.2" y1="692.2" x2="1684.3" y2="692.2" gradientTransform="matrix(1 0 0 -1 0 2084)">
		<stop  offset="0" style="stop-color:#4F3E90"/>
		<stop  offset="1" style="stop-color:#171A31"/>
	</linearGradient>
	<path class="st65" d="M1544.2,1428.9v6.7l140.1-80.8v-6.8L1544.2,1428.9z"/>
	
		<linearGradient id="SVGID_30_" gradientUnits="userSpaceOnUse" x1="1544.2" y1="677.9501" x2="1684.3" y2="677.9501" gradientTransform="matrix(1 0 0 -1 0 2084)">
		<stop  offset="0" style="stop-color:#4F3E90"/>
		<stop  offset="1" style="stop-color:#171A31"/>
	</linearGradient>
	<path class="st66" d="M1544.2,1443.1v6.8l140.1-80.8v-6.9L1544.2,1443.1z"/>
	
		<linearGradient id="SVGID_31_" gradientUnits="userSpaceOnUse" x1="1544.2" y1="663.7" x2="1684.3" y2="663.7" gradientTransform="matrix(1 0 0 -1 0 2084)">
		<stop  offset="0" style="stop-color:#4F3E90"/>
		<stop  offset="1" style="stop-color:#171A31"/>
	</linearGradient>
	<path class="st67" d="M1544.2,1457.4v6.7l140.1-80.7v-6.9L1544.2,1457.4z"/>
	
		<linearGradient id="SVGID_32_" gradientUnits="userSpaceOnUse" x1="1544.2" y1="649.4501" x2="1684.3" y2="649.4501" gradientTransform="matrix(1 0 0 -1 0 2084)">
		<stop  offset="0" style="stop-color:#4F3E90"/>
		<stop  offset="1" style="stop-color:#171A31"/>
	</linearGradient>
	<path class="st68" d="M1544.2,1471.6v6.8l140.1-80.8v-6.9L1544.2,1471.6z"/>
	
		<linearGradient id="SVGID_33_" gradientUnits="userSpaceOnUse" x1="1544.2" y1="635.2" x2="1684.3" y2="635.2" gradientTransform="matrix(1 0 0 -1 0 2084)">
		<stop  offset="0" style="stop-color:#4F3E90"/>
		<stop  offset="1" style="stop-color:#171A31"/>
	</linearGradient>
	<path class="st69" d="M1544.2,1485.9v6.7l140.1-80.7v-6.9L1544.2,1485.9z"/>
	
		<linearGradient id="SVGID_34_" gradientUnits="userSpaceOnUse" x1="116.5" y1="1203.1699" x2="817.9104" y2="1203.1699" gradientTransform="matrix(1 0 0 -1 0 2084)">
		<stop  offset="0" style="stop-color:#4F3E90"/>
		<stop  offset="1" style="stop-color:#171A31"/>
	</linearGradient>
	<path class="st70" d="M116.5,875.5c0,0-0.1,189,323.8,205.5s376.5-174.8,376.5-174.8s35-188.1-288-223.3c0,0-186.7-25.3-326.7,65.3
		C202.2,748.2,127.4,784.8,116.5,875.5z"/>
	
		<linearGradient id="XMLID_62_" gradientUnits="userSpaceOnUse" x1="4318.9897" y1="-1353.6007" x2="4888.5215" y2="-1353.6007" gradientTransform="matrix(-1 0 0 1.1206 5070.957 2302.9949)">
		<stop  offset="0" style="stop-color:#4F3E90"/>
		<stop  offset="1" style="stop-color:#171A31"/>
	</linearGradient>
	<path id="XMLID_1_" class="st71" d="M750.6,858.8c0,0-4-112.8-283.3-119.6c0,0-261.9-1.7-283.3,119.6c0,0-39.9-132.5,283.3-145.3
		C467.3,713.5,774.9,719.4,750.6,858.8L750.6,858.8z"/>
	
		<linearGradient id="XMLID_63_" gradientUnits="userSpaceOnUse" x1="408.9429" y1="17507.1094" x2="496.9413" y2="17178.6934" gradientTransform="matrix(1 0 0 1 0 -16384)">
		<stop  offset="0" style="stop-color:#4F3E90"/>
		<stop  offset="1" style="stop-color:#171A31"/>
	</linearGradient>
	<path id="XMLID_6_" class="st72" d="M115.9,880.8c0,0,4.9,186.6,351.2,197.8c0,0,324.7,2.8,351.2-197.8c0,0,49.4,219.2-351.2,240.3
		C467.1,1121.1,85.8,1111.3,115.9,880.8z"/>
	
		<linearGradient id="SVGID_35_" gradientUnits="userSpaceOnUse" x1="306.364" y1="673.319" x2="329.959" y2="673.319" gradientTransform="matrix(1 0 0 -1 0 2084)">
		<stop  offset="0" style="stop-color:#7F00FF"/>
		<stop  offset="1" style="stop-color:#3F00FC"/>
	</linearGradient>
	<path class="st73" d="M310,1406c0,0,4-3.7,13.1-1.5s6.6,8.1,6.6,8.1s-2.5,5.6-13.8,4.9C315.9,1417.5,299.2,1414.3,310,1406
		L310,1406z"/>
	
		<linearGradient id="SVGID_36_" gradientUnits="userSpaceOnUse" x1="293.091" y1="673.0399" x2="344.482" y2="673.0399" gradientTransform="matrix(1 0 0 -1 0 2084)">
		<stop  offset="0" style="stop-color:#7F00FF"/>
		<stop  offset="1" style="stop-color:#3F00FC"/>
	</linearGradient>
	<path class="st74" d="M313.6,1397.3c0,0,22.8-2.6,28.6,11.9s-24.1,15.6-24.1,15.6s-23.8-1.3-23.6-15
		C294.6,1409.8,294.8,1399.8,313.6,1397.3z"/>
	
		<linearGradient id="SVGID_37_" gradientUnits="userSpaceOnUse" x1="720.764" y1="746.319" x2="744.359" y2="746.319" gradientTransform="matrix(1 0 0 -1 0 2084)">
		<stop  offset="0" style="stop-color:#7F00FF"/>
		<stop  offset="1" style="stop-color:#3F00FC"/>
	</linearGradient>
	<path class="st75" d="M724.4,1333c0,0,4-3.7,13.1-1.5s6.6,8.1,6.6,8.1s-2.5,5.6-13.8,4.9C730.3,1344.5,713.6,1341.3,724.4,1333z"/>
	
		<linearGradient id="SVGID_38_" gradientUnits="userSpaceOnUse" x1="707.479" y1="746.0399" x2="758.87" y2="746.0399" gradientTransform="matrix(1 0 0 -1 0 2084)">
		<stop  offset="0" style="stop-color:#7F00FF"/>
		<stop  offset="1" style="stop-color:#3F00FC"/>
	</linearGradient>
	<path class="st76" d="M728,1324.3c0,0,22.8-2.6,28.6,11.9c5.8,14.5-24.1,15.6-24.1,15.6s-23.8-1.3-23.6-15
		C709,1336.8,709.2,1326.8,728,1324.3z"/>
	
		<linearGradient id="SVGID_39_" gradientUnits="userSpaceOnUse" x1="780.1193" y1="867.119" x2="803.7144" y2="867.119" gradientTransform="matrix(1 0 0 -1 0 2084)">
		<stop  offset="0" style="stop-color:#7F00FF"/>
		<stop  offset="1" style="stop-color:#3F00FC"/>
	</linearGradient>
	<path class="st77" d="M783.7,1212.2c0,0,4-3.7,13.1-1.5c9.1,2.2,6.6,8.1,6.6,8.1s-2.5,5.6-13.8,4.9
		C789.7,1223.7,773,1220.5,783.7,1212.2z"/>
	
		<linearGradient id="SVGID_40_" gradientUnits="userSpaceOnUse" x1="766.865" y1="866.8398" x2="818.255" y2="866.8398" gradientTransform="matrix(1 0 0 -1 0 2084)">
		<stop  offset="0" style="stop-color:#7F00FF"/>
		<stop  offset="1" style="stop-color:#3F00FC"/>
	</linearGradient>
	<path class="st78" d="M787.4,1203.5c0,0,22.8-2.6,28.6,11.9s-24.1,15.6-24.1,15.6s-23.8-1.3-23.6-15
		C768.4,1216,768.6,1206,787.4,1203.5z"/>
	
		<linearGradient id="SVGID_41_" gradientUnits="userSpaceOnUse" x1="928.264" y1="988.4189" x2="951.858" y2="988.4189" gradientTransform="matrix(1 0 0 -1 0 2084)">
		<stop  offset="0" style="stop-color:#7F00FF"/>
		<stop  offset="1" style="stop-color:#3F00FC"/>
	</linearGradient>
	<path class="st79" d="M931.9,1090.9c0,0,4-3.7,13.1-1.5c9.1,2.2,6.6,8.1,6.6,8.1s-2.5,5.6-13.8,4.9
		C937.8,1102.4,921.1,1099.2,931.9,1090.9L931.9,1090.9z"/>
	
		<linearGradient id="SVGID_42_" gradientUnits="userSpaceOnUse" x1="914.977" y1="988.1398" x2="966.368" y2="988.1398" gradientTransform="matrix(1 0 0 -1 0 2084)">
		<stop  offset="0" style="stop-color:#7F00FF"/>
		<stop  offset="1" style="stop-color:#3F00FC"/>
	</linearGradient>
	<path class="st80" d="M935.5,1082.2c0,0,22.8-2.6,28.6,11.9c5.8,14.5-24.1,15.6-24.1,15.6s-23.8-1.3-23.6-15
		C916.5,1094.7,916.7,1084.7,935.5,1082.2z"/>
</g>
<g>
	
		<linearGradient id="SVGID_43_" gradientUnits="userSpaceOnUse" x1="83.8799" y1="1070.725" x2="815.122" y2="1070.725" gradientTransform="matrix(1 7.200000e-03 -7.200000e-03 1 5.9775 -5.3794)">
		<stop  offset="0" style="stop-color:#7E00FF"/>
		<stop  offset="2.914246e-02" style="stop-color:#7203E8"/>
		<stop  offset="0.245" style="stop-color:#1C1742"/>
		<stop  offset="0.2635" style="stop-color:#201A48"/>
		<stop  offset="0.4128" style="stop-color:#3F3378"/>
		<stop  offset="0.4873" style="stop-color:#4B3C8A"/>
		<stop  offset="0.5492" style="stop-color:#3E3277"/>
		<stop  offset="0.6748" style="stop-color:#1E1845"/>
		<stop  offset="0.6812" style="stop-color:#1C1742"/>
		<stop  offset="0.8006" style="stop-color:#211D68"/>
		<stop  offset="1" style="stop-color:#4C3C8A"/>
	</linearGradient>
	<path class="st81" d="M813.5,1052c-1.2,71-165.9,128.1-367.8,127.5c-201.9-0.6-364.5-58.6-363.3-129.6c0.2-10.1,0.5-91.6,0.5-91.6
		l731.1,2.1C814,960.3,813.6,1044.3,813.5,1052z"/>
	
		<linearGradient id="SVGID_44_" gradientUnits="userSpaceOnUse" x1="348.3633" y1="779.1334" x2="550.4326" y2="1143.6761" gradientTransform="matrix(1 7.200000e-03 -7.200000e-03 1 5.9775 -5.3794)">
		<stop  offset="0" style="stop-color:#4C3C8B"/>
		<stop  offset="0.1737" style="stop-color:#4E3E90"/>
		<stop  offset="0.3893" style="stop-color:#5445A0"/>
		<stop  offset="0.525" style="stop-color:#594BAD"/>
		<stop  offset="0.7008" style="stop-color:#6758BF"/>
		<stop  offset="1" style="stop-color:#8676E5"/>
	</linearGradient>
	<path class="st82" d="M814,960.3c-1.2,71-165.9,128.1-367.8,127.5c-201.9-0.6-364.5-58.6-363.3-129.6
		c1.2-71,165.9-128.1,367.8-127.5S815.2,889.3,814,960.3z"/>
	
		<linearGradient id="SVGID_45_" gradientUnits="userSpaceOnUse" x1="105.557" y1="957.9921" x2="793.308" y2="957.9921" gradientTransform="matrix(1 7.200000e-03 -7.200000e-03 1 5.9775 -5.3794)">
		<stop  offset="0" style="stop-color:#8676E5"/>
		<stop  offset="0.2992" style="stop-color:#6758BF"/>
		<stop  offset="0.475" style="stop-color:#594BAD"/>
		<stop  offset="0.6107" style="stop-color:#5445A0"/>
		<stop  offset="0.8263" style="stop-color:#4E3E90"/>
		<stop  offset="1" style="stop-color:#4C3C8B"/>
	</linearGradient>
	<path class="st83" d="M792.4,956.9c-1.2,66.8-156.1,120.5-346,119.9c-189.9-0.6-342.9-55.2-341.8-121.9
		c1.2-66.8,156.1-120.5,346-119.9C640.5,835.5,793.6,890.1,792.4,956.9z"/>
	
		<linearGradient id="SVGID_46_" gradientUnits="userSpaceOnUse" x1="179.8685" y1="960.2214" x2="718.9534" y2="960.2214" gradientTransform="matrix(1 7.200000e-03 -7.200000e-03 1 5.9775 -5.3794)">
		<stop  offset="0" style="stop-color:#4C3C8B"/>
		<stop  offset="0.1737" style="stop-color:#4E3E90"/>
		<stop  offset="0.3893" style="stop-color:#5445A0"/>
		<stop  offset="0.525" style="stop-color:#594BAD"/>
		<stop  offset="0.7008" style="stop-color:#6758BF"/>
		<stop  offset="1" style="stop-color:#8676E5"/>
	</linearGradient>
	<path class="st84" d="M718,958.9c-0.9,52.2-122.3,94.1-271.2,93.6c-148.9-0.4-268.8-43.1-267.9-95.2
		c0.9-52.2,122.3-94.1,271.2-93.6C599,864.1,718.9,906.7,718,958.9z"/>
	
		<linearGradient id="SVGID_47_" gradientUnits="userSpaceOnUse" x1="198.1963" y1="961.4048" x2="700.5993" y2="961.4048" gradientTransform="matrix(1 7.200000e-03 -7.200000e-03 1 5.9775 -5.3794)">
		<stop  offset="0" style="stop-color:#8676E5"/>
		<stop  offset="0.2992" style="stop-color:#6758BF"/>
		<stop  offset="0.475" style="stop-color:#594BAD"/>
		<stop  offset="0.6107" style="stop-color:#5445A0"/>
		<stop  offset="0.8263" style="stop-color:#4E3E90"/>
		<stop  offset="1" style="stop-color:#4C3C8B"/>
	</linearGradient>
	<path class="st85" d="M699.7,960c-0.8,48.8-114,88-252.7,87.6c-138.7-0.4-250.5-40.3-249.7-89.1c0.9-48.8,114-88,252.7-87.6
		C588.7,871.3,700.5,911.2,699.7,960z"/>
	
		<linearGradient id="SVGID_48_" gradientUnits="userSpaceOnUse" x1="207.1564" y1="963.423" x2="691.5988" y2="963.423" gradientTransform="matrix(1 7.200000e-03 -7.200000e-03 1 5.9775 -5.3794)">
		<stop  offset="9.915922e-04" style="stop-color:#4A3A87"/>
		<stop  offset="0.3727" style="stop-color:#3B316F"/>
		<stop  offset="0.7204" style="stop-color:#322C5F"/>
		<stop  offset="1" style="stop-color:#2F2A5A"/>
	</linearGradient>
	<path class="st86" d="M690.6,962c-0.8,45.9-109.9,82.8-243.7,82.5c-133.8-0.4-241.6-37.9-240.8-83.9
		c0.8-45.9,109.9-82.8,243.7-82.5C583.6,878.5,691.4,916.1,690.6,962z"/>
	<g>
		<g>
			<g>
				<path class="st87" d="M402,934.4c-2.5,1-4.9,2-7.5,3.1c-0.8-0.6-1.5-1-2.2-1.5c-6.5-4.3-18-3.4-21.7,1.8
					c-2.8,3.9-4.9,7.9-7.6,11.8c-0.8,1.1-2.8,2.1-4.5,2.9c-2.8,1.3-6,2.5-9.7,4.1c2.2-3.6,4.1-6.8,6-10c2.3-3.7,4.4-7.5,7.1-11.1
					c3.6-4.8,10.8-7.2,20.2-7.3C390.6,928.1,397.4,930.1,402,934.4z"/>
				<path class="st87" d="M402,934.4c-2.5,1-4.9,2-7.5,3.1c-0.8-0.6-1.5-1-2.2-1.5c-6.5-4.3-18-3.4-21.7,1.8
					c-2.8,3.9-4.9,7.9-7.6,11.8c-0.8,1.1-2.8,2.1-4.5,2.9c-2.8,1.3-6,2.5-9.7,4.1c2.2-3.6,4.1-6.8,6-10c2.3-3.7,4.4-7.5,7.1-11.1
					c3.6-4.8,10.8-7.2,20.2-7.3C390.6,928.1,397.4,930.1,402,934.4z"/>
				<path class="st87" d="M497.9,988.3c2.5-1,4.9-2,7.5-3.1c0.9,0.6,1.5,1,2.2,1.4c6.5,4.3,18,3.4,21.7-1.7
					c2.8-3.9,4.9-7.9,7.6-11.8c0.8-1.1,2.7-2.1,4.5-2.9c2.8-1.3,6-2.5,9.6-4c-1,1.9-1.8,3.5-2.8,5.1c-3.2,5.3-6.3,10.5-9.9,15.7
					c-3.3,4.8-10.4,7.4-19.9,7.6C509.6,994.7,502.6,992.6,497.9,988.3z"/>
				<path class="st87" d="M497.9,988.3c2.5-1,4.9-2,7.5-3.1c0.9,0.6,1.5,1,2.2,1.4c6.5,4.3,18,3.4,21.7-1.7
					c2.8-3.9,4.9-7.9,7.6-11.8c0.8-1.1,2.7-2.1,4.5-2.9c2.8-1.3,6-2.5,9.6-4c-1,1.9-1.8,3.5-2.8,5.1c-3.2,5.3-6.3,10.5-9.9,15.7
					c-3.3,4.8-10.4,7.4-19.9,7.6C509.6,994.7,502.6,992.6,497.9,988.3z"/>
				<path class="st87" d="M458.7,998.1c3.5,0,6.5,0,8.8,0c1.2,2,1.5,4,3.3,5.5c4,3.2,11.3,3.7,17.4,1.4c6.2-2.3,12.2-4.8,18.5-7
					c2.1-0.7,4.9-1,7.4-1.1c3.8-0.2,7.6,0,11.8,0c-3.7,1.5-7.5,3-11.4,4.5c-7.4,2.8-14.7,5.8-22.4,8.5c-7.6,2.6-15.7,2.4-23.2-0.1
					C461.3,1007.1,458.1,1003.2,458.7,998.1z"/>
				<path class="st87" d="M458.7,998.1c3.5,0,6.5,0,8.8,0c1.2,2,1.5,4,3.3,5.5c4,3.2,11.3,3.7,17.4,1.4c6.2-2.3,12.2-4.8,18.5-7
					c2.1-0.7,4.9-1,7.4-1.1c3.8-0.2,7.6,0,11.8,0c-3.7,1.5-7.5,3-11.4,4.5c-7.4,2.8-14.7,5.8-22.4,8.5c-7.6,2.6-15.7,2.4-23.2-0.1
					C461.3,1007.1,458.1,1003.2,458.7,998.1z"/>
				<path class="st87" d="M441.3,924.6c-3.3,0-6,0-8.9,0c-0.3-0.8-0.6-1.6-0.9-2.3c-2.1-5.7-11.7-7.7-20.8-4.3
					c-5.7,2.1-11.3,4.2-16.8,6.5c-2.7,1.1-5.3,1.7-8.8,1.4c-3.4-0.3-7-0.1-11-0.1c4.2-1.6,8.2-3.3,12.3-4.8
					c7.2-2.7,14.2-5.6,21.7-8.1c7.7-2.6,15.7-2.2,23.2,0.4C438.8,915.8,441.8,919.7,441.3,924.6z"/>
				<path class="st87" d="M441.3,924.6c-3.3,0-6,0-8.9,0c-0.3-0.8-0.6-1.6-0.9-2.3c-2.1-5.7-11.7-7.7-20.8-4.3
					c-5.7,2.1-11.3,4.2-16.8,6.5c-2.7,1.1-5.3,1.7-8.8,1.4c-3.4-0.3-7-0.1-11-0.1c4.2-1.6,8.2-3.3,12.3-4.8
					c7.2-2.7,14.2-5.6,21.7-8.1c7.7-2.6,15.7-2.2,23.2,0.4C438.8,915.8,441.8,919.7,441.3,924.6z"/>
				<path class="st87" d="M489.8,911.7c12.3,4.8,23.8,9.1,34.7,13.7c6.9,2.9,8.6,7.2,6.3,11.6c-2.4,4.7-8.4,7.5-17.8,8.5
					c-1-1.6-1.9-3.1-2.8-4.6c2.4-0.6,4.9-1.1,6.9-1.9c6.5-2.7,6.4-7.6-0.3-10.4c-6.1-2.5-12.6-4.8-18.6-7.3
					c-1.9-0.8-3.1-2.2-4.2-3.4C492.5,916.1,491.5,914.3,489.8,911.7z"/>
				<path class="st87" d="M489.8,911.7c12.3,4.8,23.8,9.1,34.7,13.7c6.9,2.9,8.6,7.2,6.3,11.6c-2.4,4.7-8.4,7.5-17.8,8.5
					c-1-1.6-1.9-3.1-2.8-4.6c2.4-0.6,4.9-1.1,6.9-1.9c6.5-2.7,6.4-7.6-0.3-10.4c-6.1-2.5-12.6-4.8-18.6-7.3
					c-1.9-0.8-3.1-2.2-4.2-3.4C492.5,916.1,491.5,914.3,489.8,911.7z"/>
				<path class="st87" d="M518.5,968.2c1.1-1.7,1.9-3.2,2.9-4.6c2.7,0.2,5,0.6,7.3,0.6c8.2,0,14.1-4.1,11.9-8.2c-2.2-4-5-7.9-7-11.9
					c-0.6-1.3-0.2-2.8,0.3-4.1c0.8-1.9,2-3.7,3.2-5.7c0.5,0.5,1.3,1,1.6,1.6c3.9,6.3,8,12.6,11.4,19c2.5,4.7-0.3,8.8-7.4,11.9
					C535.4,969.8,527.4,970.2,518.5,968.2z"/>
				<path class="st87" d="M518.5,968.2c1.1-1.7,1.9-3.2,2.9-4.6c2.7,0.2,5,0.6,7.3,0.6c8.2,0,14.1-4.1,11.9-8.2c-2.2-4-5-7.9-7-11.9
					c-0.6-1.3-0.2-2.8,0.3-4.1c0.8-1.9,2-3.7,3.2-5.7c0.5,0.5,1.3,1,1.6,1.6c3.9,6.3,8,12.6,11.4,19c2.5,4.7-0.3,8.8-7.4,11.9
					C535.4,969.8,527.4,970.2,518.5,968.2z"/>
				<path class="st87" d="M381.4,954.6c-1,1.6-1.9,3.1-2.7,4.4c-3.6-0.1-6.6-0.5-9.5-0.3c-6.9,0.4-11.7,4.4-9.8,8
					c2.2,4,5,7.9,7,11.9c0.7,1.3,0.2,2.9-0.4,4.3c-0.7,1.8-1.9,3.6-3.1,5.6c-0.7-0.7-1.5-1.4-1.9-2.1c-3.7-6.1-7.5-12.1-10.9-18.2
					c-2.5-4.5-0.2-8.5,6.1-11.7c6.4-3.2,14.1-3.9,22.4-2.6C379.5,954,380.3,954.3,381.4,954.6z"/>
				<path class="st87" d="M381.4,954.6c-1,1.6-1.9,3.1-2.7,4.4c-3.6-0.1-6.6-0.5-9.5-0.3c-6.9,0.4-11.7,4.4-9.8,8
					c2.2,4,5,7.9,7,11.9c0.7,1.3,0.2,2.9-0.4,4.3c-0.7,1.8-1.9,3.6-3.1,5.6c-0.7-0.7-1.5-1.4-1.9-2.1c-3.7-6.1-7.5-12.1-10.9-18.2
					c-2.5-4.5-0.2-8.5,6.1-11.7c6.4-3.2,14.1-3.9,22.4-2.6C379.5,954,380.3,954.3,381.4,954.6z"/>
				<path class="st87" d="M387,977.2c1,1.7,1.8,3.1,2.7,4.5c-0.3,0.2-0.4,0.5-0.7,0.5c-5.7,0.7-9.7,2.4-10.7,5.5
					c-1.1,3.1,1.8,5.4,6.6,7.1c5.7,2.1,11.4,4.2,16.7,6.5c2,0.9,3.3,2.3,4.4,3.6c1.5,1.7,2.4,3.5,3.8,5.4c-1.3-0.4-2.5-0.6-3.6-1
					c-9.8-3.8-19.6-7.5-29.2-11.3c-7.6-3-10.1-7.3-8-12.1C371.1,981.2,377.2,978.3,387,977.2z"/>
				<path class="st87" d="M387,977.2c1,1.7,1.8,3.1,2.7,4.5c-0.3,0.2-0.4,0.5-0.7,0.5c-5.7,0.7-9.7,2.4-10.7,5.5
					c-1.1,3.1,1.8,5.4,6.6,7.1c5.7,2.1,11.4,4.2,16.7,6.5c2,0.9,3.3,2.3,4.4,3.6c1.5,1.7,2.4,3.5,3.8,5.4c-1.3-0.4-2.5-0.6-3.6-1
					c-9.8-3.8-19.6-7.5-29.2-11.3c-7.6-3-10.1-7.3-8-12.1C371.1,981.2,377.2,978.3,387,977.2z"/>
				<path class="st87" d="M416.6,993.7c2.8,1.1,5.1,1.9,7.3,2.8c-1.3,1.6-3.1,3-3.8,4.6c-1.6,3.8,4.3,7.4,12.1,7.5
					c7.9,0.1,15.8,0,23.7,0.1c2.1,0,4.4,0.7,6.3,1.3c3.3,1,6.3,2.3,9.8,3.6c-1.2,0.1-2.2,0.2-3.2,0.2c-12.7,0-25.4,0.1-38.1-0.1
					c-9.5-0.2-15.9-3-19.2-7.7C408.3,1001.6,410.3,997.5,416.6,993.7z"/>
				<path class="st87" d="M416.6,993.7c2.8,1.1,5.1,1.9,7.3,2.8c-1.3,1.6-3.1,3-3.8,4.6c-1.6,3.8,4.3,7.4,12.1,7.5
					c7.9,0.1,15.8,0,23.7,0.1c2.1,0,4.4,0.7,6.3,1.3c3.3,1,6.3,2.3,9.8,3.6c-1.2,0.1-2.2,0.2-3.2,0.2c-12.7,0-25.4,0.1-38.1-0.1
					c-9.5-0.2-15.9-3-19.2-7.7C408.3,1001.6,410.3,997.5,416.6,993.7z"/>
				<path class="st87" d="M429,909c13.3,0,27.3-0.2,41.3,0.1c9.1,0.2,15.2,3.2,18.2,7.6c3.1,4.5,1.2,8.5-5.1,12.2
					c-2.7-1-5.3-2-7.9-3c4.1-2.4,6.1-4.9,3.4-8c-2.7-3-7.5-4.1-13.5-3.9c-1.4,0-2.9,0-4.4,0C449.3,913.9,436.8,915.4,429,909z"/>
				<path class="st87" d="M429,909c13.3,0,27.3-0.2,41.3,0.1c9.1,0.2,15.2,3.2,18.2,7.6c3.1,4.5,1.2,8.5-5.1,12.2
					c-2.7-1-5.3-2-7.9-3c4.1-2.4,6.1-4.9,3.4-8c-2.7-3-7.5-4.1-13.5-3.9c-1.4,0-2.9,0-4.4,0C449.3,913.9,436.8,915.4,429,909z"/>
				<path class="st87" d="M480.6,1003.7c-0.9-1.6-1.5-3.3-2.8-4.8c-1.9-2.2-5.7-3.2-10.2-3.2c-6-0.1-11.9-0.2-17.9,0
					c-3.6,0.1-6.2-0.2-7.2-2.3c-0.4-0.9-1.7-1.6-2.9-2.6c1.1-0.1,2.1-0.3,3.1-0.3c7.9,0,15.8,0,23.7,0c10.5,0.1,18.5,3,21.7,7.8
					C490.5,1001.8,488.1,1003.5,480.6,1003.7z"/>
				<path class="st87" d="M480.6,1003.7c-0.9-1.6-1.5-3.3-2.8-4.8c-1.9-2.2-5.7-3.2-10.2-3.2c-6-0.1-11.9-0.2-17.9,0
					c-3.6,0.1-6.2-0.2-7.2-2.3c-0.4-0.9-1.7-1.6-2.9-2.6c1.1-0.1,2.1-0.3,3.1-0.3c7.9,0,15.8,0,23.7,0c10.5,0.1,18.5,3,21.7,7.8
					C490.5,1001.8,488.1,1003.5,480.6,1003.7z"/>
				<path class="st87" d="M460.2,932.1c-11,0-21.8,0.3-32.4-0.2c-8.7-0.4-16-5-17.1-9.5c-0.5-1.9,2.9-3.2,8.3-3.4
					c1.5,2.1,2.3,4.3,4.7,5.9c1.8,1.2,5.6,2,8.7,2.1c5.9,0.3,11.9,0.2,17.8,0.1c3.6-0.1,6.1,0.3,7.2,2.3
					C457.9,930.4,459.2,931.1,460.2,932.1z"/>
				<path class="st87" d="M460.2,932.1c-11,0-21.8,0.3-32.4-0.2c-8.7-0.4-16-5-17.1-9.5c-0.5-1.9,2.9-3.2,8.3-3.4
					c1.5,2.1,2.3,4.3,4.7,5.9c1.8,1.2,5.6,2,8.7,2.1c5.9,0.3,11.9,0.2,17.8,0.1c3.6-0.1,6.1,0.3,7.2,2.3
					C457.9,930.4,459.2,931.1,460.2,932.1z"/>
				<path class="st87" d="M521,986.5c-6.2-4.8-12.7-5.4-21.3-2.1c-5.4,2-10.7,4.1-16.2,6.2c-3.1-0.8-6.2-1.6-10.3-2.6
					c9.4-3.4,18.1-7,27.7-9.8c6.2-1.8,13.5-1.2,19.8,0.8C527.9,981.3,528,983.5,521,986.5z"/>
				<path class="st87" d="M521,986.5c-6.2-4.8-12.7-5.4-21.3-2.1c-5.4,2-10.7,4.1-16.2,6.2c-3.1-0.8-6.2-1.6-10.3-2.6
					c9.4-3.4,18.1-7,27.7-9.8c6.2-1.8,13.5-1.2,19.8,0.8C527.9,981.3,528,983.5,521,986.5z"/>
				<path class="st87" d="M490.3,941.2c-8.7-3.5-17.3-6.5-24.9-10.1c-6.1-2.9-7.8-7-5.5-11.3c2-3.8,6.3-4.6,12.4-2.3
					c-1.2,2-3.4,3.9-3.2,5.7c0.2,1.7,2.4,3.7,4.9,5c4.1,2.1,9,3.8,13.9,5.5c3.3,1.1,4.7,2.3,3.3,4.4
					C490.6,938.9,490.7,939.9,490.3,941.2z"/>
				<path class="st87" d="M490.3,941.2c-8.7-3.5-17.3-6.5-24.9-10.1c-6.1-2.9-7.8-7-5.5-11.3c2-3.8,6.3-4.6,12.4-2.3
					c-1.2,2-3.4,3.9-3.2,5.7c0.2,1.7,2.4,3.7,4.9,5c4.1,2.1,9,3.8,13.9,5.5c3.3,1.1,4.7,2.3,3.3,4.4
					C490.6,938.9,490.7,939.9,490.3,941.2z"/>
				<path class="st87" d="M427.1,1004.8c6.4-4.6,5.4-7.9-3.6-11.4c-3.9-1.5-7.6-3.1-11.7-4.5c-3.2-1.1-4.5-2.2-3.2-4.2
					c0.6-0.8,0.6-1.8,1-3.3c9,3.7,18,6.8,25.8,10.7c5.7,2.8,6.5,6.8,4.6,11C438,1007.3,431.6,1007,427.1,1004.8z"/>
				<path class="st87" d="M427.1,1004.8c6.4-4.6,5.4-7.9-3.6-11.4c-3.9-1.5-7.6-3.1-11.7-4.5c-3.2-1.1-4.5-2.2-3.2-4.2
					c0.6-0.8,0.6-1.8,1-3.3c9,3.7,18,6.8,25.8,10.7c5.7,2.8,6.5,6.8,4.6,11C438,1007.3,431.6,1007,427.1,1004.8z"/>
				<path class="st87" d="M426.7,934.7c-9.2,3.4-17.6,6.8-26.6,9.6c-6.6,2.1-14,1.5-20.7-0.5c-7.3-2.2-7.4-4.8-0.5-7.6
					c6.8,4.9,12.6,5.4,21.9,1.8c3.9-1.5,8-2.9,11.7-4.5c2.8-1.2,5.2-1.6,8.3-0.3C422.2,933.9,424.1,934.1,426.7,934.7z"/>
				<path class="st87" d="M426.7,934.7c-9.2,3.4-17.6,6.8-26.6,9.6c-6.6,2.1-14,1.5-20.7-0.5c-7.3-2.2-7.4-4.8-0.5-7.6
					c6.8,4.9,12.6,5.4,21.9,1.8c3.9-1.5,8-2.9,11.7-4.5c2.8-1.2,5.2-1.6,8.3-0.3C422.2,933.9,424.1,934.1,426.7,934.7z"/>
				<path class="st87" d="M505,957.8c-3.2-5.7-7-11-9.2-16.6c-1.6-4.1,1.9-7.7,8.1-10.4c6-2.6,10.1-1.9,13,2.3
					c-1.3,0.3-2.6,0.5-3.8,0.8c-6.1,1.4-9,4.6-7.2,8c1.7,3.1,3.6,6.2,5.6,9.2c1,1.5,1.5,2.8-1.7,3.9
					C508.1,955.7,507,956.7,505,957.8z"/>
				<path class="st87" d="M505,957.8c-3.2-5.7-7-11-9.2-16.6c-1.6-4.1,1.9-7.7,8.1-10.4c6-2.6,10.1-1.9,13,2.3
					c-1.3,0.3-2.6,0.5-3.8,0.8c-6.1,1.4-9,4.6-7.2,8c1.7,3.1,3.6,6.2,5.6,9.2c1,1.5,1.5,2.8-1.7,3.9
					C508.1,955.7,507,956.7,505,957.8z"/>
				<path class="st87" d="M383.1,989.4c10.6-1.9,13.3-4.7,10-10.2c-1.6-2.6-3.1-5.2-4.8-7.8c-1-1.5-1.4-2.7,1.6-3.7
					c1.7-0.6,2.8-1.6,4.8-2.7c2.7,4.5,5.8,8.7,7.8,13.1c1.2,2.5,1.6,5.4,0.5,7.9c-1,2.1-4.2,4.1-7.2,5.8
					C390.7,994.8,385.4,993.2,383.1,989.4z"/>
				<path class="st87" d="M383.1,989.4c10.6-1.9,13.3-4.7,10-10.2c-1.6-2.6-3.1-5.2-4.8-7.8c-1-1.5-1.4-2.7,1.6-3.7
					c1.7-0.6,2.8-1.6,4.8-2.7c2.7,4.5,5.8,8.7,7.8,13.1c1.2,2.5,1.6,5.4,0.5,7.9c-1,2.1-4.2,4.1-7.2,5.8
					C390.7,994.8,385.4,993.2,383.1,989.4z"/>
				<path class="st87" d="M401.4,947c-3.4,5.4-6.2,10.5-9.9,15.4c-3.2,4.2-9.9,6.3-18.5,6.8c-7.8,0.4-10.6-1.6-8.4-5.9
					c1.2,0.2,2.4,0.4,3.6,0.5c6.8,0.8,12.6-0.8,15-4.3c2.1-3,4-5.9,5.6-9c0.9-1.7,2.1-2.9,6-2.7C396.7,947.9,398.6,947.4,401.4,947z
					"/>
				<path class="st87" d="M401.4,947c-3.4,5.4-6.2,10.5-9.9,15.4c-3.2,4.2-9.9,6.3-18.5,6.8c-7.8,0.4-10.6-1.6-8.4-5.9
					c1.2,0.2,2.4,0.4,3.6,0.5c6.8,0.8,12.6-0.8,15-4.3c2.1-3,4-5.9,5.6-9c0.9-1.7,2.1-2.9,6-2.7C396.7,947.9,398.6,947.4,401.4,947z
					"/>
				<path class="st87" d="M535.2,959.4c-11.3-1.6-16.2-0.1-19.7,5.5c-0.8,1.4-2.1,2.7-2.6,4.1c-1.3,4.2-4.7,6.9-14.3,6.1
					c3.5-5.3,6.5-10.8,11-16c3.2-3.7,9.9-5.4,17.8-5.6C534.2,953.3,537.4,954.2,535.2,959.4z"/>
				<path class="st87" d="M535.2,959.4c-11.3-1.6-16.2-0.1-19.7,5.5c-0.8,1.4-2.1,2.7-2.6,4.1c-1.3,4.2-4.7,6.9-14.3,6.1
					c3.5-5.3,6.5-10.8,11-16c3.2-3.7,9.9-5.4,17.8-5.6C534.2,953.3,537.4,954.2,535.2,959.4z"/>
			</g>
			<g>
				<path class="st87" d="M452.9,989.1c7.1-5.6,3.6-13.4-7.7-17.5c-1.7-0.6-3.6-1.1-5.5-1.6c-13.5-3-21.3-10.3-18.5-17.7
					c2.7-7.3,14.9-12.7,29.5-13c14.8-0.3,27.2,4.8,31.4,12.7c2.5,4.9,2.1,9.6-1.2,14.9c0.9-0.6,1.8-1.3,2.6-1.9
					c10.7-9.3,4.3-21.2-14-26.4c-18.2-5.2-41.3-1.5-50.8,8.1c-2.3,2.3-3.6,4.8-4.7,7.4c-0.9,2.1-3.7,4-5.7,5.9
					c-0.5,0.5-1.3,0.9-1.9,1.4c-1,0.7-0.9,1.4,0.5,2c0.9,0.4,1.9,0.7,2.7,1.2c0.5,0.3,1.2,0.9,0.9,1.1c-2.1,1.4,0,2.1,2,2.9
					c-1.5,0.9-2.2,1.8-0.4,2.9c0.8,0.5,0.3,1.6-0.1,2.4c-1.3,2.3,0,3.3,4.7,3.4c5,0.1,10-0.1,14.8,0.2c11.4,0.9,18.5,4.5,20.8,10.4
					C452.5,988.3,452.7,988.7,452.9,989.1z"/>
				<g>
					<path class="st87" d="M435.4,950.8c-1.2-0.4-2.5-0.8-3.7-1.1c-4.1,3-5.7,9.4,3.4,14.3c-1.4,0.5-2.8,0.9-4.2,1.4
						c-9-4.7-10.4-13.3-0.7-19c1.5,0.5,3,0.9,4.6,1.4c4.5,1.4,8.9,2.7,13.4,4.1c0.4,0.1,0.6,0.3,0.6,0.5c0.1,2.3,0.1,4.5,0.2,6.8
						c0,0.3-0.1,0.4-0.5,0.5c-1.2,0.4-2.4,0.8-3.6,1.2c-0.2,0.1-0.4,0.1-0.7,0.2c0-0.2,0-0.3,0-0.4c-0.1-2.3-0.2-4.5-0.2-6.8
						c0-0.3-0.2-0.4-0.6-0.6c-1.2-0.3-2.4-0.7-3.7-1.1c-2.5,2.5-2.4,4.9,0.2,7.3c-1.4,0.4-2.7,0.9-4.2,1.4
						C432,957.4,432,954.1,435.4,950.8z"/>
					<path class="st87" d="M435.4,950.8c-1.2-0.4-2.5-0.8-3.7-1.1c-4.1,3-5.7,9.4,3.4,14.3c-1.4,0.5-2.8,0.9-4.2,1.4
						c-9-4.7-10.4-13.3-0.7-19c1.5,0.5,3,0.9,4.6,1.4c4.5,1.4,8.9,2.7,13.4,4.1c0.4,0.1,0.6,0.3,0.6,0.5c0.1,2.3,0.1,4.5,0.2,6.8
						c0,0.3-0.1,0.4-0.5,0.5c-1.2,0.4-2.4,0.8-3.6,1.2c-0.2,0.1-0.4,0.1-0.7,0.2c0-0.2,0-0.3,0-0.4c-0.1-2.3-0.2-4.5-0.2-6.8
						c0-0.3-0.2-0.4-0.6-0.6c-1.2-0.3-2.4-0.7-3.7-1.1c-2.5,2.5-2.4,4.9,0.2,7.3c-1.4,0.4-2.7,0.9-4.2,1.4
						C432,957.4,432,954.1,435.4,950.8z"/>
					<path class="st87" d="M471.3,961.5c0.6-0.7,1.3-1.4,1.8-2.1c0.5-0.8,0.8-1.6,1.1-2.4c0.1-0.2,0.2-0.3,0.7-0.3
						c1.4,0,2.8,0,4.2,0c0,2.6-2.7,6.2-6.6,8.3c-3-0.9-6-1.8-9-2.7c-3-0.9-6-1.8-8.9-2.7c-0.4-0.1-0.6-0.2-0.6-0.5
						c-0.1-2.3-0.2-4.6-0.2-6.9c0-0.1,0.2-0.3,0.4-0.4c5.9-1.9,11.7-3.9,17.6-5.8c0,0,0.1,0,0.2,0c4.1,2.3,6.5,5,7.2,8.2
						c-1.7,0-3.2,0-4.9,0c-0.5-1.7-1.6-3.3-3.4-4.8c-1,0.3-2,0.7-3,1c-2.9,0.9-5.7,1.9-8.6,2.8c-0.4,0.1-0.5,0.2-0.5,0.5
						c0.1,1.3,0.1,2.7,0.2,4c0,0.1,0.2,0.3,0.4,0.4c3.9,1.2,7.9,2.4,11.8,3.6C471,961.5,471.1,961.5,471.3,961.5z"/>
					<path class="st87" d="M471.3,961.5c0.6-0.7,1.3-1.4,1.8-2.1c0.5-0.8,0.8-1.6,1.1-2.4c0.1-0.2,0.2-0.3,0.7-0.3
						c1.4,0,2.8,0,4.2,0c0,2.6-2.7,6.2-6.6,8.3c-3-0.9-6-1.8-9-2.7c-3-0.9-6-1.8-8.9-2.7c-0.4-0.1-0.6-0.2-0.6-0.5
						c-0.1-2.3-0.2-4.6-0.2-6.9c0-0.1,0.2-0.3,0.4-0.4c5.9-1.9,11.7-3.9,17.6-5.8c0,0,0.1,0,0.2,0c4.1,2.3,6.5,5,7.2,8.2
						c-1.7,0-3.2,0-4.9,0c-0.5-1.7-1.6-3.3-3.4-4.8c-1,0.3-2,0.7-3,1c-2.9,0.9-5.7,1.9-8.6,2.8c-0.4,0.1-0.5,0.2-0.5,0.5
						c0.1,1.3,0.1,2.7,0.2,4c0,0.1,0.2,0.3,0.4,0.4c3.9,1.2,7.9,2.4,11.8,3.6C471,961.5,471.1,961.5,471.3,961.5z"/>
					<path class="st87" d="M433.9,944.4c10.1-4.3,24.9-4.1,34.1-0.3c-1.4,0.5-2.8,0.9-4.2,1.4c-4,1.3-8.1,2.7-12.1,4
						c-0.4,0.1-0.6,0.2-1,0c-5.5-1.7-11-3.3-16.5-5C434.1,944.5,434,944.4,433.9,944.4z M443.7,944.4c0.2,0.1,0.2,0.1,0.3,0.1
						c2.2,0.7,4.4,1.3,6.6,2c0.2,0.1,0.6,0,0.8,0c2.1-0.7,4.2-1.4,6.3-2.1c0.1,0,0.2-0.1,0.4-0.2
						C453.3,943.5,448.6,943.6,443.7,944.4z"/>
					<path class="st87" d="M433.9,944.4c10.1-4.3,24.9-4.1,34.1-0.3c-1.4,0.5-2.8,0.9-4.2,1.4c-4,1.3-8.1,2.7-12.1,4
						c-0.4,0.1-0.6,0.2-1,0c-5.5-1.7-11-3.3-16.5-5C434.1,944.5,434,944.4,433.9,944.4z M443.7,944.4c0.2,0.1,0.2,0.1,0.3,0.1
						c2.2,0.7,4.4,1.3,6.6,2c0.2,0.1,0.6,0,0.8,0c2.1-0.7,4.2-1.4,6.3-2.1c0.1,0,0.2-0.1,0.4-0.2
						C453.3,943.5,448.6,943.6,443.7,944.4z"/>
					<path class="st87" d="M468.8,966.8c-10,4.3-24.9,4.1-34.2,0.3c1.4-0.5,2.8-0.9,4.3-1.4c4-1.3,8.1-2.6,12.1-4
						c0.4-0.1,0.6-0.2,1,0c5.5,1.7,11,3.3,16.4,5C468.6,966.7,468.7,966.7,468.8,966.8z M459.1,966.7c-0.2-0.1-0.3-0.1-0.4-0.1
						c-2.2-0.7-4.5-1.4-6.7-2c-0.2-0.1-0.6,0-0.8,0.1c-2.1,0.7-4.1,1.3-6.2,2c-0.1,0-0.3,0.1-0.5,0.2
						C449.4,967.6,454.2,967.6,459.1,966.7z"/>
					<path class="st87" d="M468.8,966.8c-10,4.3-24.9,4.1-34.2,0.3c1.4-0.5,2.8-0.9,4.3-1.4c4-1.3,8.1-2.6,12.1-4
						c0.4-0.1,0.6-0.2,1,0c5.5,1.7,11,3.3,16.4,5C468.6,966.7,468.7,966.7,468.8,966.8z M459.1,966.7c-0.2-0.1-0.3-0.1-0.4-0.1
						c-2.2-0.7-4.5-1.4-6.7-2c-0.2-0.1-0.6,0-0.8,0.1c-2.1,0.7-4.1,1.3-6.2,2c-0.1,0-0.3,0.1-0.5,0.2
						C449.4,967.6,454.2,967.6,459.1,966.7z"/>
				</g>
			</g>
		</g>
		<g>
			<g>
				<path class="st88" d="M399,934.2c-2.5,1-4.9,2-7.5,3.1c-0.8-0.6-1.5-1-2.2-1.5c-6.5-4.3-18-3.4-21.7,1.8
					c-2.8,3.9-4.9,7.9-7.6,11.8c-0.8,1.1-2.8,2.1-4.5,2.9c-2.8,1.3-6,2.5-9.7,4.1c2.2-3.6,4.1-6.8,6-10c2.3-3.7,4.4-7.5,7.1-11.1
					c3.6-4.8,10.8-7.2,20.2-7.3C387.7,927.9,394.5,929.9,399,934.2z"/>
				<path class="st88" d="M399,934.2c-2.5,1-4.9,2-7.5,3.1c-0.8-0.6-1.5-1-2.2-1.5c-6.5-4.3-18-3.4-21.7,1.8
					c-2.8,3.9-4.9,7.9-7.6,11.8c-0.8,1.1-2.8,2.1-4.5,2.9c-2.8,1.3-6,2.5-9.7,4.1c2.2-3.6,4.1-6.8,6-10c2.3-3.7,4.4-7.5,7.1-11.1
					c3.6-4.8,10.8-7.2,20.2-7.3C387.7,927.9,394.5,929.9,399,934.2z"/>
				<path class="st88" d="M495,988.1c2.5-1,4.9-2,7.5-3.1c0.9,0.6,1.5,1,2.2,1.4c6.5,4.3,18,3.4,21.7-1.7c2.8-3.9,4.9-7.9,7.6-11.8
					c0.8-1.1,2.7-2.1,4.5-2.9c2.8-1.3,6-2.5,9.6-4c-1,1.9-1.8,3.5-2.8,5.1c-3.2,5.3-6.3,10.5-9.9,15.7c-3.3,4.8-10.4,7.4-19.9,7.6
					C506.7,994.5,499.7,992.4,495,988.1z"/>
				<path class="st88" d="M495,988.1c2.5-1,4.9-2,7.5-3.1c0.9,0.6,1.5,1,2.2,1.4c6.5,4.3,18,3.4,21.7-1.7c2.8-3.9,4.9-7.9,7.6-11.8
					c0.8-1.1,2.7-2.1,4.5-2.9c2.8-1.3,6-2.5,9.6-4c-1,1.9-1.8,3.5-2.8,5.1c-3.2,5.3-6.3,10.5-9.9,15.7c-3.3,4.8-10.4,7.4-19.9,7.6
					C506.7,994.5,499.7,992.4,495,988.1z"/>
				<path class="st88" d="M455.8,997.9c3.5,0,6.5,0,8.8,0c1.2,2,1.5,4,3.3,5.5c4,3.2,11.3,3.7,17.4,1.4c6.2-2.3,12.2-4.8,18.5-7
					c2.1-0.7,4.9-1,7.4-1.1c3.8-0.2,7.6,0,11.8,0c-3.7,1.5-7.5,3-11.4,4.5c-7.4,2.8-14.7,5.8-22.4,8.5c-7.6,2.6-15.7,2.4-23.2-0.1
					C458.3,1006.9,455.2,1003,455.8,997.9z"/>
				<path class="st88" d="M455.8,997.9c3.5,0,6.5,0,8.8,0c1.2,2,1.5,4,3.3,5.5c4,3.2,11.3,3.7,17.4,1.4c6.2-2.3,12.2-4.8,18.5-7
					c2.1-0.7,4.9-1,7.4-1.1c3.8-0.2,7.6,0,11.8,0c-3.7,1.5-7.5,3-11.4,4.5c-7.4,2.8-14.7,5.8-22.4,8.5c-7.6,2.6-15.7,2.4-23.2-0.1
					C458.3,1006.9,455.2,1003,455.8,997.9z"/>
				<path class="st88" d="M438.4,924.4c-3.3,0-6,0-8.9,0c-0.3-0.8-0.6-1.6-0.9-2.3c-2.1-5.7-11.7-7.7-20.8-4.3
					c-5.7,2.1-11.3,4.2-16.8,6.5c-2.7,1.1-5.3,1.7-8.8,1.4c-3.4-0.3-7-0.1-11-0.1c4.2-1.6,8.2-3.3,12.3-4.8
					c7.2-2.7,14.2-5.6,21.7-8.1c7.7-2.6,15.7-2.2,23.2,0.4C435.9,915.6,438.8,919.5,438.4,924.4z"/>
				<path class="st88" d="M438.4,924.4c-3.3,0-6,0-8.9,0c-0.3-0.8-0.6-1.6-0.9-2.3c-2.1-5.7-11.7-7.7-20.8-4.3
					c-5.7,2.1-11.3,4.2-16.8,6.5c-2.7,1.1-5.3,1.7-8.8,1.4c-3.4-0.3-7-0.1-11-0.1c4.2-1.6,8.2-3.3,12.3-4.8
					c7.2-2.7,14.2-5.6,21.7-8.1c7.7-2.6,15.7-2.2,23.2,0.4C435.9,915.6,438.8,919.5,438.4,924.4z"/>
				<path class="st88" d="M486.9,911.5c12.3,4.8,23.8,9.1,34.7,13.7c6.9,2.9,8.6,7.2,6.3,11.6c-2.4,4.7-8.4,7.5-17.8,8.5
					c-1-1.6-1.9-3.1-2.8-4.6c2.4-0.6,4.9-1.1,6.9-1.9c6.5-2.7,6.4-7.6-0.3-10.4c-6.1-2.5-12.6-4.8-18.6-7.3
					c-1.9-0.8-3.1-2.2-4.2-3.4C489.6,915.9,488.6,914.1,486.9,911.5z"/>
				<path class="st88" d="M486.9,911.5c12.3,4.8,23.8,9.1,34.7,13.7c6.9,2.9,8.6,7.2,6.3,11.6c-2.4,4.7-8.4,7.5-17.8,8.5
					c-1-1.6-1.9-3.1-2.8-4.6c2.4-0.6,4.9-1.1,6.9-1.9c6.5-2.7,6.4-7.6-0.3-10.4c-6.1-2.5-12.6-4.8-18.6-7.3
					c-1.9-0.8-3.1-2.2-4.2-3.4C489.6,915.9,488.6,914.1,486.9,911.5z"/>
				<path class="st88" d="M515.5,968c1.1-1.7,1.9-3.2,2.9-4.6c2.7,0.2,5,0.6,7.3,0.6c8.2,0,14.1-4.1,11.9-8.2c-2.2-4-5-7.9-7-11.9
					c-0.6-1.3-0.2-2.8,0.3-4.1c0.8-1.9,2-3.7,3.2-5.7c0.5,0.5,1.3,1,1.6,1.6c3.9,6.3,8,12.6,11.4,19c2.5,4.7-0.3,8.8-7.4,11.9
					C532.5,969.6,524.5,970,515.5,968z"/>
				<path class="st88" d="M515.5,968c1.1-1.7,1.9-3.2,2.9-4.6c2.7,0.2,5,0.6,7.3,0.6c8.2,0,14.1-4.1,11.9-8.2c-2.2-4-5-7.9-7-11.9
					c-0.6-1.3-0.2-2.8,0.3-4.1c0.8-1.9,2-3.7,3.2-5.7c0.5,0.5,1.3,1,1.6,1.6c3.9,6.3,8,12.6,11.4,19c2.5,4.7-0.3,8.8-7.4,11.9
					C532.5,969.6,524.5,970,515.5,968z"/>
				<path class="st88" d="M378.5,954.4c-1,1.6-1.9,3.1-2.7,4.4c-3.6-0.1-6.6-0.5-9.5-0.3c-6.9,0.4-11.7,4.4-9.8,8
					c2.2,4,5,7.9,7,11.9c0.7,1.3,0.2,2.9-0.4,4.3c-0.7,1.8-1.9,3.6-3.1,5.6c-0.7-0.7-1.5-1.4-1.9-2.1c-3.7-6.1-7.5-12.1-10.9-18.2
					c-2.5-4.5-0.2-8.5,6.1-11.7c6.4-3.2,14.1-3.9,22.4-2.6C376.6,953.8,377.4,954.1,378.5,954.4z"/>
				<path class="st88" d="M378.5,954.4c-1,1.6-1.9,3.1-2.7,4.4c-3.6-0.1-6.6-0.5-9.5-0.3c-6.9,0.4-11.7,4.4-9.8,8
					c2.2,4,5,7.9,7,11.9c0.7,1.3,0.2,2.9-0.4,4.3c-0.7,1.8-1.9,3.6-3.1,5.6c-0.7-0.7-1.5-1.4-1.9-2.1c-3.7-6.1-7.5-12.1-10.9-18.2
					c-2.5-4.5-0.2-8.5,6.1-11.7c6.4-3.2,14.1-3.9,22.4-2.6C376.6,953.8,377.4,954.1,378.5,954.4z"/>
				<path class="st88" d="M384.1,977c1,1.7,1.8,3.1,2.7,4.5c-0.3,0.2-0.4,0.5-0.7,0.5c-5.7,0.7-9.7,2.4-10.7,5.5
					c-1.1,3.1,1.8,5.4,6.6,7.1c5.7,2.1,11.4,4.2,16.7,6.5c2,0.9,3.3,2.3,4.4,3.6c1.5,1.7,2.4,3.5,3.8,5.4c-1.3-0.4-2.5-0.6-3.6-1
					c-9.8-3.8-19.6-7.5-29.2-11.3c-7.6-3-10.1-7.3-8-12.1C368.2,981,374.3,978.1,384.1,977z"/>
				<path class="st88" d="M384.1,977c1,1.7,1.8,3.1,2.7,4.5c-0.3,0.2-0.4,0.5-0.7,0.5c-5.7,0.7-9.7,2.4-10.7,5.5
					c-1.1,3.1,1.8,5.4,6.6,7.1c5.7,2.1,11.4,4.2,16.7,6.5c2,0.9,3.3,2.3,4.4,3.6c1.5,1.7,2.4,3.5,3.8,5.4c-1.3-0.4-2.5-0.6-3.6-1
					c-9.8-3.8-19.6-7.5-29.2-11.3c-7.6-3-10.1-7.3-8-12.1C368.2,981,374.3,978.1,384.1,977z"/>
				<path class="st88" d="M413.7,993.6c2.8,1.1,5.1,1.9,7.3,2.8c-1.3,1.6-3.1,3-3.8,4.6c-1.6,3.8,4.3,7.4,12.1,7.5
					c7.9,0.1,15.8,0,23.7,0.1c2.1,0,4.4,0.7,6.3,1.3c3.3,1,6.3,2.3,9.8,3.6c-1.2,0.1-2.2,0.2-3.2,0.2c-12.7,0-25.4,0.1-38.1-0.1
					c-9.5-0.2-15.9-3-19.2-7.7C405.4,1001.4,407.4,997.3,413.7,993.6z"/>
				<path class="st88" d="M413.7,993.6c2.8,1.1,5.1,1.9,7.3,2.8c-1.3,1.6-3.1,3-3.8,4.6c-1.6,3.8,4.3,7.4,12.1,7.5
					c7.9,0.1,15.8,0,23.7,0.1c2.1,0,4.4,0.7,6.3,1.3c3.3,1,6.3,2.3,9.8,3.6c-1.2,0.1-2.2,0.2-3.2,0.2c-12.7,0-25.4,0.1-38.1-0.1
					c-9.5-0.2-15.9-3-19.2-7.7C405.4,1001.4,407.4,997.3,413.7,993.6z"/>
				<path class="st88" d="M426,908.8c13.3,0,27.3-0.2,41.3,0.1c9.1,0.2,15.2,3.2,18.2,7.6c3.1,4.5,1.2,8.5-5.1,12.2
					c-2.7-1-5.3-2-7.9-3c4.1-2.4,6.1-4.9,3.4-8c-2.7-3-7.5-4.1-13.5-3.9c-1.4,0-2.9,0-4.4,0C446.4,913.7,433.9,915.2,426,908.8z"/>
				<path class="st88" d="M426,908.8c13.3,0,27.3-0.2,41.3,0.1c9.1,0.2,15.2,3.2,18.2,7.6c3.1,4.5,1.2,8.5-5.1,12.2
					c-2.7-1-5.3-2-7.9-3c4.1-2.4,6.1-4.9,3.4-8c-2.7-3-7.5-4.1-13.5-3.9c-1.4,0-2.9,0-4.4,0C446.4,913.7,433.9,915.2,426,908.8z"/>
				<path class="st88" d="M477.7,1003.5c-0.9-1.6-1.5-3.3-2.8-4.8c-1.9-2.2-5.7-3.2-10.2-3.2c-6-0.1-11.9-0.2-17.9,0
					c-3.6,0.1-6.2-0.2-7.2-2.3c-0.4-0.9-1.7-1.6-2.9-2.6c1.1-0.1,2.1-0.3,3.1-0.3c7.9,0,15.8,0,23.7,0c10.5,0.1,18.5,3,21.7,7.8
					C487.6,1001.6,485.2,1003.3,477.7,1003.5z"/>
				<path class="st88" d="M477.7,1003.5c-0.9-1.6-1.5-3.3-2.8-4.8c-1.9-2.2-5.7-3.2-10.2-3.2c-6-0.1-11.9-0.2-17.9,0
					c-3.6,0.1-6.2-0.2-7.2-2.3c-0.4-0.9-1.7-1.6-2.9-2.6c1.1-0.1,2.1-0.3,3.1-0.3c7.9,0,15.8,0,23.7,0c10.5,0.1,18.5,3,21.7,7.8
					C487.6,1001.6,485.2,1003.3,477.7,1003.5z"/>
				<path class="st88" d="M457.3,931.9c-11,0-21.8,0.3-32.4-0.2c-8.7-0.4-16-5-17.1-9.5c-0.5-1.9,2.9-3.2,8.3-3.4
					c1.5,2.1,2.3,4.3,4.7,5.9c1.8,1.2,5.6,2,8.7,2.1c5.9,0.3,11.9,0.2,17.8,0.1c3.6-0.1,6.1,0.3,7.2,2.3
					C455,930.2,456.2,930.9,457.3,931.9z"/>
				<path class="st88" d="M457.3,931.9c-11,0-21.8,0.3-32.4-0.2c-8.7-0.4-16-5-17.1-9.5c-0.5-1.9,2.9-3.2,8.3-3.4
					c1.5,2.1,2.3,4.3,4.7,5.9c1.8,1.2,5.6,2,8.7,2.1c5.9,0.3,11.9,0.2,17.8,0.1c3.6-0.1,6.1,0.3,7.2,2.3
					C455,930.2,456.2,930.9,457.3,931.9z"/>
				<path class="st88" d="M518.1,986.3c-6.2-4.8-12.7-5.4-21.3-2.1c-5.4,2-10.7,4.1-16.2,6.2c-3.1-0.8-6.2-1.6-10.3-2.6
					c9.4-3.4,18.1-7,27.7-9.8c6.2-1.8,13.5-1.2,19.8,0.8C525,981.1,525.1,983.3,518.1,986.3z"/>
				<path class="st88" d="M518.1,986.3c-6.2-4.8-12.7-5.4-21.3-2.1c-5.4,2-10.7,4.1-16.2,6.2c-3.1-0.8-6.2-1.6-10.3-2.6
					c9.4-3.4,18.1-7,27.7-9.8c6.2-1.8,13.5-1.2,19.8,0.8C525,981.1,525.1,983.3,518.1,986.3z"/>
				<path class="st88" d="M487.4,941c-8.7-3.5-17.3-6.5-24.9-10.1c-6.1-2.9-7.8-7-5.5-11.3c2-3.8,6.3-4.6,12.4-2.3
					c-1.2,2-3.4,3.9-3.2,5.7c0.2,1.7,2.4,3.7,4.9,5c4.1,2.1,9,3.8,13.9,5.5c3.3,1.1,4.7,2.3,3.3,4.4
					C487.7,938.7,487.8,939.7,487.4,941z"/>
				<path class="st88" d="M487.4,941c-8.7-3.5-17.3-6.5-24.9-10.1c-6.1-2.9-7.8-7-5.5-11.3c2-3.8,6.3-4.6,12.4-2.3
					c-1.2,2-3.4,3.9-3.2,5.7c0.2,1.7,2.4,3.7,4.9,5c4.1,2.1,9,3.8,13.9,5.5c3.3,1.1,4.7,2.3,3.3,4.4
					C487.7,938.7,487.8,939.7,487.4,941z"/>
				<path class="st88" d="M424.2,1004.6c6.4-4.6,5.4-7.9-3.6-11.4c-3.9-1.5-7.6-3.1-11.7-4.5c-3.2-1.1-4.5-2.2-3.2-4.2
					c0.6-0.8,0.6-1.8,1-3.3c9,3.7,18,6.8,25.8,10.7c5.7,2.8,6.5,6.8,4.6,11C435.1,1007.1,428.7,1006.8,424.2,1004.6z"/>
				<path class="st88" d="M424.2,1004.6c6.4-4.6,5.4-7.9-3.6-11.4c-3.9-1.5-7.6-3.1-11.7-4.5c-3.2-1.1-4.5-2.2-3.2-4.2
					c0.6-0.8,0.6-1.8,1-3.3c9,3.7,18,6.8,25.8,10.7c5.7,2.8,6.5,6.8,4.6,11C435.1,1007.1,428.7,1006.8,424.2,1004.6z"/>
				<path class="st88" d="M423.8,934.5c-9.2,3.4-17.6,6.8-26.6,9.6c-6.6,2.1-14,1.5-20.7-0.5c-7.3-2.2-7.4-4.8-0.5-7.6
					c6.8,4.9,12.6,5.4,21.9,1.8c3.9-1.5,8-2.9,11.7-4.5c2.8-1.2,5.2-1.6,8.3-0.3C419.3,933.7,421.2,933.9,423.8,934.5z"/>
				<path class="st88" d="M423.8,934.5c-9.2,3.4-17.6,6.8-26.6,9.6c-6.6,2.1-14,1.5-20.7-0.5c-7.3-2.2-7.4-4.8-0.5-7.6
					c6.8,4.9,12.6,5.4,21.9,1.8c3.9-1.5,8-2.9,11.7-4.5c2.8-1.2,5.2-1.6,8.3-0.3C419.3,933.7,421.2,933.9,423.8,934.5z"/>
				<path class="st88" d="M502.1,957.7c-3.2-5.7-7-11-9.2-16.6c-1.6-4.1,1.9-7.7,8.1-10.4c6-2.6,10.1-1.9,13,2.3
					c-1.3,0.3-2.6,0.5-3.8,0.8c-6.1,1.4-9,4.6-7.2,8c1.7,3.1,3.6,6.2,5.6,9.2c1,1.5,1.5,2.8-1.7,3.9
					C505.2,955.5,504.1,956.5,502.1,957.7z"/>
				<path class="st88" d="M502.1,957.7c-3.2-5.7-7-11-9.2-16.6c-1.6-4.1,1.9-7.7,8.1-10.4c6-2.6,10.1-1.9,13,2.3
					c-1.3,0.3-2.6,0.5-3.8,0.8c-6.1,1.4-9,4.6-7.2,8c1.7,3.1,3.6,6.2,5.6,9.2c1,1.5,1.5,2.8-1.7,3.9
					C505.2,955.5,504.1,956.5,502.1,957.7z"/>
				<path class="st88" d="M380.2,989.2c10.6-1.9,13.3-4.7,10-10.2c-1.6-2.6-3.1-5.2-4.8-7.8c-1-1.5-1.4-2.7,1.6-3.7
					c1.7-0.6,2.8-1.6,4.8-2.7c2.7,4.5,5.8,8.7,7.8,13.1c1.2,2.5,1.6,5.4,0.5,7.9c-1,2.1-4.2,4.1-7.2,5.8
					C387.8,994.6,382.5,993,380.2,989.2z"/>
				<path class="st88" d="M380.2,989.2c10.6-1.9,13.3-4.7,10-10.2c-1.6-2.6-3.1-5.2-4.8-7.8c-1-1.5-1.4-2.7,1.6-3.7
					c1.7-0.6,2.8-1.6,4.8-2.7c2.7,4.5,5.8,8.7,7.8,13.1c1.2,2.5,1.6,5.4,0.5,7.9c-1,2.1-4.2,4.1-7.2,5.8
					C387.8,994.6,382.5,993,380.2,989.2z"/>
				<path class="st88" d="M398.5,946.8c-3.4,5.4-6.2,10.5-9.9,15.4c-3.2,4.2-9.9,6.3-18.5,6.8c-7.8,0.4-10.6-1.6-8.4-5.9
					c1.2,0.2,2.4,0.4,3.6,0.5c6.8,0.8,12.6-0.8,15-4.3c2.1-3,4-5.9,5.6-9c0.9-1.7,2.1-2.9,6-2.7
					C393.8,947.7,395.7,947.2,398.5,946.8z"/>
				<path class="st88" d="M398.5,946.8c-3.4,5.4-6.2,10.5-9.9,15.4c-3.2,4.2-9.9,6.3-18.5,6.8c-7.8,0.4-10.6-1.6-8.4-5.9
					c1.2,0.2,2.4,0.4,3.6,0.5c6.8,0.8,12.6-0.8,15-4.3c2.1-3,4-5.9,5.6-9c0.9-1.7,2.1-2.9,6-2.7
					C393.8,947.7,395.7,947.2,398.5,946.8z"/>
				<path class="st88" d="M532.3,959.2c-11.3-1.6-16.2-0.1-19.7,5.5c-0.8,1.4-2.1,2.7-2.6,4.1c-1.3,4.2-4.7,6.9-14.3,6.1
					c3.5-5.3,6.5-10.8,11-16c3.2-3.7,9.9-5.4,17.8-5.6C531.3,953.1,534.4,954,532.3,959.2z"/>
				<path class="st88" d="M532.3,959.2c-11.3-1.6-16.2-0.1-19.7,5.5c-0.8,1.4-2.1,2.7-2.6,4.1c-1.3,4.2-4.7,6.9-14.3,6.1
					c3.5-5.3,6.5-10.8,11-16c3.2-3.7,9.9-5.4,17.8-5.6C531.3,953.1,534.4,954,532.3,959.2z"/>
			</g>
			<g>
				<path class="st88" d="M450,988.9c7.1-5.6,3.6-13.4-7.7-17.5c-1.7-0.6-3.6-1.1-5.5-1.6c-13.5-3-21.3-10.3-18.5-17.7
					c2.7-7.3,14.9-12.7,29.5-13c14.8-0.3,27.2,4.8,31.4,12.8c2.5,4.9,2.1,9.6-1.2,14.9c0.9-0.6,1.8-1.3,2.6-1.9
					c10.7-9.3,4.3-21.2-14-26.4c-18.2-5.2-41.3-1.5-50.8,8.1c-2.3,2.3-3.6,4.8-4.7,7.4c-0.9,2.1-3.7,4-5.7,5.9
					c-0.5,0.5-1.3,0.9-1.9,1.4c-1,0.7-0.9,1.4,0.5,2c0.9,0.4,1.9,0.7,2.7,1.2c0.5,0.3,1.2,0.9,0.9,1.1c-2.1,1.4,0,2.1,2,2.9
					c-1.5,0.9-2.2,1.8-0.4,2.9c0.8,0.5,0.3,1.6-0.1,2.4c-1.3,2.3,0,3.3,4.7,3.4c5,0.1,10-0.1,14.8,0.2c11.4,0.9,18.5,4.5,20.8,10.4
					C449.6,988.1,449.8,988.5,450,988.9z"/>
				<g>
					<path class="st88" d="M432.4,950.6c-1.2-0.4-2.5-0.8-3.7-1.1c-4.1,3-5.7,9.4,3.4,14.3c-1.4,0.5-2.8,0.9-4.2,1.4
						c-9-4.7-10.4-13.3-0.7-19c1.5,0.5,3,0.9,4.6,1.4c4.5,1.4,8.9,2.7,13.4,4.1c0.4,0.1,0.6,0.3,0.6,0.5c0.1,2.3,0.1,4.5,0.2,6.8
						c0,0.3-0.1,0.4-0.5,0.5c-1.2,0.4-2.4,0.8-3.6,1.2c-0.2,0.1-0.4,0.1-0.7,0.2c0-0.2,0-0.3,0-0.4c-0.1-2.3-0.2-4.5-0.2-6.8
						c0-0.3-0.2-0.4-0.6-0.6c-1.2-0.3-2.4-0.7-3.7-1.1c-2.5,2.5-2.4,4.9,0.2,7.3c-1.4,0.4-2.7,0.9-4.2,1.4
						C429.1,957.2,429,953.9,432.4,950.6z"/>
					<path class="st88" d="M432.4,950.6c-1.2-0.4-2.5-0.8-3.7-1.1c-4.1,3-5.7,9.4,3.4,14.3c-1.4,0.5-2.8,0.9-4.2,1.4
						c-9-4.7-10.4-13.3-0.7-19c1.5,0.5,3,0.9,4.6,1.4c4.5,1.4,8.9,2.7,13.4,4.1c0.4,0.1,0.6,0.3,0.6,0.5c0.1,2.3,0.1,4.5,0.2,6.8
						c0,0.3-0.1,0.4-0.5,0.5c-1.2,0.4-2.4,0.8-3.6,1.2c-0.2,0.1-0.4,0.1-0.7,0.2c0-0.2,0-0.3,0-0.4c-0.1-2.3-0.2-4.5-0.2-6.8
						c0-0.3-0.2-0.4-0.6-0.6c-1.2-0.3-2.4-0.7-3.7-1.1c-2.5,2.5-2.4,4.9,0.2,7.3c-1.4,0.4-2.7,0.9-4.2,1.4
						C429.1,957.2,429,953.9,432.4,950.6z"/>
					<path class="st88" d="M468.4,961.3c0.6-0.7,1.3-1.4,1.8-2.1c0.5-0.8,0.8-1.6,1.1-2.4c0.1-0.2,0.2-0.3,0.7-0.3
						c1.4,0,2.8,0,4.2,0c0,2.6-2.7,6.2-6.6,8.3c-3-0.9-6-1.8-9-2.7c-3-0.9-6-1.8-8.9-2.7c-0.4-0.1-0.6-0.2-0.6-0.5
						c-0.1-2.3-0.2-4.6-0.2-6.9c0-0.1,0.2-0.3,0.4-0.4c5.9-1.9,11.7-3.9,17.6-5.8c0,0,0.1,0,0.2,0c4.1,2.3,6.5,5,7.2,8.2
						c-1.7,0-3.2,0-4.9,0c-0.5-1.7-1.6-3.3-3.4-4.8c-1,0.3-2,0.7-3,1c-2.9,0.9-5.7,1.9-8.6,2.8c-0.4,0.1-0.5,0.2-0.5,0.5
						c0.1,1.3,0.1,2.7,0.2,4c0,0.1,0.2,0.3,0.4,0.4c3.9,1.2,7.9,2.4,11.8,3.6C468.1,961.3,468.2,961.3,468.4,961.3z"/>
					<path class="st88" d="M468.4,961.3c0.6-0.7,1.3-1.4,1.8-2.1c0.5-0.8,0.8-1.6,1.1-2.4c0.1-0.2,0.2-0.3,0.7-0.3
						c1.4,0,2.8,0,4.2,0c0,2.6-2.7,6.2-6.6,8.3c-3-0.9-6-1.8-9-2.7c-3-0.9-6-1.8-8.9-2.7c-0.4-0.1-0.6-0.2-0.6-0.5
						c-0.1-2.3-0.2-4.6-0.2-6.9c0-0.1,0.2-0.3,0.4-0.4c5.9-1.9,11.7-3.9,17.6-5.8c0,0,0.1,0,0.2,0c4.1,2.3,6.5,5,7.2,8.2
						c-1.7,0-3.2,0-4.9,0c-0.5-1.7-1.6-3.3-3.4-4.8c-1,0.3-2,0.7-3,1c-2.9,0.9-5.7,1.9-8.6,2.8c-0.4,0.1-0.5,0.2-0.5,0.5
						c0.1,1.3,0.1,2.7,0.2,4c0,0.1,0.2,0.3,0.4,0.4c3.9,1.2,7.9,2.4,11.8,3.6C468.1,961.3,468.2,961.3,468.4,961.3z"/>
					<path class="st88" d="M431,944.2c10.1-4.3,24.9-4.1,34.1-0.3c-1.4,0.5-2.8,0.9-4.2,1.4c-4,1.3-8.1,2.7-12.1,4
						c-0.4,0.1-0.6,0.2-1,0c-5.5-1.7-11-3.3-16.5-5C431.2,944.3,431.1,944.3,431,944.2z M440.8,944.2c0.2,0.1,0.2,0.1,0.3,0.1
						c2.2,0.7,4.4,1.3,6.6,2c0.2,0.1,0.6,0,0.8,0c2.1-0.7,4.2-1.4,6.3-2.1c0.1,0,0.2-0.1,0.4-0.2
						C450.4,943.3,445.7,943.4,440.8,944.2z"/>
					<path class="st88" d="M431,944.2c10.1-4.3,24.9-4.1,34.1-0.3c-1.4,0.5-2.8,0.9-4.2,1.4c-4,1.3-8.1,2.7-12.1,4
						c-0.4,0.1-0.6,0.2-1,0c-5.5-1.7-11-3.3-16.5-5C431.2,944.3,431.1,944.3,431,944.2z M440.8,944.2c0.2,0.1,0.2,0.1,0.3,0.1
						c2.2,0.7,4.4,1.3,6.6,2c0.2,0.1,0.6,0,0.8,0c2.1-0.7,4.2-1.4,6.3-2.1c0.1,0,0.2-0.1,0.4-0.2
						C450.4,943.3,445.7,943.4,440.8,944.2z"/>
					<path class="st88" d="M465.9,966.6c-10,4.3-24.9,4.1-34.2,0.3c1.4-0.5,2.8-0.9,4.3-1.4c4-1.3,8.1-2.6,12.1-4
						c0.4-0.1,0.6-0.2,1,0c5.5,1.7,11,3.3,16.4,5C465.7,966.5,465.8,966.5,465.9,966.6z M456.2,966.5c-0.2-0.1-0.3-0.1-0.4-0.1
						c-2.2-0.7-4.5-1.4-6.7-2c-0.2-0.1-0.6,0-0.8,0.1c-2.1,0.7-4.1,1.3-6.2,2c-0.1,0-0.3,0.1-0.5,0.2
						C446.5,967.4,451.3,967.4,456.2,966.5z"/>
					<path class="st88" d="M465.9,966.6c-10,4.3-24.9,4.1-34.2,0.3c1.4-0.5,2.8-0.9,4.3-1.4c4-1.3,8.1-2.6,12.1-4
						c0.4-0.1,0.6-0.2,1,0c5.5,1.7,11,3.3,16.4,5C465.7,966.5,465.8,966.5,465.9,966.6z M456.2,966.5c-0.2-0.1-0.3-0.1-0.4-0.1
						c-2.2-0.7-4.5-1.4-6.7-2c-0.2-0.1-0.6,0-0.8,0.1c-2.1,0.7-4.1,1.3-6.2,2c-0.1,0-0.3,0.1-0.5,0.2
						C446.5,967.4,451.3,967.4,456.2,966.5z"/>
				</g>
			</g>
		</g>
	</g>
</g>
</svg>
