<?xml version="1.0" encoding="UTF-8"?>
<svg id="Calque_1" data-name="Calque 1" xmlns="http://www.w3.org/2000/svg" xmlns:xlink="http://www.w3.org/1999/xlink" viewBox="0 0 798 454">
  <defs>
    <style>
      .cls-1 {
        fill: url(#radial-gradient);
      }

      .cls-2 {
        fill: url(#radial-gradient-2);
      }

      .cls-3 {
        fill: none;
      }

      .cls-4 {
        fill: url(#linear-gradient);
      }

      .cls-5 {
        fill: #7a4217;
      }
    </style>
    <radialGradient id="radial-gradient" cx="96.47" cy="226.3" fx="96.47" fy="226.3" r="65.34" gradientUnits="userSpaceOnUse">
      <stop offset="0" stop-color="#ecb71a"/>
      <stop offset="0" stop-color="#dda517"/>
      <stop offset=".99" stop-color="#fdd649"/>
    </radialGradient>
    <radialGradient id="radial-gradient-2" cx="1287.73" cy="204.61" fx="1287.73" fy="204.61" r="23.5" gradientTransform="translate(1377.85) rotate(-180) scale(1 -1)" gradientUnits="userSpaceOnUse">
      <stop offset="0" stop-color="#ecc440"/>
      <stop offset=".03" stop-color="#f5c230"/>
      <stop offset=".51" stop-color="#fffa8a"/>
      <stop offset=".71" stop-color="#ddac17"/>
      <stop offset="1" stop-color="#ffff95"/>
    </radialGradient>
    <linearGradient id="linear-gradient" x1="1259.49" y1="204.61" x2="1315.97" y2="204.61" gradientTransform="translate(1377.85) rotate(-180) scale(1 -1)" gradientUnits="userSpaceOnUse">
      <stop offset="0" stop-color="#ecb71a"/>
      <stop offset="0" stop-color="#dda517"/>
      <stop offset=".46" stop-color="#b57a11"/>
      <stop offset=".99" stop-color="#fdd649"/>
    </linearGradient>
  </defs>
  <g>
    <path class="cls-1" d="M89.77,298.07c-10.25-15.03-5.74-36.39,9.96-47.65,2.38-1.71,5.01-3.16,7.69-4.37,18.81-8.51,29.24-28.62,25.1-48.58-4.12-19.81-21.53-34.21-41.9-34.65-20.7-.44-37.89,13.61-43.32,35.42-3.32,13.33-2.41,26.08,2.44,40.46-1.24-1.74-2.59-3.41-3.71-5.22-15.37-24.87-7.09-57.5,18.27-72.11,25.27-14.55,57.73-5.15,71.48,20.65,3.35,6.29,5.33,12.9,6.93,19.89,1.29,5.64,5.34,10.66,8.25,15.9,.74,1.34,1.86,2.46,2.76,3.72,1.42,1.98,1.28,3.83-.61,5.46-1.27,1.09-2.69,2.04-3.79,3.28-.69,.78-1.58,2.48-1.26,2.9,2.97,3.84,.15,5.79-2.61,7.93,2.11,2.5,3.15,4.7,.7,7.82-1.04,1.33-.39,4.47,.25,6.55,1.93,6.29,.15,9.06-6.44,9.33-6.93,.28-13.98-.16-20.77,.98-15.97,2.67-25.62,12.81-28.62,28.84-.2,1.09-.5,2.17-.79,3.44Z"/>
    <path d="M124.87,217.51c6.34-17.27-1.12-37.12-17.55-45.72-16.63-8.72-37.38-3.77-47.81,11.39-5.37,7.81-7.78,16.45-6.54,25.85,1.65,12.57,8.17,22.07,19.23,28.46-.79,1.63-1.48,3.08-2.19,4.52-.7,1.4-1.43,2.79-2.13,4.15l-.87-.45c-.94-.49-1.95-.74-2.95-.77,0,0,0,0-.01,0-2.5-.06-4.95,1.27-6.19,3.63l-10.91,20.84-8.85,16.9c-.8,1.54-.96,3.24-.56,4.81,0,.01,0,.03,0,.05,.28,2.17,1.75,3.99,4.3,5.25,1.77,.88,3.53,1.79,5.32,2.64,4.38,2.09,7.89,.9,10.03-3.41,4.7-9.47,9.41-18.93,14.09-28.41l4.5-8.59,.29-.55c.64-1.21,.87-2.53,.74-3.8-.21-2.2-1.5-4.25-3.61-5.36l-1.92-1c1.51-3.04,2.92-5.89,4.32-8.72,22.48,8.44,42.89-4.38,49.26-21.72Zm-53.81,34.65c1.82,.96,2.3,2.35,1.38,4.23-6.26,12.7-12.54,25.38-18.86,38.05-.34,.68-.97,1.21-1.6,1.98-.92-.17-1.81-.17-2.56-.5-1.95-.85-3.84-1.83-5.74-2.79-2.57-1.3-2.99-2.49-1.7-5.13,4.99-10.13,10.02-20.24,15.03-30.36,1.14-2.3,2.26-4.61,3.42-6.9,1.05-2.06,2.39-2.55,4.5-1.57,2.07,.95,4.11,1.95,6.12,3.01Zm-12.48-35.72c-6.49-16.89,2.21-36.43,19.12-42.96,17.44-6.74,36.8,1.91,43.48,19.42,6.54,17.15-2.09,36.35-19.33,42.94-17.4,6.65-36.57-1.94-43.28-19.4Z"/>
    <g>
      <path d="M26.61,164.68c-1.01,0-1.83-.82-1.83-1.83v-19.16c0-1.01,.82-1.83,1.83-1.83h19.24c1.01,0,1.83,.82,1.83,1.83s-.82,1.83-1.83,1.83H28.44v17.32c0,1.01-.82,1.83-1.83,1.83Zm0-20.07v18.24s0-18.24,0-18.24Z"/>
      <path d="M160.49,164.68c-1.01,0-1.83-.82-1.83-1.83v-17.32h-17.41c-1.01,0-1.83-.82-1.83-1.83s.82-1.83,1.83-1.83h19.24c1.01,0,1.83,.82,1.83,1.83v19.16c0,1.01-.82,1.83-1.83,1.83Zm-19.24-20.99h19.24v19.16s0-19.16,0-19.16h-19.24Z"/>
      <path d="M45.85,312.14H26.61c-1.01,0-1.83-.82-1.83-1.83v-19.16c0-1.01,.82-1.83,1.83-1.83s1.83,.82,1.83,1.83v17.32h17.41c1.01,0,1.83,.82,1.83,1.83s-.82,1.83-1.83,1.83Zm-19.24-20.99h0v19.16h0v-19.16Z"/>
      <path d="M160.49,312.14h-19.24c-1.01,0-1.83-.82-1.83-1.83s.82-1.83,1.83-1.83h17.41v-17.32c0-1.01,.82-1.83,1.83-1.83s1.83,.82,1.83,1.83v19.16c0,1.01-.82,1.83-1.83,1.83Zm-19.24-1.83h0Zm19.24-19.16h0v18.24s0-18.24,0-18.24Z"/>
    </g>
    <g>
      <path class="cls-2" d="M90.26,181.11c12.98,.08,23.43,10.66,23.35,23.64-.08,12.98-10.66,23.43-23.64,23.35-12.98-.08-23.43-10.66-23.35-23.64,.08-12.98,10.66-23.43,23.64-23.35h0Z"/>
      <path class="cls-4" d="M61.88,204.43v.17c0,15.52,12.53,28.14,28.07,28.24,.12,0,.24,0,.36,0,15.43-.1,27.96-12.59,28.05-28.07,0-.06,0-.12,0-.18,0-15.52-12.53-28.14-28.07-28.23-.06,0-.12,0-.18,0-15.52,0-28.14,12.53-28.24,28.07Zm4.74,.03c.08-12.98,10.66-23.43,23.64-23.35,12.98,.08,23.43,10.66,23.35,23.64-.08,12.98-10.66,23.43-23.64,23.35-12.98-.08-23.43-10.66-23.35-23.64Z"/>
      <path class="cls-5" d="M98.24,195.43c.45,.34,.86,.66,1.31,1,.14-.19,.25-.35,.37-.5,1.1-1.45,3.08-1.19,3.75,.53,.5,1.3,.88,2.64,1.39,3.94,.15,.37,.49,.69,.8,.97,.5,.44,1.04,.82,1.71,1.33-.39-1.2-.74-2.28-1.1-3.35-.42-1.24-.8-2.49-1.29-3.7-.64-1.59-1.91-2.4-3.53-2.39-1.47,0-2.65,.72-3.4,2.17h0Z"/>
      <path class="cls-5" d="M98.24,195.43c.45,.34,.86,.66,1.31,1,.14-.19,.25-.35,.37-.5,1.1-1.45,3.08-1.19,3.75,.53,.5,1.3,.88,2.64,1.39,3.94,.15,.37,.49,.69,.8,.97,.5,.44,1.04,.82,1.71,1.33-.39-1.2-.74-2.28-1.1-3.35-.42-1.24-.8-2.49-1.29-3.7-.64-1.59-1.91-2.4-3.53-2.39-1.47,0-2.65,.72-3.4,2.17h0Z"/>
      <path class="cls-5" d="M82,213.77c-.44-.34-.85-.66-1.3-1-.14,.19-.26,.34-.37,.49-1.1,1.46-3.08,1.21-3.75-.5-.5-1.3-.89-2.64-1.39-3.94-.15-.37-.48-.7-.79-.97-.5-.44-1.05-.82-1.69-1.32,.19,.64,.33,1.17,.51,1.7,.59,1.75,1.15,3.51,1.8,5.24,.61,1.6,1.84,2.43,3.48,2.47,1.53,.03,2.71-.69,3.49-2.16h0Z"/>
      <path class="cls-5" d="M82,213.77c-.44-.34-.85-.66-1.3-1-.14,.19-.26,.34-.37,.49-1.1,1.46-3.08,1.21-3.75-.5-.5-1.3-.89-2.64-1.39-3.94-.15-.37-.48-.7-.79-.97-.5-.44-1.05-.82-1.69-1.32,.19,.64,.33,1.17,.51,1.7,.59,1.75,1.15,3.51,1.8,5.24,.61,1.6,1.84,2.43,3.48,2.47,1.53,.03,2.71-.69,3.49-2.16h0Z"/>
      <path class="cls-5" d="M88.82,216.95c-.61,.01-1.12,.02-1.52,.03-.19,.68-.23,1.35-.54,1.84-.66,1.07-1.93,1.27-3,.54-1.09-.74-2.13-1.56-3.23-2.28-.36-.24-.85-.32-1.29-.36-.65-.05-1.31,.01-2.04,.03,.65,.48,1.31,.98,1.99,1.46,1.3,.93,2.57,1.9,3.92,2.76,1.32,.84,2.72,.76,4.01-.11,1.33-.89,1.84-2.22,1.71-3.9h0Z"/>
      <path class="cls-5" d="M88.82,216.95c-.61,.01-1.12,.02-1.52,.03-.19,.68-.23,1.35-.54,1.84-.66,1.07-1.93,1.27-3,.54-1.09-.74-2.13-1.56-3.23-2.28-.36-.24-.85-.32-1.29-.36-.65-.05-1.31,.01-2.04,.03,.65,.48,1.31,.98,1.99,1.46,1.3,.93,2.57,1.9,3.92,2.76,1.32,.84,2.72,.76,4.01-.11,1.33-.89,1.84-2.22,1.71-3.9h0Z"/>
      <path class="cls-5" d="M91.4,192.27c.57-.01,1.03-.02,1.54-.03,.05-.28,.09-.53,.13-.77,.33-1.92,1.97-2.63,3.56-1.52,.99,.69,1.98,1.38,2.94,2.11,.47,.36,.93,.54,1.53,.43,.59-.1,1.2-.04,1.89-.06-.73-.54-1.43-1.07-2.15-1.59-1.26-.9-2.49-1.84-3.79-2.65-1.34-.83-2.73-.71-4.01,.19-1.28,.9-1.77,2.21-1.65,3.88h0Z"/>
      <path class="cls-5" d="M91.4,192.27c.57-.01,1.03-.02,1.54-.03,.05-.28,.09-.53,.13-.77,.33-1.92,1.97-2.63,3.56-1.52,.99,.69,1.98,1.38,2.94,2.11,.47,.36,.93,.54,1.53,.43,.59-.1,1.2-.04,1.89-.06-.73-.54-1.43-1.07-2.15-1.59-1.26-.9-2.49-1.84-3.79-2.65-1.34-.83-2.73-.71-4.01,.19-1.28,.9-1.77,2.21-1.65,3.88h0Z"/>
      <path class="cls-5" d="M82.95,188.08c-2.09,1.65-4.05,3.11-5.9,4.7-1.17,1-1.43,2.43-1.02,3.91,.44,1.56,1.49,2.48,3.12,2.8,.16-.54,.31-1.05,.46-1.56-.42-.21-.86-.35-1.2-.61-1.14-.87-1.15-2.54-.02-3.47,1.04-.86,2.15-1.64,3.17-2.51,.33-.28,.53-.74,.7-1.16,.24-.59,.41-1.22,.69-2.1h0Z"/>
      <path class="cls-5" d="M82.95,188.08c-2.09,1.65-4.05,3.11-5.9,4.7-1.17,1-1.43,2.43-1.02,3.91,.44,1.56,1.49,2.48,3.12,2.8,.16-.54,.31-1.05,.46-1.56-.42-.21-.86-.35-1.2-.61-1.14-.87-1.15-2.54-.02-3.47,1.04-.86,2.15-1.64,3.17-2.51,.33-.28,.53-.74,.7-1.16,.24-.59,.41-1.22,.69-2.1h0Z"/>
      <path class="cls-5" d="M78.34,207.1c-.19-.58-.35-1.05-.52-1.54-.46,.08-.86,.21-1.26,.22-1.41,.04-2.47-1.32-2.1-2.71,.36-1.35,.81-2.67,1.14-4.02,.1-.42,.02-.92-.08-1.36-.14-.63-.37-1.24-.58-1.9-.09,.17-.21,.35-.27,.55-.63,2.13-1.31,4.24-1.85,6.39-.4,1.57,.11,2.96,1.36,3.97,1.24,1,2.63,1.1,4.16,.41h0Z"/>
      <path class="cls-5" d="M78.34,207.1c-.19-.58-.35-1.05-.52-1.54-.46,.08-.86,.21-1.26,.22-1.41,.04-2.47-1.32-2.1-2.71,.36-1.35,.81-2.67,1.14-4.02,.1-.42,.02-.92-.08-1.36-.14-.63-.37-1.24-.58-1.9-.09,.17-.21,.35-.27,.55-.63,2.13-1.31,4.24-1.85,6.39-.4,1.57,.11,2.96,1.36,3.97,1.24,1,2.63,1.1,4.16,.41h0Z"/>
      <path class="cls-5" d="M101.9,202.13c.18,.54,.35,1.03,.5,1.47,.62-.06,1.14-.2,1.65-.15,1.19,.12,2.05,1.44,1.73,2.65-.36,1.35-.81,2.67-1.14,4.02-.11,.45-.01,.97,.09,1.44,.13,.61,.35,1.19,.57,1.88,.11-.25,.24-.47,.32-.71,.6-2.05,1.23-4.09,1.78-6.15,.4-1.51-.01-2.84-1.12-3.9-1.12-1.06-2.45-1.26-3.88-.81-.15,.05-.29,.14-.48,.24h0Z"/>
      <path class="cls-5" d="M101.9,202.13c.18,.54,.35,1.03,.5,1.47,.62-.06,1.14-.2,1.65-.15,1.19,.12,2.05,1.44,1.73,2.65-.36,1.35-.81,2.67-1.14,4.02-.11,.45-.01,.97,.09,1.44,.13,.61,.35,1.19,.57,1.88,.11-.25,.24-.47,.32-.71,.6-2.05,1.23-4.09,1.78-6.15,.4-1.51-.01-2.84-1.12-3.9-1.12-1.06-2.45-1.26-3.88-.81-.15,.05-.29,.14-.48,.24h0Z"/>
      <path class="cls-5" d="M101.07,209.71c-.16,.56-.3,1.05-.43,1.51,.05,.08,.08,.15,.12,.16,.99,.21,1.68,.78,1.88,1.82,.2,1.05-.28,1.8-1.09,2.41-.97,.72-1.94,1.44-2.84,2.24-.34,.3-.55,.79-.74,1.23-.24,.57-.4,1.17-.62,1.84,.22-.12,.44-.21,.61-.35,1.66-1.29,3.33-2.57,4.97-3.89,1.3-1.04,1.7-2.47,1.31-4.06-.39-1.6-1.46-2.57-3.16-2.91h0Z"/>
      <path class="cls-5" d="M101.07,209.71c-.16,.56-.3,1.05-.43,1.51,.05,.08,.08,.15,.12,.16,.99,.21,1.68,.78,1.88,1.82,.2,1.05-.28,1.8-1.09,2.41-.97,.72-1.94,1.44-2.84,2.24-.34,.3-.55,.79-.74,1.23-.24,.57-.4,1.17-.62,1.84,.22-.12,.44-.21,.61-.35,1.66-1.29,3.33-2.57,4.97-3.89,1.3-1.04,1.7-2.47,1.31-4.06-.39-1.6-1.46-2.57-3.16-2.91h0Z"/>
      <path class="cls-5" d="M96.07,215.35c-.47,.36-.86,.67-1.24,.96,.24,.53,.55,1.01,.68,1.53,.3,1.25-.7,2.48-2.05,2.54-1.36,.06-2.73,.03-4.08,.12-.37,.02-.75,.25-1.08,.46-.56,.36-1.07,.78-1.67,1.22,.2,.02,.38,.06,.55,.05,2.19-.04,4.39-.03,6.58-.15,1.64-.08,2.73-1.07,3.27-2.63,.52-1.5,.16-2.86-.95-4.1h0Z"/>
      <path class="cls-5" d="M96.07,215.35c-.47,.36-.86,.67-1.24,.96,.24,.53,.55,1.01,.68,1.53,.3,1.25-.7,2.48-2.05,2.54-1.36,.06-2.73,.03-4.08,.12-.37,.02-.75,.25-1.08,.46-.56,.36-1.07,.78-1.67,1.22,.2,.02,.38,.06,.55,.05,2.19-.04,4.39-.03,6.58-.15,1.64-.08,2.73-1.07,3.27-2.63,.52-1.5,.16-2.86-.95-4.1h0Z"/>
      <path class="cls-5" d="M93.43,186.98c-2.3,.05-4.72,.03-7.13,.17-1.56,.1-2.6,1.12-3.1,2.61-.5,1.51-.15,2.86,.95,4.08,.46-.36,.9-.7,1.35-1.05-.72-.79-1.08-1.64-.63-2.66,.45-1.01,1.27-1.38,2.31-1.33,.25,.01,.5,0,.75-.02,2.01-.08,4.18,.38,5.5-1.81h0Z"/>
      <path class="cls-5" d="M93.43,186.98c-2.3,.05-4.72,.03-7.13,.17-1.56,.1-2.6,1.12-3.1,2.61-.5,1.51-.15,2.86,.95,4.08,.46-.36,.9-.7,1.35-1.05-.72-.79-1.08-1.64-.63-2.66,.45-1.01,1.27-1.38,2.31-1.33,.25,.01,.5,0,.75-.02,2.01-.08,4.18,.38,5.5-1.81h0Z"/>
      <path class="cls-5" d="M85.08,218.87c.15-.55,.24-1.12,.46-1.63,.32-.74,.97-1.08,1.74-1.12,1.03-.05,2.06-.09,3.09-.07,.62,.01,1.06-.1,1.23-.81,.07-.29,.29-.55,.48-.89-.2-.03-.37-.08-.54-.07-1.36,.02-2.72,.03-4.09,.08-1.8,.06-3.17,1.07-3.7,2.68-.4,1.23,.03,1.8,1.33,1.83h0Z"/>
      <path class="cls-5" d="M85.08,218.87c.15-.55,.24-1.12,.46-1.63,.32-.74,.97-1.08,1.74-1.12,1.03-.05,2.06-.09,3.09-.07,.62,.01,1.06-.1,1.23-.81,.07-.29,.29-.55,.48-.89-.2-.03-.37-.08-.54-.07-1.36,.02-2.72,.03-4.09,.08-1.8,.06-3.17,1.07-3.7,2.68-.4,1.23,.03,1.8,1.33,1.83h0Z"/>
      <path class="cls-5" d="M88.17,194.84c1.9-.04,3.76,.04,5.59-.15,1.5-.16,2.73-1.72,2.9-3.25,.07-.63-.52-1.06-1.46-1.12-.25,.69-.37,1.46-.77,2-.31,.41-.96,.67-1.5,.74-1.01,.13-2.05,.12-3.07,.09-.62-.01-1.06,.1-1.22,.81-.07,.29-.29,.55-.47,.88h0Z"/>
      <path class="cls-5" d="M88.17,194.84c1.9-.04,3.76,.04,5.59-.15,1.5-.16,2.73-1.72,2.9-3.25,.07-.63-.52-1.06-1.46-1.12-.25,.69-.37,1.46-.77,2-.31,.41-.96,.67-1.5,.74-1.01,.13-2.05,.12-3.07,.09-.62-.01-1.06,.1-1.22,.81-.07,.29-.29,.55-.47,.88h0Z"/>
      <path class="cls-5" d="M78,213.26c1.05-1.62,2.15-1.85,3.66-.78,.94,.66,1.87,1.33,2.83,2.01,.54-.28,1.07-.55,1.76-.91-1.64-1.11-3.17-2.29-4.84-3.21-1.09-.6-2.34-.37-3.41,.34-1.23,.82-1.23,1.53,0,2.54h0Z"/>
      <path class="cls-5" d="M78,213.26c1.05-1.62,2.15-1.85,3.66-.78,.94,.66,1.87,1.33,2.83,2.01,.54-.28,1.07-.55,1.76-.91-1.64-1.11-3.17-2.29-4.84-3.21-1.09-.6-2.34-.37-3.41,.34-1.23,.82-1.23,1.53,0,2.54h0Z"/>
      <path class="cls-5" d="M83.03,197.98c1.48-1.19,2.95-2.22,4.24-3.45,1.04-.99,1.3-2.36,.88-3.8-.37-1.28-1.12-1.51-2.16-.73,.22,.66,.61,1.29,.58,1.91-.03,.58-.4,1.25-.81,1.68-.7,.72-1.54,1.32-2.37,1.89-.56,.39-.8,.79-.54,1.47,.1,.28,.1,.59,.17,1.04h0Z"/>
      <path class="cls-5" d="M83.03,197.98c1.48-1.19,2.95-2.22,4.24-3.45,1.04-.99,1.3-2.36,.88-3.8-.37-1.28-1.12-1.51-2.16-.73,.22,.66,.61,1.29,.58,1.91-.03,.58-.4,1.25-.81,1.68-.7,.72-1.54,1.32-2.37,1.89-.56,.39-.8,.79-.54,1.47,.1,.28,.1,.59,.17,1.04h0Z"/>
      <path class="cls-5" d="M94.32,219.08c-1.14-1.54-.98-2.62,.55-3.82,.66-.52,1.3-1.08,2-1.54,.55-.36,.77-.75,.52-1.41-.11-.28-.11-.61-.19-1.11-1.53,1.26-3.06,2.35-4.39,3.67-.97,.96-1.09,2.3-.73,3.69,.37,1.42,1.48,1.29,2.24,.53h0Z"/>
      <path class="cls-5" d="M94.32,219.08c-1.14-1.54-.98-2.62,.55-3.82,.66-.52,1.3-1.08,2-1.54,.55-.36,.77-.75,.52-1.41-.11-.28-.11-.61-.19-1.11-1.53,1.26-3.06,2.35-4.39,3.67-.97,.96-1.09,2.3-.73,3.69,.37,1.42,1.48,1.29,2.24,.53h0Z"/>
      <path class="cls-5" d="M93.97,195.6c1.6,1.1,3.07,2.22,4.65,3.15,1.16,.68,2.43,.46,3.57-.23,1.24-.75,1.25-1.63,.05-2.55-1.15,1.65-2.15,1.83-3.77,.69-.69-.49-1.4-.94-2.05-1.47-.5-.41-.91-.53-1.44-.07-.24,.2-.58,.29-1.02,.49h0Z"/>
      <path class="cls-5" d="M93.97,195.6c1.6,1.1,3.07,2.22,4.65,3.15,1.16,.68,2.43,.46,3.57-.23,1.24-.75,1.25-1.63,.05-2.55-1.15,1.65-2.15,1.83-3.77,.69-.69-.49-1.4-.94-2.05-1.47-.5-.41-.91-.53-1.44-.07-.24,.2-.58,.29-1.02,.49h0Z"/>
      <path class="cls-5" d="M80.59,203.6c.52-1.91,1.14-3.72,1.48-5.57,.26-1.37-.38-2.57-1.45-3.45-1.05-.86-1.75-.61-2.23,.81,.22,.08,.44,.16,.66,.25,1.05,.45,1.58,1.51,1.28,2.64-.28,1.04-.58,2.08-.91,3.11-.16,.52-.25,.95,.32,1.3,.3,.18,.5,.52,.85,.9h0Z"/>
      <path class="cls-5" d="M80.59,203.6c.52-1.91,1.14-3.72,1.48-5.57,.26-1.37-.38-2.57-1.45-3.45-1.05-.86-1.75-.61-2.23,.81,.22,.08,.44,.16,.66,.25,1.05,.45,1.58,1.51,1.28,2.64-.28,1.04-.58,2.08-.91,3.11-.16,.52-.25,.95,.32,1.3,.3,.18,.5,.52,.85,.9h0Z"/>
      <path class="cls-5" d="M101.82,213.79c-1.83-.61-2.32-1.54-1.78-3.4,.25-.88,.5-1.75,.78-2.62,.16-.49,.23-.9-.3-1.23-.3-.19-.5-.53-.84-.91-.44,1.51-.95,2.94-1.26,4.41-.18,.86-.24,1.83-.03,2.66,.18,.71,.75,1.37,1.27,1.93,.9,.97,1.81,.44,2.18-.85h0Z"/>
      <path class="cls-5" d="M101.82,213.79c-1.83-.61-2.32-1.54-1.78-3.4,.25-.88,.5-1.75,.78-2.62,.16-.49,.23-.9-.3-1.23-.3-.19-.5-.53-.84-.91-.44,1.51-.95,2.94-1.26,4.41-.18,.86-.24,1.83-.03,2.66,.18,.71,.75,1.37,1.27,1.93,.9,.97,1.81,.44,2.18-.85h0Z"/>
      <path class="cls-5" d="M98.41,199.65c.62,1.8,1.13,3.5,1.8,5.12,.58,1.39,1.75,2.09,3.23,2.21,1.35,.1,1.83-.56,1.41-1.99-.2,.06-.41,.13-.61,.18-1.18,.28-2.18-.23-2.62-1.39-.37-.98-.72-1.98-1.02-2.98-.17-.58-.37-.96-1.06-.89-.31,.03-.64-.13-1.13-.24h0Z"/>
      <path class="cls-5" d="M98.41,199.65c.62,1.8,1.13,3.5,1.8,5.12,.58,1.39,1.75,2.09,3.23,2.21,1.35,.1,1.83-.56,1.41-1.99-.2,.06-.41,.13-.61,.18-1.18,.28-2.18-.23-2.62-1.39-.37-.98-.72-1.98-1.02-2.98-.17-.58-.37-.96-1.06-.89-.31,.03-.64-.13-1.13-.24h0Z"/>
      <path class="cls-5" d="M75.38,204.21c1.94-.56,2.8-.1,3.43,1.8,.15,.46,.39,.9,.47,1.37,.24,1.39,.84,2.29,2.51,2.01-.64-1.76-1.19-3.61-2-5.34-.57-1.22-1.74-1.77-3.1-1.83-1.17-.05-1.7,.26-1.31,1.99h0Z"/>
      <path class="cls-5" d="M75.38,204.21c1.94-.56,2.8-.1,3.43,1.8,.15,.46,.39,.9,.47,1.37,.24,1.39,.84,2.29,2.51,2.01-.64-1.76-1.19-3.61-2-5.34-.57-1.22-1.74-1.77-3.1-1.83-1.17-.05-1.7,.26-1.31,1.99h0Z"/>
      <path class="cls-5" d="M89.29,213.46c-1.26-1.85-.71-4.49,1.23-5.88,.29-.21,.62-.39,.95-.54,2.32-1.05,3.61-3.53,3.1-5.99-.51-2.44-2.65-4.22-5.17-4.27-2.55-.05-4.67,1.68-5.34,4.37-.41,1.64-.3,3.22,.3,4.99-.15-.21-.32-.42-.46-.64-1.9-3.07-.88-7.09,2.25-8.89,3.12-1.79,7.12-.64,8.82,2.55,.41,.78,.66,1.59,.85,2.45,.16,.7,.66,1.31,1.02,1.96,.09,.16,.23,.3,.34,.46,.17,.24,.16,.47-.08,.67-.16,.13-.33,.25-.47,.4-.09,.1-.2,.31-.16,.36,.37,.47,.02,.71-.32,.98,.26,.31,.39,.58,.09,.96-.13,.16-.05,.55,.03,.81,.24,.78,.02,1.12-.79,1.15-.85,.03-1.72-.02-2.56,.12-1.97,.33-3.16,1.58-3.53,3.56-.03,.13-.06,.27-.1,.42h0Z"/>
      <path class="cls-5" d="M86.64,200.54c-.21-.13-.42-.26-.63-.39-.72,1.01-1.04,3.13,.51,4.8-.24,.15-.49,.3-.73,.45-1.53-1.59-1.72-4.5,0-6.38,.26,.16,.52,.32,.78,.48,.76,.47,1.53,.94,2.29,1.4,.07,.04,.1,.09,.1,.18,0,.76,0,1.52,0,2.28,0,.08-.02,.13-.1,.18-.21,.12-.42,.25-.63,.38-.03,.02-.07,.04-.12,.07v-.15c0-.75,0-1.51,0-2.26,0-.09-.03-.14-.11-.19-.21-.12-.41-.25-.63-.38-.45,.82-.45,1.62,0,2.44-.24,.14-.47,.29-.73,.45-.62-1.12-.61-2.22,0-3.33h0Z"/>
      <path class="cls-5" d="M92.79,204.27c.11-.23,.23-.47,.32-.71,.09-.26,.14-.54,.2-.81,.02-.08,.03-.11,.12-.11,.24,0,.49,0,.73,0-.02,.86-.5,2.05-1.19,2.76-.51-.31-1.03-.63-1.55-.95-.51-.31-1.02-.63-1.53-.93-.07-.04-.1-.08-.1-.17,0-.77,0-1.53,0-2.3,0-.05,.03-.11,.07-.14,1.02-.63,2.05-1.26,3.07-1.88,0,0,.01,0,.03-.02,.69,.79,1.09,1.71,1.19,2.76h-.85c-.08-.58-.25-1.13-.56-1.63-.18,.11-.35,.22-.53,.32-.5,.3-1,.61-1.5,.91-.06,.04-.09,.08-.09,.16,0,.45,0,.9,0,1.36,0,.04,.03,.11,.07,.13,.67,.41,1.34,.82,2.01,1.24,0,0,.02,0,.05,.01h0Z"/>
      <path class="cls-5" d="M86.42,198.42c.25,.15,.49,.3,.73,.45,.71,.43,1.41,.86,2.12,1.3,.06,.04,.11,.05,.18,.01,.94-.58,1.88-1.15,2.82-1.73,.01,0,.03-.02,.05-.04-1.76-1.4-4.32-1.29-5.89,0Zm1.7,.03c.84-.27,1.66-.27,2.5,0-.03,.02-.04,.04-.05,.04-.38,.23-.75,.46-1.13,.69-.03,.02-.1,.02-.14,0-.37-.22-.74-.45-1.1-.67-.02-.01-.04-.03-.07-.06Z"/>
      <path class="cls-5" d="M86.42,198.42c.25,.15,.49,.3,.73,.45,.71,.43,1.41,.86,2.12,1.3,.06,.04,.11,.05,.18,.01,.94-.58,1.88-1.15,2.82-1.73,.01,0,.03-.02,.05-.04-1.76-1.4-4.32-1.29-5.89,0Zm1.7,.03c.84-.27,1.66-.27,2.5,0-.03,.02-.04,.04-.05,.04-.38,.23-.75,.46-1.13,.69-.03,.02-.1,.02-.14,0-.37-.22-.74-.45-1.1-.67-.02-.01-.04-.03-.07-.06Z"/>
      <path class="cls-5" d="M86.42,206.01c1.76,1.4,4.31,1.29,5.9,0-.25-.15-.5-.3-.74-.46-.7-.43-1.41-.86-2.11-1.29-.06-.04-.11-.05-.18-.01-.93,.58-1.87,1.15-2.81,1.72-.02,.01-.03,.02-.06,.04Zm1.67-.04s.06-.03,.07-.03c.38-.23,.76-.47,1.15-.7,.03-.02,.1,0,.14,.01,.36,.22,.72,.44,1.08,.66,.03,.02,.05,.04,.08,.07-.84,.27-1.66,.27-2.52,0Z"/>
      <path class="cls-5" d="M86.42,206.01c1.76,1.4,4.31,1.29,5.9,0-.25-.15-.5-.3-.74-.46-.7-.43-1.41-.86-2.11-1.29-.06-.04-.11-.05-.18-.01-.93,.58-1.87,1.15-2.81,1.72-.02,.01-.03,.02-.06,.04Zm1.67-.04s.06-.03,.07-.03c.38-.23,.76-.47,1.15-.7,.03-.02,.1,0,.14,.01,.36,.22,.72,.44,1.08,.66,.03,.02,.05,.04,.08,.07-.84,.27-1.66,.27-2.52,0Z"/>
      <path class="cls-3" d="M61.88,204.43v.17c0,15.52,12.53,28.14,28.07,28.24h.36c15.43-.1,27.96-12.59,28.05-28.07,0-.06,0-.12,0-.18,0-15.52-12.53-28.14-28.07-28.23-.06,0-.12,0-.18,0-15.52,0-28.14,12.53-28.24,28.07Z"/>
      <path class="cls-3" d="M61.88,204.43v.17c0,15.52,12.53,28.14,28.07,28.24h.36c15.43-.1,27.96-12.59,28.05-28.07,0-.06,0-.12,0-.18,0-15.52-12.53-28.14-28.07-28.23-.06,0-.12,0-.18,0-15.52,0-28.14,12.53-28.24,28.07Z"/>
    </g>
  </g>
  <g>
    <path d="M287.77,270.15h-16.93v-64.17c-.37-.09-.73-.18-1.1-.27-1.88,5.76-3.78,11.51-5.62,17.28-4.59,14.44-9.28,28.86-13.63,43.37-.99,3.3-2.52,4.12-5.72,4.1-9.3-.07-9.28,.06-12.04-8.75-5.86-18.7-11.73-37.4-18.55-55.98v64.37h-17.06v-86.42c7.55,0,14.94-.22,22.3,.21,1.26,.07,2.87,2.73,3.44,4.48,5.92,18.18,11.66,36.41,17.46,54.63,.47,1.46,1.07,2.88,2.19,5.83,7.23-22.64,13.98-43.82,20.72-64.91h24.54v86.23Z"/>
    <path d="M547.54,208.71h-16c-4.3-9.92-9.7-13.62-18.21-12.07-4.47,.82-8.25,2.77-9.06,7.99-.85,5.48,1.99,8.74,6.67,10.37,5.96,2.08,12.1,3.64,18.16,5.42,14.48,4.24,21.74,12.28,22.2,24.59,.55,14.56-10.18,26.12-26.58,27.24-7.24,.49-14.95-.19-21.88-2.26-12.34-3.69-19.17-14.67-18.75-28.17,4.6,0,9.26-.23,13.86,.16,1.15,.1,2.7,2.04,3.1,3.42,3.3,11.39,16.62,16.81,26.36,9.99,2.65-1.86,4.5-5.99,5.11-9.37,.76-4.26-2.07-7.77-6.16-9.18-7.33-2.52-14.84-4.5-22.25-6.79-15.86-4.9-23.06-19.57-16.5-33.54,5.41-11.51,20.64-17.3,36.84-13.99,14.05,2.87,22.32,12.02,23.06,26.19Z"/>
    <path d="M455.66,213.64v-29.53h16.16v85.88h-14.92c-.12-1.77-.24-3.53-.35-5.07-4.37,2.14-8.58,5.18-13.24,6.31-15.79,3.81-29.8-4.3-34.89-19.81-3.49-10.61-2.76-21.03,2.55-31,7.18-13.48,27.71-21.94,44.7-6.78Zm1.69,24.87c-1.1-3.57-1.78-7.36-3.41-10.67-2.65-5.36-7.19-8.49-13.39-8.64-6.4-.16-11.1,2.78-14.26,8.2-6.11,10.49-2.46,25.35,7.27,29.87,11.51,5.35,23.22-4.03,23.79-18.77Z"/>
    <path d="M681.85,212.56c.24-1.88,.43-3.28,.64-4.96h16.42v62.36h-15.55c-.17-1.75-.34-3.46-.52-5.31-16.6,10.58-31.63,9.61-41.9-2.52-10.91-12.9-10.71-34.58,.45-47.04,10.29-11.49,25.18-12.55,40.45-2.53Zm-31.73,26.54c.06,11.01,6.49,19.06,15.54,19.46,8.55,.38,15.14-5.08,17.11-14.17,2.32-10.68-2.17-20.96-10.62-24.16-1.49-.56-3.12-.93-4.71-1-10.16-.44-17.39,7.9-17.32,19.88Z"/>
    <path d="M730.57,270.12h-16.88v-62.42h15.86c.15,1.96,.31,4.03,.52,6.72,1.42-1.07,2.51-1.87,3.56-2.7,7.83-6.14,16.57-7.78,26.09-5.12,7.45,2.08,13.1,8.94,13.31,17.4,.37,15.2,.1,30.41,.1,46h-16.29c0-3.77,0-7.67,0-11.58,0-8.7,.08-17.4-.03-26.09-.1-7.85-4.51-12.65-11.67-12.97-7.33-.33-14.15,5.32-14.37,12.6-.33,10.68-.16,21.38-.2,32.07,0,1.94,0,3.88,0,6.09Z"/>
    <path d="M351.53,270.15h-16.2v-62.48h15.65c.11,2.18,.22,4.28,.29,5.6,5.38-2.39,10.63-5.75,16.34-7.05,16.05-3.66,27.02,5.57,27.08,22.02,.05,13.77,0,27.54,0,41.73h-16.35c0-9.59,0-19.31,0-29.02,0-3.08,.18-6.18-.1-9.24-.72-7.76-4.98-12.07-11.87-12.34-6.94-.27-13.38,4.53-14.05,11.64-.79,8.45-.6,16.99-.77,25.49-.08,4.34-.01,8.68-.01,13.64Z"/>
    <path d="M623.57,230.16c-4.36,0-8.7,.17-13-.1-1.31-.08-2.99-1.06-3.75-2.16-4.92-7.16-10.33-9.96-17.12-8.52-6.81,1.43-12.9,8.06-13.08,16.12-.11,5.19,.76,11.05,3.18,15.53,5.67,10.49,20.9,10.53,26.07-.03,2.62-5.35,5.85-5.8,10.5-5.53,2.51,.14,5.03,.03,7.53,.03,.79,13.86-12.06,25.92-29.37,26.74-16.12,.76-33.89-8.11-35.29-31.78-.98-16.65,8.92-33.23,31.62-34.95,16.96-1.28,31.31,9.79,32.72,24.66Z"/>
    <path d="M303.95,207.46h16.01v62.59h-16.01v-62.59Z"/>
    <path d="M319.96,198.36h-16.04v-14.32h16.04v14.32Z"/>
  </g>
</svg>