<?xml version="1.0" encoding="UTF-8"?>
<svg id="Layer_1" data-name="Layer 1" xmlns="http://www.w3.org/2000/svg" viewBox="0 0 798 454">
  <defs>
    <style>
      .cls-1 {
        fill: #fc0;
      }
    </style>
  </defs>
  <rect class="cls-1" x="19.43" y="168.95" width="57.37" height="171.64" rx="28.68" ry="28.68"/>
  <rect class="cls-1" x="191.52" y="168.95" width="57.37" height="171.64" rx="28.68" ry="28.68"/>
  <rect class="cls-1" x="105.25" y="113.42" width="57.37" height="227.17" rx="28.68" ry="28.68"/>
  <g>
    <path d="M424.1,208.01v113.78h-15.11v-82.91l-38.09,82.91h-9.69l-38.26-82.91v82.91h-14.94v-113.78h15.27l42.85,93.26,42.69-93.26h15.27Z"/>
    <path d="M448.23,275.33v-68.79h28.08v68.79c0,6.9,1.7,12.21,5.09,15.93,3.39,3.72,8.37,5.58,14.94,5.58s11.6-1.86,15.11-5.58c3.5-3.72,5.25-9.03,5.25-15.93v-68.79h28.08v68.79c0,10.18-2.38,18.96-7.14,26.35-4.76,7.39-10.78,12.78-18.06,16.17-7.28,3.39-15.19,5.09-23.73,5.09-13.36,0-24.63-4.16-33.82-12.48-9.19-8.32-13.79-20.03-13.79-35.14Z"/>
    <path d="M607.82,227.06c-3.5,0-6.38,.93-8.62,2.79-2.24,1.86-3.37,4.54-3.37,8.05s1.04,6.32,3.12,8.46c2.08,2.13,4.79,3.78,8.13,4.92,3.34,1.15,7.06,2.24,11.16,3.28,4.1,1.04,8.18,2.3,12.23,3.78,4.05,1.48,7.74,3.31,11.08,5.5,3.34,2.19,6.05,5.28,8.13,9.28,2.08,4,3.12,8.78,3.12,14.37,0,9.74-3.97,18.09-11.9,25.04-7.94,6.95-18.39,10.43-31.36,10.43s-23.42-3.12-31.36-9.36c-7.94-6.24-11.9-15.1-11.9-26.6h29.88c.76,9.19,5.47,13.79,14.12,13.79,4.05,0,7.23-1.07,9.52-3.2,2.3-2.13,3.45-4.84,3.45-8.13s-1.04-5.96-3.12-8.05c-2.08-2.08-4.79-3.72-8.13-4.93-3.34-1.2-7.06-2.32-11.17-3.37-4.1-1.04-8.18-2.32-12.23-3.86-4.05-1.53-7.74-3.37-11.08-5.5-3.34-2.13-6.05-5.2-8.13-9.19-2.08-3.99-3.12-8.73-3.12-14.2,0-10.73,3.99-19.32,11.99-25.78,7.99-6.46,18.2-9.69,30.62-9.69s22.47,2.82,30.13,8.46c7.66,5.64,11.66,14.53,11.99,26.68h-30.54c-.44-4.16-1.78-7.36-4.02-9.61-2.24-2.24-5.12-3.37-8.62-3.37Z"/>
    <path d="M715.52,206.54c18.39,0,33.49,5.34,45.32,16.01,11.82,10.67,17.73,24.52,17.73,41.54s-5.91,30.9-17.73,41.62c-11.82,10.73-26.93,16.09-45.32,16.09h-40.55v-115.26h40.55Zm-12.48,93.92h12.48c10.73,0,19.15-3.28,25.28-9.85,6.13-6.57,9.2-15.38,9.2-26.43s-3.07-19.87-9.2-26.43c-6.13-6.57-14.56-9.85-25.28-9.85h-12.48v72.57Z"/>
  </g>
</svg>